<svg width="30" height="30" viewBox="0 0 30 30" fill="none" xmlns="http://www.w3.org/2000/svg">
<circle cx="15" cy="15" r="15" fill="#2BC8EB"/>
<path d="M13.4688 14.2578C14.6445 14.5859 15.2188 15.4883 15.2188 16.6914C15.2188 18.6602 13.5781 19.5078 11.8008 19.5078H7.125V9.82812H11.6914C13.332 9.82812 14.7812 10.293 14.7812 12.2344C14.7812 13.1914 14.3164 13.8203 13.4688 14.2578ZM9.23047 11.4688V13.7383H11.3906C12.1562 13.7383 12.7031 13.4102 12.7031 12.5898C12.7031 11.6875 12.0195 11.4688 11.2539 11.4688H9.23047ZM11.5273 17.8672C12.375 17.8672 13.0859 17.5664 13.0859 16.582C13.0859 15.5977 12.5117 15.1875 11.5547 15.1875H9.23047V17.8672H11.5273ZM21.3164 11.2773V10.3203H17.4062V11.2773H21.3164ZM22.875 16.1172C22.875 16.2266 22.8477 16.3633 22.8477 16.4727H17.7891C17.7891 17.5938 18.3906 18.25 19.5117 18.25C20.0859 18.25 20.8516 17.9492 21.043 17.3477H22.7383C22.2188 18.9336 21.125 19.6992 19.457 19.6992C17.2422 19.6992 15.8477 18.1953 15.8477 16.0078C15.8477 13.9023 17.2969 12.2891 19.457 12.2891C21.6445 12.2891 22.875 14.0391 22.875 16.1172ZM17.7891 15.2422H20.9336C20.8516 14.3125 20.3594 13.7656 19.375 13.7656C18.4727 13.7656 17.8438 14.3398 17.7891 15.2422Z" fill="#222627"/>
</svg>
