<svg width="30" height="30" viewBox="0 0 30 30" fill="none" xmlns="http://www.w3.org/2000/svg">
<circle cx="15" cy="15" r="15" fill="#2BC8EB"/>
<path d="M9.3125 9.5H20.6875C21.3984 9.5 22 10.1016 22 10.8125C22 11.25 21.7812 11.6328 21.4531 11.8789L15.5195 16.3359C15.1914 16.582 14.7812 16.582 14.4531 16.3359L8.51953 11.8789C8.19141 11.6328 8 11.25 8 10.8125C8 10.1016 8.57422 9.5 9.3125 9.5ZM8 12.5625L13.9336 17.0469C14.5625 17.5117 15.4102 17.5117 16.0391 17.0469L22 12.5625V18.25C22 19.2344 21.207 20 20.25 20H9.75C8.76562 20 8 19.2344 8 18.25V12.5625Z" fill="#222627"/>
</svg>
