<svg width="30" height="30" viewBox="0 0 30 30" fill="none" xmlns="http://www.w3.org/2000/svg">
<circle cx="15" cy="15" r="15" fill="#2BC8EB"/>
<path d="M15.5 11.6055C17.2227 11.6055 18.6445 13.0273 18.6445 14.75C18.6445 16.5 17.2227 17.8945 15.5 17.8945C13.75 17.8945 12.3555 16.5 12.3555 14.75C12.3555 13.0273 13.75 11.6055 15.5 11.6055ZM15.5 16.8008C16.6211 16.8008 17.5234 15.8984 17.5234 14.75C17.5234 13.6289 16.6211 12.7266 15.5 12.7266C14.3516 12.7266 13.4492 13.6289 13.4492 14.75C13.4492 15.8984 14.3789 16.8008 15.5 16.8008ZM19.4922 11.4961C19.4922 11.0859 19.1641 10.7578 18.7539 10.7578C18.3438 10.7578 18.0156 11.0859 18.0156 11.4961C18.0156 11.9062 18.3438 12.2344 18.7539 12.2344C19.1641 12.2344 19.4922 11.9062 19.4922 11.4961ZM21.5703 12.2344C21.625 13.2461 21.625 16.2812 21.5703 17.293C21.5156 18.2773 21.2969 19.125 20.5859 19.8633C19.875 20.5742 19 20.793 18.0156 20.8477C17.0039 20.9023 13.9688 20.9023 12.957 20.8477C11.9727 20.793 11.125 20.5742 10.3867 19.8633C9.67578 19.125 9.45703 18.2773 9.40234 17.293C9.34766 16.2812 9.34766 13.2461 9.40234 12.2344C9.45703 11.25 9.67578 10.375 10.3867 9.66406C11.125 8.95312 11.9727 8.73438 12.957 8.67969C13.9688 8.625 17.0039 8.625 18.0156 8.67969C19 8.73438 19.875 8.95312 20.5859 9.66406C21.2969 10.375 21.5156 11.25 21.5703 12.2344ZM20.2578 18.3594C20.5859 17.5664 20.5039 15.6523 20.5039 14.75C20.5039 13.875 20.5859 11.9609 20.2578 11.1406C20.0391 10.6211 19.6289 10.1836 19.1094 9.99219C18.2891 9.66406 16.375 9.74609 15.5 9.74609C14.5977 9.74609 12.6836 9.66406 11.8906 9.99219C11.3438 10.2109 10.9336 10.6211 10.7148 11.1406C10.3867 11.9609 10.4688 13.875 10.4688 14.75C10.4688 15.6523 10.3867 17.5664 10.7148 18.3594C10.9336 18.9062 11.3438 19.3164 11.8906 19.5352C12.6836 19.8633 14.5977 19.7812 15.5 19.7812C16.375 19.7812 18.2891 19.8633 19.1094 19.5352C19.6289 19.3164 20.0664 18.9062 20.2578 18.3594Z" fill="#222627"/>
</svg>
