<svg width="30" height="30" viewBox="0 0 30 30" fill="none" xmlns="http://www.w3.org/2000/svg">
<circle cx="15" cy="15" r="15" fill="#2BC8EB"/>
<path d="M12.4844 8.43359L13.5781 11.0586C13.7695 11.4961 13.6602 12.0156 13.2773 12.3164L11.9375 13.4375C12.8398 15.3516 14.3984 16.9102 16.3125 17.8125L17.4336 16.4727C17.7344 16.0898 18.2539 15.9805 18.6914 16.1719L21.3164 17.2656C21.8359 17.457 22.082 18.0312 21.9453 18.5508L21.2891 20.957C21.1523 21.4219 20.7422 21.75 20.25 21.75C13.4688 21.75 8 16.2812 8 9.5C8 9.00781 8.32812 8.59766 8.79297 8.46094L11.1992 7.80469C11.7188 7.66797 12.293 7.91406 12.4844 8.43359Z" fill="#222627"/>
</svg>
