<svg width="50" height="50" viewBox="0 0 50 50" fill="none" xmlns="http://www.w3.org/2000/svg">
<g clip-path="url(#clip0_1_9233)">
<path d="M44.6597 6.22559H42.2541C42.0888 5.79877 41.675 5.49473 41.1905 5.49473C40.7273 5.49473 40.5446 5.14048 40.4995 5.03187C40.4545 4.92327 40.3332 4.54351 40.6608 4.21608C40.8762 4.0006 40.995 3.71396 40.995 3.4091C40.995 3.10435 40.8763 2.81781 40.6608 2.60212L39.7294 1.67075C39.2844 1.22591 38.5606 1.22581 38.1155 1.67075C37.788 1.99838 37.4083 1.87712 37.2997 1.83208C37.1911 1.78714 36.8369 1.60435 36.8369 1.14109C36.8369 0.511942 36.3249 0 35.6958 0H34.3787C33.7495 0 33.2377 0.511942 33.2377 1.14109C33.2377 1.60435 32.8834 1.78714 32.7748 1.83208C32.6663 1.87702 32.2866 1.99828 31.9589 1.67054C31.5139 1.22591 30.79 1.22591 30.3452 1.67064L29.4137 2.60212C29.1983 2.81771 29.0796 3.10424 29.0796 3.409C29.0796 3.71386 29.1983 4.0004 29.4138 4.21588C29.7413 4.54341 29.6201 4.92317 29.5752 5.03177C29.5302 5.14037 29.3474 5.49462 28.8842 5.49462C28.3996 5.49462 27.9859 5.79857 27.8206 6.22549H6.81204C4.71002 6.22549 3 7.93561 3 10.0375V34.8534C3 36.9554 4.71012 38.6654 6.81204 38.6654H19.0131C18.9772 41.0172 18.4118 43.384 17.7773 44.8046H15.2191C13.7868 44.8046 12.6214 45.9698 12.6214 47.4022C12.6214 48.8346 13.7868 50 15.2191 50H35.4288C36.8612 50 38.0264 48.8347 38.0264 47.4023C38.0264 45.9699 36.8612 44.8047 35.4288 44.8047H32.8634C32.1989 43.3594 31.597 40.9845 31.5396 38.6655H43.8359C45.938 38.6655 47.6481 36.9554 47.6481 34.8535V9.21435C47.648 7.56628 46.3074 6.22559 44.6597 6.22559ZM29.1601 6.89513C29.932 6.8009 30.5784 6.31284 30.8843 5.57418C31.1902 4.83562 31.0784 4.03349 30.5991 3.42094L31.1639 2.85617C31.7764 3.33542 32.5785 3.44726 33.3171 3.14139C34.0557 2.83542 34.544 2.18917 34.6381 1.4171H35.4367C35.5309 2.18906 36.0191 2.83542 36.7576 3.14139C37.4962 3.44736 38.2984 3.33542 38.9109 2.85617L39.4756 3.42094C38.9964 4.03349 38.8845 4.83562 39.1905 5.57418C39.4964 6.31274 40.1426 6.8009 40.9147 6.89513V7.69371C40.1427 7.78794 39.4965 8.276 39.1905 9.01466C38.8845 9.75322 38.9964 10.5554 39.4756 11.1679L38.9109 11.7327C38.2984 11.2534 37.4963 11.1417 36.7576 11.4474C36.0191 11.7534 35.5309 12.3997 35.4367 13.1716H34.6382C34.5441 12.3989 34.0561 11.7523 33.3177 11.4464C32.5791 11.1405 31.7767 11.2527 31.1639 11.7327L30.5991 11.1679C31.0784 10.5553 31.1902 9.75322 30.8843 9.01466C30.5784 8.2761 29.932 7.78794 29.1601 7.69371V6.89513ZM6.81204 7.6426H27.7431V7.95292C27.7431 8.58207 28.255 9.09401 28.8842 9.09401C29.3474 9.09401 29.5301 9.44826 29.5752 9.55686C29.6202 9.66547 29.7414 10.0452 29.4138 10.3728C28.9689 10.8177 28.9689 11.5416 29.4138 11.9865L30.3452 12.9179C30.7901 13.3628 31.5139 13.3628 31.9589 12.9179C32.2874 12.5896 32.6668 12.7106 32.7752 12.7555C32.8837 12.8005 33.2377 12.9832 33.2377 13.4475C33.2377 14.0767 33.7495 14.5886 34.3787 14.5886H35.6958C36.3249 14.5886 36.8369 14.0767 36.8369 13.4475C36.8369 12.9843 37.1911 12.8016 37.2997 12.7566C37.4083 12.7116 37.7881 12.5903 38.1157 12.918C38.5608 13.3629 39.2846 13.3628 39.7295 12.9179L40.6609 11.9865C41.1058 11.5416 41.1058 10.8177 40.6609 10.3728C40.3333 10.0452 40.4546 9.66547 40.4995 9.55686C40.5445 9.44826 40.7273 9.09401 41.1905 9.09401C41.8197 9.09401 42.3316 8.58207 42.3316 7.95292V7.6426H44.6596C45.526 7.6426 46.2309 8.34766 46.2309 9.21435V31.0752H4.4169V10.0376C4.4169 8.71699 5.49139 7.6426 6.81204 7.6426ZM36.6094 47.4023C36.6094 48.0533 36.0798 48.583 35.4288 48.583H15.2191C14.5681 48.583 14.0384 48.0533 14.0384 47.4023C14.0384 46.7513 14.5681 46.2217 15.2191 46.2217H35.4288C36.0798 46.2217 36.6094 46.7513 36.6094 47.4023ZM31.3217 44.8047H19.3114C19.9736 43.0708 20.3981 40.7652 20.4299 38.6655H30.1225C30.1718 40.7405 30.6268 43.0475 31.3217 44.8047ZM43.8358 37.2485H6.81204C5.49139 37.2485 4.417 36.1741 4.417 34.8535V32.4921H46.231V34.8535C46.231 36.1741 45.1565 37.2485 43.8358 37.2485ZM27.7387 34.8704C27.7387 35.2617 27.4215 35.5789 27.0302 35.5789H23.6177C23.2264 35.5789 22.9092 35.2617 22.9092 34.8704C22.9092 34.4791 23.2264 34.1619 23.6177 34.1619H27.0302C27.4215 34.1619 27.7387 34.479 27.7387 34.8704ZM35.0374 11.1672C37.1729 11.1672 38.9103 9.42984 38.9103 7.29442C38.9103 5.1589 37.1729 3.42155 35.0374 3.42155C32.9019 3.42155 31.1646 5.1589 31.1646 7.29442C31.1646 9.42984 32.9019 11.1672 35.0374 11.1672ZM35.0374 4.83855C36.3915 4.83855 37.4933 5.94027 37.4933 7.29442C37.4933 8.64857 36.3915 9.75018 35.0374 9.75018C33.6832 9.75018 32.5816 8.64857 32.5816 7.29442C32.5816 5.94027 33.6832 4.83855 35.0374 4.83855ZM9.1756 21.5247C9.6926 21.5247 10.1197 21.8106 10.3181 22.2895C10.5165 22.7685 10.4167 23.2727 10.0512 23.6383C9.80829 23.8812 9.67438 24.2042 9.67438 24.5479C9.67438 24.8916 9.80818 25.2145 10.0511 25.4574L11.295 26.7014C11.7965 27.2029 12.6126 27.2029 13.1142 26.7014C13.4805 26.3351 13.985 26.2348 14.4634 26.433C14.9421 26.6312 15.2278 27.0589 15.2278 27.5769C15.2278 28.2861 15.8048 28.8631 16.514 28.8631H18.273C18.9823 28.8631 19.5593 28.2861 19.5593 27.5769C19.5593 27.0599 19.8452 26.6327 20.3242 26.4344C20.8031 26.2361 21.3074 26.3358 21.6728 26.7013C21.9158 26.9442 22.2387 27.0781 22.5825 27.0781C22.9261 27.0781 23.249 26.9443 23.492 26.7014L24.7358 25.4574C24.9787 25.2145 25.1126 24.8916 25.1126 24.5479C25.1126 24.2042 24.9788 23.8812 24.7359 23.6384C24.3703 23.2728 24.2705 22.7686 24.4689 22.2896C24.6673 21.8107 25.0944 21.5248 25.6114 21.5248C26.3206 21.5248 26.8976 20.9477 26.8976 20.2385V18.4795C26.8976 17.7703 26.3206 17.1933 25.6114 17.1933C25.0944 17.1933 24.6673 16.9074 24.4689 16.4284C24.2705 15.9495 24.3703 15.4452 24.7359 15.0796C25.2374 14.5781 25.2374 13.7621 24.7359 13.2605L23.492 12.0166C22.9904 11.5152 22.1744 11.5152 21.6729 12.0166C21.3074 12.3821 20.8033 12.482 20.3242 12.2836C19.8453 12.0852 19.5593 11.6581 19.5593 11.1412C19.5593 10.432 18.9823 9.85494 18.273 9.85494H16.514C15.8048 9.85494 15.2278 10.432 15.2278 11.1412C15.2278 11.6581 14.9419 12.0852 14.4629 12.2836C13.984 12.482 13.4797 12.3823 13.114 12.0166C12.6125 11.5153 11.7965 11.5152 11.295 12.0166L10.0511 13.2605C9.54958 13.7621 9.54968 14.5781 10.0511 15.0796C10.4167 15.4452 10.5165 15.9494 10.3181 16.4283C10.1197 16.9073 9.6926 17.1933 9.1756 17.1933C8.46639 17.1933 7.88936 17.7703 7.88936 18.4795V20.2385C7.88936 20.9476 8.46639 21.5247 9.1756 21.5247ZM9.30636 18.607C10.3434 18.5591 11.2252 17.9412 11.6272 16.9704C12.0293 15.9996 11.8427 14.9392 11.1434 14.172L12.2067 13.1087C12.9739 13.8081 14.0343 13.9946 15.0051 13.5926C15.9759 13.1905 16.5937 12.3087 16.6417 11.2717H18.1453C18.1933 12.3088 18.8111 13.1905 19.7818 13.5926C20.7526 13.9946 21.813 13.8081 22.5803 13.1087L23.6436 14.172C22.9442 14.9392 22.7577 15.9996 23.1598 16.9704C23.5619 17.9413 24.4436 18.5591 25.4806 18.607V20.1106C24.4436 20.1586 23.5619 20.7764 23.1598 21.7471C22.7577 22.718 22.9442 23.7783 23.6436 24.5456L22.5803 25.609C21.8131 24.9096 20.7527 24.7229 19.7819 25.1252C18.8111 25.5273 18.1933 26.409 18.1453 27.446H16.6418C16.5939 26.4079 15.9762 25.5258 15.0056 25.1237C14.0352 24.7217 12.9746 24.9088 12.2067 25.609L11.1434 24.5456C11.8428 23.7784 12.0293 22.718 11.6272 21.7471C11.2251 20.7764 10.3434 20.1586 9.30636 20.1106V18.607ZM17.3936 24.2935C20.1145 24.2935 22.3282 22.0798 22.3282 19.3589C22.3282 16.6379 20.1145 14.4243 17.3936 14.4243C14.6726 14.4243 12.459 16.6379 12.459 19.3589C12.459 22.0798 14.6726 24.2935 17.3936 24.2935ZM17.3936 15.8413C19.3333 15.8413 20.9112 17.4192 20.9112 19.3589C20.9112 21.2985 19.3333 22.8765 17.3936 22.8765C15.4539 22.8765 13.876 21.2985 13.876 19.3589C13.876 17.4192 15.4539 15.8413 17.3936 15.8413ZM29.1682 28.1545C29.1682 27.7632 29.4854 27.446 29.8767 27.446H36.5643C36.9556 27.446 37.2728 27.7632 37.2728 28.1545C37.2728 28.5458 36.9556 28.863 36.5643 28.863H29.8767C29.4854 28.863 29.1682 28.5458 29.1682 28.1545ZM29.1682 19.3589C29.1682 18.9676 29.4854 18.6504 29.8767 18.6504H43.252C43.6433 18.6504 43.9605 18.9676 43.9605 19.3589C43.9605 19.7502 43.6433 20.0674 43.252 20.0674H29.8767C29.4854 20.0674 29.1682 19.7502 29.1682 19.3589ZM29.1682 23.7566C29.1682 23.3653 29.4854 23.0481 29.8767 23.0481H43.252C43.6433 23.0481 43.9605 23.3653 43.9605 23.7566C43.9605 24.1479 43.6433 24.4651 43.252 24.4651H29.8767C29.4854 24.4651 29.1682 24.148 29.1682 23.7566Z" fill="white"/>
</g>
<defs>
<clipPath id="clip0_1_9233">
<rect width="50" height="50" fill="white"/>
</clipPath>
</defs>
</svg>
