<svg width="45" height="50" viewBox="0 0 45 50" fill="none" xmlns="http://www.w3.org/2000/svg">
<path d="M41.6597 6.2256H39.2541C39.0888 5.79877 38.675 5.49473 38.1905 5.49473C37.7273 5.49473 37.5446 5.14048 37.4995 5.03187C37.4545 4.92327 37.3332 4.54351 37.6608 4.21608C37.8762 4.0006 37.995 3.71396 37.995 3.4091C37.995 3.10435 37.8763 2.81781 37.6608 2.60212L36.7294 1.67075C36.2844 1.22591 35.5606 1.22581 35.1155 1.67075C34.788 1.99838 34.4083 1.87712 34.2997 1.83208C34.1911 1.78714 33.8369 1.60435 33.8369 1.14109C33.8369 0.511942 33.3249 0 32.6958 0H31.3787C30.7495 0 30.2377 0.511942 30.2377 1.14109C30.2377 1.60435 29.8834 1.78714 29.7748 1.83208C29.6663 1.87702 29.2866 1.99828 28.9589 1.67054C28.5139 1.22591 27.79 1.22591 27.3452 1.67064L26.4137 2.60212C26.1983 2.81771 26.0796 3.10424 26.0796 3.409C26.0796 3.71386 26.1983 4.0004 26.4138 4.21588C26.7413 4.54341 26.6201 4.92317 26.5752 5.03177C26.5302 5.14037 26.3474 5.49462 25.8842 5.49462C25.3996 5.49462 24.9859 5.79857 24.8206 6.22549H3.81204C1.71002 6.22549 0 7.93561 0 10.0375V34.8534C0 36.9554 1.71012 38.6654 3.81204 38.6654H16.0131C15.9772 41.0172 15.4118 43.384 14.7773 44.8046H12.2191C10.7868 44.8046 9.62144 45.9698 9.62144 47.4022C9.62144 48.8346 10.7868 50 12.2191 50H32.4288C33.8612 50 35.0264 48.8347 35.0264 47.4023C35.0264 45.9699 33.8612 44.8047 32.4288 44.8047H29.8634C29.1989 43.3594 28.597 40.9845 28.5396 38.6655H40.8359C42.938 38.6655 44.6481 36.9554 44.6481 34.8535V9.21435C44.648 7.56628 43.3074 6.2256 41.6597 6.2256ZM26.1601 6.89513C26.932 6.8009 27.5784 6.31284 27.8843 5.57418C28.1902 4.83562 28.0784 4.03349 27.5991 3.42094L28.1639 2.85617C28.7764 3.33542 29.5785 3.44726 30.3171 3.14139C31.0557 2.83542 31.544 2.18917 31.6381 1.4171H32.4367C32.5309 2.18906 33.0191 2.83542 33.7576 3.14139C34.4962 3.44736 35.2984 3.33542 35.9109 2.85617L36.4756 3.42094C35.9964 4.03349 35.8845 4.83562 36.1905 5.57418C36.4964 6.31274 37.1426 6.8009 37.9147 6.89513V7.69371C37.1427 7.78794 36.4965 8.276 36.1905 9.01466C35.8845 9.75322 35.9964 10.5554 36.4756 11.1679L35.9109 11.7327C35.2984 11.2534 34.4963 11.1417 33.7576 11.4474C33.0191 11.7534 32.5309 12.3997 32.4367 13.1716H31.6382C31.5441 12.3989 31.0561 11.7523 30.3177 11.4464C29.5791 11.1405 28.7767 11.2527 28.1639 11.7327L27.5991 11.1679C28.0784 10.5553 28.1902 9.75322 27.8843 9.01466C27.5784 8.2761 26.932 7.78794 26.1601 7.69371V6.89513ZM3.81204 7.6426H24.7431V7.95292C24.7431 8.58207 25.255 9.09401 25.8842 9.09401C26.3474 9.09401 26.5301 9.44826 26.5752 9.55686C26.6202 9.66547 26.7414 10.0452 26.4138 10.3728C25.9689 10.8177 25.9689 11.5416 26.4138 11.9865L27.3452 12.9179C27.7901 13.3628 28.5139 13.3628 28.9589 12.9179C29.2874 12.5896 29.6668 12.7106 29.7752 12.7555C29.8837 12.8005 30.2377 12.9832 30.2377 13.4475C30.2377 14.0767 30.7495 14.5886 31.3787 14.5886H32.6958C33.3249 14.5886 33.8369 14.0767 33.8369 13.4475C33.8369 12.9843 34.1911 12.8016 34.2997 12.7566C34.4083 12.7116 34.7881 12.5903 35.1157 12.918C35.5608 13.3629 36.2846 13.3628 36.7295 12.9179L37.6609 11.9865C38.1058 11.5416 38.1058 10.8177 37.6609 10.3728C37.3333 10.0452 37.4546 9.66547 37.4995 9.55686C37.5445 9.44826 37.7273 9.09401 38.1905 9.09401C38.8197 9.09401 39.3316 8.58207 39.3316 7.95292V7.6426H41.6596C42.526 7.6426 43.2309 8.34766 43.2309 9.21435V31.0752H1.4169V10.0376C1.4169 8.71699 2.49139 7.6426 3.81204 7.6426ZM33.6094 47.4023C33.6094 48.0533 33.0798 48.583 32.4288 48.583H12.2191C11.5681 48.583 11.0384 48.0533 11.0384 47.4023C11.0384 46.7513 11.5681 46.2217 12.2191 46.2217H32.4288C33.0798 46.2217 33.6094 46.7513 33.6094 47.4023ZM28.3217 44.8047H16.3114C16.9736 43.0708 17.3981 40.7652 17.4299 38.6655H27.1225C27.1718 40.7405 27.6268 43.0475 28.3217 44.8047ZM40.8359 37.2485H3.81204C2.49139 37.2485 1.417 36.1741 1.417 34.8535V32.4921H43.231V34.8535C43.231 36.1741 42.1565 37.2485 40.8359 37.2485ZM24.7387 34.8704C24.7387 35.2617 24.4215 35.5789 24.0302 35.5789H20.6177C20.2264 35.5789 19.9092 35.2617 19.9092 34.8704C19.9092 34.4791 20.2264 34.1619 20.6177 34.1619H24.0302C24.4215 34.1619 24.7387 34.479 24.7387 34.8704ZM32.0374 11.1672C34.1729 11.1672 35.9103 9.42984 35.9103 7.29442C35.9103 5.1589 34.1729 3.42155 32.0374 3.42155C29.9019 3.42155 28.1646 5.1589 28.1646 7.29442C28.1646 9.42984 29.9019 11.1672 32.0374 11.1672ZM32.0374 4.83855C33.3915 4.83855 34.4933 5.94027 34.4933 7.29442C34.4933 8.64857 33.3915 9.75018 32.0374 9.75018C30.6832 9.75018 29.5816 8.64857 29.5816 7.29442C29.5816 5.94027 30.6832 4.83855 32.0374 4.83855ZM6.1756 21.5247C6.6926 21.5247 7.11972 21.8106 7.3181 22.2895C7.51648 22.7685 7.41669 23.2727 7.0512 23.6383C6.80829 23.8812 6.67438 24.2042 6.67438 24.5479C6.67438 24.8916 6.80818 25.2145 7.0511 25.4574L8.29502 26.7014C8.79654 27.2029 9.61263 27.2029 10.1142 26.7014C10.4805 26.3351 10.985 26.2348 11.4634 26.433C11.9421 26.6312 12.2278 27.0589 12.2278 27.5769C12.2278 28.2861 12.8048 28.8631 13.514 28.8631H15.273C15.9823 28.8631 16.5593 28.2861 16.5593 27.5769C16.5593 27.0599 16.8452 26.6327 17.3242 26.4344C17.8031 26.2361 18.3074 26.3358 18.6728 26.7013C18.9158 26.9442 19.2387 27.0781 19.5825 27.0781C19.9261 27.0781 20.249 26.9443 20.492 26.7014L21.7358 25.4574C21.9787 25.2145 22.1126 24.8916 22.1126 24.5479C22.1126 24.2042 21.9788 23.8812 21.7359 23.6384C21.3703 23.2728 21.2705 22.7686 21.4689 22.2896C21.6673 21.8107 22.0944 21.5248 22.6114 21.5248C23.3206 21.5248 23.8976 20.9477 23.8976 20.2385V18.4795C23.8976 17.7703 23.3206 17.1933 22.6114 17.1933C22.0944 17.1933 21.6673 16.9074 21.4689 16.4284C21.2705 15.9495 21.3703 15.4452 21.7359 15.0796C22.2374 14.5781 22.2374 13.7621 21.7359 13.2605L20.492 12.0166C19.9904 11.5152 19.1744 11.5152 18.6729 12.0166C18.3074 12.3821 17.8033 12.482 17.3242 12.2836C16.8453 12.0852 16.5593 11.6581 16.5593 11.1412C16.5593 10.432 15.9823 9.85494 15.273 9.85494H13.514C12.8048 9.85494 12.2278 10.432 12.2278 11.1412C12.2278 11.6581 11.9419 12.0852 11.4629 12.2836C10.984 12.482 10.4797 12.3823 10.114 12.0166C9.61253 11.5153 8.79654 11.5152 8.29502 12.0166L7.0511 13.2605C6.54958 13.7621 6.54968 14.5781 7.0511 15.0796C7.41668 15.4452 7.51648 15.9494 7.3181 16.4283C7.11972 16.9073 6.6926 17.1933 6.1756 17.1933C5.46639 17.1933 4.88936 17.7703 4.88936 18.4795V20.2385C4.88936 20.9476 5.46639 21.5247 6.1756 21.5247ZM6.30636 18.607C7.34341 18.5591 8.22519 17.9412 8.62721 16.9704C9.02933 15.9996 8.84269 14.9392 8.1434 14.172L9.20666 13.1087C9.97387 13.8081 11.0343 13.9946 12.0051 13.5926C12.9759 13.1905 13.5937 12.3087 13.6417 11.2717H15.1453C15.1933 12.3088 15.8111 13.1905 16.7818 13.5926C17.7526 13.9946 18.813 13.8081 19.5803 13.1087L20.6436 14.172C19.9442 14.9392 19.7577 15.9996 20.1598 16.9704C20.5619 17.9413 21.4436 18.5591 22.4806 18.607V20.1106C21.4436 20.1586 20.5619 20.7764 20.1598 21.7471C19.7577 22.718 19.9442 23.7783 20.6436 24.5456L19.5803 25.609C18.8131 24.9096 17.7527 24.7229 16.782 25.1252C15.8111 25.5273 15.1933 26.409 15.1453 27.446H13.6418C13.5939 26.4079 12.9762 25.5258 12.0056 25.1237C11.0352 24.7217 9.97458 24.9088 9.20666 25.609L8.1434 24.5456C8.8428 23.7784 9.02933 22.718 8.62721 21.7471C8.22508 20.7764 7.34341 20.1586 6.30636 20.1106V18.607ZM14.3936 24.2935C17.1145 24.2935 19.3282 22.0798 19.3282 19.3589C19.3282 16.6379 17.1145 14.4243 14.3936 14.4243C11.6726 14.4243 9.45899 16.6379 9.45899 19.3589C9.45899 22.0798 11.6726 24.2935 14.3936 24.2935ZM14.3936 15.8413C16.3333 15.8413 17.9112 17.4192 17.9112 19.3589C17.9112 21.2985 16.3333 22.8765 14.3936 22.8765C12.4539 22.8765 10.876 21.2985 10.876 19.3589C10.876 17.4192 12.4539 15.8413 14.3936 15.8413ZM26.1682 28.1545C26.1682 27.7632 26.4854 27.446 26.8767 27.446H33.5643C33.9556 27.446 34.2728 27.7632 34.2728 28.1545C34.2728 28.5458 33.9556 28.863 33.5643 28.863H26.8767C26.4854 28.863 26.1682 28.5458 26.1682 28.1545ZM26.1682 19.3589C26.1682 18.9676 26.4854 18.6504 26.8767 18.6504H40.252C40.6433 18.6504 40.9605 18.9676 40.9605 19.3589C40.9605 19.7502 40.6433 20.0674 40.252 20.0674H26.8767C26.4854 20.0674 26.1682 19.7502 26.1682 19.3589ZM26.1682 23.7566C26.1682 23.3653 26.4854 23.0481 26.8767 23.0481H40.252C40.6433 23.0481 40.9605 23.3653 40.9605 23.7566C40.9605 24.1479 40.6433 24.4651 40.252 24.4651H26.8767C26.4854 24.4651 26.1682 24.148 26.1682 23.7566Z" fill="#222627"/>
</svg>
