<svg width="52" height="48" viewBox="0 0 52 48" fill="none" xmlns="http://www.w3.org/2000/svg">
<path d="M25.8084 34.9201C25.9328 34.9614 26.0672 34.9614 26.1916 34.9201C32.2687 32.9073 35.9112 29.6198 37.6558 24.5742C39.2362 20.0021 39.2025 14.1548 39.1756 9.45641C39.1748 9.31036 39.1215 9.16945 39.0256 9.05935C38.9296 8.94926 38.7972 8.8773 38.6527 8.85659C34.1721 8.21278 29.9389 6.40466 26.3758 3.61281C26.2685 3.5288 26.1362 3.48315 26 3.48315C25.8638 3.48315 25.7315 3.5288 25.6242 3.61281C22.0612 6.40484 17.828 8.21311 13.3473 8.85699C13.2028 8.87771 13.0704 8.94966 12.9744 9.05976C12.8785 9.16985 12.8252 9.31076 12.8244 9.45682C12.7975 14.1552 12.7635 20.0029 14.3443 24.5746C16.0884 29.6197 19.7313 32.907 25.8084 34.9201ZM14.0403 9.98332C18.3837 9.27261 22.4885 7.51464 26 4.86142C29.5115 7.51462 33.6163 9.27259 37.9597 9.98332C37.9836 14.4947 37.9597 19.964 36.5039 24.1761C34.9121 28.7806 31.5717 31.8106 26 33.6992C20.4283 31.8107 17.0879 28.7807 15.4962 24.1763C14.0402 19.9643 14.0164 14.4948 14.0403 9.98332ZM51.3906 39.9379H50.4517V12.5336C50.451 11.9674 50.2259 11.4247 49.8255 11.0244C49.4252 10.6241 48.8825 10.3989 48.3163 10.3983H41.4517C41.4517 9.91561 41.451 9.43069 41.4497 8.94352C41.4485 8.43199 41.4478 7.91815 41.4476 7.40201C41.4475 7.24686 41.3883 7.09756 41.282 6.98455C41.1757 6.87154 41.0303 6.80334 40.8755 6.79385C35.4951 6.45762 30.3915 4.29173 26.4115 0.655617C26.2992 0.552845 26.1525 0.49585 26.0002 0.49585C25.848 0.49585 25.7012 0.552845 25.5889 0.655617C21.6088 4.29169 16.505 6.45747 11.1245 6.79355C10.9697 6.80304 10.8243 6.87124 10.718 6.98425C10.6117 7.09725 10.5525 7.24655 10.5524 7.4017C10.5524 7.91771 10.5517 8.43158 10.5503 8.94332C10.5493 9.43082 10.5487 9.91571 10.5484 10.398H3.68367C3.1175 10.3986 2.57469 10.6238 2.17436 11.0242C1.77403 11.4246 1.54888 11.9674 1.54832 12.5336V39.9382H0.609375C0.447759 39.9382 0.292762 40.0024 0.178482 40.1166C0.0642018 40.2309 0 40.3859 0 40.5475L0 43.7214C0.00112901 44.7244 0.400078 45.686 1.10932 46.3953C1.81857 47.1045 2.78018 47.5034 3.7832 47.5046H48.2168C49.2199 47.5034 50.1815 47.1045 50.8908 46.3951C51.6 45.6858 51.999 44.7241 52 43.7211V40.5472C52 40.3856 51.9358 40.2306 51.8215 40.1163C51.7072 40.0021 51.5522 39.9379 51.3906 39.9379ZM49.2329 12.5336V39.9382H47.7501V13.7091C47.7501 13.5475 47.6859 13.3925 47.5716 13.2782C47.4574 13.164 47.3024 13.0998 47.1407 13.0998H41.436C41.4427 12.6085 41.4472 12.1142 41.4493 11.617H48.3163C48.5594 11.6172 48.7924 11.7138 48.9642 11.8857C49.136 12.0575 49.2327 12.2905 49.2329 12.5336ZM5.46884 39.9379V14.3185H10.5876C10.6953 18.5161 11.0821 22.4596 12.4173 25.9479C13.4431 28.6285 14.9395 30.8187 16.9909 32.6433C19.2546 34.657 22.1428 36.1859 25.8202 37.3178C25.937 37.3538 26.062 37.3538 26.1788 37.3178C29.8562 36.1859 32.7443 34.6568 35.0081 32.6433C37.0596 30.8187 38.5556 28.6285 39.5815 25.9478C40.9169 22.4595 41.3036 18.5161 41.4114 14.3189H46.5307V39.9379H5.46884ZM34.6226 41.1566L33.9358 43.2702H18.0643L17.3773 41.1566H34.6226ZM11.7691 8.94586C11.7698 8.62086 11.7704 8.29495 11.7708 7.96812C17.0358 7.51647 22.0199 5.39895 26 1.92281C29.98 5.39891 34.964 7.51643 40.2289 7.96812C40.2289 8.29495 40.2295 8.62083 40.2306 8.94576C40.2559 21.1065 40.2779 31.6157 25.9997 36.0972C11.7218 31.6158 11.7437 21.1065 11.7691 8.94586ZM2.76707 12.5336C2.76734 12.2906 2.864 12.0576 3.03584 11.8858C3.20768 11.7139 3.44067 11.6173 3.68367 11.6171H10.5507C10.553 12.1143 10.5574 12.6086 10.564 13.0999H4.85946C4.69784 13.0999 4.54285 13.1641 4.42857 13.2784C4.31429 13.3926 4.25009 13.5476 4.25009 13.7092V39.9379H2.76727L2.76707 12.5336ZM50.7812 43.7211C50.7805 44.401 50.5101 45.0528 50.0293 45.5336C49.5485 46.0143 48.8967 46.2848 48.2168 46.2855H3.7832C3.1033 46.2848 2.45146 46.0143 1.97069 45.5336C1.48993 45.0528 1.2195 44.401 1.21875 43.7211V41.1566H16.096L17.042 44.068C17.0818 44.1904 17.1593 44.297 17.2634 44.3726C17.3675 44.4482 17.4928 44.489 17.6215 44.489H34.3789C34.5076 44.489 34.633 44.4482 34.7371 44.3726C34.8412 44.2969 34.9187 44.1903 34.9584 44.0679L35.9043 41.1566H50.7812V43.7211ZM5.26652 43.7211C5.2668 43.801 5.25132 43.8801 5.22095 43.954C5.19059 44.0279 5.14594 44.0951 5.08957 44.1517C5.03319 44.2083 4.9662 44.2532 4.89244 44.2839C4.81867 44.3146 4.73958 44.3304 4.65969 44.3304H4.65461C4.5342 44.3299 4.41663 44.2938 4.31675 44.2265C4.21688 44.1592 4.13917 44.0639 4.09343 43.9525C4.0477 43.8411 4.03599 43.7187 4.05979 43.6006C4.08359 43.4826 4.14183 43.3742 4.22715 43.2893C4.31247 43.2043 4.42106 43.1465 4.5392 43.1232C4.65733 43.0999 4.77973 43.1121 4.89093 43.1583C5.00213 43.2045 5.09715 43.2826 5.164 43.3828C5.23085 43.4829 5.26652 43.6006 5.26652 43.7211ZM7.07698 43.7211C7.07726 43.8009 7.06177 43.8801 7.03141 43.954C7.00106 44.0279 6.95642 44.095 6.90005 44.1516C6.84369 44.2083 6.77672 44.2532 6.70296 44.2839C6.62921 44.3145 6.55012 44.3304 6.47024 44.3304H6.46506C6.34465 44.3299 6.22708 44.2938 6.12721 44.2265C6.02733 44.1592 5.94962 44.0639 5.90389 43.9525C5.85815 43.8411 5.84645 43.7187 5.87025 43.6006C5.89405 43.4826 5.95228 43.3742 6.03761 43.2893C6.12293 43.2043 6.23151 43.1465 6.34965 43.1232C6.46779 43.0999 6.59018 43.1121 6.70138 43.1583C6.81258 43.2045 6.9076 43.2826 6.97445 43.3828C7.0413 43.4829 7.07698 43.6006 7.07698 43.7211ZM8.88743 43.7211C8.88771 43.8009 8.87223 43.8801 8.84187 43.954C8.81151 44.0279 8.76687 44.095 8.71051 44.1516C8.65415 44.2083 8.58717 44.2532 8.51341 44.2839C8.43966 44.3145 8.36058 44.3304 8.2807 44.3304H8.27552C8.1551 44.3299 8.03754 44.2938 7.93766 44.2265C7.83778 44.1592 7.76007 44.0639 7.71434 43.9525C7.66861 43.8411 7.6569 43.7187 7.6807 43.6006C7.7045 43.4826 7.76274 43.3742 7.84806 43.2893C7.93338 43.2043 8.04196 43.1465 8.1601 43.1232C8.27824 43.0999 8.40063 43.1121 8.51184 43.1583C8.62304 43.2045 8.71806 43.2826 8.78491 43.3828C8.85175 43.4829 8.88743 43.6006 8.88743 43.7211ZM12.5162 43.7211C12.5164 43.8417 12.4809 43.9598 12.4141 44.0603C12.3474 44.1608 12.2523 44.2393 12.141 44.2858C12.0296 44.3324 11.907 44.3449 11.7885 44.3218C11.6701 44.2987 11.5612 44.241 11.4755 44.156C11.3898 44.0711 11.3312 43.9626 11.3071 43.8444C11.283 43.7261 11.2944 43.6034 11.34 43.4916C11.3856 43.3799 11.4633 43.2842 11.5632 43.2166C11.6632 43.1489 11.7809 43.1125 11.9016 43.1117H11.9068C12.0684 43.1117 12.2234 43.1759 12.3377 43.2902C12.452 43.4045 12.5162 43.5594 12.5162 43.7211ZM10.7057 43.7211C10.706 43.8417 10.6705 43.9598 10.6037 44.0603C10.5369 44.1608 10.4419 44.2393 10.3305 44.2858C10.2192 44.3324 10.0965 44.3449 9.97809 44.3218C9.85965 44.2987 9.7507 44.241 9.66501 44.156C9.57932 44.0711 9.52073 43.9626 9.49662 43.8444C9.47252 43.7261 9.48398 43.6034 9.52957 43.4916C9.57517 43.3799 9.65284 43.2842 9.75279 43.2166C9.85273 43.1489 9.97048 43.1125 10.0911 43.1117H10.0963C10.2579 43.1117 10.4129 43.1759 10.5272 43.2902C10.6415 43.4045 10.7057 43.5594 10.7057 43.7211ZM39.4838 43.7211C39.4836 43.6004 39.5191 43.4823 39.5859 43.3818C39.6526 43.2813 39.7477 43.2028 39.8591 43.1563C39.9704 43.1098 40.093 43.0973 40.2115 43.1204C40.3299 43.1435 40.4389 43.2012 40.5246 43.2861C40.6103 43.3711 40.6688 43.4796 40.6929 43.5978C40.717 43.7161 40.7056 43.8388 40.6599 43.9505C40.6143 44.0623 40.5366 44.158 40.4367 44.2256C40.3367 44.2932 40.219 44.3297 40.0983 44.3304H40.0932C39.9316 44.3304 39.7766 44.2662 39.6623 44.152C39.548 44.0377 39.4838 43.8827 39.4838 43.7211ZM41.2943 43.7211C41.294 43.6004 41.3295 43.4823 41.3963 43.3818C41.4631 43.2813 41.5581 43.2028 41.6695 43.1563C41.7808 43.1098 41.9035 43.0973 42.0219 43.1204C42.1404 43.1435 42.2493 43.2011 42.335 43.2861C42.4207 43.3711 42.4793 43.4795 42.5034 43.5978C42.5275 43.716 42.516 43.8387 42.4704 43.9505C42.4248 44.0622 42.3472 44.1579 42.2472 44.2256C42.1473 44.2932 42.0295 44.3297 41.9089 44.3304H41.9037C41.7421 44.3304 41.5871 44.2662 41.4728 44.152C41.3585 44.0377 41.2943 43.8827 41.2943 43.7211ZM43.1047 43.7211C43.1045 43.6004 43.14 43.4823 43.2068 43.3818C43.2735 43.2813 43.3686 43.2028 43.4799 43.1563C43.5913 43.1098 43.7139 43.0973 43.8324 43.1204C43.9508 43.1435 44.0597 43.2011 44.1454 43.2861C44.2311 43.3711 44.2897 43.4795 44.3138 43.5978C44.3379 43.716 44.3265 43.8387 44.2809 43.9505C44.2353 44.0622 44.1576 44.1579 44.0577 44.2256C43.9577 44.2932 43.84 44.3297 43.7193 44.3304H43.7141C43.5525 44.3304 43.3975 44.2662 43.2832 44.152C43.169 44.0377 43.1047 43.8827 43.1047 43.7211ZM46.7335 43.7211C46.7332 43.6412 46.7487 43.562 46.779 43.4881C46.8094 43.4142 46.854 43.3471 46.9104 43.2904C46.9667 43.2338 47.0337 43.1889 47.1075 43.1582C47.1812 43.1276 47.2603 43.1117 47.3402 43.1117H47.3454C47.4658 43.1122 47.5834 43.1484 47.6832 43.2156C47.7831 43.2829 47.8608 43.3782 47.9066 43.4896C47.9523 43.601 47.964 43.7235 47.9402 43.8415C47.9164 43.9595 47.8582 44.0679 47.7728 44.1528C47.6875 44.2378 47.5789 44.2956 47.4608 44.3189C47.3427 44.3422 47.2203 44.33 47.1091 44.2838C46.9979 44.2376 46.9028 44.1595 46.836 44.0593C46.7692 43.9592 46.7335 43.8415 46.7335 43.7211ZM44.9229 43.7211C44.9226 43.6412 44.9381 43.562 44.9685 43.4881C44.9988 43.4142 45.0435 43.347 45.0998 43.2904C45.1562 43.2338 45.2232 43.1889 45.297 43.1582C45.3708 43.1275 45.4499 43.1117 45.5298 43.1117H45.5349C45.6553 43.1122 45.7729 43.1484 45.8728 43.2157C45.9726 43.2829 46.0503 43.3783 46.096 43.4897C46.1418 43.6011 46.1534 43.7235 46.1296 43.8416C46.1058 43.9596 46.0476 44.0679 45.9623 44.1529C45.8769 44.2378 45.7683 44.2956 45.6502 44.3189C45.5321 44.3422 45.4097 44.33 45.2985 44.2838C45.1873 44.2376 45.0923 44.1595 45.0254 44.0593C44.9586 43.9592 44.9229 43.8415 44.9229 43.7211ZM23.8651 25.6748C23.9461 25.6748 24.0263 25.6586 24.101 25.6273C24.1757 25.5959 24.2434 25.5499 24.3001 25.492L34.6709 14.9165C34.7269 14.8594 34.7712 14.7918 34.8011 14.7175C34.831 14.6433 34.846 14.5639 34.8452 14.4838C34.8444 14.4038 34.8279 14.3247 34.7965 14.2511C34.7652 14.1774 34.7196 14.1107 34.6625 14.0547L32.9138 12.3398C32.8566 12.2837 32.789 12.2395 32.7148 12.2096C32.6406 12.1797 32.5612 12.1647 32.4811 12.1655C32.4011 12.1663 32.322 12.1828 32.2484 12.2142C32.1748 12.2455 32.108 12.2911 32.052 12.3482L23.8651 20.6966L19.9479 16.7022C19.8347 16.5868 19.6804 16.5211 19.5188 16.5195C19.3572 16.518 19.2016 16.5806 19.0862 16.6938L17.3375 18.4089C17.2804 18.465 17.2348 18.5317 17.2035 18.6054C17.1721 18.679 17.1556 18.7581 17.1548 18.8381C17.154 18.9182 17.169 18.9976 17.1989 19.0718C17.2288 19.146 17.2731 19.2137 17.3291 19.2708L23.43 25.4921C23.4867 25.55 23.5544 25.5959 23.6291 25.6273C23.7038 25.6587 23.784 25.6748 23.8651 25.6748ZM19.5044 17.991L23.4305 21.9941C23.4872 22.052 23.5549 22.0979 23.6296 22.1293C23.7043 22.1607 23.7845 22.1768 23.8656 22.1768C23.9466 22.1768 24.0268 22.1607 24.1015 22.1293C24.1762 22.0979 24.2439 22.052 24.3007 21.9941L32.496 13.6367L33.3746 14.4982L23.8656 24.1952L18.6265 18.8525L19.5044 17.991Z" fill="#222627"/>
</svg>
