<svg width="52" height="52" viewBox="0 0 52 52" fill="none" xmlns="http://www.w3.org/2000/svg">
<path d="M25.8084 36.9201C25.9328 36.9614 26.0672 36.9614 26.1916 36.9201C32.2687 34.9073 35.9112 31.6198 37.6558 26.5742C39.2362 22.0021 39.2025 16.1548 39.1756 11.4564C39.1748 11.3104 39.1215 11.1694 39.0256 11.0594C38.9296 10.9493 38.7972 10.8773 38.6527 10.8566C34.1721 10.2128 29.9389 8.40466 26.3758 5.61281C26.2685 5.5288 26.1362 5.48315 26 5.48315C25.8638 5.48315 25.7315 5.5288 25.6242 5.61281C22.0612 8.40484 17.828 10.2131 13.3473 10.857C13.2028 10.8777 13.0704 10.9497 12.9744 11.0598C12.8785 11.1699 12.8252 11.3108 12.8244 11.4568C12.7975 16.1552 12.7635 22.0029 14.3443 26.5746C16.0884 31.6197 19.7313 34.907 25.8084 36.9201ZM14.0403 11.9833C18.3837 11.2726 22.4885 9.51464 26 6.86142C29.5115 9.51462 33.6163 11.2726 37.9597 11.9833C37.9836 16.4947 37.9597 21.964 36.5039 26.1761C34.9121 30.7806 31.5717 33.8106 26 35.6992C20.4283 33.8107 17.0879 30.7807 15.4962 26.1763C14.0402 21.9643 14.0164 16.4948 14.0403 11.9833ZM51.3906 41.9379H50.4517V14.5336C50.451 13.9674 50.2258 13.4247 49.8255 13.0244C49.4252 12.6241 48.8825 12.3989 48.3163 12.3983H41.4517C41.4517 11.9156 41.451 11.4307 41.4497 10.9435C41.4485 10.432 41.4478 9.91815 41.4476 9.40201C41.4475 9.24686 41.3883 9.09756 41.282 8.98455C41.1757 8.87154 41.0303 8.80334 40.8755 8.79385C35.4951 8.45762 30.3915 6.29173 26.4115 2.65562C26.2992 2.55285 26.1525 2.49585 26.0002 2.49585C25.8479 2.49585 25.7012 2.55285 25.5889 2.65562C21.6088 6.29169 16.505 8.45747 11.1245 8.79355C10.9697 8.80304 10.8243 8.87124 10.718 8.98425C10.6117 9.09725 10.5525 9.24655 10.5524 9.4017C10.5524 9.91771 10.5517 10.4316 10.5503 10.9433C10.5493 11.4308 10.5487 11.9157 10.5484 12.398H3.68367C3.1175 12.3986 2.57469 12.6238 2.17436 13.0242C1.77403 13.4246 1.54888 13.9674 1.54832 14.5336V41.9382H0.609375C0.447759 41.9382 0.292762 42.0024 0.178482 42.1166C0.0642018 42.2309 0 42.3859 0 42.5475L0 45.7214C0.00112901 46.7244 0.400078 47.686 1.10932 48.3952C1.81857 49.1045 2.78018 49.5034 3.7832 49.5046H48.2168C49.2199 49.5034 50.1815 49.1045 50.8908 48.3951C51.6 47.6858 51.999 46.7241 52 45.7211V42.5472C52 42.3856 51.9358 42.2306 51.8215 42.1163C51.7072 42.0021 51.5522 41.9379 51.3906 41.9379ZM49.2329 14.5336V41.9382H47.7501V15.7091C47.7501 15.5475 47.6859 15.3925 47.5716 15.2782C47.4574 15.164 47.3024 15.0998 47.1407 15.0998H41.436C41.4427 14.6085 41.4472 14.1142 41.4493 13.617H48.3163C48.5594 13.6172 48.7924 13.7138 48.9642 13.8857C49.136 14.0575 49.2327 14.2905 49.2329 14.5336ZM5.46884 41.9379V16.3185H10.5876C10.6953 20.5161 11.0821 24.4596 12.4173 27.9479C13.4431 30.6285 14.9395 32.8187 16.9909 34.6433C19.2546 36.657 22.1428 38.1859 25.8202 39.3177C25.937 39.3538 26.062 39.3538 26.1788 39.3177C29.8562 38.1859 32.7443 36.6568 35.0081 34.6433C37.0597 32.8187 38.5556 30.6285 39.5815 27.9478C40.9169 24.4595 41.3036 20.5161 41.4114 16.3189H46.5307V41.9379H5.46884ZM34.6226 43.1566L33.9358 45.2702H18.0643L17.3773 43.1566H34.6226ZM11.7691 10.9459C11.7698 10.6209 11.7704 10.2949 11.7708 9.96812C17.0358 9.51647 22.0199 7.39895 26 3.92281C29.98 7.39891 34.964 9.51643 40.2289 9.96812C40.2289 10.2949 40.2295 10.6208 40.2306 10.9458C40.2559 23.1065 40.2779 33.6157 25.9997 38.0972C11.7218 33.6158 11.7437 23.1065 11.7691 10.9459ZM2.76707 14.5336C2.76734 14.2906 2.864 14.0576 3.03584 13.8858C3.20768 13.7139 3.44067 13.6173 3.68367 13.6171H10.5507C10.553 14.1143 10.5574 14.6086 10.564 15.0999H4.85946C4.69784 15.0999 4.54285 15.1641 4.42857 15.2783C4.31429 15.3926 4.25009 15.5476 4.25009 15.7092V41.9379H2.76727L2.76707 14.5336ZM50.7812 45.7211C50.7805 46.401 50.5101 47.0528 50.0293 47.5336C49.5485 48.0143 48.8967 48.2848 48.2168 48.2855H3.7832C3.1033 48.2848 2.45146 48.0143 1.97069 47.5336C1.48993 47.0528 1.2195 46.401 1.21875 45.7211V43.1566H16.096L17.042 46.068C17.0818 46.1904 17.1593 46.297 17.2634 46.3726C17.3675 46.4482 17.4928 46.489 17.6215 46.489H34.3789C34.5076 46.489 34.633 46.4482 34.7371 46.3726C34.8412 46.2969 34.9187 46.1903 34.9584 46.0679L35.9043 43.1566H50.7812V45.7211ZM5.26652 45.7211C5.2668 45.801 5.25132 45.8801 5.22095 45.954C5.19059 46.0279 5.14594 46.0951 5.08957 46.1517C5.03319 46.2083 4.9662 46.2532 4.89244 46.2839C4.81867 46.3146 4.73958 46.3304 4.65969 46.3304H4.65461C4.5342 46.3299 4.41663 46.2938 4.31675 46.2265C4.21688 46.1592 4.13917 46.0639 4.09343 45.9525C4.0477 45.8411 4.036 45.7187 4.05979 45.6006C4.08359 45.4826 4.14183 45.3742 4.22715 45.2893C4.31247 45.2043 4.42106 45.1465 4.5392 45.1232C4.65733 45.0999 4.77973 45.1121 4.89093 45.1583C5.00213 45.2045 5.09715 45.2826 5.164 45.3828C5.23085 45.4829 5.26652 45.6007 5.26652 45.7211ZM7.07698 45.7211C7.07726 45.8009 7.06177 45.8801 7.03141 45.954C7.00106 46.0279 6.95642 46.095 6.90005 46.1516C6.84369 46.2083 6.77672 46.2532 6.70296 46.2839C6.62921 46.3145 6.55012 46.3304 6.47024 46.3304H6.46506C6.34465 46.3299 6.22708 46.2938 6.12721 46.2265C6.02733 46.1592 5.94962 46.0639 5.90389 45.9525C5.85815 45.8411 5.84645 45.7187 5.87025 45.6006C5.89405 45.4826 5.95228 45.3742 6.03761 45.2893C6.12293 45.2043 6.23151 45.1465 6.34965 45.1232C6.46779 45.0999 6.59018 45.1121 6.70138 45.1583C6.81258 45.2045 6.9076 45.2826 6.97445 45.3828C7.0413 45.4829 7.07698 45.6007 7.07698 45.7211ZM8.88743 45.7211C8.88771 45.8009 8.87223 45.8801 8.84187 45.954C8.81151 46.0279 8.76687 46.095 8.71051 46.1516C8.65415 46.2083 8.58717 46.2532 8.51341 46.2839C8.43966 46.3145 8.36058 46.3304 8.28069 46.3304H8.27552C8.1551 46.3299 8.03754 46.2938 7.93766 46.2265C7.83778 46.1592 7.76007 46.0639 7.71434 45.9525C7.66861 45.8411 7.6569 45.7187 7.6807 45.6006C7.7045 45.4826 7.76273 45.3742 7.84806 45.2893C7.93338 45.2043 8.04196 45.1465 8.1601 45.1232C8.27824 45.0999 8.40063 45.1121 8.51184 45.1583C8.62304 45.2045 8.71806 45.2826 8.78491 45.3828C8.85175 45.4829 8.88743 45.6007 8.88743 45.7211ZM12.5162 45.7211C12.5164 45.8417 12.4809 45.9598 12.4141 46.0603C12.3474 46.1608 12.2523 46.2393 12.141 46.2858C12.0296 46.3324 11.907 46.3449 11.7885 46.3218C11.6701 46.2987 11.5612 46.241 11.4755 46.156C11.3898 46.0711 11.3312 45.9626 11.3071 45.8444C11.283 45.7261 11.2944 45.6034 11.34 45.4916C11.3856 45.3799 11.4633 45.2842 11.5632 45.2166C11.6632 45.1489 11.7809 45.1125 11.9016 45.1117H11.9068C12.0684 45.1117 12.2234 45.1759 12.3377 45.2902C12.452 45.4044 12.5162 45.5594 12.5162 45.7211ZM10.7057 45.7211C10.706 45.8417 10.6705 45.9598 10.6037 46.0603C10.5369 46.1608 10.4419 46.2393 10.3305 46.2858C10.2192 46.3324 10.0965 46.3449 9.97809 46.3218C9.85965 46.2987 9.7507 46.241 9.66501 46.156C9.57932 46.0711 9.52073 45.9626 9.49662 45.8444C9.47252 45.7261 9.48398 45.6034 9.52957 45.4916C9.57517 45.3799 9.65284 45.2842 9.75279 45.2166C9.85273 45.1489 9.97048 45.1125 10.0911 45.1117H10.0963C10.2579 45.1117 10.4129 45.1759 10.5272 45.2902C10.6415 45.4044 10.7057 45.5594 10.7057 45.7211ZM39.4838 45.7211C39.4836 45.6004 39.5191 45.4823 39.5859 45.3818C39.6526 45.2813 39.7477 45.2028 39.8591 45.1563C39.9704 45.1098 40.093 45.0973 40.2115 45.1204C40.3299 45.1435 40.4389 45.2012 40.5246 45.2861C40.6103 45.3711 40.6688 45.4796 40.6929 45.5978C40.717 45.7161 40.7056 45.8388 40.6599 45.9505C40.6143 46.0623 40.5366 46.158 40.4367 46.2256C40.3367 46.2932 40.219 46.3297 40.0983 46.3304H40.0932C39.9316 46.3304 39.7766 46.2662 39.6623 46.152C39.548 46.0377 39.4838 45.8827 39.4838 45.7211ZM41.2943 45.7211C41.294 45.6004 41.3295 45.4823 41.3963 45.3818C41.4631 45.2813 41.5581 45.2028 41.6695 45.1563C41.7808 45.1098 41.9035 45.0973 42.0219 45.1204C42.1404 45.1435 42.2493 45.2011 42.335 45.2861C42.4207 45.3711 42.4793 45.4795 42.5034 45.5978C42.5275 45.716 42.516 45.8387 42.4704 45.9505C42.4248 46.0622 42.3472 46.1579 42.2472 46.2256C42.1473 46.2932 42.0295 46.3297 41.9089 46.3304H41.9037C41.7421 46.3304 41.5871 46.2662 41.4728 46.152C41.3585 46.0377 41.2943 45.8827 41.2943 45.7211ZM43.1047 45.7211C43.1045 45.6004 43.14 45.4823 43.2068 45.3818C43.2735 45.2813 43.3686 45.2028 43.4799 45.1563C43.5913 45.1098 43.7139 45.0973 43.8324 45.1204C43.9508 45.1435 44.0597 45.2011 44.1454 45.2861C44.2311 45.3711 44.2897 45.4795 44.3138 45.5978C44.3379 45.716 44.3265 45.8387 44.2809 45.9505C44.2353 46.0622 44.1576 46.1579 44.0577 46.2256C43.9577 46.2932 43.84 46.3297 43.7193 46.3304H43.7141C43.5525 46.3304 43.3975 46.2662 43.2832 46.152C43.169 46.0377 43.1047 45.8827 43.1047 45.7211ZM46.7335 45.7211C46.7332 45.6412 46.7487 45.562 46.779 45.4881C46.8094 45.4142 46.854 45.3471 46.9104 45.2905C46.9667 45.2338 47.0337 45.1889 47.1075 45.1582C47.1812 45.1276 47.2603 45.1117 47.3402 45.1117H47.3454C47.4658 45.1122 47.5834 45.1484 47.6832 45.2156C47.7831 45.2829 47.8608 45.3782 47.9066 45.4896C47.9523 45.601 47.964 45.7235 47.9402 45.8415C47.9164 45.9595 47.8582 46.0679 47.7729 46.1528C47.6875 46.2378 47.5789 46.2956 47.4608 46.3189C47.3427 46.3422 47.2203 46.33 47.1091 46.2838C46.9979 46.2376 46.9029 46.1595 46.836 46.0593C46.7692 45.9592 46.7335 45.8415 46.7335 45.7211ZM44.9229 45.7211C44.9226 45.6412 44.9381 45.562 44.9685 45.4881C44.9988 45.4142 45.0435 45.347 45.0998 45.2904C45.1562 45.2338 45.2232 45.1889 45.297 45.1582C45.3708 45.1275 45.4499 45.1117 45.5298 45.1117H45.5349C45.6553 45.1122 45.7729 45.1484 45.8728 45.2157C45.9726 45.2829 46.0503 45.3783 46.096 45.4897C46.1418 45.6011 46.1535 45.7235 46.1296 45.8416C46.1058 45.9596 46.0476 46.0679 45.9623 46.1529C45.8769 46.2378 45.7683 46.2956 45.6502 46.3189C45.5321 46.3422 45.4097 46.33 45.2985 46.2838C45.1873 46.2376 45.0923 46.1595 45.0254 46.0593C44.9586 45.9592 44.9229 45.8415 44.9229 45.7211ZM23.8651 27.6748C23.9461 27.6748 24.0263 27.6586 24.101 27.6273C24.1757 27.5959 24.2434 27.5499 24.3001 27.492L34.6709 16.9165C34.7269 16.8594 34.7712 16.7918 34.8011 16.7175C34.831 16.6433 34.846 16.5639 34.8452 16.4838C34.8444 16.4038 34.8279 16.3247 34.7965 16.2511C34.7652 16.1774 34.7196 16.1107 34.6625 16.0547L32.9138 14.3398C32.8566 14.2837 32.789 14.2395 32.7148 14.2096C32.6406 14.1797 32.5612 14.1647 32.4811 14.1655C32.4011 14.1663 32.322 14.1828 32.2484 14.2142C32.1748 14.2455 32.108 14.2911 32.052 14.3482L23.8651 22.6966L19.9479 18.7022C19.8347 18.5868 19.6804 18.5211 19.5188 18.5195C19.3572 18.518 19.2016 18.5806 19.0862 18.6938L17.3375 20.4089C17.2804 20.465 17.2348 20.5317 17.2035 20.6054C17.1721 20.679 17.1556 20.7581 17.1548 20.8381C17.154 20.9182 17.169 20.9976 17.1989 21.0718C17.2288 21.146 17.2731 21.2137 17.3291 21.2708L23.43 27.4921C23.4867 27.55 23.5544 27.5959 23.6291 27.6273C23.7038 27.6587 23.784 27.6748 23.8651 27.6748ZM19.5044 19.991L23.4305 23.9941C23.4872 24.052 23.5549 24.0979 23.6296 24.1293C23.7043 24.1607 23.7845 24.1768 23.8656 24.1768C23.9466 24.1768 24.0268 24.1607 24.1015 24.1293C24.1762 24.0979 24.2439 24.052 24.3007 23.9941L32.496 15.6367L33.3746 16.4982L23.8656 26.1952L18.6265 20.8525L19.5044 19.991Z" fill="white"/>
</svg>
