<svg width="140" height="140" viewBox="0 0 140 140" fill="none" xmlns="http://www.w3.org/2000/svg">
<path d="M85.0795 126.192C53.9441 134.535 21.8636 116.015 13.5238 84.8701C5.18398 53.7254 23.6984 21.6353 54.8337 13.293C85.9691 4.95063 118.05 23.4706 126.389 54.6153C134.729 85.7599 116.215 117.85 85.0795 126.192ZM55.2785 14.9058C25.0328 23.0257 7.01874 54.1703 15.1362 84.4252C23.2536 114.68 54.3889 132.644 84.6347 124.58C114.88 116.46 132.839 85.315 124.777 55.0602C116.66 24.8054 85.4687 6.78594 55.2785 14.9058Z" fill="#2BC8EB"/>
<path d="M136.342 51.9464C134.451 50.7785 133.673 48.3871 134.562 46.3293C135.563 43.9934 134.451 41.2683 132.06 40.3784C129.948 39.5998 128.78 37.3752 129.336 35.1506C129.948 32.6479 128.335 30.2008 125.833 29.7559C123.609 29.3665 122.053 27.3644 122.219 25.1398C122.331 22.5815 120.329 20.4681 117.772 20.4125C115.548 20.4125 113.657 18.744 113.379 16.5194C113.046 14.0167 110.71 12.237 108.209 12.6819C105.985 13.0712 103.872 11.7364 103.205 9.62304C102.426 7.17596 99.8131 5.89681 97.4224 6.78665C95.3096 7.56527 92.9745 6.67542 91.9181 4.67327C90.7505 2.39303 87.915 1.61441 85.691 2.89357C83.7451 4.00588 81.2987 3.56096 79.9087 1.78126C78.352 -0.220898 75.4052 -0.498976 73.4593 1.16949C71.7913 2.61549 69.2338 2.61549 67.5658 1.11387C65.6754 -0.554592 62.7287 -0.33213 61.1163 1.67003C59.7264 3.39411 57.2244 3.83903 55.3341 2.67111C53.1657 1.33634 50.3302 2.11495 49.107 4.33957C48.0506 6.28612 45.6599 7.17596 43.6027 6.34173C41.212 5.39627 38.5432 6.67542 37.7648 9.12251C37.0421 11.2359 34.8737 12.5151 32.7053 12.1257C30.2034 11.6252 27.8127 13.3493 27.4791 15.9076C27.1455 18.1322 25.2551 19.7451 23.0312 19.7451C20.4736 19.7451 18.4165 21.8585 18.5276 24.3612C18.6388 26.5858 17.0265 28.5323 14.8025 28.9216C12.245 29.3109 10.577 31.758 11.133 34.2607C11.6334 36.4297 10.4102 38.6543 8.29747 39.433C5.90672 40.3228 4.73914 42.9923 5.73992 45.3282C6.6295 47.386 5.79552 49.7774 3.90516 50.8897C1.68121 52.1689 1.01402 55.0609 2.40399 57.1743C3.62717 59.0652 3.29358 61.5679 1.57001 63.0139C-0.375947 64.6824 -0.542743 67.63 1.23642 69.4653C2.79319 71.0782 2.84878 73.5809 1.45881 75.3606C-0.153551 77.3627 0.23564 80.2547 2.2928 81.7563C4.07196 83.0911 4.62795 85.5382 3.57157 87.4847C2.3484 89.7094 3.23798 92.5458 5.51753 93.6581C7.51908 94.6591 8.51986 96.9394 7.79708 99.1084C6.9631 101.5 8.35307 104.114 10.7994 104.837C12.9678 105.449 14.3021 107.562 14.0241 109.787C13.635 112.289 15.4697 114.625 18.0273 114.848C20.2512 115.07 21.9748 116.905 22.086 119.13C22.1972 121.688 24.3655 123.635 26.9231 123.412C29.147 123.246 31.2042 124.692 31.649 126.916C32.205 129.419 34.7069 130.92 37.1533 130.253C39.3216 129.697 41.5456 130.754 42.4351 132.867C43.4359 135.203 46.1603 136.26 48.4398 135.203C50.4414 134.257 52.8877 134.925 54.1109 136.816C55.5009 138.929 58.392 139.485 60.4492 138.039C62.2839 136.76 64.7859 136.983 66.287 138.595C68.0106 140.431 70.9573 140.486 72.7365 138.651C74.2933 137.038 76.7952 136.816 78.5744 138.15C80.6315 139.652 83.5227 139.152 84.9126 137.038C86.1358 135.203 88.5821 134.535 90.5837 135.537C92.8633 136.649 95.6432 135.648 96.644 133.312C97.5336 131.254 99.8131 130.197 101.981 130.809C104.428 131.532 106.985 130.031 107.541 127.528C108.042 125.359 110.099 123.857 112.323 124.08C114.88 124.358 117.104 122.411 117.216 119.853C117.327 117.628 119.106 115.793 121.33 115.626C123.887 115.404 125.722 113.123 125.389 110.621C125.111 108.396 126.501 106.338 128.669 105.727C131.115 105.059 132.561 102.501 131.782 100.054C131.115 97.9405 132.116 95.6046 134.118 94.6591C136.397 93.6024 137.342 90.7661 136.175 88.5414C135.118 86.5393 135.73 84.0922 137.509 82.813C139.566 81.3114 140.011 78.4194 138.399 76.4173C137.009 74.6376 137.12 72.1349 138.732 70.522C140.511 68.6867 140.4 65.7391 138.51 64.0706C136.842 62.569 136.508 60.0663 137.787 58.231C139.177 56.1176 138.565 53.2256 136.342 51.9464ZM85.7466 128.64C53.2213 137.372 19.8064 118.073 11.0774 85.5382C2.3484 53.0031 21.6412 19.5226 54.1665 10.8466C86.6918 2.11495 120.107 21.4135 128.836 53.9486C137.565 86.4837 118.272 119.909 85.7466 128.64Z" fill="#2BC8EB"/>
<path d="M79.4083 105.06C59.9487 110.288 39.822 98.6639 34.5957 79.1985C29.3694 59.7331 40.9895 39.6003 60.4491 34.3724C79.9087 29.1446 100.035 40.7682 105.262 60.2336C110.488 79.7547 98.8679 99.8319 79.4083 105.06ZM60.9495 36.0409C42.3795 41.0463 31.3153 60.178 36.2636 78.7536C41.2675 97.3292 60.3935 108.397 78.9635 103.447C97.5335 98.4415 108.598 79.3097 103.649 60.7342C98.6455 42.103 79.5195 31.0355 60.9495 36.0409Z" fill="#2BC8EB"/>
<path d="M23.2529 64.7932L23.9203 60.6221L25.9781 60.9558L25.3107 65.0713L23.2529 64.7932Z" fill="#2BC8EB"/>
<path d="M31.26 52.9474C30.4816 53.5036 29.6476 53.7816 28.7025 53.8929C27.7573 53.9485 26.8677 53.7816 25.9781 53.3367C25.0885 52.8918 24.3658 52.28 23.921 51.5014C23.4206 50.7228 23.1982 49.8329 23.1426 48.8875C23.1426 47.942 23.365 46.9966 23.8098 46.0511C24.199 45.2169 24.7549 44.5495 25.3665 44.0489C25.9781 43.5484 26.7009 43.2147 27.4237 43.0479L28.0909 45.3837C27.0901 45.6062 26.3673 46.1623 25.9781 46.9409C25.7557 47.4415 25.6445 47.8864 25.6445 48.3869C25.6445 48.8875 25.8113 49.3324 26.0893 49.7217C26.3673 50.111 26.7565 50.4447 27.2569 50.7228C27.7573 51.0009 28.2577 51.1121 28.7581 51.1121C29.2584 51.1121 29.7032 50.9453 30.0924 50.6672C30.4816 50.3891 30.8152 49.9998 31.0932 49.5549C31.538 48.7206 31.538 47.8308 31.0932 46.9409L33.3728 46.0511C33.7064 46.7741 33.8176 47.4971 33.8176 48.3313C33.762 49.1099 33.5396 49.9442 33.1504 50.7784C32.65 51.6683 32.0384 52.3913 31.26 52.9474Z" fill="#2BC8EB"/>
<path d="M39.3765 38.1539L41.0445 39.5999L35.8182 45.7176L28.2012 39.155L33.3163 33.2041L34.9842 34.6501L31.7039 38.432L32.9827 39.5443L35.8738 36.1517L37.4862 37.5421L34.595 40.9347L35.985 42.1582L39.3765 38.1539Z" fill="#2BC8EB"/>
<path d="M44.3248 33.7038L43.0461 34.5936L44.6028 36.7626L42.2677 38.4311L36.541 30.2L40.2661 27.5305C40.9889 27.0299 41.7117 26.6962 42.4345 26.5294C43.1573 26.3626 43.8245 26.4182 44.436 26.6962C45.0476 26.9187 45.6036 27.3636 45.9928 27.9754C46.4376 28.5872 46.66 29.1989 46.66 29.8107C46.7156 30.4225 46.5488 31.0899 46.2152 31.7016L49.8291 33.0364L47.3272 34.8161L44.3248 33.7038ZM42.7125 29.0321C42.3233 28.9765 41.8785 29.1433 41.4337 29.477L40.1549 30.3669L41.8785 32.7583L43.1573 31.8685C43.6577 31.5348 43.9357 31.2011 43.9913 30.8118C44.1025 30.4225 43.9913 30.0332 43.7133 29.6439C43.4353 29.3102 43.1017 29.0877 42.7125 29.0321Z" fill="#2BC8EB"/>
<path d="M50.275 24.5285L47.4395 25.6964L46.6055 23.583L54.9453 20.2461L55.7793 22.3595L52.9437 23.4718L55.8349 30.7018L53.2217 31.7585L50.275 24.5285Z" fill="#2BC8EB"/>
<path d="M57.9473 19.5786L60.7272 18.9668L62.7844 28.8107L60.0044 29.4225L57.9473 19.5786Z" fill="#2BC8EB"/>
<path d="M67.6216 20.412L67.6772 22.6366L72.1251 22.4698L72.1807 24.6388L67.7328 24.8056L67.844 28.2538L65.0641 28.365L64.7305 18.3542L72.5699 18.0762L72.6255 20.2452L67.6216 20.412Z" fill="#2BC8EB"/>
<path d="M75.9613 18.4658L78.7968 18.8551L77.4068 28.8103L74.5713 28.421L75.9613 18.4658Z" fill="#2BC8EB"/>
<path d="M87.9707 29.5889L87.3036 31.6467L79.6865 29.0884L82.8557 19.5781L90.3059 22.0808L89.6387 24.1386L84.8572 22.5257L84.3012 24.1386L88.5267 25.529L87.8595 27.5311L83.634 26.1408L83.078 27.8648L87.9707 29.5889Z" fill="#2BC8EB"/>
<path d="M94.3647 23.916L98.3122 26.5299C99.2574 27.1417 99.9246 27.8091 100.425 28.6433C100.925 29.4776 101.148 30.3118 101.148 31.2016C101.148 32.0915 100.87 32.9813 100.314 33.8156C99.7578 34.6498 99.0906 35.2616 98.2566 35.6509C97.4782 36.0402 96.5887 36.1514 95.6435 36.0402C94.6983 35.929 93.7531 35.5397 92.8635 34.9835L88.916 32.3696L94.3647 23.916ZM93.9755 32.9813C94.6983 33.4263 95.4211 33.6487 96.0883 33.4819C96.8111 33.3707 97.367 32.9257 97.8674 32.2027C98.3122 31.4797 98.479 30.7567 98.3122 30.0893C98.1454 29.4219 97.7006 28.8102 96.9778 28.3653L95.4767 27.3642L92.4743 31.9803L93.9755 32.9813Z" fill="#2BC8EB"/>
<path d="M105.651 39.2666L108.265 42.5479L106.652 43.8271L104.039 40.5458L105.651 39.2666Z" fill="#2BC8EB"/>
<path d="M33.4844 96.9395L36.0419 100.276L34.374 101.556L31.8164 98.2186L33.4844 96.9395Z" fill="#2BC8EB"/>
<path d="M40.4901 110.9C40.0453 110.065 39.8785 109.175 39.9341 108.23C39.9897 107.285 40.3233 106.45 40.8793 105.616C41.4353 104.782 42.1581 104.17 42.9921 103.781C43.8261 103.391 44.7156 103.28 45.6608 103.391C46.606 103.503 47.4956 103.836 48.3852 104.448C49.1635 104.949 49.7195 105.56 50.1643 106.283C50.6091 106.951 50.8315 107.729 50.8871 108.508L48.4964 108.842C48.3852 107.841 47.996 107.062 47.2176 106.506C46.7728 106.172 46.328 106.005 45.8276 105.95C45.3272 105.894 44.8824 106.005 44.4377 106.228C43.9929 106.45 43.6037 106.784 43.3257 107.285C42.9921 107.729 42.8253 108.23 42.7697 108.731C42.7141 109.231 42.7697 109.676 42.9921 110.121C43.2145 110.566 43.5481 110.955 43.9929 111.233C44.7712 111.734 45.6052 111.901 46.606 111.623L47.162 114.014C46.4392 114.236 45.6608 114.292 44.8824 114.125C44.1041 113.958 43.3257 113.625 42.5473 113.124C41.5465 112.457 40.9349 111.734 40.4901 110.9Z" fill="#2BC8EB"/>
<path d="M57.6142 117.629L56.8359 119.687L49.2744 116.85L52.7771 107.451L60.1718 110.232L59.3934 112.29L54.6675 110.51L54.0559 112.067L58.2258 113.624L57.503 115.627L53.3331 114.069L52.6659 115.793L57.6142 117.629Z" fill="#2BC8EB"/>
<path d="M65.2865 118.407L63.7297 118.24L63.4517 120.91L60.6162 120.576L61.7282 110.621L66.2873 111.122C67.1769 111.233 67.9553 111.455 68.5668 111.845C69.1784 112.234 69.6788 112.679 69.9568 113.291C70.2348 113.902 70.346 114.57 70.2904 115.293C70.2348 116.016 69.9568 116.628 69.5676 117.128C69.1784 117.629 68.6224 118.018 67.9553 118.24L69.7344 121.633L66.7321 121.299L65.2865 118.407ZM67.1213 113.847C66.8433 113.569 66.4541 113.402 65.8425 113.291L64.2857 113.124L63.9521 116.071L65.5089 116.238C66.0649 116.294 66.5653 116.238 66.8433 116.016C67.1769 115.793 67.3437 115.46 67.3993 115.015C67.5105 114.514 67.3993 114.125 67.1213 113.847Z" fill="#2BC8EB"/>
<path d="M74.4053 113.402L71.3473 113.791L71.0693 111.566L79.9651 110.398L80.2431 112.623L77.1852 113.012L78.186 120.743L75.3504 121.132L74.4053 113.402Z" fill="#2BC8EB"/>
<path d="M81.0215 109.899L83.7458 109.064L86.7482 118.63L84.0238 119.465L81.0215 109.899Z" fill="#2BC8EB"/>
<path d="M89.2498 109.064L90.2506 111.01L94.1981 108.952L95.1989 110.899L91.2514 112.957L92.8637 116.016L90.3618 117.35L85.7471 108.452L92.7525 104.837L93.7533 106.783L89.2498 109.064Z" fill="#2BC8EB"/>
<path d="M93.6982 103.836L95.9222 102.112L102.038 110.065L99.8141 111.789L93.6982 103.836Z" fill="#2BC8EB"/>
<path d="M108.821 100.054L110.433 101.5L105.04 107.507L97.5898 100.833L102.816 94.9932L104.428 96.4392L101.037 100.221L102.316 101.333L105.262 97.9964L106.819 99.3868L103.873 102.724L105.262 103.947L108.821 100.054Z" fill="#2BC8EB"/>
<path d="M103.817 93.7704L105.986 89.5436C106.486 88.5425 107.098 87.7639 107.876 87.2077C108.654 86.6516 109.433 86.3179 110.322 86.2623C111.212 86.2067 112.102 86.3735 112.991 86.8184C113.881 87.2634 114.604 87.8751 115.048 88.6537C115.493 89.4324 115.716 90.2666 115.716 91.2121C115.716 92.1575 115.438 93.103 114.937 94.1041L112.769 98.3308L103.817 93.7704ZM112.824 93.1586C113.214 92.38 113.325 91.657 113.102 90.9896C112.88 90.3222 112.435 89.766 111.657 89.3767C110.878 88.9874 110.156 88.9318 109.488 89.1543C108.821 89.3767 108.265 89.8773 107.876 90.6559L107.042 92.2687L111.935 94.7714L112.824 93.1586Z" fill="#2BC8EB"/>
<path d="M114.492 79.7542L115.104 75.6387L117.162 75.9167L116.55 80.0323L114.492 79.7542Z" fill="#2BC8EB"/>
</svg>
