<svg width="50" height="50" viewBox="0 0 50 50" fill="none" xmlns="http://www.w3.org/2000/svg">
<g clip-path="url(#clip0_1_9214)">
<path d="M45.0156 22.973C45.0159 22.9488 45.0161 22.9247 45.0161 22.9005C45.0161 16.4704 39.7873 11.239 33.3601 11.239C29.4245 11.239 25.7526 13.2452 23.605 16.5209C22.7913 16.1717 21.9281 15.9464 21.0499 15.8364C21.4592 14.744 21.6779 13.5734 21.6779 12.3668C21.6779 9.65971 20.6028 7.13482 18.651 5.25704C16.6987 3.37873 14.135 2.40769 11.4119 2.50692C6.25026 2.70669 2.09016 6.90906 1.94052 12.0743C1.84996 15.2083 3.20087 18.124 5.647 20.074C6.34792 20.6328 6.80624 21.4087 6.96749 22.2648C2.9459 23.2087 0 26.858 0 31.0564C0 36.0369 4.05431 40.0886 9.03767 40.0886H21.1052C21.5161 44.9222 25.5749 48.7317 30.5129 48.7317C35.4511 48.7317 39.5099 44.9222 39.9208 40.0886H40.9623C45.9457 40.0886 50 36.0369 50 31.0564C50 27.6148 48.0616 24.5014 45.0156 22.973ZM3.5529 12.1211C3.67576 7.87276 7.22919 4.28284 11.4743 4.11877C13.7501 4.02873 15.8993 4.84778 17.533 6.41947C19.1658 7.9901 20.0649 10.1023 20.0649 12.3668C20.0649 14.9221 18.9091 17.2913 16.8937 18.867C15.6904 19.8076 14.9721 21.3309 14.9721 22.9415V23.2849H12.6129V18.4221C14.3044 18.0517 15.5751 16.5438 15.5751 14.7428C15.5751 12.6653 13.8848 10.9749 11.807 10.9749C9.7294 10.9749 8.03905 12.6653 8.03905 14.7428C8.03905 16.5434 9.30924 18.051 11 18.4217V23.2849H8.64888V22.9441C8.64888 21.3302 7.92118 19.8244 6.65244 18.8129C4.60665 17.1821 3.47677 14.7431 3.5529 12.1211ZM16.8494 29.297V29.4855C16.8494 29.963 16.4611 30.3515 15.9836 30.3515H15.43H8.18422H7.63058C7.15306 30.3515 6.7648 29.963 6.7648 29.4855V29.297C6.7648 28.8195 7.15306 28.431 7.63058 28.431H15.9836C16.4611 28.431 16.8494 28.8195 16.8494 29.297ZM14.4825 31.9644C14.1903 32.8515 13.4855 33.7031 12.7686 33.7031H10.8456C10.1287 33.7031 9.42383 32.8515 9.13165 31.9644H14.4825ZM16.8494 25.9523C16.8494 26.4298 16.4611 26.8181 15.9836 26.8181H7.63058C7.15306 26.8181 6.7648 26.4298 6.7648 25.9523V25.7638C6.7648 25.2863 7.15306 24.8978 7.63058 24.8978H7.84243H11.7804C11.7892 24.898 11.7975 24.9004 11.8064 24.9004C11.8154 24.9004 11.8236 24.898 11.8325 24.8978H15.7786H15.9836C16.4611 24.8978 16.8494 25.2863 16.8494 25.7638V25.9523ZM11.807 16.8981C10.6188 16.8981 9.65196 15.9312 9.65196 14.7428C9.65196 13.5547 10.6188 12.5878 11.807 12.5878C12.9954 12.5878 13.9622 13.5547 13.9622 14.7428C13.9622 15.9312 12.9954 16.8981 11.807 16.8981ZM30.5129 47.1188C26.1927 47.1188 22.678 43.6043 22.6773 39.2841C22.6773 39.2834 22.6775 39.2828 22.6775 39.2821C22.6775 39.2816 22.6774 39.2811 22.6774 39.2807C22.6786 34.9609 26.1931 31.447 30.5129 31.447C34.8336 31.447 38.3487 34.9621 38.3487 39.2829C38.3487 43.6037 34.8336 47.1188 30.5129 47.1188ZM40.9623 38.4757H39.9207C39.509 33.6427 35.4505 29.8341 30.5129 29.8341C25.5754 29.8341 21.5169 33.6427 21.1052 38.4757H9.03767C4.94372 38.4757 1.6129 35.1475 1.6129 31.0564C1.6129 28.2918 3.16795 25.8177 5.48555 24.5448C5.27925 24.9064 5.15189 25.3186 5.15189 25.7638V25.9523C5.15189 26.5986 5.40634 27.1828 5.81304 27.6245C5.40634 28.0663 5.15189 28.6506 5.15189 29.297V29.4855C5.15189 30.794 6.1741 31.8577 7.46001 31.9473C7.79672 33.6434 9.15609 35.316 10.8456 35.316H12.7686C14.4581 35.316 15.8175 33.6434 16.1542 31.9473C17.4401 31.8577 18.4623 30.794 18.4623 29.4855V29.297C18.4623 28.6506 18.2078 28.0663 17.8011 27.6245C18.2078 27.1828 18.4623 26.5986 18.4623 25.9523V25.7638C18.4623 24.6054 17.6604 23.6378 16.585 23.3672V22.9415C16.585 21.8232 17.0717 20.7749 17.8871 20.1375C18.8738 19.3661 19.6848 18.4337 20.3025 17.3938C21.4284 17.4546 22.5393 17.7467 23.5367 18.2745C23.9216 18.4777 24.4002 18.339 24.6154 17.9594C26.4018 14.809 29.7526 12.8519 33.3601 12.8519C38.8979 12.8519 43.4032 17.3596 43.4032 22.9005C43.4032 23.0276 43.3948 23.1523 43.3869 23.278L43.3778 23.4308C43.3589 23.77 43.5544 24.0845 43.8668 24.2176C46.6127 25.3874 48.3871 28.0718 48.3871 31.0564C48.3871 35.1475 45.0563 38.4757 40.9623 38.4757Z" fill="#222627"/>
<path d="M34.4585 35.8242L29.251 41.0317L26.568 38.3488C26.253 38.0338 25.7427 38.0338 25.4277 38.3488C25.1127 38.6635 25.1127 39.1744 25.4277 39.4892L28.6808 42.7423C28.8383 42.8998 29.0446 42.9785 29.251 42.9785C29.4573 42.9785 29.6636 42.8998 29.8212 42.7423L35.5989 36.9645C35.9139 36.6498 35.9139 36.1389 35.5989 35.8242C35.2839 35.5091 34.7735 35.5091 34.4585 35.8242Z" fill="#222627"/>
</g>
<defs>
<clipPath id="clip0_1_9214">
<rect width="50" height="50" fill="white"/>
</clipPath>
</defs>
</svg>
