<svg width="54" height="40" viewBox="0 0 54 40" fill="none" xmlns="http://www.w3.org/2000/svg">
<g opacity="0.2">
<path d="M20.25 0H5.0625C2.27087 0 0 2.24283 0 5V20C0 22.7572 2.27087 25 5.0625 25H11.8743L9.31255 38.0151C9.21615 38.5042 9.34634 39.0096 9.66686 39.3937C9.98738 39.7778 10.4645 40 10.9688 40H16.4358C17.9033 40 19.2077 39.0519 19.6518 37.679L24.5643 26.1702C24.5923 26.1043 24.6162 26.0368 24.6352 25.9684C25.0851 24.3717 25.3125 22.7205 25.3125 21.0612V5C25.3125 2.24283 23.0416 0 20.25 0Z" fill="#2BC8EB"/>
<path d="M48.9375 0H33.75C30.9584 0 28.6875 2.24283 28.6875 5V20C28.6875 22.7572 30.9584 25 33.75 25H40.5626L38.0001 38.0151C37.9028 38.5042 38.033 39.0096 38.3544 39.3937C38.6741 39.7778 39.152 40 39.6562 40H45.1241C46.5925 40 47.896 39.0519 48.3393 37.6782L53.2518 26.1702C53.2798 26.1043 53.3029 26.0368 53.3227 25.9684C53.7726 24.3701 54 22.7189 54 21.0612V5C54 2.24283 51.7291 0 48.9375 0Z" fill="#2BC8EB"/>
</g>
</svg>
