<svg width="80" height="80" viewBox="0 0 80 80" fill="none" xmlns="http://www.w3.org/2000/svg">
<rect width="80" height="80" rx="10" fill="#222627"/>
<g clip-path="url(#clip0_1_661)">
<path d="M60 36.6667V43.3333C60 45.1719 58.5052 46.6667 56.6667 46.6667H55.7591C54.4844 54.2214 47.9128 60 40 60C39.263 60 38.6667 59.4036 38.6667 58.6667C38.6667 57.9297 39.263 57.3333 40 57.3333C47.3516 57.3333 53.3333 51.3516 53.3333 44V36C53.3333 28.6484 47.3516 22.6667 40 22.6667C32.6484 22.6667 26.6667 28.6484 26.6667 36V45.3333C26.6667 46.0703 26.0703 46.6667 25.3333 46.6667H23.3333C21.4948 46.6667 20 45.1719 20 43.3333V36.6667C20 34.8281 21.4948 33.3333 23.3333 33.3333H24.2409C25.5156 25.7786 32.0872 20 40 20C47.9128 20 54.4844 25.7786 55.7591 33.3333H56.6667C58.5052 33.3333 60 34.8281 60 36.6667ZM40 25.3333C34.1185 25.3333 29.3333 30.1185 29.3333 36V42.6667C29.3333 48.5482 34.1185 53.3333 40 53.3333C45.8815 53.3333 50.6667 48.5482 50.6667 42.6667V36C50.6667 30.1185 45.8815 25.3333 40 25.3333Z" fill="white"/>
</g>
<defs>
<clipPath id="clip0_1_661">
<rect width="40" height="40" fill="white" transform="translate(20 20)"/>
</clipPath>
</defs>
</svg>
