<svg width="80" height="80" viewBox="0 0 80 80" fill="none" xmlns="http://www.w3.org/2000/svg">
<rect width="80" height="80" rx="10" fill="#222627"/>
<g clip-path="url(#clip0_1_669)">
<path d="M51.315 52.2711C57.32 46.0048 57.1082 36.057 50.8419 30.052C44.5756 24.047 34.6277 24.2588 28.6227 30.5251C22.7978 36.6036 22.7978 46.1926 28.6227 52.2711L24.5397 57.7142C24.0663 58.3454 24.1942 59.2409 24.8254 59.7142C25.4566 60.1876 26.3521 60.0597 26.8254 59.4285L30.7828 54.1512C36.2573 58.14 43.6804 58.14 49.1548 54.1512L53.1122 59.4285C53.5855 60.0598 54.481 60.1877 55.1122 59.7142C55.7434 59.2409 55.8714 58.3453 55.3979 57.7142L51.315 52.2711ZM41.3976 41.4279C41.3976 41.737 41.2973 42.0378 41.1119 42.285L36.826 47.9996C36.3526 48.6308 35.4571 48.7587 34.826 48.2853C34.1948 47.8118 34.0668 46.9164 34.5403 46.2852L38.5404 40.9521V32.8561C38.5404 32.0671 39.1801 31.4275 39.9691 31.4275C40.7581 31.4275 41.3977 32.0671 41.3977 32.8561V41.4279H41.3976Z" fill="white"/>
<path d="M32.1613 22.0914C29.3368 19.3372 24.8144 19.3942 22.0602 22.2187C19.3552 24.9927 19.3549 29.4174 22.0595 32.1918C22.6174 32.7496 23.5217 32.7496 24.0796 32.1918L32.1613 24.1115C32.719 23.5536 32.719 22.6493 32.1613 22.0914Z" fill="white"/>
<path d="M57.878 22.0913C55.0886 19.3027 50.567 19.3027 47.7777 22.0913C47.2199 22.6492 47.2199 23.5535 47.7777 24.1114L55.858 32.1917C56.4159 32.7494 57.3202 32.7494 57.878 32.1917C60.6666 29.4023 60.6666 24.8807 57.878 22.0913Z" fill="white"/>
</g>
<defs>
<clipPath id="clip0_1_669">
<rect width="40" height="40" fill="white" transform="translate(20 20)"/>
</clipPath>
</defs>
</svg>
