<svg width="80" height="80" viewBox="0 0 80 80" fill="none" xmlns="http://www.w3.org/2000/svg">
<rect width="80" height="80" rx="10" fill="#222627"/>
<g clip-path="url(#clip0_1_628)">
<path d="M54.348 57.6475L38.6155 49.3175C38.2055 49.1 37.7055 49.13 37.318 49.3925L25.2881 57.7225C24.8381 58.035 24.6431 58.6025 24.8081 59.125C24.9681 59.6425 25.4531 60 25.9981 60H53.7605C54.333 60 54.8355 59.61 54.973 59.05C55.113 58.4925 54.853 57.915 54.348 57.6475Z" fill="white"/>
<path d="M59.6126 55.272L55.9126 38.6145C55.8226 38.207 55.5351 37.8745 55.1476 37.722C54.7576 37.5695 54.3201 37.622 53.9801 37.857L41.9476 46.187C41.5876 46.437 41.3851 46.8545 41.4126 47.287C41.4376 47.7245 41.6901 48.1145 42.0751 48.317L57.8051 56.647C57.9901 56.7445 58.1901 56.7945 58.3901 56.7945C58.6576 56.7945 58.9251 56.7095 59.1476 56.537C59.5351 56.242 59.7176 55.7495 59.6126 55.272Z" fill="white"/>
<path d="M50.9104 35.8775C50.7454 35.355 50.2629 35 49.7154 35H38.3054C36.2304 38.7575 33.1604 42.35 31.8979 43.755C31.1879 44.545 30.1704 45 29.1079 45C28.0454 45 27.0279 44.545 26.3179 43.755C25.8304 43.2125 25.0754 42.345 24.2104 41.27L21.1854 54.885C21.0754 55.3875 21.2829 55.905 21.7079 56.1925C21.9179 56.335 22.1629 56.405 22.4054 56.405C22.6554 56.405 22.9029 56.3325 23.1179 56.1825L50.4254 37.275C50.8779 36.9675 51.0704 36.4 50.9104 35.8775Z" fill="white"/>
<path d="M29.1055 20C24.2805 20 20.3555 23.925 20.3555 28.75C20.3555 33.24 27.3755 41.1925 28.1755 42.085C28.413 42.3475 28.7505 42.5 29.1055 42.5C29.4605 42.5 29.798 42.3475 30.0355 42.085C30.8355 41.1925 37.8555 33.24 37.8555 28.75C37.8555 23.925 33.9305 20 29.1055 20ZM29.1055 32.5C27.0355 32.5 25.3555 30.82 25.3555 28.75C25.3555 26.68 27.0355 25 29.1055 25C31.1755 25 32.8555 26.68 32.8555 28.75C32.8555 30.82 31.1755 32.5 29.1055 32.5Z" fill="white"/>
</g>
<defs>
<clipPath id="clip0_1_628">
<rect width="40" height="40" fill="white" transform="translate(20 20)"/>
</clipPath>
</defs>
</svg>
