<svg width="82" height="15" viewBox="0 0 82 15" fill="none" xmlns="http://www.w3.org/2000/svg">
<path d="M10.418 4.87891L14.3281 5.45312C14.6562 5.50781 14.9297 5.72656 15.0391 6.05469C15.1484 6.35547 15.0664 6.71094 14.8203 6.92969L11.9766 9.74609L12.6602 13.7383C12.7148 14.0664 12.5781 14.3945 12.3047 14.5859C12.0312 14.8047 11.6758 14.8047 11.375 14.668L7.875 12.7812L4.34766 14.668C4.07422 14.8047 3.69141 14.8047 3.44531 14.5859C3.17188 14.3945 3.03516 14.0664 3.08984 13.7383L3.74609 9.74609L0.902344 6.92969C0.65625 6.71094 0.574219 6.35547 0.683594 6.05469C0.792969 5.72656 1.06641 5.50781 1.39453 5.45312L5.33203 4.87891L7.08203 1.24219C7.21875 0.941406 7.51953 0.75 7.875 0.75C8.20312 0.75 8.50391 0.941406 8.64062 1.24219L10.418 4.87891ZM27.008 4.87891L30.9181 5.45312C31.2463 5.50781 31.5197 5.72656 31.6291 6.05469C31.7384 6.35547 31.6564 6.71094 31.4103 6.92969L28.5666 9.74609L29.2502 13.7383C29.3048 14.0664 29.1681 14.3945 28.8947 14.5859C28.6213 14.8047 28.2658 14.8047 27.965 14.668L24.465 12.7812L20.9377 14.668C20.6642 14.8047 20.2814 14.8047 20.0353 14.5859C19.7619 14.3945 19.6252 14.0664 19.6798 13.7383L20.3361 9.74609L17.4923 6.92969C17.2463 6.71094 17.1642 6.35547 17.2736 6.05469C17.383 5.72656 17.6564 5.50781 17.9845 5.45312L21.922 4.87891L23.672 1.24219C23.8088 0.941406 24.1095 0.75 24.465 0.75C24.7931 0.75 25.0939 0.941406 25.2306 1.24219L27.008 4.87891ZM43.598 4.87891L47.5081 5.45312C47.8363 5.50781 48.1097 5.72656 48.2191 6.05469C48.3284 6.35547 48.2464 6.71094 48.0003 6.92969L45.1566 9.74609L45.8402 13.7383C45.8948 14.0664 45.7581 14.3945 45.4847 14.5859C45.2113 14.8047 44.8558 14.8047 44.555 14.668L41.055 12.7812L37.5277 14.668C37.2542 14.8047 36.8714 14.8047 36.6253 14.5859C36.3519 14.3945 36.2152 14.0664 36.2698 13.7383L36.9261 9.74609L34.0823 6.92969C33.8363 6.71094 33.7542 6.35547 33.8636 6.05469C33.973 5.72656 34.2464 5.50781 34.5745 5.45312L38.512 4.87891L40.262 1.24219C40.3988 0.941406 40.6995 0.75 41.055 0.75C41.3831 0.75 41.6839 0.941406 41.8206 1.24219L43.598 4.87891ZM60.188 4.87891L64.0981 5.45312C64.4263 5.50781 64.6997 5.72656 64.8091 6.05469C64.9184 6.35547 64.8364 6.71094 64.5903 6.92969L61.7466 9.74609L62.4302 13.7383C62.4848 14.0664 62.3481 14.3945 62.0747 14.5859C61.8013 14.8047 61.4458 14.8047 61.145 14.668L57.645 12.7812L54.1177 14.668C53.8442 14.8047 53.4614 14.8047 53.2153 14.5859C52.9419 14.3945 52.8052 14.0664 52.8598 13.7383L53.5161 9.74609L50.6723 6.92969C50.4263 6.71094 50.3442 6.35547 50.4536 6.05469C50.563 5.72656 50.8364 5.50781 51.1645 5.45312L55.102 4.87891L56.852 1.24219C56.9888 0.941406 57.2895 0.75 57.645 0.75C57.9731 0.75 58.2739 0.941406 58.4106 1.24219L60.188 4.87891ZM76.778 4.87891L80.6881 5.45312C81.0163 5.50781 81.2897 5.72656 81.3991 6.05469C81.5084 6.35547 81.4264 6.71094 81.1803 6.92969L78.3366 9.74609L79.0202 13.7383C79.0748 14.0664 78.9381 14.3945 78.6647 14.5859C78.3913 14.8047 78.0358 14.8047 77.735 14.668L74.235 12.7812L70.7077 14.668C70.4342 14.8047 70.0514 14.8047 69.8053 14.5859C69.5319 14.3945 69.3952 14.0664 69.4498 13.7383L70.1061 9.74609L67.2623 6.92969C67.0163 6.71094 66.9342 6.35547 67.0436 6.05469C67.153 5.72656 67.4264 5.50781 67.7545 5.45312L71.692 4.87891L73.442 1.24219C73.5788 0.941406 73.8795 0.75 74.235 0.75C74.5631 0.75 74.8639 0.941406 75.0006 1.24219L76.778 4.87891Z" fill="#2BC8EB"/>
</svg>
