<svg width="533" height="188" viewBox="0 0 533 188" fill="none" xmlns="http://www.w3.org/2000/svg">
<path opacity="0.15" d="M700.331 150.602C699.88 149.476 698.574 148.981 697.448 149.431C696.683 149.747 696.188 150.467 696.143 151.278L550.958 148.035L544.024 125.204C544.069 125.204 544.069 125.204 544.114 125.159C545.239 124.709 545.735 123.403 545.284 122.277C545.239 122.142 545.149 122.007 545.059 121.872L635.124 50.5855C635.394 50.9007 635.754 51.1259 636.16 51.2159L636.385 51.261C636.79 51.306 637.195 51.306 637.601 51.1259C638.726 50.6756 639.222 49.3696 638.771 48.2438C638.321 47.118 637.015 46.6227 635.889 47.073C635.214 47.3432 634.764 47.9286 634.628 48.6041L572.349 37.9314L617.967 -96.2647C619.002 -95.9495 620.173 -95.9945 621.254 -96.4448C623.776 -97.4806 624.947 -100.408 623.866 -102.884C622.83 -105.406 619.903 -106.577 617.426 -105.496C615.49 -104.686 614.319 -102.749 614.409 -100.723L508.988 -91.9866L580.77 -279.366C581.806 -279.051 582.976 -279.096 584.057 -279.546C586.579 -280.582 587.75 -283.509 586.669 -285.986C585.633 -288.507 582.706 -289.678 580.229 -288.597C577.708 -287.562 576.537 -284.635 577.618 -282.158C577.888 -281.527 578.248 -281.032 578.698 -280.582L436.532 -131.03L439.008 -200.695C439.639 -200.695 440.269 -200.83 440.9 -201.1C443.422 -202.136 444.592 -205.063 443.557 -207.539C442.521 -210.061 439.594 -211.232 437.117 -210.151C434.595 -209.116 433.424 -206.188 434.505 -203.712C434.91 -202.721 435.631 -201.91 436.487 -201.415L376.594 -107.163C375.693 -107.703 374.612 -107.793 373.576 -107.388C372.811 -107.072 372.225 -106.487 371.865 -105.812L322.735 -128.778C323.095 -129.589 323.095 -130.534 322.735 -131.435C322.014 -133.146 320.033 -133.957 318.322 -133.236C316.611 -132.516 315.8 -130.534 316.521 -128.823C316.611 -128.553 316.791 -128.328 316.926 -128.103L261.446 -78.8822L226.591 -112.206C227.447 -113.152 227.762 -114.548 227.222 -115.809C226.501 -117.52 224.52 -118.33 222.808 -117.61C221.097 -116.889 220.287 -114.908 221.007 -113.197C221.232 -112.701 221.547 -112.251 221.908 -111.936L167.869 -45.8286L141.975 -84.9616C142.786 -85.547 143.101 -86.6278 142.696 -87.5735C142.246 -88.6993 140.94 -89.1946 139.814 -88.7443C138.688 -88.294 138.193 -86.988 138.643 -85.8622C138.868 -85.3669 139.229 -84.9616 139.724 -84.7364L108.922 -11.1988L40.4727 -48.1252C40.7429 -48.6656 40.788 -49.2961 40.5178 -49.8815C40.0675 -51.0073 38.7615 -51.5026 37.6357 -51.0523C36.5099 -50.602 36.0145 -49.2961 36.4649 -48.1703C36.9152 -47.0895 38.086 -46.5941 39.1668 -46.9544L58.3055 1.90561L-64.0021 4.60754C-64.0021 4.38239 -64.0471 4.15723 -64.1372 3.93207C-64.5875 2.80627 -65.8935 2.31091 -67.0193 2.76126C-68.1451 3.21158 -68.6404 4.51749 -68.1901 5.64328C-67.7398 6.7691 -66.4339 7.26447 -65.308 6.81415C-64.7677 6.58899 -64.3624 6.13864 -64.1372 5.64328L76.9939 56.4397C76.7688 57.1602 76.7688 57.9708 77.084 58.7363C77.8045 60.4476 79.7859 61.2581 81.4971 60.5376C82.8031 59.9973 83.5686 58.7363 83.5686 57.4304L163.186 56.0794L207.497 112.28C206.822 112.865 206.552 113.901 206.912 114.756C207.362 115.882 208.668 116.378 209.794 115.927C210.785 115.522 211.28 114.486 211.1 113.496L224.835 110.343L243.028 161.32C241.947 161.815 241.407 163.076 241.857 164.157C242.307 165.283 243.613 165.778 244.739 165.328C245.82 164.877 246.315 163.661 245.955 162.581L297.112 136.777C297.652 137.678 298.823 138.083 299.814 137.633C300.534 137.318 300.984 136.687 301.12 136.012L327.914 138.128L344.35 175.19C343.36 175.685 342.864 176.901 343.315 177.982C343.765 179.108 345.071 179.603 346.197 179.153C346.962 178.837 347.458 178.117 347.503 177.351V177.126C347.503 177.036 347.503 176.991 347.458 176.901L399.155 167.309C399.2 167.444 399.245 167.579 399.29 167.714C400.01 169.426 401.992 170.236 403.703 169.516C403.928 169.426 404.153 169.291 404.378 169.155L404.559 169.02C404.829 168.795 405.099 168.48 405.279 168.21L405.414 167.985C405.639 167.534 405.775 166.994 405.775 166.499V166.273C405.775 166.048 405.729 165.823 405.639 165.553L457.066 146.955C457.427 147.855 458.327 148.351 459.228 148.26L459.453 148.215C459.588 148.215 459.678 148.17 459.813 148.125L460.038 148.035L460.083 147.99L460.309 147.855C460.354 147.81 460.399 147.765 460.444 147.72L460.624 147.54C460.804 147.36 460.939 147.135 461.029 146.909L559.92 184.872C559.875 185.007 559.875 185.187 559.875 185.322V185.547C559.875 185.772 559.92 185.997 560.01 186.178C560.28 186.763 560.731 187.168 561.316 187.394L561.721 187.484C562.127 187.529 562.487 187.484 562.892 187.349C563.793 186.943 564.333 186.043 564.198 185.097L608.825 173.884L609.095 173.839L696.098 151.998C696.098 152.043 696.143 152.133 696.143 152.178C696.188 152.223 696.188 152.313 696.233 152.358L695.557 153.034L696.458 152.674C696.458 152.674 696.458 152.674 696.458 152.719L696.638 152.899C696.728 152.989 696.773 153.034 696.863 153.079L697.088 153.214C697.674 153.529 698.349 153.619 699.025 153.349C700.24 152.989 700.781 151.728 700.331 150.602ZM634.944 50.4054L544.879 121.691C544.654 121.421 544.384 121.241 544.069 121.106L554.426 90.6192L634.809 50.2252C634.899 50.2703 634.944 50.3604 634.944 50.4054ZM399.425 164.832L380.782 154.385L387.176 150.242L399.965 164.112C399.74 164.292 399.56 164.562 399.425 164.832ZM353.312 139.209L337.01 132.184L330.886 99.4455L333.363 96.6535L354.213 138.353C353.807 138.534 353.492 138.849 353.312 139.209ZM353.087 139.884L338.226 138.714L337.055 132.454L353.222 139.434C353.177 139.569 353.132 139.749 353.087 139.884ZM104.058 0.914917L108.967 -10.8385L127.025 -1.11154C126.8 -0.661224 126.71 -0.120819 126.71 0.419556L104.058 0.914917ZM103.248 2.26587L101.897 1.18512L103.698 1.14008L103.248 2.26587ZM126.755 0.644714C126.8 0.959961 126.89 1.27518 126.98 1.59039C127.16 2.08575 127.475 2.49103 127.835 2.80627L118.018 14.0193L103.383 2.40097L103.923 1.14008L126.755 0.644714ZM128.015 2.98642C128.961 3.70691 130.222 3.9321 131.393 3.43674C131.438 3.43674 131.483 3.39169 131.528 3.39169L139.319 18.3424L130.627 24.1065L118.243 14.2445L128.015 2.98642ZM289.096 -29.7971L273.965 -22.0966L249.377 -67.8043L256.312 -73.9737L289.636 -32.2739C288.961 -31.6884 288.736 -30.6978 289.096 -29.7971ZM323.996 -17.3682L293.149 -29.9772C293.329 -30.4726 293.329 -31.0129 293.104 -31.5533C292.834 -32.1388 292.383 -32.5891 291.798 -32.7692L295.535 -45.9186L324.491 -18.2238C324.311 -17.9086 324.131 -17.6384 323.996 -17.3682ZM409.602 -65.0573L408.296 -58.7528L388.392 -74.7843L386.771 -78.3869L392.445 -84.3311L409.602 -65.0573ZM392.625 -84.5113L419.644 -112.927L409.692 -65.3275L392.625 -84.5113ZM439.684 -85.9973L463.596 -87.9788L434.73 -40.1545C434.46 -40.2896 434.19 -40.3797 433.875 -40.4247L434.775 -81.0888C435.406 -81.0888 436.036 -81.2239 436.667 -81.4941C438.558 -82.2146 439.729 -84.061 439.684 -85.9973ZM433.514 -36.0566L432.208 -9.39746L422.707 -4.75916C422.166 -5.70483 421.04 -6.11014 420.005 -5.70483L404.559 -39.5691L408.476 -58.3475L431.893 -39.479C431.488 -38.8936 431.398 -38.1281 431.713 -37.4075C432.028 -36.597 432.749 -36.1466 433.514 -36.0566ZM493.677 24.782L538.935 32.5276L515.653 71.2103L492.056 26.9886C492.957 26.5383 493.497 25.7277 493.677 24.782ZM515.518 71.4805L499.126 98.68L484.221 104.039L490.21 27.4839C490.705 27.4839 491.201 27.4389 491.651 27.2137C491.696 27.1687 491.786 27.1687 491.831 27.1237L515.518 71.4805ZM515.653 71.7506L525.065 89.4033L499.487 98.5899L515.653 71.7506ZM483.996 104.129L468.054 109.848L449.456 88.1874L488.634 26.9886C489.039 27.2137 489.49 27.3939 489.985 27.4389L483.996 104.129ZM444.232 118.719L447.97 125.654L427.84 125.159C427.84 124.979 427.795 124.844 427.75 124.664L444.232 118.719ZM427.705 124.393V124.348C427.525 123.943 427.3 123.673 426.985 123.448L437.747 106.651L444.142 118.539L427.705 124.393ZM444.367 118.404L437.837 106.38L449.321 88.4576L467.784 109.983L444.367 118.404ZM252.214 82.4233C252.169 82.2882 252.079 82.1531 251.989 82.018L286.259 55.7642C286.889 56.6198 287.79 57.2053 288.781 57.4754L284.548 73.7771L256.493 88.6378L251.854 84.5848C252.395 83.9994 252.53 83.1888 252.214 82.4233ZM388.212 -74.6492L404.288 -39.5241L397.398 -6.6055L387.942 -7.86639L379.476 -70.7314L385.375 -76.9458L388.212 -74.6492ZM385.555 -77.0809L386.591 -78.1617L387.987 -75.0995L385.555 -77.0809ZM388.662 -74.289L408.251 -58.4826L404.378 -39.8843L388.662 -74.289ZM418.609 -3.72342L397.624 -6.51541L404.424 -39.1188L419.735 -5.56973C419.059 -5.20947 418.654 -4.48895 418.609 -3.72342ZM434.865 100.841L427.66 87.4669L428.786 64.5005L442.611 80.622L434.865 100.841ZM442.791 80.8472L449.186 88.2775L437.747 106.155L435.046 101.157L442.791 80.8472ZM423.292 58.0609L428.561 64.2303L427.435 87.0616L424.148 80.9823L423.292 58.0609ZM423.877 80.4869L394.697 26.4032L395.372 25.5926L422.977 57.7906L423.877 80.4869ZM427.39 87.557L425.679 121.781L424.148 81.5677L427.39 87.557ZM428.786 64.1402L431.893 0.914917L467.649 15.1901L442.701 80.3518L428.786 64.1402ZM428.561 63.87L423.247 57.6555L420.95 -1.51682C421.176 -1.51682 421.401 -1.56186 421.626 -1.65195C422.166 -1.87711 422.527 -2.28238 422.752 -2.7327L431.668 0.824829L428.561 63.87ZM422.887 -2.95786C423.067 -3.45322 423.067 -3.99362 422.842 -4.48895C422.842 -4.48895 422.842 -4.48895 422.842 -4.534L432.208 -9.12729L431.713 0.554657L422.887 -2.95786ZM422.977 57.3854L395.552 25.4125L419.464 -1.92212C419.825 -1.65192 420.275 -1.4718 420.725 -1.4718L422.977 57.3854ZM395.417 25.2323L393.256 22.7105C393.886 22.0801 394.111 21.1344 393.751 20.2788C393.481 19.6483 392.94 19.198 392.31 19.0179L397.624 -6.33527L418.654 -3.54327C418.654 -3.31812 418.699 -3.09296 418.789 -2.82275C418.924 -2.55258 419.059 -2.28238 419.284 -2.10226L395.417 25.2323ZM423.697 124.258L367.137 101.742L376.684 70.5798L424.148 123.628C423.923 123.808 423.787 124.033 423.697 124.258ZM294.995 51.8464L347.052 40.3181C347.097 40.4082 347.097 40.4983 347.142 40.5883C347.142 40.6334 347.188 40.6334 347.188 40.6784L296.751 67.3825L292.248 57.2503C294.32 56.2596 295.445 54.008 294.995 51.8464ZM275.091 14.2895L282.386 -5.97504L289.321 6.85916C288.42 7.39957 288.015 8.5704 288.42 9.5611C288.556 9.87634 288.781 10.1465 289.006 10.3717L278.783 23.6112L275.091 14.2895ZM278.603 23.8363L265.724 40.4983L275.001 14.6948L278.603 23.8363ZM289.186 10.5068C289.501 10.7319 289.906 10.8671 290.312 10.8671L290.087 47.8385C289.546 47.8385 289.006 47.9286 288.465 48.1537L278.874 23.8363L289.186 10.5068ZM290.537 10.9121C290.807 10.9121 291.032 10.867 291.257 10.7319C291.708 10.5518 292.068 10.2366 292.293 9.8313L308.505 18.3874L292.383 48.3789C291.753 48.0637 291.032 47.8835 290.312 47.8385L290.537 10.9121ZM317.691 1.77054L347.683 38.1116C347.548 38.2467 347.413 38.4268 347.278 38.6069L308.82 18.3424L317.691 1.77054ZM308.73 18.5226L347.188 38.787C347.007 39.1924 346.962 39.5976 347.007 40.0479L294.95 51.5762C294.905 51.351 294.815 51.0808 294.725 50.8557C294.275 49.8199 293.509 49.0094 292.608 48.469L308.73 18.5226ZM348.493 37.6162L328.454 -12.865C329.085 -13.1351 329.625 -13.6305 329.985 -14.1709L356.014 0.779816L349.439 37.5712C349.124 37.4811 348.809 37.5261 348.493 37.6162ZM393.571 27.3038L387.942 33.7434L391.139 23.2509C391.499 23.341 391.86 23.341 392.22 23.2509L393.571 27.3038ZM392.49 23.2059C392.535 23.2059 392.535 23.2059 392.58 23.1609C392.625 23.1609 392.625 23.1158 392.67 23.1158L394.426 26.3581L393.796 27.0787L392.49 23.2059ZM387.401 34.7792L376.549 70.1295L366.416 58.7814L387.401 34.7792ZM387.536 34.1938L366.236 58.6013L350.7 41.2638C351.285 40.6784 351.511 39.7777 351.195 38.9672L389.788 22.1701C390.058 22.6655 390.464 23.0258 390.914 23.2059L387.536 34.1938ZM366.056 58.7814L351.466 75.4883L349.439 41.8492C349.619 41.8042 349.844 41.8042 350.025 41.7141C350.205 41.6241 350.385 41.534 350.52 41.3989L366.056 58.7814ZM391.544 18.9729L387.942 -7.59616L397.308 -6.33527L391.995 18.9729C391.905 18.9729 391.724 18.9729 391.544 18.9729ZM391.319 19.0179C391.184 19.0629 391.049 19.1079 390.914 19.153L377.494 -8.99219L387.762 -7.64124L391.319 19.0179ZM390.689 19.243C390.373 19.4232 390.103 19.6483 389.878 19.9636L356.239 0.644714L358.401 -11.514L377.179 -8.99219L390.689 19.243ZM377.359 -9.26236L363.264 -38.7585L366.551 -57.0866L379.25 -70.4612L387.717 -7.86639L377.359 -9.26236ZM377.044 -9.26236L358.446 -11.7391L363.174 -38.3082L377.044 -9.26236ZM356.014 0.509644L330.075 -14.3961C330.21 -14.6663 330.345 -14.9815 330.39 -15.2516L358.175 -11.559L356.014 0.509644ZM356.194 0.869873L389.788 20.1437C389.518 20.6841 389.473 21.2695 389.698 21.9L351.105 38.697C350.79 38.1116 350.25 37.7063 349.664 37.5712L356.194 0.869873ZM349.169 41.8943L351.24 75.7585L338.496 90.349L331.426 87.557C331.786 86.7464 331.786 85.8007 331.426 84.9451C331.111 84.1796 330.526 83.5491 329.805 83.2339L348.403 41.7592C348.629 41.8492 348.899 41.8943 349.169 41.8943ZM351.24 76.1188L352.456 95.933L338.721 90.4841L351.24 76.1188ZM351.466 75.8486L366.236 58.9615L376.458 70.3997L366.867 101.697L352.726 96.023L351.466 75.8486ZM376.729 70.3096L387.762 34.2838L393.661 27.529L424.913 123.087C424.868 123.087 424.868 123.087 424.823 123.132C424.643 123.223 424.463 123.313 424.328 123.448L376.729 70.3096ZM394.561 26.178L392.85 23.0258C392.895 22.9807 392.985 22.9357 393.03 22.8907L395.192 25.4125L394.561 26.178ZM379.431 -71.0016L377.809 -83.0252L385.195 -77.0809L379.431 -71.0016ZM379.205 -70.7764L366.596 -57.537L371.955 -87.7536L377.494 -83.2954L379.205 -70.7764ZM366.236 -56.7714L363.084 -39.1188L358.536 -48.6656L366.236 -56.7714ZM362.994 -38.7135L358.22 -11.8292L330.436 -15.5219C330.526 -16.1073 330.436 -16.7377 330.21 -17.2781C330.075 -17.6384 329.85 -17.9536 329.58 -18.2238L358.31 -48.4404L362.994 -38.7135ZM328.229 -12.7749L348.223 37.7063C348.088 37.7513 347.953 37.8414 347.863 37.9314L317.826 1.54538L325.617 -12.91C326.383 -12.5497 327.328 -12.4597 328.229 -12.7749ZM308.64 18.1623L292.428 9.60614C292.653 9.06573 292.698 8.4353 292.473 7.84988C292.158 7.08435 291.393 6.58896 290.627 6.54395L291.212 -28.4911C291.483 -28.4911 291.708 -28.5362 291.978 -28.6713C292.158 -28.7614 292.293 -28.8514 292.428 -28.9415L317.556 1.54538L308.64 18.1623ZM290.357 6.54395C290.087 6.54395 289.861 6.58899 289.591 6.72409C289.546 6.72409 289.546 6.7691 289.501 6.7691L282.476 -6.29025L290.492 -28.5812C290.627 -28.5362 290.807 -28.4911 290.942 -28.4911L290.357 6.54395ZM282.341 -6.56042L277.027 -16.4225L289.636 -29.0316C289.816 -28.8514 289.997 -28.7163 290.222 -28.6263L282.341 -6.56042ZM282.206 -6.24521L274.956 13.9743L266.94 -6.33527L276.847 -16.2424L282.206 -6.24521ZM266.85 -6.6055L263.022 -16.3324L273.875 -21.8264L276.757 -16.5126L266.85 -6.6055ZM266.625 -6.38031L241.722 18.4775L238.75 -4.03864L262.752 -16.1523L266.625 -6.38031ZM266.76 -6.15515L274.866 14.2895L265.229 41.0837L247.756 63.6899L241.812 18.7927L266.76 -6.15515ZM247.531 64.2753L249.738 81.1174C249.603 81.1624 249.467 81.2074 249.287 81.2525C248.882 81.4326 248.567 81.7028 248.342 82.018L238.525 75.8486L247.531 64.2753ZM247.756 64.0051L264.959 41.8042L250.818 81.1624C250.548 81.0723 250.278 81.0723 250.008 81.0723L247.756 64.0051ZM265.409 41.2188L278.693 24.1065L288.24 48.2888C285.763 49.3696 284.548 52.2517 285.628 54.7285C285.763 55.0437 285.944 55.3589 286.124 55.6291L251.854 81.8829C251.629 81.6127 251.359 81.4326 251.044 81.2975L265.409 41.2188ZM289.051 57.5655C290.042 57.7906 291.077 57.7456 292.068 57.3403L296.571 67.4726L284.908 73.642L289.051 57.5655ZM296.661 67.6978L307.064 91.1596L278.648 97.6892L284.818 73.9122L296.661 67.6978ZM296.841 67.6077L347.323 40.8585C347.548 41.1738 347.818 41.4439 348.178 41.6241L329.58 83.0988C328.769 82.7836 327.869 82.7385 327.013 83.0988C325.437 83.7743 324.626 85.4405 325.032 87.0166L307.334 91.1145L296.841 67.6077ZM325.077 87.2868V87.3318L308.415 93.6814L307.379 91.3397L325.077 87.2868ZM325.167 87.557C325.797 88.998 327.283 89.8086 328.769 89.5834L330.616 99.3554L317.556 114.306L308.55 93.9516L325.167 87.557ZM329.04 89.5384C329.22 89.4933 329.445 89.4483 329.625 89.3583C329.67 89.3583 329.67 89.3132 329.715 89.3132L333.228 96.3383L330.841 99.0852L329.04 89.5384ZM329.94 89.2232C330.165 89.0881 330.345 88.953 330.526 88.8179L335.299 93.9966L333.408 96.1581L329.94 89.2232ZM330.661 88.6378C330.931 88.3676 331.111 88.0974 331.291 87.7821L338.271 90.5742L335.434 93.8165L330.661 88.6378ZM338.541 90.6642L352.456 96.2032L353.492 113.405L335.614 93.9966L338.541 90.6642ZM352.726 96.2932L366.822 101.877L360.877 121.331L353.807 113.676L352.726 96.2932ZM367.047 102.012L423.607 124.528C423.517 124.844 423.472 125.204 423.517 125.564L374.387 136.012L361.057 121.556L367.047 102.012ZM393.841 27.3488L394.516 26.5833L423.877 81.0273L425.499 122.997C425.364 122.997 425.228 123.042 425.138 123.042L393.841 27.3488ZM427.615 87.9622L434.73 101.157L426.309 123.132C426.174 123.087 426.039 123.042 425.859 123.042L427.615 87.9622ZM434.91 101.427L437.567 106.38L426.715 123.313C426.669 123.268 426.579 123.268 426.534 123.223L434.91 101.427ZM449.321 88.0523L442.926 80.577L467.919 15.2802L487.238 22.9807C486.968 23.7463 486.968 24.6019 487.283 25.4125C487.553 26.0429 487.958 26.5383 488.499 26.8985L449.321 88.0523ZM487.283 22.7556L467.964 15.0551L472.107 4.24731L488.003 21.7198C487.688 21.99 487.463 22.3503 487.283 22.7556ZM467.739 14.965L431.938 0.689758L432.434 -9.21735L451.437 -18.539L471.927 4.02216L467.739 14.965ZM451.662 -18.6741L487.328 -36.1466L472.062 3.75192L451.662 -18.6741ZM451.482 -18.8542L435.271 -36.687C435.811 -37.2274 436.036 -38.038 435.811 -38.8036L496.154 -59.2031L487.463 -36.4619L451.482 -18.8542ZM434.55 -36.1917C434.73 -36.2817 434.91 -36.3718 435.091 -36.5069L451.257 -18.7191L432.434 -9.48755L433.74 -36.0116C434.01 -36.0566 434.28 -36.1016 434.55 -36.1917ZM432.028 -39.6141L408.521 -58.5727L409.827 -64.8322L432.163 -39.7942C432.118 -39.7492 432.073 -39.7042 432.028 -39.6141ZM386.681 -78.612L376.323 -101.218C376.549 -101.353 376.774 -101.488 376.954 -101.624L392.265 -84.4662L386.681 -78.612ZM386.501 -78.4319L385.375 -77.2611L377.764 -83.3855L375.378 -100.948C375.603 -100.993 375.873 -101.038 376.098 -101.173L386.501 -78.4319ZM377.494 -83.6106L372.045 -87.9788L374.342 -100.903C374.612 -100.858 374.882 -100.858 375.153 -100.903L377.494 -83.6106ZM371.82 -88.1589L367.947 -91.2661L373.306 -101.218C373.576 -101.083 373.802 -100.993 374.072 -100.948L371.82 -88.1589ZM371.775 -87.8887L366.326 -57.1767L358.446 -48.8908L352.141 -62.0402L367.812 -91.086L371.775 -87.8887ZM358.22 -48.7106L329.445 -18.4039C329.265 -18.584 329.04 -18.7191 328.814 -18.8542L352.006 -61.7249L358.22 -48.7106ZM325.392 -13.0451L317.646 1.32022L292.563 -29.0766C292.789 -29.2567 292.924 -29.4818 293.059 -29.752L323.906 -17.143C323.636 -16.3775 323.636 -15.4768 323.951 -14.6662C324.266 -13.9457 324.761 -13.4054 325.392 -13.0451ZM276.892 -16.6477L274.055 -21.9164L289.186 -29.5719C289.276 -29.4368 289.366 -29.3017 289.456 -29.2117L276.892 -16.6477ZM273.74 -22.0065L262.887 -16.5576L244.379 -63.3911L249.152 -67.6242L273.74 -22.0065ZM262.662 -16.4225L238.705 -4.30884L232.31 -52.7185L244.154 -63.211L262.662 -16.4225ZM238.525 -4.21875L210.334 10.0114L215.648 -37.9479L232.085 -52.5384L238.525 -4.21875ZM210.109 10.1465L196.284 17.1265L189.349 -12.0544C189.439 -12.0994 189.485 -12.0994 189.575 -12.1444C190.7 -12.5948 191.196 -13.9007 190.745 -15.0265C190.655 -15.2066 190.565 -15.3868 190.43 -15.5219L215.423 -37.7228L210.109 10.1465ZM179.082 26.133L193.718 18.7477L198.716 50.2703L183.495 39.1923L179.082 26.133ZM183.18 38.8771L171.156 30.0958L178.857 26.178L183.18 38.8771ZM193.898 18.3424L189.079 -11.9193L196.014 17.2616L193.898 18.3424ZM188.854 -11.9643L193.673 18.4775L178.992 25.9078L169.715 -1.42679L186.963 -12.8199C187.413 -12.2345 188.134 -11.9193 188.854 -11.9643ZM178.812 25.9979L170.976 29.9607L148.91 13.8842L148.775 12.3531L169.535 -1.3367L178.812 25.9979ZM148.64 13.7041L147.74 13.0736L148.55 12.5332L148.64 13.7041ZM148.73 12.0829L146.209 -18.9893L158.412 -33.895L169.4 -1.56186L148.73 12.0829ZM148.505 12.218L147.514 12.8484L132.879 2.17581C133.509 1.27515 133.69 0.0592957 133.239 -1.0665C133.059 -1.51682 132.789 -1.87708 132.474 -2.19229L146.028 -18.7642L148.505 12.218ZM147.289 13.0286L139.544 18.1623L131.753 3.25659C132.113 3.03143 132.474 2.76123 132.699 2.44601L147.289 13.0286ZM139.454 18.4775L148.55 35.905C147.965 36.2202 147.514 36.6255 147.109 37.0758L130.852 24.1516L139.454 18.4775ZM139.679 18.3424L147.514 13.1637L148.64 13.9743L150.351 35.3195C149.901 35.3646 149.406 35.4997 148.955 35.6798C148.865 35.7249 148.82 35.7699 148.73 35.7699L139.679 18.3424ZM148.91 14.1994L170.706 30.0958L155.215 37.9314C154.314 36.2202 152.468 35.2745 150.622 35.3646L148.91 14.1994ZM170.931 30.2309L183.315 39.2824L186.963 49.955L155.71 41.3539C155.935 40.3632 155.89 39.3275 155.44 38.3367C155.395 38.2467 155.35 38.2016 155.35 38.1116L170.931 30.2309ZM183.675 39.5526L198.806 50.5855L199.257 53.3325L187.278 50.0451L183.675 39.5526ZM199.076 50.7656L202.409 53.1974C202.229 53.4676 202.094 53.7828 202.003 54.098L199.482 53.4225L199.076 50.7656ZM199.257 53.6027L199.527 55.2238L189.034 55.4039L187.278 50.3153L199.257 53.6027ZM199.527 53.6927L201.913 54.3682C201.823 54.6384 201.823 54.9536 201.823 55.2238L199.752 55.2689L199.527 53.6927ZM202.544 53.0172L198.986 50.4504L193.943 18.6126L196.104 17.5318L204.3 51.8914C204.165 51.9365 204.03 51.9815 203.895 52.0265C203.354 52.2517 202.904 52.6119 202.544 53.0172ZM196.329 17.3967L210.064 10.4618L205.471 51.7563C205.156 51.7563 204.841 51.7563 204.57 51.8014L196.329 17.3967ZM210.334 10.3267L238.57 -3.94858L241.542 18.7026L207.542 52.657C207.047 52.2067 206.417 51.8914 205.741 51.8014L210.334 10.3267ZM241.587 18.9729L247.531 63.915L238.39 75.7585L208.173 56.845C208.668 55.9443 208.803 54.8636 208.353 53.8278C208.173 53.4676 207.993 53.1073 207.723 52.8371L241.587 18.9729ZM206.552 58.241C207.182 57.9708 207.678 57.5655 208.038 57.0251L238.254 75.9387L220.827 98.4548L206.507 58.286C206.507 58.241 206.507 58.241 206.552 58.241ZM238.435 76.0738L248.297 82.2432C247.981 82.8286 247.936 83.5041 248.207 84.1345C248.252 84.2696 248.342 84.3597 248.387 84.4948L222.673 103.588L220.917 98.68L238.435 76.0738ZM248.522 84.6749C248.882 85.0802 249.377 85.3504 249.918 85.4405L249.377 92.4655L223.574 106.11L222.763 103.814L248.522 84.6749ZM250.143 85.4855C250.458 85.4855 250.728 85.4405 251.044 85.3054C251.314 85.1703 251.584 85.0352 251.764 84.81L256.312 88.7729L249.603 92.3304L250.143 85.4855ZM256.493 88.953L269.057 99.9409L248.612 104.669L249.558 92.6456L256.493 88.953ZM256.718 88.8179L284.503 74.1374L278.378 97.7793L269.417 99.8508L256.718 88.8179ZM278.288 98.0495L276.757 103.949C276.352 103.859 275.901 103.904 275.496 104.084C275.226 104.219 274.956 104.354 274.776 104.579L269.597 100.076L278.288 98.0495ZM278.558 98.0045L307.154 91.4297L308.19 93.8165L278.333 105.21C278.063 104.624 277.568 104.219 276.982 104.039L278.558 98.0045ZM308.325 93.9966L317.421 114.486L311.567 121.151L278.378 106.831C278.558 106.38 278.558 105.885 278.423 105.435L308.325 93.9966ZM317.511 114.756L322.42 125.879L311.792 121.286L317.511 114.756ZM317.646 114.531L330.661 99.6256L336.74 132.004L322.735 125.97L317.646 114.531ZM333.498 96.3833L335.434 94.1767L353.537 113.766L355.023 137.993C354.843 138.038 354.618 138.038 354.438 138.128L333.498 96.3833ZM353.807 114.036L360.787 121.601L355.744 138.038C355.609 137.993 355.428 137.993 355.248 137.993L353.807 114.036ZM360.967 121.827L374.117 136.057L357.365 139.614C357.32 139.524 357.32 139.434 357.275 139.344C357.005 138.759 356.509 138.308 355.969 138.128L360.967 121.827ZM374.297 136.237L379.115 141.461L357.455 140.245C357.455 140.11 357.455 139.975 357.41 139.839L374.297 136.237ZM379.341 141.731L386.996 150.062L380.511 154.25L357.23 141.145C357.32 140.92 357.41 140.695 357.455 140.47L379.341 141.731ZM387.221 149.927L379.701 141.776L398.209 142.812L387.221 149.927ZM379.476 141.506L374.612 136.192L423.607 125.744C423.652 125.834 423.652 125.924 423.697 126.015C423.742 126.105 423.787 126.195 423.832 126.24L398.614 142.541L379.476 141.506ZM423.923 126.465C424.103 126.69 424.283 126.87 424.508 127.005L415.231 143.487L398.975 142.586L423.923 126.465ZM424.688 127.14C425.183 127.365 425.769 127.456 426.354 127.23L426.579 127.14C426.94 126.96 427.255 126.735 427.435 126.42L457.201 145.018C457.066 145.288 456.976 145.559 456.931 145.874L433.064 144.523H432.794L415.456 143.532L424.688 127.14ZM457.336 144.838L427.57 126.24C427.705 125.969 427.795 125.654 427.84 125.384L448.105 125.879L458.012 144.208C457.742 144.388 457.517 144.568 457.336 144.838ZM448.24 125.654L444.457 118.629L467.964 110.163L478.997 122.997C478.051 123.898 477.511 125.069 477.421 126.375L448.24 125.654ZM479.177 122.862L468.234 110.118L483.996 104.444L482.645 121.736C481.924 121.691 481.204 121.827 480.483 122.097C479.988 122.277 479.537 122.547 479.177 122.862ZM484.221 104.309L498.946 98.9952L484.896 122.367C484.266 122.007 483.59 121.736 482.87 121.691L484.221 104.309ZM499.352 98.9051L525.245 89.5834L531.73 101.787L486.742 124.393C486.337 123.628 485.797 122.997 485.121 122.547L499.352 98.9051ZM554.246 90.439L531.91 101.652L525.425 89.4934L558.614 77.5598L554.246 90.439ZM558.929 77.4698L633.548 50.6305L554.561 90.304L558.929 77.4698ZM531.82 101.967L542.132 121.286C541.457 121.691 541.096 122.412 541.096 123.132L487.283 126.24C487.238 125.699 487.148 125.159 486.923 124.664C486.923 124.619 486.878 124.573 486.878 124.528L531.82 101.967ZM542.357 121.151L532.045 101.832L554.156 90.7093L543.843 120.971C543.393 120.836 542.898 120.836 542.402 121.061C542.402 121.151 542.357 121.151 542.357 121.151ZM634.583 48.8743C634.538 49.2345 634.583 49.5497 634.719 49.91L559.019 77.1545L572.259 38.2467L634.583 48.8743ZM558.749 77.2446L525.335 89.2682L515.833 71.4805L539.25 32.5726L572.034 38.2016L558.749 77.2446ZM617.741 -96.2647L572.124 37.9764L539.385 32.3925L616.976 -96.5799C617.201 -96.4899 617.471 -96.3548 617.741 -96.2647ZM616.751 -96.715L539.115 32.3474L493.768 24.6019C493.858 24.0165 493.768 23.431 493.542 22.8456C493.407 22.4854 493.182 22.1701 492.912 21.9L615.895 -97.3455C616.165 -97.1653 616.435 -96.9402 616.751 -96.715ZM615.715 -97.5706L492.732 21.6748C491.786 20.7741 490.345 20.4589 489.084 20.9993C488.769 21.1344 488.454 21.3145 488.229 21.5397L472.287 3.97708L487.688 -36.2817L615.039 -98.6514C615.175 -98.2461 615.445 -97.8858 615.715 -97.5706ZM614.814 -99.0117C614.814 -98.9666 614.859 -98.9216 614.904 -98.8766L487.823 -36.642L496.515 -59.2932L614.769 -99.2368C614.724 -99.1468 614.769 -99.1017 614.814 -99.0117ZM614.454 -100.453C614.499 -100.137 614.544 -99.7772 614.634 -99.462L496.56 -59.6084L508.853 -91.7164L614.454 -100.453ZM496.289 -59.4733L435.766 -39.0287V-39.0737C435.586 -39.479 435.316 -39.7942 435 -40.0194L463.956 -87.9788L508.673 -91.6714L496.289 -59.4733ZM580.5 -279.411L508.673 -91.9416L464.001 -88.2489L579.689 -279.816C579.959 -279.636 580.23 -279.546 580.5 -279.411ZM579.509 -279.906L463.776 -88.2039L439.729 -86.2225C439.684 -86.7629 439.594 -87.3483 439.369 -87.8887C439.053 -88.6993 438.513 -89.3748 437.883 -89.8701L579.374 -280.041C579.374 -279.996 579.419 -279.951 579.509 -279.906ZM578.833 -280.447C578.924 -280.357 579.014 -280.312 579.104 -280.221L437.612 -90.0502C436.847 -90.5906 435.991 -90.9059 435.091 -90.9509L436.532 -130.759L578.833 -280.447ZM436.261 -130.399L434.865 -90.9059C434.19 -90.9059 433.559 -90.7708 432.884 -90.5006C430.362 -89.4648 429.191 -86.5377 430.272 -84.0609C431.038 -82.2597 432.749 -81.1339 434.595 -81.0438L433.695 -40.3797C433.424 -40.3797 433.154 -40.3346 432.929 -40.1995C432.749 -40.1095 432.569 -40.0194 432.434 -39.8843L409.962 -65.0573L420.005 -113.197L436.261 -130.399ZM438.783 -200.74L436.261 -130.804L420.05 -113.737L438.243 -200.785C438.423 -200.74 438.603 -200.74 438.783 -200.74ZM436.667 -201.325C437.072 -201.1 437.522 -200.92 438.018 -200.83L419.735 -113.377L392.445 -84.6914L377.179 -101.849C378.17 -102.794 378.53 -104.28 377.945 -105.586C377.674 -106.217 377.269 -106.712 376.729 -107.072L436.667 -201.325ZM371.685 -105.586C371.325 -104.776 371.325 -103.83 371.685 -102.974C372 -102.254 372.496 -101.714 373.081 -101.353L367.722 -91.4462L322.24 -128.057C322.33 -128.193 322.465 -128.373 322.51 -128.508L371.685 -105.586ZM322.15 -127.877L367.632 -91.2211L352.006 -62.3104L321.069 -127.067C321.474 -127.292 321.834 -127.562 322.15 -127.877ZM320.844 -126.977L351.871 -62.0402L328.589 -18.9893C328.094 -19.2145 327.553 -19.3496 326.968 -19.3496L319.898 -126.706C320.213 -126.752 320.528 -126.842 320.844 -126.977ZM319.673 -126.706L326.743 -19.3496C326.428 -19.3046 326.112 -19.2145 325.797 -19.1245C325.392 -18.9443 324.987 -18.6741 324.716 -18.4039L295.671 -46.1888L318.772 -126.887C319.042 -126.752 319.358 -126.706 319.673 -126.706ZM317.016 -127.877C317.421 -127.427 317.962 -127.067 318.547 -126.887L295.49 -46.3239L261.626 -78.7021L317.016 -127.877ZM261.446 -78.522L295.4 -46.0537L291.618 -32.8142C291.167 -32.9043 290.717 -32.9043 290.267 -32.6791C290.132 -32.6341 289.997 -32.544 289.861 -32.454L256.493 -74.1539L261.446 -78.522ZM226.411 -112.026L261.266 -78.7021L256.357 -74.334L226.321 -111.936C226.321 -111.936 226.366 -111.981 226.411 -112.026ZM226.096 -111.756L256.177 -74.1539L249.242 -68.0295L225.781 -111.576C225.916 -111.621 226.006 -111.711 226.096 -111.756ZM225.555 -111.441L249.017 -67.8493L244.244 -63.6163L225.375 -111.35C225.465 -111.396 225.51 -111.441 225.555 -111.441ZM225.195 -111.305L244.109 -63.4812L232.31 -53.0337L224.655 -111.17C224.835 -111.17 225.015 -111.215 225.195 -111.305ZM224.385 -111.125L232.085 -52.8086L215.738 -38.2632L223.844 -111.08C224.024 -111.08 224.204 -111.08 224.385 -111.125ZM222.088 -111.756C222.538 -111.441 223.034 -111.215 223.619 -111.125L215.513 -38.038L190.295 -15.657C189.665 -16.2874 188.719 -16.4675 187.908 -16.1523C187.818 -16.1073 187.683 -16.0623 187.593 -15.9722L168.004 -45.5584L222.088 -111.756ZM167.779 -45.3783L187.323 -15.8371C186.557 -15.2517 186.287 -14.2159 186.647 -13.2703C186.693 -13.1802 186.738 -13.0901 186.783 -13L169.625 -1.69696L158.592 -34.1202L167.779 -45.3783ZM141.435 -84.6914C141.525 -84.7364 141.615 -84.7815 141.705 -84.8265L167.644 -45.6034L158.502 -34.4354L141.435 -84.6914ZM141.165 -84.6013L158.322 -34.2103L146.163 -19.3496L140.895 -84.5563C140.985 -84.5563 141.075 -84.5563 141.165 -84.6013ZM140.67 -84.5113L145.983 -19.0794L132.294 -2.32742C131.843 -2.68768 131.258 -2.95786 130.672 -3.04791L140.489 -84.5113C140.534 -84.5113 140.579 -84.5113 140.67 -84.5113ZM139.859 -84.6464C139.994 -84.6013 140.084 -84.5563 140.219 -84.5563L130.402 -3.09296C129.862 -3.13797 129.321 -3.04791 128.781 -2.82275C128.061 -2.50754 127.475 -1.96716 127.115 -1.3367L109.102 -11.1087L139.859 -84.6464ZM40.3377 -47.9451L108.787 -10.9736L103.833 0.914917L101.627 0.959961L40.2476 -47.81C40.2476 -47.855 40.2926 -47.9001 40.3377 -47.9451ZM39.3469 -47.0895C39.6171 -47.2246 39.8873 -47.4047 40.0675 -47.6299L101.176 0.959961L58.5307 1.90561L39.3469 -47.0895ZM77.084 56.2145L-64.0471 5.41812C-64.0021 5.23801 -63.9571 5.05786 -63.9571 4.87775L58.3956 2.17581L78.8853 54.3682C78.0296 54.7285 77.3992 55.4039 77.084 56.2145ZM79.1104 54.2781L58.6658 2.1308L101.491 1.18512L103.113 2.49103L81.4071 54.3232C80.7316 54.008 79.876 54.0079 79.1104 54.2781ZM81.6773 54.3682L103.338 2.62613L117.883 14.1994L82.3528 54.8185C82.1276 54.6384 81.9024 54.5033 81.6773 54.3682ZM82.5329 54.9987L118.063 14.3796L130.402 24.1966L82.9832 55.449C82.8481 55.2689 82.713 55.1338 82.5329 54.9987ZM83.4786 56.5748C83.4335 56.4397 83.3885 56.3046 83.3435 56.1245C83.2534 55.9443 83.2084 55.8092 83.0733 55.6291L130.582 24.2867L146.884 37.256C146.028 38.3817 145.713 39.8228 146.028 41.2638L83.4786 56.5748ZM83.6136 57.2503C83.6136 57.1152 83.5686 56.9801 83.5686 56.845L146.118 41.534C146.163 41.7592 146.254 41.9393 146.344 42.1645C147.379 44.6863 150.306 45.8571 152.783 44.8214C153.143 44.6412 153.504 44.4611 153.819 44.2359L163.006 55.8993L83.6136 57.2503ZM163.321 55.8543L153.999 44.0558C154.765 43.4254 155.305 42.5698 155.575 41.6241L187.008 50.2703L188.764 55.449L163.321 55.8543ZM207.678 112.145L163.501 56.1245L188.854 55.6742L207.993 111.964C207.903 112.01 207.813 112.055 207.678 112.145ZM208.263 111.874L189.169 55.6742L199.617 55.494L208.533 111.784C208.398 111.829 208.353 111.874 208.263 111.874ZM208.758 111.784L199.842 55.494L201.868 55.449C201.913 55.7642 202.003 56.1245 202.139 56.4397C202.814 58.0609 204.615 58.8714 206.282 58.3761L220.647 98.68L210.199 112.145C209.749 111.874 209.254 111.739 208.758 111.784ZM210.379 112.325L220.737 98.9501L222.448 103.769L210.605 112.55C210.515 112.46 210.47 112.37 210.379 112.325ZM210.74 112.73L222.493 103.994L223.304 106.245L210.785 112.865C210.785 112.82 210.785 112.775 210.74 112.73ZM211.01 113.315C211.01 113.27 210.965 113.18 210.965 113.135C210.965 113.135 210.965 113.135 210.965 113.09L223.439 106.471L224.745 110.118L211.01 113.315ZM224.97 110.073L223.619 106.335L249.287 92.7357L248.342 104.669L224.97 110.073ZM243.208 161.275L225.015 110.298L248.342 104.939L243.929 161.185C243.703 161.185 243.433 161.185 243.208 161.275ZM244.154 161.185L248.567 104.894L269.282 100.121L274.595 104.759C274.145 105.345 273.965 106.2 274.28 106.966C274.46 107.371 274.776 107.731 275.136 107.957L244.874 161.455C244.649 161.32 244.424 161.23 244.154 161.185ZM245.82 162.401C245.64 162.04 245.415 161.77 245.099 161.545L275.361 108.047C275.901 108.317 276.577 108.362 277.162 108.092C277.297 108.047 277.433 107.957 277.523 107.867L297.382 134.03C296.751 134.661 296.481 135.606 296.841 136.462C296.841 136.507 296.886 136.507 296.886 136.552L245.82 162.401ZM298.057 133.67C297.877 133.76 297.742 133.85 297.607 133.94L277.748 107.731C277.973 107.551 278.153 107.326 278.288 107.056L311.387 121.331L300.309 133.985C299.723 133.49 298.868 133.31 298.057 133.67ZM301.074 135.832C301.074 135.516 301.074 135.156 300.894 134.841C300.804 134.616 300.624 134.391 300.489 134.21L311.612 121.511L322.555 126.195L327.734 137.903L301.074 135.832ZM322.915 126.33L336.83 132.319L338.001 138.669L328.049 137.903L322.915 126.33ZM344.531 175.145L328.139 138.173L338.001 138.939L344.756 175.055C344.711 175.055 344.621 175.1 344.531 175.145ZM345.026 175.01L338.271 138.984L353.087 140.155C353.087 140.47 353.132 140.74 353.267 141.055C353.717 142.181 355.023 142.676 356.149 142.226C356.599 142.046 356.914 141.731 357.14 141.371L380.331 154.385L347.097 175.91C346.602 175.235 345.792 174.92 345.026 175.01ZM347.413 176.676C347.368 176.586 347.368 176.451 347.323 176.361C347.278 176.271 347.233 176.226 347.188 176.135L380.556 154.565L399.335 165.103C399.065 165.733 398.975 166.454 399.11 167.129L347.413 176.676ZM401.091 163.301C400.731 163.436 400.416 163.661 400.146 163.887L387.401 150.062L398.659 142.812L415.141 143.757L404.063 163.481C403.163 162.986 402.082 162.896 401.091 163.301ZM436.712 154.07L436.487 154.16L405.639 165.328C405.594 165.283 405.594 165.193 405.549 165.148C405.279 164.472 404.829 163.977 404.243 163.616L415.366 143.802L432.929 144.793H433.199L456.931 146.144C456.931 146.324 456.976 146.504 457.021 146.729L436.712 154.07ZM458.282 144.072C458.237 144.072 458.237 144.117 458.192 144.117L448.375 125.879L477.421 126.6C477.421 127.23 477.556 127.861 477.826 128.491C478.006 128.942 478.276 129.392 478.592 129.752L460.804 144.613C460.173 143.937 459.183 143.667 458.282 144.072ZM461.299 146.009C461.299 145.739 461.254 145.468 461.119 145.243C461.074 145.108 460.984 144.973 460.894 144.838L478.682 129.932C479.853 131.193 481.564 131.779 483.275 131.418L483.5 131.373C483.725 131.328 483.951 131.238 484.176 131.148C484.311 131.103 484.446 131.013 484.581 130.968L484.806 130.833C486.337 129.932 487.238 128.266 487.193 126.555L541.006 123.448C541.006 123.628 541.051 123.853 541.142 124.033C541.367 124.528 541.727 124.889 542.132 125.114L542.357 125.204C542.763 125.384 543.213 125.384 543.663 125.294L550.553 148.035L461.299 146.009ZM561.316 183.431C560.731 183.656 560.325 184.151 560.1 184.692L499.532 161.455L461.209 146.729C461.254 146.549 461.299 146.414 461.299 146.234L550.733 148.26L561.361 183.431H561.316ZM564.288 184.962C564.243 184.827 564.243 184.737 564.198 184.602C563.793 183.611 562.667 183.07 561.631 183.341L551.004 148.26L694.972 151.503L696.143 151.683C696.143 151.728 696.143 151.818 696.143 151.863L564.288 184.962Z" fill="#2BC8EB"/>
<path d="M666.782 128.266C666.376 127.275 665.206 126.825 664.215 127.23C663.539 127.5 663.089 128.176 663.044 128.851L533.982 125.969L527.857 105.704C527.902 105.704 527.902 105.704 527.947 105.659C528.938 105.254 529.388 104.083 528.983 103.093C528.938 102.957 528.848 102.822 528.758 102.732L608.825 39.3719C609.095 39.6421 609.411 39.8672 609.771 39.9573L609.996 40.0023C610.356 40.0474 610.717 40.0474 611.077 39.8672C612.068 39.4619 612.518 38.2911 612.113 37.3004C611.707 36.3097 610.536 35.8593 609.546 36.2646C608.96 36.5349 608.555 37.0302 608.42 37.6156L553.075 28.1588L593.604 -91.0866C594.55 -90.8164 595.541 -90.8614 596.531 -91.2667C598.783 -92.2124 599.819 -94.7792 598.873 -96.9858C597.927 -99.1924 595.361 -100.273 593.154 -99.3275C591.398 -98.607 590.407 -96.8507 590.497 -95.0944L496.785 -87.3489L560.551 -253.878C561.496 -253.608 562.532 -253.653 563.478 -254.058C565.729 -255.004 566.765 -257.571 565.819 -259.777C564.874 -261.984 562.307 -263.065 560.1 -262.119C557.894 -261.173 556.813 -258.607 557.759 -256.4C557.984 -255.86 558.299 -255.409 558.704 -255.004L432.389 -122.114L434.595 -184.033C435.136 -184.033 435.721 -184.123 436.262 -184.393C438.513 -185.339 439.549 -187.906 438.603 -190.113C437.658 -192.319 435.091 -193.4 432.884 -192.454C430.633 -191.509 429.597 -188.942 430.542 -186.735C430.903 -185.834 431.533 -185.159 432.299 -184.709L379.071 -100.949C378.26 -101.399 377.314 -101.489 376.369 -101.129C375.693 -100.859 375.153 -100.318 374.838 -99.7328L331.201 -120.132C331.517 -120.853 331.562 -121.709 331.201 -122.474C330.571 -124.005 328.815 -124.726 327.238 -124.095C325.707 -123.465 324.987 -121.709 325.617 -120.132C325.707 -119.907 325.842 -119.682 325.978 -119.502L276.712 -75.7756L245.73 -105.407C246.496 -106.262 246.766 -107.478 246.27 -108.604C245.64 -110.135 243.884 -110.856 242.308 -110.225C240.776 -109.595 240.056 -107.839 240.686 -106.262C240.867 -105.812 241.182 -105.452 241.497 -105.137L193.538 -46.3245L170.526 -81.1344C171.247 -81.6748 171.517 -82.6205 171.157 -83.4311C170.751 -84.4218 169.58 -84.8721 168.59 -84.4668C167.599 -84.0615 167.149 -82.8907 167.554 -81.9C167.734 -81.4497 168.094 -81.0894 168.5 -80.9093L141.12 -15.5675L80.2815 -48.396C80.5067 -48.8914 80.5517 -49.4317 80.3266 -49.9721C79.9213 -50.9628 78.7504 -51.4132 77.7597 -51.0079C76.769 -50.6026 76.3187 -49.4317 76.724 -48.441C77.1293 -47.4953 78.165 -47.045 79.1107 -47.3603L96.1779 -3.85907L-12.4849 -1.47238C-12.4849 -1.6525 -12.53 -1.87766 -12.62 -2.0578C-13.0253 -3.04849 -14.1962 -3.49881 -15.1869 -3.09354C-16.1776 -2.68823 -16.6279 -1.51743 -16.2226 -0.526703C-15.8173 0.463989 -14.6465 0.914337 -13.6558 0.509064C-13.1604 0.283905 -12.8002 -0.0763855 -12.62 -0.526703L112.795 44.6407C112.57 45.2711 112.615 46.0367 112.885 46.7121C113.515 48.2432 115.272 48.9637 116.848 48.3333C117.974 47.8379 118.694 46.7572 118.694 45.5863L189.44 44.3705L228.798 94.2212C228.167 94.7616 227.942 95.6622 228.258 96.4278C228.663 97.4185 229.834 97.8688 230.824 97.4635C231.68 97.1032 232.13 96.2026 231.995 95.302L244.199 92.5099L260.366 137.812C259.375 138.218 258.924 139.389 259.33 140.334C259.735 141.325 260.906 141.775 261.897 141.37C262.842 140.965 263.293 139.884 262.977 138.938L308.415 115.972C308.91 116.782 309.901 117.143 310.802 116.737C311.432 116.467 311.837 115.927 311.973 115.296L335.795 117.143L350.385 150.106C349.484 150.557 349.079 151.637 349.484 152.583C349.89 153.574 351.061 154.024 352.051 153.619C352.727 153.349 353.177 152.718 353.222 151.998V151.772C353.222 151.682 353.222 151.637 353.222 151.547L399.155 143.036C399.2 143.171 399.245 143.306 399.29 143.396C399.921 144.927 401.677 145.648 403.253 145.018C403.478 144.927 403.658 144.792 403.838 144.657L404.018 144.522C404.289 144.297 404.469 144.072 404.649 143.802L404.739 143.622C404.964 143.216 405.054 142.766 405.054 142.271V142.045C405.054 141.82 405.009 141.64 404.964 141.415L450.672 124.888C450.987 125.654 451.798 126.104 452.608 126.059H452.833C452.924 126.059 453.059 126.014 453.149 125.969L453.329 125.879C453.329 125.879 453.374 125.879 453.374 125.834L453.554 125.744C453.599 125.699 453.644 125.654 453.689 125.654L453.869 125.519C454.049 125.338 454.139 125.158 454.229 124.978L542.132 158.707C542.087 158.842 542.087 158.978 542.087 159.113V159.338C542.087 159.518 542.132 159.743 542.223 159.923C542.448 160.464 542.853 160.824 543.348 161.004L543.709 161.094C544.069 161.139 544.429 161.094 544.744 160.959C545.555 160.599 546.005 159.788 545.915 158.933L585.589 148.98L585.814 148.935L663.134 129.526C663.134 129.572 663.179 129.662 663.179 129.707C663.224 129.752 663.224 129.797 663.269 129.887L662.684 130.517L663.449 130.202L663.584 130.382C663.63 130.427 663.72 130.517 663.81 130.562L663.99 130.697C664.485 130.967 665.116 131.058 665.701 130.787C666.737 130.382 667.187 129.256 666.782 128.266ZM608.69 39.1917L528.623 102.552C528.443 102.327 528.172 102.147 527.902 102.057L537.134 74.9474L608.6 39.0566C608.645 39.1017 608.69 39.1467 608.69 39.1917ZM399.38 140.875L382.808 131.598L388.482 127.905L399.83 140.199C399.65 140.424 399.515 140.649 399.38 140.875ZM358.401 118.133L343.9 111.874L338.451 82.783L340.613 80.3062L359.121 117.368C358.806 117.503 358.581 117.773 358.401 118.133ZM358.221 118.719L344.981 117.683L343.945 112.099L358.311 118.313C358.266 118.449 358.221 118.584 358.221 118.719ZM136.842 -4.80478L141.21 -15.2522L157.242 -6.60606C157.062 -6.20078 156.971 -5.70541 156.971 -5.2551L136.842 -4.80478ZM136.122 -3.5889L134.951 -4.53458L136.527 -4.57962L136.122 -3.5889ZM157.016 -5.02994C157.062 -4.75974 157.107 -4.44452 157.242 -4.17432C157.422 -3.76901 157.692 -3.36371 158.007 -3.09354L149.271 6.85858L136.302 -3.4538L136.752 -4.57962L157.016 -5.02994ZM158.187 -2.95844C158.998 -2.32797 160.169 -2.14789 161.204 -2.55316C161.25 -2.55316 161.295 -2.59818 161.34 -2.59818L168.275 10.6863L160.529 15.775L149.496 7.03873L158.187 -2.95844ZM301.3 -32.0943L287.88 -25.2494L265.995 -65.8685L272.164 -71.3625L301.795 -34.3009C301.21 -33.7605 300.985 -32.8599 301.3 -32.0943ZM332.372 -21.0164L304.947 -32.2294C305.083 -32.6797 305.083 -33.1751 304.902 -33.6254C304.677 -34.1658 304.227 -34.526 303.732 -34.7062L307.064 -46.3696L332.777 -21.7819C332.642 -21.5117 332.462 -21.2866 332.372 -21.0164ZM408.432 -63.4368L407.261 -57.8528L389.608 -72.083L388.167 -75.2802L393.211 -80.549L408.432 -63.4368ZM393.301 -80.6841L417.303 -105.947L408.477 -63.6619L393.301 -80.6841ZM435.181 -82.0351L456.436 -83.7914L430.768 -41.2809C430.542 -41.416 430.272 -41.461 430.002 -41.5061L430.813 -77.6219C431.353 -77.6219 431.938 -77.712 432.479 -77.9822C434.19 -78.7027 435.181 -80.3239 435.181 -82.0351ZM429.687 -37.6333L428.516 -13.9463L420.05 -9.80334C419.555 -10.6139 418.564 -10.9742 417.663 -10.659L403.928 -40.7405L407.441 -57.4475L428.246 -40.6505C427.886 -40.1101 427.796 -39.4346 428.066 -38.8041C428.336 -38.1286 428.966 -37.7233 429.687 -37.6333ZM483.14 16.4505L523.354 23.3404L502.639 57.7451L481.654 18.4769C482.465 17.9815 483.005 17.261 483.14 16.4505ZM502.594 57.9252L488.049 82.1075L474.809 86.8809L480.123 18.8372C480.573 18.8372 480.979 18.7921 481.429 18.612C481.474 18.612 481.519 18.567 481.564 18.5219L502.594 57.9252ZM502.684 58.1503L511.06 73.8216L488.364 81.9724L502.684 58.1503ZM474.539 86.971L460.354 92.0596L443.827 72.8308L478.682 18.4319C479.042 18.657 479.448 18.7921 479.853 18.8372L474.539 86.971ZM439.189 99.8952L442.521 106.02L424.643 105.569C424.643 105.434 424.598 105.299 424.598 105.119L439.189 99.8952ZM424.508 104.984V104.939C424.373 104.579 424.148 104.308 423.833 104.128L433.379 89.1776L439.099 99.7601L424.508 104.984ZM439.279 99.625L433.515 88.9074L443.737 72.9659L460.174 92.1046L439.279 99.625ZM268.516 67.6521C268.471 67.517 268.381 67.427 268.336 67.2919L298.778 43.9652C299.363 44.7307 300.174 45.2261 301.03 45.4963L297.292 59.9516L272.344 73.1461L268.246 69.5435C268.697 69.0932 268.832 68.3276 268.516 67.6521ZM389.428 -71.9028L403.703 -40.6955L397.579 -11.4245L389.158 -12.5503L381.637 -68.4353L386.906 -73.9743L389.428 -71.9028ZM387.041 -74.1094L387.987 -75.1001L389.248 -72.3982L387.041 -74.1094ZM389.788 -71.6326L407.216 -57.5826L403.748 -41.0557L389.788 -71.6326ZM416.447 -8.90269L397.804 -11.3795L403.838 -40.3352L417.483 -10.5238C416.853 -10.2086 416.447 -9.57819 416.447 -8.90269ZM430.858 84.0439L424.463 72.1554L425.454 51.7558L437.748 66.076L430.858 84.0439ZM437.928 66.2562L443.602 72.8759L433.424 88.7723L431.038 84.3141L437.928 66.2562ZM420.545 46.0367L425.229 51.5306L424.238 71.7951L421.311 66.3912L420.545 46.0367ZM421.131 65.9409L395.192 17.8465L395.823 17.1259L420.365 45.7214L421.131 65.9409ZM424.238 72.2004L422.752 102.597L421.356 66.8416L424.238 72.2004ZM425.499 51.4405L428.291 -4.75974L460.039 7.89432L437.838 65.8058L425.499 51.4405ZM425.274 51.1703L420.545 45.6764L418.519 -6.92126C418.699 -6.92126 418.924 -6.96632 419.104 -7.0564C419.555 -7.23653 419.915 -7.59676 420.095 -8.04707L428.021 -4.89481L425.274 51.1703ZM420.185 -8.22722C420.32 -8.67754 420.32 -9.12787 420.14 -9.57819C420.14 -9.57819 420.14 -9.57817 420.14 -9.6232L428.471 -13.7212L428.066 -5.12L420.185 -8.22722ZM420.32 45.4062L395.913 16.9908L417.168 -7.32657C417.483 -7.05638 417.888 -6.92126 418.294 -6.92126L420.32 45.4062ZM395.778 16.8107L393.886 14.6042C394.472 14.0638 394.652 13.2082 394.337 12.4426C394.111 11.8572 393.616 11.4969 393.031 11.3168L397.759 -11.1993L416.447 -8.72256C416.447 -8.49741 416.492 -8.31729 416.582 -8.09213C416.673 -7.86696 416.853 -7.6418 417.033 -7.46167L395.778 16.8107ZM420.951 104.849L370.65 84.8545L379.116 57.1596L421.311 104.308C421.176 104.444 421.041 104.624 420.951 104.849ZM306.569 40.4977L352.862 30.2303C352.862 30.3204 352.907 30.3654 352.952 30.4555C352.952 30.5005 352.997 30.5005 352.997 30.5455L308.145 54.2776L304.137 45.2711C305.983 44.4155 306.929 42.4341 306.569 40.4977ZM288.871 7.12878L295.356 -10.8841L301.48 0.509064C300.669 1.00439 300.309 2.04013 300.714 2.89575C300.85 3.16595 301.03 3.43613 301.255 3.61627L292.158 15.3697L288.871 7.12878ZM291.978 15.5948L280.54 30.4105L288.781 7.48904L291.978 15.5948ZM301.39 3.75134C301.66 3.93149 302.02 4.06659 302.381 4.06659L302.201 36.9401C301.705 36.9401 301.255 37.0302 300.759 37.2104L292.203 15.5948L301.39 3.75134ZM302.606 4.11163C302.831 4.11163 303.056 4.06659 303.281 3.9765C303.687 3.79639 304.002 3.52618 304.182 3.16592L318.592 10.7764L304.272 37.4355C303.687 37.1653 303.056 36.9852 302.426 36.9852L302.606 4.11163ZM326.743 -4.03922L353.402 28.2489C353.267 28.384 353.132 28.5191 353.042 28.6542L318.862 10.6413L326.743 -4.03922ZM318.772 10.8665L352.952 28.8794C352.772 29.2396 352.727 29.5999 352.817 30.0052L306.524 40.2725C306.479 40.0474 306.389 39.8222 306.298 39.6421C305.893 38.6964 305.218 37.9759 304.407 37.5255L318.772 10.8665ZM354.078 27.8436L336.29 -17.0085C336.875 -17.2787 337.326 -17.684 337.641 -18.1793L360.742 -4.89481L354.933 27.7986C354.663 27.7536 354.393 27.7535 354.078 27.8436ZM394.201 18.657L389.203 24.3762L392.04 15.0545C392.355 15.1445 392.67 15.1445 393.031 15.0545L394.201 18.657ZM393.211 15.0094C393.256 15.0094 393.256 15.0094 393.301 14.9644C393.346 14.9644 393.346 14.9194 393.391 14.9194L394.922 17.8014L394.337 18.4319L393.211 15.0094ZM388.662 25.3218L379.026 56.7543L370.019 46.6671L388.662 25.3218ZM388.843 24.7814L369.884 46.487L356.104 31.0859C356.645 30.5456 356.825 29.78 356.554 29.0595L390.824 14.1088C391.049 14.5591 391.409 14.8743 391.86 15.0545L388.843 24.7814ZM369.749 46.6671L356.78 61.5278L354.978 31.6263C355.158 31.6263 355.339 31.5813 355.519 31.4912C355.699 31.4012 355.834 31.3111 355.969 31.221L369.749 46.6671ZM392.4 11.2718L389.203 -12.3251L397.534 -11.1993L392.85 11.3168C392.67 11.2718 392.535 11.2718 392.4 11.2718ZM392.175 11.3168C392.04 11.3618 391.95 11.3618 391.815 11.4068L379.881 -13.5861L388.978 -12.3702L392.175 11.3168ZM391.59 11.4969C391.319 11.632 391.049 11.8572 390.869 12.1274L360.968 -5.02994L362.904 -15.8377L379.566 -13.6311L391.59 11.4969ZM379.746 -13.8112L367.227 -40.02L370.109 -56.3217L381.412 -68.2102L388.933 -12.5954L379.746 -13.8112ZM379.521 -13.8562L362.994 -16.0628L367.182 -39.6597L379.521 -13.8562ZM360.788 -5.16504L337.776 -18.3595C337.911 -18.5846 338.001 -18.8548 338.046 -19.125L362.724 -15.8377L360.788 -5.16504ZM360.968 -4.80478L390.824 12.3525C390.599 12.8029 390.554 13.3882 390.734 13.8836L356.464 28.8343C356.194 28.2939 355.744 27.9337 355.203 27.7986L360.968 -4.80478ZM354.708 31.6263L356.554 61.7079L345.206 74.6772L338.947 72.2004C339.262 71.4799 339.262 70.6243 338.947 69.8587C338.677 69.1833 338.136 68.6429 337.506 68.3276L354.033 31.4912C354.213 31.5813 354.483 31.6263 354.708 31.6263ZM356.554 62.0681L357.635 79.6758L345.431 74.8123L356.554 62.0681ZM356.78 61.7979L369.884 46.8022L378.98 56.9795L370.469 84.7644L357.86 79.7658L356.78 61.7979ZM379.206 56.9345L389.023 24.9165L394.246 18.9272L422.031 103.858C421.986 103.858 421.986 103.858 421.941 103.903C421.761 103.993 421.626 104.083 421.491 104.173L379.206 56.9345ZM395.057 17.6663L393.526 14.8743C393.571 14.8293 393.616 14.7843 393.706 14.7392L395.642 16.9908L395.057 17.6663ZM381.592 -68.7055L380.151 -79.3782L386.726 -74.0644L381.592 -68.7055ZM381.412 -68.4804L370.199 -56.6819L374.973 -83.5212L379.881 -79.5583L381.412 -68.4804ZM369.884 -56.0515L367.092 -40.3803L363.039 -48.8463L369.884 -56.0515ZM367.002 -39.975L362.724 -16.0628L338.046 -19.3502C338.136 -19.8906 338.046 -20.431 337.821 -20.9263C337.686 -21.2415 337.506 -21.5117 337.281 -21.7819L362.814 -48.6662L367.002 -39.975ZM336.11 -16.9635L353.898 27.9337C353.762 27.9787 353.672 28.0688 353.582 28.1138L326.878 -4.21933L333.768 -17.0986C334.489 -16.7383 335.299 -16.6483 336.11 -16.9635ZM318.682 10.5512L304.272 2.94077C304.497 2.44543 304.542 1.90503 304.317 1.36465C304.002 0.689178 303.371 0.238861 302.651 0.193817L303.191 -30.9235C303.416 -30.9235 303.642 -30.9685 303.867 -31.0586C304.002 -31.1036 304.137 -31.1937 304.272 -31.2837L326.608 -4.21933L318.682 10.5512ZM302.426 0.238831C302.201 0.238831 301.975 0.283875 301.75 0.373932C301.705 0.373932 301.705 0.418976 301.66 0.418976L295.446 -11.1543L302.561 -30.9685C302.696 -30.9235 302.831 -30.9235 302.966 -30.8784L302.426 0.238831ZM295.311 -11.4245L290.582 -20.2058L301.795 -31.4188C301.975 -31.2837 302.155 -31.1486 302.336 -31.0586L295.311 -11.4245ZM295.22 -11.1543L288.781 6.81357L281.666 -11.2444L290.492 -20.0257L295.22 -11.1543ZM281.531 -11.4695L278.108 -20.1157L287.745 -24.9792L290.312 -20.2508L281.531 -11.4695ZM281.351 -11.2894L259.24 10.8214L256.583 -9.21793L277.928 -19.9806L281.351 -11.2894ZM281.441 -11.0642L288.646 7.12878L280.09 30.9508L264.554 50.9902L259.285 11.0916L281.441 -11.0642ZM264.373 51.5306L266.355 66.4813C266.22 66.5263 266.085 66.5263 265.95 66.6164C265.589 66.7515 265.319 67.0217 265.139 67.2919L256.403 61.843L264.373 51.5306ZM264.599 51.3055L279.865 31.5813L267.301 66.5714C267.075 66.5263 266.85 66.4813 266.58 66.4813L264.599 51.3055ZM280.27 31.0409L292.068 15.82L300.579 37.3004C298.373 38.2461 297.337 40.8129 298.238 43.0195C298.373 43.2897 298.508 43.5599 298.688 43.8301L268.201 67.1568C268.021 66.9316 267.751 66.7515 267.481 66.6164L280.27 31.0409ZM301.255 45.5863C302.11 45.7664 303.056 45.7214 303.912 45.3612L307.92 54.3676L297.562 59.8616L301.255 45.5863ZM308.01 54.5928L317.241 75.4427L291.978 81.2519L297.472 60.1317L308.01 54.5928ZM308.235 54.4577L353.087 30.7257C353.267 31.0409 353.537 31.2661 353.853 31.4012L337.326 68.2375C336.605 67.9673 335.795 67.9223 335.029 68.2375C333.633 68.823 332.913 70.309 333.273 71.7501L317.511 75.3977L308.235 54.4577ZM333.318 71.9752V72.0203L318.502 77.6943L317.602 75.6229L333.318 71.9752ZM333.408 72.2454C333.948 73.5514 335.299 74.2269 336.605 74.0467L338.226 82.7379L326.608 95.9774L318.592 77.8745L333.408 72.2454ZM336.83 74.0017C337.01 73.9566 337.191 73.9116 337.326 73.8216C337.371 73.8216 337.371 73.7765 337.416 73.7765L340.568 80.036L338.451 82.4678L336.83 74.0017ZM337.596 73.6865C337.776 73.5964 337.956 73.4613 338.091 73.3262L342.369 77.9195L340.703 79.8559L337.596 73.6865ZM338.271 73.1911C338.497 72.9659 338.677 72.6957 338.812 72.4255L345.026 74.9023L342.504 77.7844L338.271 73.1911ZM345.251 74.9924L357.635 79.9009L358.581 95.1668L342.685 77.9195L345.251 74.9924ZM357.86 79.991L370.379 84.9896L365.066 102.282L358.761 95.4821L357.86 79.991ZM370.605 85.0346L420.861 105.029C420.77 105.299 420.725 105.614 420.77 105.93L377.089 115.251L365.246 102.417L370.605 85.0346ZM394.427 18.7471L395.012 18.0716L421.131 66.4813L422.572 103.768C422.482 103.768 422.347 103.813 422.257 103.813L394.427 18.7471ZM424.463 72.5607L430.768 84.269L423.292 103.813C423.157 103.768 423.022 103.768 422.932 103.723L424.463 72.5607ZM430.903 84.5392L433.289 88.9524L423.653 103.993C423.607 103.948 423.562 103.948 423.517 103.903L430.903 84.5392ZM443.692 72.6507L437.973 65.9859L460.219 7.93936L477.376 14.7843C477.151 15.4597 477.151 16.2253 477.421 16.9458C477.646 17.4862 478.007 17.9365 478.502 18.2517L443.692 72.6507ZM477.466 14.6042L460.309 7.75925L464.001 -1.87769L478.097 13.6584C477.826 13.9286 477.601 14.2889 477.466 14.6042ZM460.129 7.7142L428.291 -4.98489L428.741 -13.7662L445.628 -22.0521L463.866 -2.01276L460.129 7.7142ZM445.808 -22.1872L477.511 -37.7233L463.956 -2.28296L445.808 -22.1872ZM445.673 -22.3674L431.263 -38.2187C431.758 -38.7141 431.938 -39.4346 431.758 -40.11L485.392 -58.213L477.646 -37.9935L445.673 -22.3674ZM430.587 -37.7684C430.768 -37.8584 430.903 -37.9485 431.038 -38.0386L445.403 -22.2322L428.651 -14.0364L429.822 -37.6333C430.137 -37.6333 430.362 -37.6783 430.587 -37.7684ZM428.381 -40.8306L407.486 -57.6726L408.657 -63.2116L428.516 -40.9657C428.426 -40.9206 428.381 -40.8756 428.381 -40.8306ZM388.032 -75.4604L378.845 -95.5898C379.071 -95.6799 379.251 -95.815 379.431 -95.9501L393.031 -80.7292L388.032 -75.4604ZM387.897 -75.2802L386.906 -74.2445L380.151 -79.6934L378.035 -95.2746C378.26 -95.3196 378.485 -95.3646 378.665 -95.4547L387.897 -75.2802ZM379.881 -79.9186L375.063 -83.8364L377.089 -95.3196C377.314 -95.2746 377.585 -95.2746 377.81 -95.3196L379.881 -79.9186ZM374.838 -83.9715L371.37 -86.7635L376.143 -95.5898C376.369 -95.4997 376.594 -95.4097 376.864 -95.3646L374.838 -83.9715ZM374.793 -83.7013L369.929 -56.4117L362.904 -49.0264L357.32 -60.6898L371.28 -86.4933L374.793 -83.7013ZM362.769 -48.8913L337.191 -21.9621C337.01 -22.1422 336.83 -22.2773 336.65 -22.3674L357.23 -60.4646L362.769 -48.8913ZM333.588 -17.1886L326.698 -4.39948L304.407 -31.4188C304.587 -31.599 304.722 -31.7791 304.857 -32.0042L332.282 -20.7912C332.012 -20.1157 332.012 -19.3052 332.327 -18.5846C332.597 -17.9992 333.048 -17.5039 333.588 -17.1886ZM290.492 -20.3859L287.97 -25.0693L301.435 -31.8692C301.48 -31.7341 301.57 -31.644 301.66 -31.5539L290.492 -20.3859ZM287.655 -25.1593L278.018 -20.2959L261.536 -61.9507L265.769 -65.7334L287.655 -25.1593ZM277.838 -20.2058L256.538 -9.4431L250.864 -52.4489L261.401 -61.7706L277.838 -20.2058ZM256.358 -9.308L231.32 3.34607L236.048 -39.2995L250.684 -52.2688L256.358 -9.308ZM231.095 3.43616L218.846 9.6506L212.676 -16.288C212.766 -16.288 212.811 -16.333 212.857 -16.333C213.847 -16.7383 214.298 -17.9092 213.892 -18.8999C213.802 -19.08 213.712 -19.2151 213.622 -19.3502L235.823 -39.0743L231.095 3.43616ZM203.535 17.6213L216.549 11.0466L221.007 39.0566L207.498 29.1946L203.535 17.6213ZM207.182 28.9694L196.51 21.1788L203.355 17.7114L207.182 28.9694ZM216.729 10.7314L212.451 -16.1529L218.621 9.78568L216.729 10.7314ZM212.226 -16.243L216.504 10.8214L203.445 17.3961L195.159 -6.92126L210.47 -17.0535C210.92 -16.4681 211.551 -16.1979 212.226 -16.243ZM203.265 17.4862L196.285 20.9987L176.696 6.72351L176.606 5.37253L195.024 -6.78618L203.265 17.4862ZM176.47 6.58841L175.66 6.00296L176.38 5.55264L176.47 6.58841ZM176.56 5.14737L174.309 -22.4574L185.162 -35.7419L194.934 -6.96632L176.56 5.14737ZM176.38 5.28247L175.525 5.86789L162.51 -3.63391C163.096 -4.44449 163.231 -5.5253 162.826 -6.51599C162.646 -6.9213 162.42 -7.23651 162.15 -7.50671L174.174 -22.2322L176.38 5.28247ZM175.3 6.00296L168.41 10.5512L161.52 -2.68826C161.835 -2.86838 162.15 -3.13858 162.375 -3.40875L175.3 6.00296ZM168.32 10.8665L176.38 26.3575C175.885 26.6277 175.435 26.988 175.119 27.3933L160.664 15.9101L168.32 10.8665ZM168.5 10.7314L175.48 6.13809L176.47 6.85858L178.002 25.8172C177.596 25.8622 177.146 25.9523 176.741 26.1324C176.696 26.1774 176.606 26.1774 176.56 26.2225L168.5 10.7314ZM176.741 7.03873L196.105 21.1788L182.325 28.1138C181.514 26.5827 179.893 25.7271 178.227 25.8172L176.741 7.03873ZM196.285 21.3139L207.318 29.3747L210.56 38.8765L182.775 31.221C182.955 30.3654 182.91 29.4197 182.55 28.5191C182.505 28.4741 182.505 28.384 182.46 28.339L196.285 21.3139ZM207.588 29.5549L221.052 39.3719L221.458 41.8487L210.785 38.9216L207.588 29.5549ZM221.323 39.552L224.295 41.7136C224.115 41.9387 224.025 42.2089 223.934 42.4791L221.728 41.8487L221.323 39.552ZM221.458 42.0738L221.683 43.5149L212.361 43.695L210.83 39.1467L221.458 42.0738ZM221.728 42.1188L223.844 42.7043C223.799 42.9745 223.754 43.1996 223.754 43.4698L221.908 43.5149L221.728 42.1188ZM224.385 41.5334L221.232 39.2368L216.729 10.9115L218.666 9.92078L225.961 40.4526C225.826 40.4977 225.736 40.5427 225.601 40.5878C225.105 40.8129 224.7 41.1281 224.385 41.5334ZM218.891 9.87576L231.095 3.70633L226.997 40.4076C226.726 40.4076 226.456 40.4076 226.186 40.4526L218.891 9.87576ZM231.32 3.57123L256.403 -9.12787L259.06 11.0016L228.843 41.1732C228.393 40.7679 227.852 40.4977 227.222 40.4076L231.32 3.57123ZM259.06 11.2718L264.328 51.2154L256.223 61.7079L229.338 44.8658C229.789 44.1003 229.879 43.1096 229.518 42.2089C229.383 41.8937 229.158 41.5785 228.933 41.3083L259.06 11.2718ZM227.942 46.1718C228.483 45.9466 228.933 45.5413 229.248 45.091L256.087 61.888L240.596 81.8823L227.852 46.1718C227.897 46.1718 227.942 46.1718 227.942 46.1718ZM256.313 62.0231L265.049 67.5171C264.779 68.0124 264.734 68.6429 264.959 69.1833C265.004 69.3184 265.049 69.4084 265.139 69.4984L242.263 86.4756L240.731 82.1525L256.313 62.0231ZM265.229 69.6786C265.544 70.0388 265.995 70.3091 266.445 70.3541L265.95 76.6136L243.028 88.7723L242.308 86.7458L265.229 69.6786ZM266.67 70.3541C266.94 70.3541 267.21 70.3091 267.481 70.219C267.751 70.1289 267.931 69.9488 268.111 69.7687L272.164 73.2812L266.175 76.4334L266.67 70.3541ZM272.344 73.4613L283.512 83.2333L265.319 87.4213L266.175 76.7487L272.344 73.4613ZM272.569 73.3712L297.247 60.3119L291.798 81.3419L283.827 83.1883L272.569 73.3712ZM291.708 81.5671L290.357 86.7909C289.997 86.7008 289.591 86.7458 289.231 86.9259C289.006 87.016 288.781 87.1961 288.601 87.3763L284.007 83.3684L291.708 81.5671ZM291.933 81.5221L317.331 75.6679L318.277 77.7844L291.708 87.9167C291.483 87.3763 291.033 87.016 290.537 86.8809L291.933 81.5221ZM318.367 77.9645L326.428 96.1576L321.249 102.102L291.753 89.3577C291.888 88.9524 291.933 88.5471 291.798 88.0968L318.367 77.9645ZM326.563 96.3827L330.931 106.245L321.474 102.147L326.563 96.3827ZM326.698 96.2026L338.271 82.9631L343.675 111.739L331.246 106.38L326.698 96.2026ZM340.793 80.081L342.504 78.0996L358.581 95.5271L359.887 117.098C359.707 117.098 359.527 117.143 359.346 117.233L340.793 80.081ZM358.806 95.7523L365.021 102.462L360.562 117.098C360.427 117.053 360.292 117.053 360.157 117.053L358.806 95.7523ZM365.201 102.687L376.864 115.341L362.003 118.494C362.003 118.404 361.958 118.313 361.913 118.268C361.688 117.728 361.238 117.368 360.742 117.188L365.201 102.687ZM377.044 115.521L381.322 120.16L362.093 119.079C362.093 118.944 362.093 118.854 362.048 118.719L377.044 115.521ZM381.547 120.385L388.392 127.77L382.628 131.508L361.913 119.89C362.003 119.709 362.048 119.529 362.093 119.304L381.547 120.385ZM388.527 127.635L381.818 120.385L398.299 121.331L388.527 127.635ZM381.637 120.16L377.314 115.476L420.861 106.2C420.861 106.29 420.906 106.38 420.951 106.425C420.996 106.515 421.041 106.56 421.086 106.65L398.66 121.15L381.637 120.16ZM421.131 106.83C421.266 107.01 421.446 107.19 421.671 107.326L413.43 121.961L398.975 121.15L421.131 106.83ZM421.851 107.416C422.302 107.641 422.797 107.686 423.337 107.506L423.562 107.416C423.878 107.281 424.148 107.055 424.328 106.785L450.807 123.312C450.672 123.537 450.582 123.807 450.582 124.078L429.372 122.862H429.146L413.745 122.006L421.851 107.416ZM450.852 123.132L424.418 106.605C424.553 106.38 424.643 106.11 424.643 105.839L442.656 106.29L451.437 122.591C451.212 122.727 450.987 122.907 450.852 123.132ZM442.746 106.065L439.369 99.8502L460.264 92.3298L470.036 103.723C469.18 104.489 468.685 105.569 468.64 106.74L442.746 106.065ZM470.261 103.588L460.534 92.2397L474.539 87.1962L473.323 102.552C472.693 102.507 472.017 102.597 471.387 102.867C470.981 103.048 470.576 103.318 470.261 103.588ZM474.719 87.1061L487.824 82.3777L475.305 103.138C474.764 102.822 474.134 102.597 473.503 102.507L474.719 87.1061ZM488.184 82.2876L511.195 74.0017L516.959 84.8545L476.971 104.939C476.611 104.263 476.115 103.723 475.53 103.318L488.184 82.2876ZM536.999 74.7672L517.14 84.7194L511.375 73.9116L540.872 63.284L536.999 74.7672ZM541.142 63.239L607.474 39.3719L537.269 74.6321L541.142 63.239ZM517.049 85.0346L526.191 102.192C525.606 102.552 525.245 103.183 525.245 103.858L477.421 106.65C477.376 106.155 477.286 105.704 477.106 105.254C477.106 105.209 477.061 105.209 477.061 105.164L517.049 85.0346ZM526.416 102.102L517.275 84.9445L536.909 75.0825L527.767 102.012C527.362 101.877 526.912 101.922 526.506 102.102C526.416 102.057 526.416 102.102 526.416 102.102ZM608.375 37.8408C608.33 38.156 608.375 38.4712 608.51 38.7414L541.232 62.9238L552.985 28.339L608.375 37.8408ZM540.962 63.0588L511.24 73.7315L502.774 57.9252L523.579 23.3404L552.715 28.339L540.962 63.0588ZM593.424 -91.1316L552.85 28.1588L523.759 23.1603L592.704 -91.4468C592.929 -91.3568 593.154 -91.2217 593.424 -91.1316ZM592.524 -91.5819L523.534 23.1152L483.23 16.2253C483.32 15.7299 483.23 15.1895 483.005 14.6492C482.87 14.334 482.69 14.0638 482.465 13.7936L591.758 -92.1673C591.983 -91.9422 592.253 -91.717 592.524 -91.5819ZM591.623 -92.3025L482.33 13.6584C481.474 12.8479 480.213 12.5777 479.087 13.073C478.817 13.2081 478.547 13.3432 478.322 13.5684L464.137 -2.0578L477.826 -37.8134L590.947 -93.2481C591.128 -92.9329 591.353 -92.6177 591.623 -92.3025ZM590.812 -93.6084C590.812 -93.5634 590.857 -93.5183 590.857 -93.4733L477.916 -38.1286L485.617 -58.258L590.722 -93.7435C590.722 -93.6984 590.767 -93.6534 590.812 -93.6084ZM590.452 -94.8693C590.497 -94.5991 590.542 -94.2839 590.632 -94.0137L485.707 -58.5733L496.65 -87.1237L590.452 -94.8693ZM485.437 -58.4832L431.623 -40.3352C431.623 -40.3352 431.623 -40.3352 431.623 -40.3803C431.488 -40.7405 431.218 -41.0107 430.948 -41.2359L456.661 -83.8814L496.38 -87.1688L485.437 -58.4832ZM560.325 -253.923L496.515 -87.3039L456.841 -84.0165L559.605 -254.238C559.83 -254.148 560.055 -254.013 560.325 -253.923ZM559.425 -254.374L456.571 -84.0165L435.181 -82.2603C435.136 -82.7556 435.046 -83.251 434.866 -83.7463C434.55 -84.4668 434.1 -85.0523 433.515 -85.5026L559.245 -254.554C559.29 -254.464 559.335 -254.419 559.425 -254.374ZM558.839 -254.824C558.929 -254.734 558.974 -254.689 559.065 -254.644L433.334 -85.5926C432.659 -86.043 431.893 -86.3132 431.083 -86.4032L432.344 -121.754L558.839 -254.824ZM432.119 -121.483L430.858 -86.3582C430.272 -86.3582 429.687 -86.2681 429.101 -85.9979C426.895 -85.0523 425.814 -82.4854 426.76 -80.2788C427.435 -78.6577 428.966 -77.667 430.587 -77.6219L429.777 -41.5061C429.552 -41.5061 429.327 -41.461 429.101 -41.371C428.921 -41.2809 428.786 -41.1908 428.651 -41.1008L408.702 -63.4818L417.663 -106.262L432.119 -121.483ZM434.325 -183.988L432.119 -121.844L417.708 -106.668L433.875 -184.033C434.01 -184.033 434.19 -183.988 434.325 -183.988ZM432.479 -184.483C432.839 -184.303 433.244 -184.123 433.65 -184.033L417.393 -106.307L393.166 -80.8192L379.566 -96.0401C380.422 -96.8957 380.737 -98.2017 380.241 -99.3725C380.016 -99.9129 379.611 -100.363 379.161 -100.678L432.479 -184.483ZM374.747 -99.4175C374.432 -98.697 374.432 -97.8414 374.747 -97.0759C375.018 -96.4454 375.468 -95.9501 376.008 -95.6348L371.235 -86.8085L330.841 -119.367C330.931 -119.502 331.021 -119.637 331.111 -119.772L374.747 -99.4175ZM330.661 -119.277L371.1 -86.6734L357.23 -60.96L329.76 -118.511C330.121 -118.691 330.436 -118.962 330.661 -119.277ZM329.535 -118.421L357.095 -60.7348L336.425 -22.4574C335.975 -22.6826 335.479 -22.7726 334.984 -22.7726L328.679 -118.196C328.995 -118.241 329.265 -118.331 329.535 -118.421ZM328.499 -118.196L334.804 -22.7726C334.534 -22.7276 334.218 -22.6826 333.948 -22.5475C333.588 -22.3673 333.228 -22.1422 332.958 -21.872L307.154 -46.5497L327.689 -118.241C327.959 -118.241 328.229 -118.196 328.499 -118.196ZM326.113 -119.232C326.473 -118.826 326.923 -118.511 327.464 -118.331L306.974 -46.7298L276.892 -75.5504L326.113 -119.232ZM276.712 -75.3703L306.884 -46.5046L303.506 -34.7062C303.101 -34.7962 302.696 -34.7512 302.336 -34.6161C302.201 -34.5711 302.065 -34.481 301.975 -34.3909L272.344 -71.4975L276.712 -75.3703ZM245.595 -105.182L276.577 -75.5504L272.209 -71.6777L245.505 -105.092C245.55 -105.092 245.55 -105.137 245.595 -105.182ZM245.325 -104.911L272.029 -71.4975L265.859 -66.0486L245.01 -104.731C245.145 -104.821 245.235 -104.866 245.325 -104.911ZM244.874 -104.641L265.724 -65.9135L261.491 -62.1759L244.739 -104.596C244.784 -104.596 244.829 -104.641 244.874 -104.641ZM244.514 -104.506L261.311 -61.9957L250.864 -52.7191L244.019 -104.371C244.199 -104.416 244.379 -104.461 244.514 -104.506ZM243.839 -104.326L250.684 -52.4939L236.093 -39.6147L243.298 -104.326C243.478 -104.326 243.659 -104.326 243.839 -104.326ZM241.722 -104.911C242.127 -104.641 242.578 -104.416 243.073 -104.371L235.868 -39.3895L213.487 -19.5303C212.947 -20.0707 212.091 -20.2508 211.37 -19.9356C211.28 -19.8906 211.19 -19.8456 211.1 -19.8005L193.673 -46.0993L241.722 -104.911ZM193.493 -45.9192L210.875 -19.6654C210.2 -19.125 209.929 -18.2244 210.29 -17.4138C210.335 -17.3237 210.38 -17.2787 210.425 -17.1886L195.159 -7.10141L185.342 -35.9221L193.493 -45.9192ZM170.076 -80.8642C170.166 -80.9093 170.211 -80.9543 170.301 -80.9994L193.358 -46.1444L185.207 -36.1922L170.076 -80.8642ZM169.851 -80.7742L185.072 -35.9671L174.264 -22.7726L169.58 -80.7292C169.671 -80.7292 169.761 -80.7742 169.851 -80.7742ZM169.4 -80.7292L174.129 -22.5475L161.97 -7.6418C161.565 -8.00206 161.069 -8.2272 160.529 -8.27223L169.22 -80.6841C169.265 -80.7292 169.31 -80.7292 169.4 -80.7292ZM168.68 -80.8192C168.77 -80.7742 168.86 -80.7742 168.995 -80.7292L160.304 -8.31729C159.809 -8.36232 159.313 -8.27226 158.863 -8.09213C158.232 -7.82193 157.692 -7.32657 157.377 -6.78618L141.345 -15.4324L168.68 -80.8192ZM80.1914 -48.2159L141.03 -15.3874L136.617 -4.80478L134.68 -4.75974L80.1464 -48.0808C80.1464 -48.1258 80.1914 -48.1708 80.1914 -48.2159ZM79.3809 -47.4503C79.6511 -47.5854 79.8312 -47.7205 80.0113 -47.9457L134.32 -4.75974L96.4481 -3.90414L79.3809 -47.4503ZM112.885 44.3705L-12.53 -0.751862C-12.4849 -0.932007 -12.4399 -1.06708 -12.4399 -1.24722L96.313 -3.67899L114.506 42.7043C113.74 43.0195 113.155 43.6499 112.885 44.3705ZM114.686 42.6142L96.5382 -3.67899L134.59 -4.53458L136.031 -3.40875L116.758 42.6592C116.127 42.4341 115.407 42.3891 114.686 42.6142ZM116.938 42.7493L136.212 -3.22864L149.136 7.03873L117.568 43.1546C117.388 42.9745 117.163 42.8394 116.938 42.7493ZM117.748 43.2897L149.316 7.17383L160.304 15.9101L118.109 43.695C118.019 43.5599 117.883 43.4248 117.748 43.2897ZM118.604 44.6857C118.559 44.5506 118.514 44.4155 118.469 44.2804C118.424 44.1453 118.334 44.0102 118.244 43.8751L160.484 16.0001L174.984 27.5284C174.219 28.5191 173.949 29.825 174.219 31.0859L118.604 44.6857ZM118.694 45.2711C118.694 45.136 118.694 45.0009 118.649 44.9109L174.264 31.3561C174.309 31.5363 174.354 31.7164 174.444 31.8965C175.39 34.1031 177.956 35.1839 180.163 34.2382C180.523 34.1031 180.794 33.923 181.109 33.6978L189.305 44.0552L118.694 45.2711ZM189.53 44.0552L181.244 33.5627C181.919 32.9773 182.415 32.2118 182.64 31.4012L210.56 39.1017L212.136 43.695L189.53 44.0552ZM228.978 94.0861L189.71 44.2804L212.226 43.8751L229.248 93.9059C229.158 93.951 229.068 93.996 228.978 94.0861ZM229.473 93.8609L212.496 43.9201L221.773 43.74L229.699 93.7708C229.608 93.7708 229.518 93.8159 229.473 93.8609ZM229.924 93.7708L221.998 43.74L223.799 43.695C223.844 43.9652 223.889 44.2804 224.025 44.5506C224.61 45.9916 226.231 46.7121 227.717 46.2618L240.506 82.1075L231.23 94.0861C230.824 93.8159 230.374 93.7258 229.924 93.7708ZM231.365 94.2212L240.551 82.3326L242.082 86.6107L231.59 94.4463C231.5 94.3563 231.41 94.2662 231.365 94.2212ZM231.68 94.5814L242.127 86.7909L242.848 88.7723L231.725 94.6715C231.725 94.6715 231.725 94.6265 231.68 94.5814ZM231.905 95.1218C231.905 95.0768 231.86 94.9867 231.86 94.9417L242.938 89.0875L244.109 92.3298L231.905 95.1218ZM244.334 92.2397L243.163 88.9074L265.995 76.8387L265.139 87.4663L244.334 92.2397ZM260.546 137.767L244.379 92.4649L265.094 87.6915L261.176 137.677C260.951 137.632 260.771 137.677 260.546 137.767ZM261.401 137.677L265.364 87.6465L283.782 83.4134L288.511 87.5114C288.105 88.0518 287.97 88.7723 288.241 89.4478C288.421 89.808 288.646 90.1233 289.006 90.3484L262.032 137.902C261.807 137.767 261.626 137.722 261.401 137.677ZM262.842 138.758C262.707 138.443 262.482 138.173 262.212 137.993L289.141 90.4384C289.637 90.6636 290.222 90.7086 290.762 90.4835C290.897 90.4385 290.987 90.3934 291.078 90.3034L308.73 113.585C308.145 114.125 307.965 114.981 308.28 115.747C308.28 115.792 308.325 115.792 308.325 115.837L262.842 138.758ZM309.271 113.18C309.135 113.225 309 113.315 308.865 113.405L291.213 90.1683C291.393 89.9881 291.573 89.808 291.708 89.5378L321.114 102.237L311.297 113.495C310.757 113.045 309.991 112.91 309.271 113.18ZM311.973 115.116C311.973 114.846 311.973 114.531 311.837 114.216C311.747 113.99 311.612 113.81 311.477 113.63L321.339 102.327L331.066 106.515L335.659 116.917L311.973 115.116ZM331.381 106.695L343.72 112.009L344.801 117.683L335.975 117.007L331.381 106.695ZM350.565 150.061L336.02 117.233L344.801 117.908L350.79 150.016C350.745 150.016 350.655 150.016 350.565 150.061ZM351.015 149.971L345.026 117.953L358.176 118.989C358.176 119.259 358.221 119.529 358.311 119.799C358.716 120.79 359.887 121.241 360.878 120.835C361.238 120.655 361.553 120.43 361.778 120.07L382.403 131.643L352.862 150.782C352.411 150.151 351.736 149.881 351.015 149.971ZM353.132 151.412C353.087 151.322 353.087 151.232 353.042 151.097C352.997 151.007 352.952 150.962 352.952 150.872L382.628 131.688L399.29 141.055C399.02 141.595 398.975 142.226 399.065 142.856L353.132 151.412ZM400.866 139.569C400.551 139.704 400.281 139.884 400.011 140.109L388.662 127.815L398.66 121.376L413.295 122.186L403.478 139.704C402.712 139.253 401.722 139.163 400.866 139.569ZM432.524 131.328L432.299 131.418L404.874 141.325C404.874 141.28 404.829 141.19 404.829 141.145C404.604 140.559 404.199 140.109 403.703 139.794L413.61 122.186L429.237 123.087H429.462L450.537 124.303C450.537 124.483 450.582 124.663 450.627 124.798L432.524 131.328ZM451.708 122.456C451.663 122.456 451.663 122.501 451.618 122.501L442.881 106.29L468.685 106.965C468.685 107.506 468.775 108.091 469.045 108.632C469.225 109.037 469.45 109.397 469.721 109.757L453.914 122.997C453.374 122.366 452.473 122.096 451.708 122.456ZM454.365 124.168C454.365 123.942 454.32 123.717 454.229 123.492C454.184 123.357 454.094 123.222 454.049 123.132L469.856 109.892C470.891 111.018 472.422 111.514 473.954 111.243L474.179 111.198C474.404 111.153 474.584 111.063 474.809 111.018C474.944 110.973 475.079 110.883 475.169 110.838L475.35 110.748C476.701 109.937 477.511 108.451 477.466 106.92L525.29 104.128C525.29 104.308 525.335 104.489 525.425 104.669C525.606 105.119 525.921 105.434 526.326 105.614L526.506 105.704C526.867 105.84 527.272 105.885 527.677 105.794L533.801 126.014L454.365 124.168ZM543.258 157.446C542.718 157.672 542.358 158.077 542.177 158.572L488.364 137.902L454.274 124.843C454.32 124.708 454.365 124.573 454.365 124.393L533.846 126.194L543.303 157.446H543.258ZM545.915 158.797C545.87 158.707 545.87 158.572 545.825 158.482C545.465 157.582 544.474 157.131 543.573 157.356L534.117 126.194L662.053 129.076L663.089 129.256C663.089 129.301 663.089 129.346 663.089 129.436L545.915 158.797Z" fill="#2BC8EB"/>
</svg>
