<svg width="525" height="167" viewBox="0 0 525 167" fill="none" xmlns="http://www.w3.org/2000/svg">
<path opacity="0.15" d="M-144.863 32.1483C-144.471 33.1292 -143.333 33.5608 -142.352 33.1684C-141.685 32.8938 -141.254 32.266 -141.214 31.5598L-14.7195 34.3847L-8.67737 54.277C-8.71661 54.277 -8.71661 54.277 -8.7558 54.3163C-9.73669 54.7086 -10.1683 55.8464 -9.77594 56.8273C-9.73669 56.945 -9.6582 57.0627 -9.57977 57.1804L-88.0504 119.29C-88.2858 119.015 -88.5997 118.819 -88.9528 118.741L-89.149 118.701C-89.5021 118.662 -89.8552 118.662 -90.2084 118.819C-91.1893 119.211 -91.6208 120.349 -91.2285 121.33C-90.8361 122.311 -89.6983 122.743 -88.7175 122.35C-88.1289 122.115 -87.7366 121.605 -87.6188 121.016L-33.3564 130.315L-73.1017 247.236C-74.0042 246.962 -75.0243 247.001 -75.9659 247.393C-78.1631 248.296 -79.1832 250.846 -78.2416 253.004C-77.3392 255.201 -74.7889 256.221 -72.631 255.28C-70.9438 254.573 -69.9237 252.886 -70.0021 251.121L21.8477 243.509L-40.6934 406.767C-41.5958 406.493 -42.6159 406.532 -43.5576 406.924C-45.7547 407.827 -46.7748 410.377 -45.8332 412.535C-44.9308 414.732 -42.3805 415.752 -40.2225 414.81C-38.0253 413.908 -37.0052 411.358 -37.9469 409.2C-38.1823 408.65 -38.4962 408.219 -38.8885 407.827L84.9774 277.526L82.8195 338.223C82.2702 338.223 81.7208 338.341 81.1715 338.576C78.9744 339.479 77.9543 342.029 78.8567 344.187C79.7591 346.384 82.3094 347.404 84.4673 346.462C86.6645 345.56 87.6846 343.01 86.743 340.852C86.3899 339.989 85.7621 339.282 85.0166 338.851L137.2 256.731C137.984 257.202 138.926 257.281 139.828 256.927C140.495 256.653 141.005 256.143 141.319 255.554L184.125 275.564C183.811 276.27 183.811 277.094 184.125 277.879C184.753 279.37 186.479 280.076 187.97 279.449C189.461 278.821 190.167 277.094 189.54 275.603C189.461 275.368 189.304 275.172 189.186 274.976L237.524 232.092L267.893 261.126C267.147 261.95 266.872 263.166 267.343 264.264C267.971 265.755 269.697 266.462 271.188 265.834C272.679 265.206 273.385 263.48 272.758 261.989C272.562 261.557 272.287 261.165 271.973 260.89L319.055 203.293L341.616 237.388C340.909 237.898 340.635 238.84 340.988 239.664C341.38 240.645 342.518 241.076 343.499 240.684C344.48 240.292 344.911 239.154 344.519 238.173C344.323 237.741 344.009 237.388 343.577 237.192L370.414 173.121L430.052 205.294C429.817 205.765 429.778 206.314 430.013 206.824C430.405 207.805 431.543 208.236 432.524 207.844C433.505 207.452 433.936 206.314 433.544 205.333C433.152 204.391 432.132 203.96 431.19 204.274L414.515 161.703L521.078 159.349C521.078 159.545 521.117 159.742 521.196 159.938C521.588 160.919 522.726 161.35 523.707 160.958C524.688 160.566 525.119 159.428 524.727 158.447C524.335 157.466 523.197 157.034 522.216 157.427C521.745 157.623 521.392 158.015 521.196 158.447L398.232 114.189C398.428 113.562 398.428 112.855 398.154 112.188C397.526 110.697 395.8 109.991 394.309 110.619C393.171 111.09 392.504 112.188 392.504 113.326L323.136 114.503L284.528 65.5376C285.117 65.0275 285.352 64.1251 285.038 63.3796C284.646 62.3987 283.508 61.9671 282.527 62.3595C281.664 62.7126 281.233 63.615 281.389 64.4782L269.423 67.2247L253.572 22.8103C254.513 22.3787 254.984 21.2801 254.592 20.3385C254.199 19.3576 253.062 18.926 252.081 19.3183C251.139 19.7107 250.707 20.7701 251.021 21.7117L206.45 44.1935C205.979 43.4088 204.959 43.0557 204.096 43.4481C203.468 43.7227 203.076 44.272 202.958 44.8605L179.613 43.0165L165.292 10.7258C166.155 10.2942 166.587 9.23483 166.195 8.29318C165.802 7.31232 164.664 6.88074 163.684 7.27307C163.016 7.54773 162.585 8.17551 162.546 8.8425V9.03867C162.546 9.11713 162.546 9.15637 162.585 9.23483L117.543 17.592C117.503 17.4743 117.464 17.3566 117.425 17.2389C116.797 15.7479 115.071 15.0417 113.58 15.6695C113.384 15.7479 113.188 15.8656 112.991 15.9833L112.834 16.101C112.599 16.2972 112.364 16.5719 112.207 16.8073L112.089 17.0034C111.893 17.3958 111.775 17.8666 111.775 18.2982V18.4944C111.775 18.6906 111.814 18.8867 111.893 19.1222L67.0861 35.3264C66.7722 34.5417 65.9875 34.11 65.2028 34.1885L65.0066 34.2278C64.8889 34.2278 64.8104 34.267 64.6927 34.3062L64.4965 34.3847L64.4573 34.4239L64.2611 34.5417C64.2219 34.5809 64.1827 34.6201 64.1434 34.6594L63.9865 34.8163C63.8296 34.9732 63.7119 35.1694 63.6334 35.3656L-22.5274 2.29016C-22.4882 2.17245 -22.4882 2.01553 -22.4882 1.89783V1.70163C-22.4882 1.50546 -22.5275 1.30933 -22.6059 1.15237C-22.8413 0.642334 -23.2336 0.289185 -23.7437 0.0929871L-24.0968 0.0145569C-24.45 -0.0246887 -24.7638 0.0145264 -25.1169 0.132233C-25.9016 0.485352 -26.3725 1.27005 -26.2548 2.09399L-65.137 11.8636L-65.3724 11.9028L-141.175 30.932C-141.175 30.8928 -141.214 30.8143 -141.214 30.7751C-141.254 30.7358 -141.254 30.6573 -141.293 30.6181L-140.704 30.0296L-141.489 30.3435C-141.489 30.3435 -141.489 30.3434 -141.489 30.3042L-141.646 30.1473C-141.724 30.0688 -141.764 30.0296 -141.842 29.9904L-142.038 29.8727C-142.548 29.598 -143.137 29.5195 -143.725 29.7549C-144.785 30.0688 -145.256 31.1674 -144.863 32.1483ZM-87.8935 119.447L-9.42279 57.3374C-9.22662 57.5728 -8.99121 57.7297 -8.71661 57.8474L-17.7407 84.4098L-87.7758 119.604C-87.8542 119.565 -87.8935 119.486 -87.8935 119.447ZM117.307 19.7499L133.551 28.8525L127.979 32.4622L116.836 20.3777C117.033 20.2207 117.19 19.9854 117.307 19.7499ZM157.484 42.0748L171.688 48.1956L177.023 76.7196L174.866 79.1522L156.7 42.8203C157.053 42.6634 157.327 42.3887 157.484 42.0748ZM157.68 41.4863L170.628 42.5064L171.648 47.9601L157.563 41.8786C157.602 41.7609 157.641 41.604 157.68 41.4863ZM374.652 162.567L370.375 172.807L354.642 164.332C354.838 163.94 354.917 163.469 354.917 162.998L374.652 162.567ZM375.358 161.389L376.535 162.331L374.966 162.37L375.358 161.389ZM354.877 162.802C354.838 162.527 354.76 162.253 354.681 161.978C354.524 161.546 354.249 161.193 353.936 160.919L362.489 151.149L375.24 161.272L374.77 162.37L354.877 162.802ZM353.779 160.762C352.955 160.134 351.856 159.938 350.836 160.369C350.797 160.369 350.758 160.409 350.718 160.409L343.931 147.382L351.503 142.36L362.293 150.953L353.779 160.762ZM213.434 189.325L226.617 182.616L248.039 222.44L241.997 227.815L212.963 191.483C213.552 190.973 213.748 190.11 213.434 189.325ZM183.027 178.496L209.903 189.482C209.746 189.914 209.746 190.384 209.942 190.855C210.177 191.365 210.57 191.758 211.08 191.915L207.823 203.371L182.595 179.242C182.752 178.967 182.909 178.731 183.027 178.496ZM108.44 220.046L109.578 214.553L126.92 228.521L128.332 231.66L123.389 236.839L108.44 220.046ZM123.232 236.996L99.6906 261.753L108.362 220.282L123.232 236.996ZM82.2309 238.291L61.397 240.017L86.5468 198.349C86.7822 198.467 87.0176 198.545 87.2923 198.585L86.5076 234.014C85.9583 234.014 85.409 234.132 84.8597 234.367C83.2118 234.995 82.1917 236.604 82.2309 238.291ZM87.6061 194.779L88.744 171.551L97.0226 167.51C97.4934 168.334 98.4743 168.687 99.3767 168.334L112.834 197.839L109.421 214.2L89.0186 197.761C89.3717 197.251 89.4502 196.584 89.1756 195.956C88.9009 195.25 88.2732 194.857 87.6061 194.779ZM35.1877 141.772L-4.24377 135.023L16.0409 101.32L36.6002 139.849C35.8155 140.242 35.3447 140.948 35.1877 141.772ZM16.1586 101.085L30.4403 77.3866L43.4272 72.7176L38.2089 139.418C37.7773 139.418 37.3457 139.457 36.9533 139.653C36.9141 139.692 36.8356 139.692 36.7964 139.732L16.1586 101.085ZM16.0409 100.849L7.84076 85.4691L30.1264 77.4651L16.0409 100.849ZM43.6234 72.6392L57.5127 67.6562L73.7168 86.5285L39.5821 139.849C39.229 139.653 38.8366 139.496 38.405 139.457L43.6234 72.6392ZM78.2682 59.9269L75.0116 53.8847L92.5498 54.3163C92.5498 54.4732 92.5891 54.5909 92.6283 54.7479L78.2682 59.9269ZM92.6675 54.9832V55.0225C92.8245 55.3756 93.0206 55.611 93.2953 55.8072L83.918 70.442L78.3466 60.0838L92.6675 54.9832ZM78.1505 60.2015L83.8396 70.6774L73.8346 86.293L57.7481 67.5385L78.1505 60.2015ZM245.568 91.5506C245.607 91.6683 245.685 91.786 245.764 91.9037L215.906 114.778C215.356 114.032 214.572 113.522 213.709 113.287L217.397 99.0838L241.84 86.1361L245.882 89.6673C245.411 90.1773 245.293 90.8836 245.568 91.5506ZM127.077 228.403L113.07 197.8L119.073 169.119L127.312 170.217L134.689 224.99L129.549 230.404L127.077 228.403ZM129.392 230.522L128.489 231.464L127.273 228.796L129.392 230.522ZM126.685 228.09L109.617 214.318L112.991 198.114L126.685 228.09ZM100.593 166.608L118.877 169.04L112.952 197.447L99.6122 168.216C100.201 167.903 100.554 167.275 100.593 166.608ZM86.4291 75.5033L92.7067 87.1562L91.7259 107.166L79.6806 93.12L86.4291 75.5033ZM79.5237 92.9238L73.9523 86.45L83.918 70.8736L86.2721 75.2287L79.5237 92.9238ZM96.5126 112.777L91.922 107.402L92.9029 87.5093L95.7671 92.8061L96.5126 112.777ZM96.0025 93.2377L121.427 140.359L120.839 141.066L96.7872 113.012L96.0025 93.2377ZM92.9421 87.0778L94.4331 57.2589L95.7671 92.2961L92.9421 87.0778ZM91.7259 107.48L89.0186 162.567L57.8658 150.129L79.6021 93.3554L91.7259 107.48ZM91.922 107.716L96.5518 113.13L98.5528 164.685C98.3566 164.685 98.1605 164.724 97.9643 164.803C97.4935 164.999 97.1796 165.352 96.9834 165.745L89.2148 162.645L91.922 107.716ZM96.8657 165.941C96.7087 166.372 96.7088 166.843 96.9049 167.275C96.9049 167.275 96.9049 167.275 96.9049 167.314L88.744 171.316L89.1756 162.88L96.8657 165.941ZM96.7872 113.365L120.682 141.223L99.8476 165.038C99.5337 164.803 99.1414 164.646 98.749 164.646L96.7872 113.365ZM120.799 141.379L122.683 143.577C122.133 144.126 121.937 144.95 122.251 145.695C122.486 146.245 122.957 146.637 123.507 146.794L118.877 168.883L100.554 166.451C100.554 166.255 100.515 166.058 100.436 165.823C100.318 165.588 100.201 165.352 100.005 165.195L120.799 141.379ZM96.1595 55.101L145.439 74.7186L137.121 101.869L95.7671 55.6503C95.9633 55.4933 96.081 55.2971 96.1595 55.101ZM208.294 118.191L162.938 128.236C162.899 128.157 162.899 128.079 162.86 128C162.86 127.961 162.82 127.961 162.82 127.922L206.764 104.655L210.687 113.483C208.883 114.346 207.902 116.308 208.294 118.191ZM225.636 150.914L219.28 168.57L213.238 157.387C214.022 156.917 214.376 155.897 214.022 155.033C213.905 154.759 213.709 154.523 213.512 154.327L222.419 142.792L225.636 150.914ZM222.576 142.596L233.797 128.079L225.715 150.56L222.576 142.596ZM213.355 154.209C213.081 154.013 212.728 153.896 212.375 153.896L212.571 121.683C213.042 121.683 213.512 121.605 213.983 121.409L222.34 142.596L213.355 154.209ZM212.178 153.856C211.943 153.856 211.747 153.896 211.551 154.013C211.158 154.17 210.844 154.445 210.648 154.798L196.523 147.343L210.57 121.212C211.119 121.487 211.747 121.644 212.375 121.683L212.178 153.856ZM188.519 161.821L162.389 130.158C162.506 130.04 162.624 129.883 162.742 129.727L196.249 147.382L188.519 161.821ZM196.327 147.225L162.82 129.57C162.977 129.216 163.017 128.863 162.977 128.471L208.333 118.427C208.373 118.623 208.451 118.858 208.529 119.055C208.922 119.957 209.589 120.663 210.374 121.134L196.327 147.225ZM161.682 130.59L179.142 174.573C178.593 174.808 178.122 175.24 177.808 175.71L155.13 162.684L160.859 130.629C161.133 130.707 161.408 130.668 161.682 130.59ZM122.408 139.575L127.312 133.964L124.527 143.106C124.213 143.027 123.899 143.027 123.585 143.106L122.408 139.575ZM123.35 143.145C123.31 143.145 123.31 143.145 123.271 143.184C123.232 143.184 123.232 143.224 123.193 143.224L121.662 140.399L122.212 139.771L123.35 143.145ZM127.783 133.062L137.239 102.262L146.067 112.149L127.783 133.062ZM127.665 133.572L146.224 112.306L159.76 127.412C159.25 127.922 159.054 128.706 159.328 129.413L125.704 144.047C125.468 143.616 125.115 143.302 124.723 143.145L127.665 133.572ZM146.381 112.149L159.093 97.5928L160.859 126.902C160.702 126.941 160.505 126.941 160.348 127.019C160.192 127.098 160.035 127.176 159.917 127.294L146.381 112.149ZM124.173 146.833L127.312 169.982L119.151 168.883L123.781 146.833C123.86 146.833 124.017 146.833 124.173 146.833ZM124.37 146.794C124.487 146.755 124.605 146.715 124.723 146.676L136.415 171.198L127.469 170.021L124.37 146.794ZM124.919 146.598C125.194 146.441 125.429 146.245 125.625 145.97L154.934 162.802L153.051 173.395L136.69 171.198L124.919 146.598ZM136.533 171.434L148.813 197.133L145.949 213.102L134.885 224.755L127.509 170.217L136.533 171.434ZM136.807 171.434L153.011 173.592L148.892 196.74L136.807 171.434ZM155.13 162.92L177.73 175.907C177.612 176.142 177.494 176.417 177.455 176.652L153.247 173.435L155.13 162.92ZM154.973 162.606L125.704 145.813C125.939 145.342 125.978 144.832 125.782 144.283L159.407 129.648C159.681 130.158 160.152 130.511 160.662 130.629L154.973 162.606ZM161.094 126.862L159.289 97.3574L170.393 84.6451L176.553 87.0778C176.239 87.784 176.239 88.6079 176.553 89.3534C176.827 90.0204 177.337 90.5697 177.965 90.8444L161.761 126.98C161.565 126.902 161.329 126.862 161.094 126.862ZM159.289 97.0435L158.23 79.78L170.197 84.5274L159.289 97.0435ZM159.093 97.2789L146.224 111.992L137.317 102.026L145.674 74.7579L157.994 79.7015L159.093 97.2789ZM137.082 102.105L127.469 133.493L122.329 139.378L95.1001 56.1211C95.1393 56.1211 95.1393 56.1211 95.1786 56.0818C95.3355 56.0034 95.4925 55.9249 95.6102 55.8072L137.082 102.105ZM121.545 140.555L123.036 143.302C122.996 143.341 122.918 143.38 122.879 143.42L120.995 141.223L121.545 140.555ZM134.728 225.225L136.14 235.701L129.706 230.522L134.728 225.225ZM134.924 225.029L145.91 213.494L141.241 239.821L136.415 235.937L134.924 225.029ZM146.224 212.827L148.97 197.447L152.933 205.765L146.224 212.827ZM149.049 197.094L153.208 173.67L177.416 176.887C177.337 177.397 177.416 177.947 177.612 178.418C177.73 178.731 177.926 179.006 178.161 179.242L153.129 205.568L149.049 197.094ZM179.338 174.494L161.918 130.511C162.036 130.472 162.153 130.394 162.232 130.315L188.402 162.017L181.614 174.612C180.947 174.298 180.123 174.219 179.338 174.494ZM196.406 147.539L210.53 154.994C210.334 155.465 210.295 156.014 210.491 156.524C210.766 157.191 211.433 157.623 212.1 157.662L211.59 188.187C211.354 188.187 211.158 188.226 210.923 188.344C210.766 188.423 210.648 188.501 210.53 188.58L188.637 162.017L196.406 147.539ZM212.335 157.662C212.571 157.662 212.767 157.623 213.002 157.505C213.042 157.505 213.042 157.466 213.081 157.466L219.201 168.844L212.218 188.266C212.1 188.226 211.943 188.187 211.825 188.187L212.335 157.662ZM219.319 169.08L223.949 177.672L212.963 188.658C212.806 188.501 212.649 188.383 212.453 188.305L219.319 169.08ZM219.437 168.805L225.754 151.188L232.738 168.883L224.106 177.515L219.437 168.805ZM232.816 169.119L236.151 177.594L226.695 182.38L224.184 177.751L232.816 169.119ZM233.012 168.923L254.709 147.265L257.299 166.882L236.387 177.437L233.012 168.923ZM232.895 168.726L225.832 150.914L234.229 127.569L249.452 107.872L254.631 146.99L232.895 168.726ZM249.648 107.362L247.726 92.6884C247.843 92.6492 247.961 92.6099 248.118 92.5707C248.471 92.4138 248.746 92.1783 248.942 91.9037L257.495 97.2789L249.648 107.362ZM249.452 107.598L234.464 126.941L246.784 92.6492C247.019 92.7276 247.255 92.7276 247.49 92.7276L249.452 107.598ZM234.072 127.451L222.497 142.36L214.179 121.291C216.337 120.349 217.397 117.838 216.455 115.68C216.337 115.406 216.18 115.131 216.023 114.896L245.882 92.0214C246.078 92.2568 246.313 92.4138 246.588 92.5315L234.072 127.451ZM213.473 113.208C212.61 113.012 211.708 113.052 210.844 113.405L206.921 104.577L217.083 99.2015L213.473 113.208ZM206.842 104.381L197.779 83.9389L222.536 78.2498L217.161 98.966L206.842 104.381ZM206.685 104.459L162.703 127.765C162.506 127.49 162.271 127.255 161.957 127.098L178.161 90.9621C178.868 91.2367 179.652 91.2759 180.398 90.9621C181.771 90.3735 182.477 88.9218 182.124 87.5486L197.544 83.9782L206.685 104.459ZM182.085 87.3132V87.2739L196.602 81.7418L197.504 83.782L182.085 87.3132ZM182.006 87.0778C181.457 85.8222 180.162 85.116 178.868 85.3122L177.259 76.7981L188.637 63.772L196.484 81.5063L182.006 87.0778ZM178.632 85.3514C178.475 85.3907 178.279 85.4299 178.122 85.5083C178.083 85.5083 178.083 85.5476 178.044 85.5476L174.983 79.4268L177.063 77.0335L178.632 85.3514ZM177.847 85.626C177.651 85.7437 177.494 85.8615 177.337 85.9792L173.178 81.4671L174.826 79.5838L177.847 85.626ZM177.22 86.1361C176.984 86.3715 176.827 86.6069 176.67 86.8816L170.589 84.449L173.061 81.6241L177.22 86.1361ZM170.353 84.3705L158.23 79.5446L157.327 64.5567L172.904 81.4671L170.353 84.3705ZM157.994 79.4661L145.714 74.6009L150.893 57.6512L157.053 64.3213L157.994 79.4661ZM145.518 74.4832L96.2379 54.8655C96.3164 54.5909 96.3557 54.277 96.3164 53.9631L139.122 44.8605L150.736 57.4551L145.518 74.4832ZM122.172 139.535L121.584 140.202L96.0025 92.7669L94.5901 56.1995C94.7078 56.1995 94.8254 56.1603 94.9039 56.1603L122.172 139.535ZM92.746 86.7246L86.5468 75.2287L93.8838 56.0818C94.0015 56.1211 94.1192 56.1603 94.2762 56.1603L92.746 86.7246ZM86.3899 74.9933L84.075 70.6774L93.5307 55.9249C93.5699 55.9641 93.6484 55.9641 93.6876 56.0034L86.3899 74.9933ZM73.8346 86.6462L79.4059 93.1592L57.6303 150.05L40.7984 143.341C41.0338 142.674 41.0338 141.929 40.7592 141.223C40.5237 140.673 40.1707 140.242 39.6998 139.928L73.8346 86.6462ZM40.7592 143.537L57.5911 150.247L53.9815 159.663L40.1314 144.44C40.406 144.204 40.6022 143.891 40.7592 143.537ZM57.7873 150.325L88.9794 162.763L88.5478 171.394L71.9905 179.516L54.1384 159.859L57.7873 150.325ZM71.7943 179.634L40.7199 194.857L54.0207 160.095L71.7943 179.634ZM71.9512 179.791L86.076 195.328C85.6051 195.799 85.409 196.505 85.6052 197.172L33.0298 214.946L40.6022 195.132L71.9512 179.791ZM86.7038 194.896C86.5468 194.975 86.3899 195.053 86.2329 195.171L72.1474 179.673L88.5478 171.63L87.41 194.739C87.1746 194.779 86.9392 194.818 86.7038 194.896ZM88.9009 197.878L109.382 214.396L108.244 219.85L88.7832 198.035C88.8224 197.996 88.8617 197.957 88.9009 197.878ZM128.411 231.856L137.435 251.552C137.239 251.67 137.043 251.788 136.886 251.905L123.546 236.957L128.411 231.856ZM128.568 231.699L129.549 230.679L136.18 236.015L138.259 251.317C138.063 251.356 137.827 251.395 137.631 251.513L128.568 231.699ZM136.415 236.211L141.162 240.017L139.161 251.278C138.926 251.238 138.691 251.238 138.455 251.278L136.415 236.211ZM141.359 240.174L144.733 242.881L140.064 251.552C139.828 251.435 139.632 251.356 139.397 251.317L141.359 240.174ZM141.398 239.939L146.145 213.18L153.011 205.961L158.504 217.417L144.851 242.724L141.398 239.939ZM153.208 205.804L178.279 179.398C178.436 179.555 178.632 179.673 178.828 179.791L158.622 217.143L153.208 205.804ZM181.81 174.729L188.559 162.213L210.413 188.697C210.217 188.854 210.099 189.05 209.981 189.286L183.105 178.3C183.34 177.633 183.34 176.848 183.066 176.142C182.791 175.514 182.36 175.043 181.81 174.729ZM224.067 177.868L226.539 182.459L213.355 189.129C213.277 189.011 213.198 188.893 213.12 188.815L224.067 177.868ZM226.813 182.537L236.269 177.79L252.395 218.595L248.236 222.283L226.813 182.537ZM236.465 177.672L257.338 167.118L262.91 209.296L252.591 218.438L236.465 177.672ZM257.495 167.039L282.056 154.641L277.427 196.427L263.106 209.139L257.495 167.039ZM282.253 154.523L294.298 148.442L300.34 173.866C300.262 173.906 300.222 173.906 300.144 173.945C299.163 174.337 298.732 175.475 299.124 176.456C299.202 176.613 299.281 176.77 299.399 176.887L277.623 196.23L282.253 154.523ZM309.286 140.595L296.534 147.029L292.179 119.565L305.441 129.216L309.286 140.595ZM305.715 129.491L316.191 137.142L309.482 140.555L305.715 129.491ZM296.377 147.382L300.576 173.749L294.533 148.324L296.377 147.382ZM300.772 173.788L296.574 147.265L309.364 140.791L317.447 164.607L302.42 174.533C302.027 174.023 301.4 173.749 300.772 173.788ZM309.521 140.712L316.348 137.26L335.573 151.267L335.691 152.601L317.604 164.528L309.521 140.712ZM335.809 151.424L336.594 151.973L335.887 152.444L335.809 151.424ZM335.73 152.836L337.928 179.909L327.295 192.895L317.721 164.724L335.73 152.836ZM335.927 152.718L336.79 152.169L349.541 161.468C348.992 162.253 348.835 163.312 349.227 164.293C349.384 164.685 349.62 164.999 349.894 165.274L338.085 179.712L335.927 152.718ZM336.986 152.012L343.734 147.539L350.522 160.526C350.208 160.722 349.894 160.958 349.698 161.233L336.986 152.012ZM343.813 147.265L335.887 132.081C336.397 131.806 336.79 131.453 337.143 131.061L351.307 142.321L343.813 147.265ZM343.617 147.382L336.79 151.895L335.809 151.188L334.318 132.591C334.71 132.551 335.142 132.434 335.534 132.277C335.613 132.238 335.652 132.198 335.73 132.198L343.617 147.382ZM335.573 150.992L316.584 137.142L330.081 130.315C330.865 131.806 332.474 132.63 334.083 132.552L335.573 150.992ZM316.387 137.024L305.598 129.138L302.42 119.839L329.649 127.333C329.453 128.196 329.492 129.099 329.884 129.962C329.924 130.04 329.963 130.08 329.963 130.158L316.387 137.024ZM305.284 128.903L292.101 119.29L291.708 116.897L302.145 119.761L305.284 128.903ZM291.865 119.133L288.962 117.014C289.119 116.779 289.237 116.504 289.315 116.23L291.512 116.818L291.865 119.133ZM291.708 116.661L291.473 115.249L300.615 115.092L302.145 119.525L291.708 116.661ZM291.473 116.583L289.394 115.994C289.472 115.759 289.472 115.484 289.472 115.249L291.277 115.209L291.473 116.583ZM288.844 117.171L291.944 119.408L296.338 147.147L294.455 148.089L287.314 118.152C287.432 118.113 287.549 118.074 287.667 118.034C288.138 117.838 288.53 117.524 288.844 117.171ZM294.259 148.206L282.292 154.249L286.294 118.27C286.569 118.27 286.843 118.27 287.079 118.231L294.259 148.206ZM282.056 154.366L257.456 166.804L254.866 147.069L284.489 117.485C284.921 117.877 285.47 118.152 286.059 118.231L282.056 154.366ZM254.827 146.833L249.648 107.676L257.613 97.3574L283.94 113.836C283.508 114.621 283.39 115.563 283.783 116.465C283.94 116.779 284.097 117.093 284.332 117.328L254.827 146.833ZM285.352 112.62C284.803 112.855 284.371 113.208 284.057 113.679L257.731 97.2005L272.915 77.5828L285.391 112.581C285.391 112.62 285.391 112.62 285.352 112.62ZM257.574 97.0828L248.981 91.7075C249.256 91.1974 249.295 90.6089 249.06 90.0596C249.02 89.9419 248.942 89.8634 248.903 89.7457L271.306 73.11L272.836 77.3866L257.574 97.0828ZM248.785 89.5888C248.471 89.2357 248.039 89.0003 247.569 88.9218L248.039 82.8011L270.521 70.9128L271.228 72.9138L248.785 89.5888ZM247.372 88.8826C247.098 88.8826 246.862 88.9218 246.588 89.0395C246.352 89.1572 246.117 89.2749 245.96 89.4711L241.997 86.0184L247.843 82.9188L247.372 88.8826ZM241.84 85.8615L230.894 76.288L248.706 72.1683L247.883 82.6442L241.84 85.8615ZM241.644 85.9792L217.436 98.7699L222.772 78.1713L230.58 76.3665L241.644 85.9792ZM222.85 77.9359L224.184 72.7961C224.538 72.8746 224.93 72.8353 225.283 72.6784C225.518 72.5607 225.754 72.443 225.911 72.2468L230.423 76.1703L222.85 77.9359ZM222.615 77.9752L197.701 83.7035L196.798 81.6241L222.811 71.6975C223.047 72.2076 223.478 72.5607 223.988 72.7176L222.615 77.9752ZM196.68 81.4671L188.755 63.615L193.855 57.8082L222.772 70.285C222.615 70.6774 222.615 71.1089 222.733 71.5013L196.68 81.4671ZM188.676 63.3796L184.4 53.6885L193.659 57.6905L188.676 63.3796ZM188.559 63.5758L177.22 76.5627L171.923 48.3525L184.125 53.61L188.559 63.5758ZM174.748 79.3876L173.061 81.3102L157.288 64.2428L155.993 43.1342C156.15 43.0949 156.346 43.0949 156.503 43.0165L174.748 79.3876ZM157.053 64.0074L150.971 57.4159L155.366 43.0949C155.483 43.1342 155.64 43.1342 155.797 43.1342L157.053 64.0074ZM150.814 57.2197L139.358 44.8213L153.953 41.7217C153.992 41.8002 153.992 41.8787 154.032 41.9571C154.267 42.4672 154.699 42.8595 155.169 43.0165L150.814 57.2197ZM139.201 44.6644L135.002 40.1131L153.875 41.1724C153.875 41.2901 153.875 41.4078 153.914 41.5255L139.201 44.6644ZM134.806 39.8777L128.136 32.6191L133.786 28.9702L154.071 40.3877C153.992 40.5839 153.914 40.7801 153.875 40.9762L134.806 39.8777ZM127.94 32.7368L134.492 39.8384L118.367 38.936L127.94 32.7368ZM134.689 40.0738L138.926 44.7036L96.2379 53.8062C96.1987 53.7277 96.1987 53.6493 96.1595 53.5708C96.1202 53.4923 96.081 53.4138 96.0417 53.3746L118.014 39.1714L134.689 40.0738ZM95.9633 53.1784C95.8064 52.9823 95.6494 52.8253 95.4532 52.7076L103.536 38.3475L117.7 39.1322L95.9633 53.1784ZM95.2963 52.5899C94.8647 52.3937 94.3546 52.3152 93.8446 52.5114L93.6484 52.5899C93.3345 52.7469 93.0598 52.943 92.9029 53.2177L66.9684 37.0135C67.0861 36.7781 67.1646 36.5426 67.2038 36.268L87.9985 37.4451H88.2339L103.34 38.3082L95.2963 52.5899ZM66.8506 37.1704L92.7852 53.3746C92.6675 53.61 92.589 53.8847 92.5498 54.1201L74.8939 53.6885L66.2621 37.7197C66.4975 37.5628 66.6937 37.4058 66.8506 37.1704ZM74.7762 53.8847L78.072 60.0054L57.5911 67.3816L47.9785 56.1995C48.8024 55.4148 49.2732 54.3947 49.3517 53.2569L74.7762 53.8847ZM47.8215 56.3173L57.3557 67.4209L43.6234 72.3645L44.8004 57.2982C45.4282 57.3374 46.056 57.2197 46.6837 56.9843C47.1153 56.8273 47.5076 56.5919 47.8215 56.3173ZM43.4272 72.4822L30.5972 77.112L42.8387 56.7488C43.3879 57.0627 43.9765 57.2981 44.6042 57.3374L43.4272 72.4822ZM30.2441 77.1904L7.68378 85.3122L2.03387 74.6794L41.23 54.9832C41.5831 55.6503 42.0539 56.1995 42.6425 56.5919L30.2441 77.1904ZM-17.5837 84.5667L1.87695 74.7971L7.52686 85.3906L-21.3896 95.788L-17.5837 84.5667ZM-21.6642 95.8665L-86.6772 119.251L-17.8584 84.6844L-21.6642 95.8665ZM1.95544 74.5224L-7.02948 57.6905C-6.44092 57.3374 -6.12708 56.7096 -6.12708 56.0818L40.7592 53.3746C40.7984 53.8454 40.8769 54.3163 41.0731 54.7479C41.0731 54.7871 41.1123 54.8263 41.1123 54.8655L1.95544 74.5224ZM-7.22565 57.8082L1.75928 74.6401L-17.5053 84.3313L-8.52045 57.9651C-8.12805 58.0828 -7.69647 58.0829 -7.26483 57.8867C-7.26483 57.8082 -7.22565 57.8082 -7.22565 57.8082ZM-87.5796 120.781C-87.5404 120.467 -87.5796 120.192 -87.6973 119.878L-21.7427 96.1411L-33.2779 130.04L-87.5796 120.781ZM-21.5073 96.0627L7.60529 85.5868L15.884 101.085L-4.51837 134.984L-33.0817 130.08L-21.5073 96.0627ZM-72.9056 247.236L-33.1602 130.276L-4.63611 135.141L-72.2386 247.511C-72.4348 247.433 -72.6702 247.315 -72.9056 247.236ZM-72.0424 247.629L-4.4007 135.18L35.1093 141.929C35.0308 142.439 35.1093 142.949 35.3055 143.459C35.4232 143.773 35.6193 144.047 35.8547 144.283L-71.2969 248.178C-71.5323 248.021 -71.7678 247.825 -72.0424 247.629ZM-71.14 248.374L36.0117 144.479C36.8356 145.264 38.0912 145.538 39.1897 145.068C39.4644 144.95 39.739 144.793 39.9352 144.597L53.8245 159.899L40.4061 194.975L-70.5515 249.316C-70.6692 248.963 -70.9046 248.649 -71.14 248.374ZM-70.3553 249.63C-70.3553 249.59 -70.3945 249.551 -70.4337 249.512L40.2884 195.289L32.7159 215.024L-70.316 249.826C-70.2769 249.747 -70.316 249.708 -70.3553 249.63ZM-70.0414 250.885C-70.0806 250.611 -70.1199 250.297 -70.1984 250.022L32.6767 215.299L21.9655 243.274L-70.0414 250.885ZM32.9121 215.181L85.6444 197.368V197.407C85.8013 197.761 86.0368 198.035 86.3114 198.231L61.0831 240.017L22.1224 243.234L32.9121 215.181ZM-40.458 406.806L22.1224 243.47L61.0439 240.252L-39.7517 407.16C-39.9871 407.003 -40.2226 406.924 -40.458 406.806ZM-39.5948 407.238L61.24 240.213L82.1917 238.487C82.2309 238.958 82.3094 239.468 82.5056 239.939C82.7802 240.645 83.251 241.233 83.8004 241.665L-39.4771 407.356C-39.4771 407.316 -39.5163 407.277 -39.5948 407.238ZM-39.0062 407.709C-39.0847 407.63 -39.1632 407.591 -39.2416 407.513L84.0357 241.822C84.7027 242.293 85.4482 242.567 86.2329 242.607L84.9774 277.291L-39.0062 407.709ZM85.2128 276.977L86.4291 242.567C87.0176 242.567 87.5669 242.45 88.1555 242.214C90.3526 241.312 91.3728 238.762 90.4311 236.604C89.7641 235.034 88.2731 234.053 86.6645 233.975L87.4492 198.545C87.6846 198.545 87.92 198.506 88.1162 198.388C88.2732 198.31 88.4301 198.231 88.5478 198.114L108.126 220.046L99.3767 261.989L85.2128 276.977ZM83.0156 338.262L85.2128 277.33L99.3375 262.46L83.4865 338.302C83.3295 338.262 83.1726 338.262 83.0156 338.262ZM84.8597 338.772C84.5066 338.576 84.1142 338.419 83.6826 338.341L99.6122 262.146L123.389 237.153L136.69 252.102C135.826 252.925 135.513 254.22 136.023 255.358C136.258 255.907 136.611 256.339 137.082 256.653L84.8597 338.772ZM141.476 255.358C141.79 254.652 141.79 253.828 141.476 253.082C141.202 252.455 140.77 251.984 140.26 251.67L144.929 243.038L184.557 274.936C184.478 275.054 184.361 275.211 184.321 275.329L141.476 255.358ZM184.635 274.78L145.007 242.842L158.622 217.653L185.577 274.073C185.224 274.269 184.91 274.505 184.635 274.78ZM185.773 273.995L158.74 217.417L179.025 179.909C179.456 180.105 179.927 180.222 180.437 180.222L186.597 273.759C186.322 273.799 186.048 273.877 185.773 273.995ZM186.793 273.759L180.633 180.222C180.908 180.183 181.182 180.105 181.457 180.026C181.81 179.869 182.163 179.634 182.399 179.398L207.706 203.607L187.578 273.916C187.342 273.799 187.068 273.759 186.793 273.759ZM189.108 274.78C188.755 274.387 188.284 274.073 187.774 273.916L207.862 203.724L237.367 231.935L189.108 274.78ZM237.524 231.778L207.941 203.489L211.237 191.954C211.629 192.032 212.021 192.032 212.414 191.836C212.531 191.797 212.649 191.718 212.767 191.64L241.84 227.972L237.524 231.778ZM268.049 260.969L237.681 231.935L241.958 228.129L268.128 260.89C268.128 260.89 268.089 260.929 268.049 260.969ZM268.324 260.733L242.115 227.972L248.157 222.636L268.599 260.576C268.481 260.616 268.403 260.694 268.324 260.733ZM268.795 260.459L248.353 222.479L252.512 218.791L268.952 260.38C268.873 260.419 268.834 260.459 268.795 260.459ZM269.109 260.341L252.63 218.673L262.91 209.57L269.58 260.223C269.423 260.223 269.266 260.262 269.109 260.341ZM269.815 260.184L263.106 209.374L277.348 196.701L270.286 260.145C270.129 260.145 269.972 260.145 269.815 260.184ZM271.816 260.733C271.424 260.459 270.992 260.262 270.482 260.184L277.544 196.505L299.516 177.005C300.066 177.554 300.889 177.711 301.596 177.437C301.674 177.397 301.792 177.358 301.87 177.28L318.938 203.057L271.816 260.733ZM319.134 202.9L302.106 177.162C302.773 176.652 303.008 175.75 302.694 174.926C302.655 174.847 302.616 174.769 302.577 174.69L317.525 164.842L327.138 193.092L319.134 202.9ZM342.087 237.153C342.008 237.192 341.93 237.231 341.851 237.271L319.252 203.097L327.216 193.366L342.087 237.153ZM342.322 237.074L327.373 193.17L337.967 180.222L342.557 237.035C342.479 237.035 342.4 237.035 342.322 237.074ZM342.754 236.996L338.124 179.987L350.051 165.391C350.444 165.705 350.954 165.941 351.464 166.019L342.91 236.996C342.871 236.996 342.832 236.996 342.754 236.996ZM343.46 237.114C343.342 237.074 343.264 237.035 343.146 237.035L351.699 166.058C352.17 166.098 352.641 166.019 353.112 165.823C353.739 165.548 354.249 165.078 354.563 164.528L370.258 173.042L343.46 237.114ZM430.17 205.137L370.532 172.925L374.848 162.567L376.771 162.527L430.248 205.019C430.248 205.058 430.209 205.098 430.17 205.137ZM431.033 204.391C430.798 204.509 430.562 204.666 430.405 204.862L377.163 162.527L414.319 161.703L431.033 204.391ZM398.154 114.386L521.117 158.643C521.078 158.8 521.039 158.957 521.039 159.114L414.437 161.468L396.584 115.994C397.33 115.68 397.879 115.092 398.154 114.386ZM396.388 116.073L414.201 161.507L376.888 162.331L375.476 161.193L394.387 116.033C394.976 116.308 395.721 116.308 396.388 116.073ZM394.152 115.994L375.28 161.076L362.607 150.992L393.563 115.602C393.759 115.759 393.956 115.876 394.152 115.994ZM393.406 115.445L362.45 150.835L351.699 142.282L393.014 115.053C393.132 115.209 393.249 115.327 393.406 115.445ZM392.582 114.072C392.622 114.189 392.661 114.307 392.7 114.464C392.779 114.621 392.818 114.739 392.936 114.896L351.542 142.203L337.339 130.904C338.085 129.923 338.359 128.667 338.085 127.412L392.582 114.072ZM392.465 113.483C392.465 113.601 392.504 113.719 392.504 113.836L338.006 127.176C337.967 126.98 337.888 126.823 337.81 126.627C336.907 124.43 334.357 123.41 332.199 124.312C331.885 124.469 331.571 124.626 331.297 124.822L323.293 114.66L392.465 113.483ZM323.018 114.699L331.14 124.979C330.473 125.528 330.002 126.274 329.767 127.098L302.38 119.565L300.85 115.053L323.018 114.699ZM284.371 65.6553L322.861 114.464L300.772 114.856L284.097 65.8122C284.175 65.7729 284.254 65.7337 284.371 65.6553ZM283.861 65.8907L300.497 114.856L291.395 115.013L283.626 65.9691C283.744 65.9299 283.783 65.8907 283.861 65.8907ZM283.43 65.9691L291.198 115.013L289.433 115.053C289.393 114.778 289.315 114.464 289.197 114.189C288.609 112.777 287.039 112.071 285.588 112.502L273.072 77.3866L282.174 65.6553C282.567 65.8907 282.998 66.0084 283.43 65.9691ZM282.017 65.4983L272.993 77.1512L271.502 72.953L281.821 65.3021C281.9 65.3806 281.939 65.4591 282.017 65.4983ZM281.703 65.1452L271.463 72.7568L270.757 70.7951L281.664 65.0275C281.664 65.0667 281.664 65.106 281.703 65.1452ZM281.468 64.6351C281.468 64.6744 281.507 64.7528 281.507 64.7921C281.507 64.7921 281.507 64.7921 281.507 64.8313L270.639 70.5989L269.501 67.4209L281.468 64.6351ZM269.305 67.4601L270.482 70.7166L248.118 82.5657L248.942 72.1683L269.305 67.4601ZM253.415 22.8495L269.266 67.2639L248.942 71.9329L252.787 22.928C252.983 22.928 253.219 22.928 253.415 22.8495ZM252.591 22.928L248.746 71.9721L230.697 76.1311L226.068 72.0898C226.46 71.5798 226.617 70.8343 226.342 70.1673C226.185 69.8142 225.911 69.5003 225.597 69.3041L251.963 22.6926C252.159 22.8103 252.355 22.8888 252.591 22.928ZM251.139 21.8686C251.296 22.1825 251.492 22.4179 251.767 22.6141L225.401 69.2257C224.93 68.9903 224.341 68.951 223.831 69.1864C223.714 69.2257 223.596 69.3041 223.517 69.3826L206.215 46.5869C206.764 46.0376 206.999 45.2137 206.685 44.4682C206.685 44.429 206.646 44.429 206.646 44.3897L251.139 21.8686ZM205.626 46.9008C205.783 46.8223 205.901 46.7438 206.018 46.6653L223.321 69.5003C223.125 69.6573 222.968 69.8535 222.85 70.0889L194.012 57.6512L203.664 46.6261C204.174 47.0577 204.92 47.2147 205.626 46.9008ZM202.997 45.0175C202.997 45.2921 202.997 45.606 203.154 45.8806C203.233 46.0768 203.39 46.273 203.507 46.43L193.816 57.4943L184.282 53.4138L179.77 43.2126L202.997 45.0175ZM183.968 53.2961L171.844 48.0779L170.824 42.5457L179.495 43.2126L183.968 53.2961ZM165.135 10.765L179.417 42.9773L170.824 42.3102L164.939 10.8435C164.978 10.8435 165.057 10.8043 165.135 10.765ZM164.704 10.8827L170.589 42.271L157.68 41.2509C157.68 40.9762 157.641 40.7408 157.524 40.4662C157.131 39.4853 155.993 39.0537 155.012 39.4461C154.62 39.603 154.345 39.8777 154.149 40.1915L133.943 28.8525L162.899 10.098C163.33 10.6865 164.037 10.9612 164.704 10.8827ZM162.624 9.43103C162.663 9.50949 162.663 9.62717 162.703 9.70566C162.742 9.78412 162.781 9.82336 162.82 9.90182L133.747 28.6956L117.386 19.5145C117.621 18.9652 117.7 18.3375 117.582 17.7489L162.624 9.43103ZM115.856 21.0839C116.169 20.9662 116.444 20.7701 116.68 20.5739L127.783 32.6191L117.974 38.936L103.614 38.1121L113.266 20.927C114.051 21.3586 114.992 21.437 115.856 21.0839ZM84.8204 29.1272L85.0166 29.0487L111.893 19.3183C111.932 19.3576 111.932 19.436 111.971 19.4753C112.207 20.0638 112.599 20.4954 113.109 20.8093L103.418 38.0728L88.1162 37.2097H87.8808L67.2038 36.0326C67.2038 35.8756 67.1646 35.7187 67.1253 35.5226L84.8204 29.1272ZM66.0267 37.8374C66.0659 37.8374 66.066 37.7982 66.1052 37.7982L74.6585 53.6885L49.3517 53.0607C49.3517 52.5114 49.234 51.9621 48.9986 51.4128C48.8416 51.0205 48.6062 50.6281 48.3316 50.3142L63.8296 37.3666C64.3788 37.9551 65.242 38.1905 66.0267 37.8374ZM63.398 36.1503C63.398 36.3857 63.4372 36.6211 63.5549 36.8173C63.5941 36.935 63.6726 37.0527 63.7511 37.1704L48.2531 50.1573C47.233 49.0587 45.742 48.5487 44.2511 48.8625L44.0549 48.9018C43.8588 48.941 43.6626 49.0195 43.4664 49.098C43.3487 49.1372 43.231 49.2157 43.1133 49.2549L42.9171 49.3726C41.5831 50.1573 40.7984 51.609 40.8376 53.1L-6.04858 55.8072C-6.04858 55.6502 -6.08783 55.4541 -6.16632 55.2971C-6.36249 54.8655 -6.67633 54.5517 -7.02948 54.3555L-7.22565 54.277C-7.57874 54.1201 -7.97113 54.1201 -8.36346 54.1985L-14.3665 34.3847L63.398 36.1503ZM-23.7437 3.54572C-23.2336 3.34955 -22.8806 2.91794 -22.6844 2.44711L30.0872 22.6926L63.4764 35.5226C63.4372 35.6795 63.398 35.7972 63.398 35.9541L-14.5234 34.1885L-23.783 3.54572H-23.7437ZM-26.3333 2.2117C-26.294 2.32941 -26.294 2.4079 -26.2548 2.5256C-25.9017 3.38879 -24.9208 3.85959 -24.0184 3.62418L-14.7589 34.1885L-140.194 31.3636L-141.214 31.2067C-141.214 31.1674 -141.214 31.0889 -141.214 31.0497L-26.3333 2.2117Z" fill="#2BC8EB"/>
<path d="M-115.633 51.6098C-115.28 52.473 -114.26 52.8653 -113.397 52.5122C-112.808 52.2768 -112.416 51.6883 -112.377 51.0997L0.0715332 53.6108L5.4075 71.2667C5.36829 71.2667 5.36829 71.2667 5.32907 71.3059C4.46588 71.659 4.07352 72.6792 4.42664 73.5423C4.46588 73.66 4.54434 73.7777 4.6228 73.8562L-65.1376 129.06C-65.373 128.825 -65.6476 128.629 -65.9615 128.55L-66.1577 128.511C-66.4716 128.472 -66.7855 128.472 -67.0994 128.629C-67.9625 128.982 -68.3549 130.002 -68.0018 130.865C-67.6487 131.728 -66.6285 132.121 -65.7654 131.768C-65.2553 131.532 -64.9022 131.101 -64.7845 130.591L-16.5643 138.83L-51.876 242.725C-52.7 242.49 -53.5632 242.529 -54.4263 242.882C-56.3881 243.706 -57.2905 245.942 -56.4666 247.865C-55.6426 249.787 -53.4062 250.729 -51.4837 249.905C-49.9536 249.277 -49.0903 247.747 -49.1688 246.217L32.4799 239.469L-23.0773 384.561C-23.9013 384.325 -24.8037 384.365 -25.6276 384.718C-27.5894 385.542 -28.4918 387.778 -27.6678 389.701C-26.8439 391.623 -24.6075 392.565 -22.685 391.741C-20.7625 390.917 -19.8208 388.68 -20.6447 386.758C-20.8409 386.287 -21.1156 385.895 -21.4687 385.542L88.5864 269.758L86.6639 323.707C86.1931 323.707 85.683 323.785 85.2122 324.021C83.2504 324.845 82.3481 327.081 83.172 329.004C83.9959 330.926 86.2323 331.868 88.1548 331.044C90.1166 330.22 91.019 327.983 90.1951 326.061C89.8812 325.276 89.3319 324.688 88.6649 324.295L135.041 251.318C135.747 251.71 136.571 251.788 137.395 251.475C137.984 251.239 138.455 250.768 138.729 250.258L176.748 268.032C176.474 268.66 176.434 269.405 176.748 270.072C177.298 271.406 178.828 272.034 180.201 271.485C181.535 270.935 182.163 269.405 181.613 268.032C181.535 267.836 181.417 267.639 181.3 267.483L224.223 229.385L251.217 255.202C250.55 255.947 250.314 257.007 250.746 257.988C251.295 259.322 252.826 259.949 254.199 259.4C255.533 258.851 256.161 257.321 255.611 255.947C255.454 255.555 255.18 255.241 254.905 254.966L296.691 203.725L316.74 234.054C316.112 234.525 315.877 235.349 316.191 236.055C316.544 236.918 317.564 237.311 318.427 236.957C319.29 236.604 319.683 235.584 319.329 234.721C319.172 234.329 318.859 234.015 318.505 233.858L342.361 176.927L395.367 205.53C395.171 205.962 395.132 206.432 395.328 206.903C395.681 207.766 396.701 208.159 397.565 207.806C398.428 207.452 398.82 206.432 398.467 205.569C398.114 204.745 397.212 204.353 396.388 204.628L381.517 166.726L476.192 164.647C476.192 164.804 476.231 165 476.31 165.157C476.663 166.02 477.683 166.412 478.546 166.059C479.41 165.706 479.802 164.686 479.449 163.823C479.096 162.96 478.076 162.567 477.212 162.92C476.781 163.117 476.467 163.43 476.31 163.823L367.04 124.47C367.236 123.921 367.197 123.254 366.961 122.665C366.412 121.331 364.882 120.703 363.508 121.253C362.527 121.684 361.9 122.626 361.9 123.646L300.261 124.705L265.969 81.2717C266.519 80.8009 266.715 80.0162 266.44 79.3492C266.087 78.486 265.067 78.0936 264.204 78.4467C263.458 78.7607 263.066 79.5453 263.184 80.33L252.551 82.7626L238.465 43.2919C239.329 42.9388 239.721 41.9187 239.368 41.0947C239.015 40.2315 237.995 39.8392 237.131 40.1923C236.307 40.5454 235.915 41.4871 236.19 42.311L196.601 62.321C196.17 61.6148 195.307 61.3009 194.522 61.6541C193.973 61.8895 193.619 62.3603 193.502 62.9096L172.746 61.3009L160.034 32.5807C160.819 32.1883 161.172 31.2467 160.819 30.4227C160.466 29.5596 159.445 29.1672 158.582 29.5203C157.994 29.7557 157.601 30.305 157.562 30.9328V31.129C157.562 31.2074 157.562 31.2467 157.562 31.3251L117.542 38.7406C117.503 38.6229 117.464 38.5052 117.424 38.4267C116.875 37.0927 115.345 36.465 113.972 37.0143C113.776 37.0927 113.619 37.2104 113.462 37.3282L113.305 37.4458C113.069 37.642 112.912 37.8382 112.755 38.0736L112.677 38.2306C112.481 38.5837 112.402 38.976 112.402 39.4076V39.6038C112.402 39.8 112.442 39.9569 112.481 40.1531L72.6569 54.5525C72.3822 53.8855 71.676 53.4931 70.9697 53.5323H70.7736C70.6951 53.5323 70.5774 53.5716 70.4989 53.6108L70.342 53.6893C70.342 53.6893 70.3028 53.6893 70.3028 53.7285L70.1458 53.807C70.1066 53.8462 70.0674 53.8855 70.0281 53.8855L69.8712 54.0031C69.7142 54.1601 69.6357 54.317 69.5573 54.474L-7.03006 25.0867C-6.99081 24.969 -6.99084 24.8513 -6.99084 24.7336V24.5374C-6.99084 24.3805 -7.03009 24.1843 -7.10855 24.0273C-7.30475 23.5565 -7.65787 23.2427 -8.08945 23.0857L-8.40329 23.0073C-8.71719 22.968 -9.0311 23.0072 -9.30573 23.1249C-10.012 23.4388 -10.4043 24.1451 -10.3258 24.8905L-44.8922 33.5616L-45.0883 33.6008L-112.455 50.5112C-112.455 50.472 -112.495 50.3935 -112.495 50.3543C-112.534 50.315 -112.534 50.2758 -112.573 50.1973L-112.063 49.648L-112.73 49.9227L-112.848 49.7657C-112.887 49.7265 -112.965 49.648 -113.044 49.6088L-113.201 49.4911C-113.632 49.2557 -114.182 49.1772 -114.692 49.4126C-115.594 49.7657 -115.987 50.7466 -115.633 51.6098ZM-65.0199 129.217L4.74054 74.0132C4.89746 74.2094 5.13287 74.3663 5.36829 74.4448L-2.67496 98.0644L-64.9414 129.335C-64.9807 129.296 -65.0199 129.257 -65.0199 129.217ZM117.346 40.6239L131.785 48.7064L126.841 51.9237L116.954 41.2125C117.111 41.0163 117.228 40.8201 117.346 40.6239ZM153.05 60.4377L165.684 65.8914L170.431 91.2375L168.548 93.3954L152.422 61.1047C152.697 60.987 152.893 60.7516 153.05 60.4377ZM153.207 59.9277L164.742 60.8301L165.645 65.6953L153.129 60.2808C153.168 60.1631 153.207 60.0454 153.207 59.9277ZM346.088 167.55L342.282 176.653L328.314 169.12C328.471 168.766 328.55 168.335 328.55 167.943L346.088 167.55ZM346.716 166.491L347.736 167.315L346.363 167.354L346.716 166.491ZM328.51 167.746C328.471 167.511 328.432 167.236 328.314 167.001C328.157 166.648 327.922 166.295 327.647 166.059L335.259 157.388L346.559 166.373L346.166 167.354L328.51 167.746ZM327.49 165.942C326.784 165.392 325.764 165.235 324.862 165.588C324.822 165.588 324.783 165.628 324.744 165.628L318.702 154.053L325.45 149.62L335.063 157.231L327.49 165.942ZM202.8 191.327L214.493 185.363L233.561 220.753L228.186 225.54L202.369 193.249C202.879 192.779 203.075 191.994 202.8 191.327ZM175.728 181.675L199.622 191.444C199.505 191.837 199.505 192.268 199.662 192.661C199.858 193.132 200.25 193.445 200.682 193.602L197.778 203.764L175.375 182.342C175.493 182.106 175.65 181.91 175.728 181.675ZM109.46 218.635L110.48 213.769L125.86 226.168L127.116 228.953L122.721 233.544L109.46 218.635ZM122.643 233.662L101.73 255.673L109.42 218.831L122.643 233.662ZM86.1539 234.839L67.6347 236.369L89.9989 199.331C90.1951 199.449 90.4305 199.488 90.6659 199.527L89.9597 230.994C89.4888 230.994 88.9788 231.072 88.508 231.308C87.017 231.935 86.1539 233.348 86.1539 234.839ZM90.9406 196.153L91.9607 175.515L99.3369 171.905C99.7685 172.612 100.632 172.925 101.416 172.651L113.383 198.86L110.323 213.416L92.1961 198.781C92.51 198.311 92.5884 197.722 92.353 197.173C92.1176 196.584 91.5683 196.231 90.9406 196.153ZM44.3682 149.031L9.33105 143.028L27.3793 113.052L45.663 147.266C44.9567 147.697 44.4859 148.325 44.3682 149.031ZM27.4185 112.895L40.0916 91.826L51.6267 87.6671L46.9969 146.952C46.6046 146.952 46.2515 146.991 45.8591 147.148C45.8199 147.148 45.7807 147.187 45.7415 147.226L27.4185 112.895ZM27.3401 112.699L20.0423 99.0453L39.8169 91.9437L27.3401 112.699ZM51.8622 87.5886L64.2213 83.155L78.6206 99.9085L48.2525 147.305C47.9386 147.109 47.5855 146.991 47.2324 146.952L51.8622 87.5886ZM82.6619 76.3281L79.7585 70.992L95.3349 71.3844C95.3349 71.5021 95.3742 71.6198 95.3742 71.7768L82.6619 76.3281ZM95.4526 71.8944V71.9337C95.5703 72.2476 95.7665 72.483 96.0411 72.6399L87.7233 85.6661L82.7404 76.4458L95.4526 71.8944ZM82.5835 76.5635L87.6056 85.9015L78.6992 99.7908L64.3782 83.1158L82.5835 76.5635ZM231.364 104.421C231.403 104.538 231.482 104.617 231.521 104.734L204.998 125.058C204.488 124.391 203.781 123.96 203.036 123.724L206.292 111.13L228.029 99.6338L231.599 102.773C231.207 103.165 231.089 103.832 231.364 104.421ZM126.017 226.011L113.579 198.821L118.915 173.318L126.252 174.299L132.805 222.99L128.214 227.816L126.017 226.011ZM128.096 227.933L127.272 228.797L126.174 226.442L128.096 227.933ZM125.703 225.775L110.519 213.534L113.54 199.135L125.703 225.775ZM102.476 171.121L118.719 173.279L113.462 198.507L101.573 172.533C102.123 172.258 102.476 171.709 102.476 171.121ZM89.9204 90.1389L95.4919 100.497L94.6287 118.271L83.9174 105.794L89.9204 90.1389ZM83.7605 105.637L78.8168 99.8693L87.6841 86.0192L89.7635 89.9035L83.7605 105.637ZM98.9053 123.254L94.8249 118.467L95.688 100.811L98.2383 105.519L98.9053 123.254ZM98.3953 105.911L120.995 147.815L120.446 148.443L99.0623 123.528L98.3953 105.911ZM95.688 100.458L96.9828 73.9739L98.1991 105.127L95.688 100.458ZM94.5894 118.545L92.1568 167.511L64.4959 156.486L83.839 106.029L94.5894 118.545ZM94.7856 118.781L98.9053 123.567L100.671 169.394C100.514 169.394 100.318 169.433 100.161 169.512C99.7685 169.669 99.4547 169.983 99.2977 170.375L92.3923 167.629L94.7856 118.781ZM99.2192 170.532C99.1015 170.924 99.1015 171.317 99.2585 171.709C99.2585 171.709 99.2585 171.709 99.2585 171.748L91.9999 175.319L92.353 167.825L99.2192 170.532ZM99.1015 123.803L120.367 148.56L101.848 169.747C101.573 169.512 101.22 169.394 100.867 169.394L99.1015 123.803ZM120.485 148.717L122.133 150.64C121.623 151.111 121.466 151.856 121.74 152.523C121.936 153.033 122.368 153.347 122.878 153.504L118.758 173.122L102.476 170.964C102.476 170.767 102.436 170.611 102.358 170.414C102.28 170.218 102.123 170.022 101.966 169.865L120.485 148.717ZM98.5522 72.0122L142.378 89.4326L135.002 113.562L98.2383 72.483C98.356 72.3653 98.4738 72.2083 98.5522 72.0122ZM198.21 128.079L157.876 137.025C157.876 136.947 157.837 136.907 157.798 136.829C157.798 136.79 157.758 136.79 157.758 136.75L196.837 116.073L200.329 123.921C198.72 124.666 197.896 126.392 198.21 128.079ZM213.629 157.153L207.98 172.847L202.644 162.92C203.35 162.489 203.664 161.586 203.311 160.841C203.193 160.606 203.036 160.37 202.84 160.213L210.765 149.973L213.629 157.153ZM210.922 149.777L220.888 136.868L213.708 156.839L210.922 149.777ZM202.722 160.095C202.487 159.939 202.173 159.821 201.859 159.821L202.016 131.179C202.447 131.179 202.84 131.101 203.271 130.944L210.726 149.777L202.722 160.095ZM201.663 159.782C201.466 159.782 201.27 159.821 201.074 159.899C200.721 160.056 200.446 160.292 200.289 160.606L187.734 153.975L200.211 130.747C200.721 130.983 201.27 131.14 201.82 131.14L201.663 159.782ZM180.633 166.883L157.405 138.751C157.523 138.634 157.641 138.516 157.719 138.398L187.499 154.092L180.633 166.883ZM187.577 153.896L157.798 138.202C157.954 137.888 157.994 137.574 157.915 137.221L198.249 128.276C198.288 128.472 198.367 128.668 198.445 128.825C198.798 129.649 199.387 130.277 200.093 130.669L187.577 153.896ZM156.817 139.105L172.315 178.183C171.805 178.418 171.412 178.771 171.138 179.203L151.01 167.629L156.071 139.144C156.307 139.183 156.542 139.183 156.817 139.105ZM121.858 147.109L126.213 142.126L123.741 150.247C123.467 150.169 123.192 150.169 122.878 150.247L121.858 147.109ZM122.721 150.287C122.682 150.287 122.682 150.287 122.643 150.326C122.603 150.326 122.603 150.365 122.564 150.365L121.23 147.854L121.74 147.305L122.721 150.287ZM126.684 141.302L135.08 113.915L142.927 122.704L126.684 141.302ZM126.527 141.773L143.045 122.861L155.051 136.28C154.58 136.75 154.423 137.417 154.659 138.045L124.801 151.071C124.604 150.679 124.291 150.404 123.898 150.247L126.527 141.773ZM143.163 122.704L154.463 109.757L156.032 135.809C155.875 135.809 155.718 135.848 155.561 135.927C155.404 136.005 155.286 136.083 155.169 136.162L143.163 122.704ZM123.427 153.543L126.213 174.102L118.955 173.122L123.035 153.504C123.192 153.543 123.31 153.543 123.427 153.543ZM123.624 153.504C123.741 153.465 123.82 153.465 123.937 153.425L134.335 175.201L126.409 174.142L123.624 153.504ZM124.134 153.347C124.369 153.229 124.604 153.033 124.761 152.798L150.814 167.746L149.127 177.163L134.609 175.24L124.134 153.347ZM134.453 175.397L145.36 198.232L142.849 212.435L133.001 222.794L126.449 174.338L134.453 175.397ZM134.649 175.436L149.048 177.359L145.399 197.918L134.649 175.436ZM150.971 167.864L171.02 179.36C170.902 179.556 170.824 179.792 170.784 180.027L149.283 177.163L150.971 167.864ZM150.814 167.55L124.801 152.602C124.997 152.209 125.036 151.699 124.879 151.268L154.737 138.241C154.973 138.712 155.365 139.026 155.836 139.144L150.814 167.55ZM156.267 135.809L154.659 109.6L164.546 98.2998L170 100.458C169.725 101.086 169.725 101.831 170 102.498C170.235 103.087 170.706 103.557 171.255 103.832L156.856 135.927C156.699 135.848 156.464 135.809 156.267 135.809ZM154.659 109.286L153.717 93.9447L164.35 98.1821L154.659 109.286ZM154.463 109.521L143.045 122.586L135.12 113.719L142.535 89.5111L153.521 93.8662L154.463 109.521ZM134.923 113.759L126.37 141.655L121.819 146.873L97.6106 72.8753C97.6498 72.8753 97.6498 72.8753 97.6891 72.8361C97.846 72.7576 97.9637 72.6792 98.0814 72.6007L134.923 113.759ZM121.113 147.972L122.447 150.404C122.407 150.444 122.368 150.483 122.29 150.522L120.602 148.56L121.113 147.972ZM132.844 223.225L134.099 232.524L128.371 227.894L132.844 223.225ZM133.001 223.029L142.77 212.749L138.611 236.134L134.335 232.681L133.001 223.029ZM143.045 212.2L145.478 198.546L149.009 205.922L143.045 212.2ZM145.556 198.193L149.283 177.359L170.784 180.223C170.706 180.694 170.784 181.165 170.981 181.596C171.098 181.871 171.255 182.106 171.451 182.342L149.205 205.765L145.556 198.193ZM172.472 178.144L156.974 139.026C157.091 138.987 157.17 138.908 157.248 138.869L180.515 167.04L174.512 178.261C173.884 177.948 173.178 177.869 172.472 178.144ZM187.656 154.171L200.211 160.802C200.015 161.233 199.976 161.704 200.172 162.175C200.446 162.763 200.996 163.156 201.623 163.195L201.153 190.307C200.956 190.307 200.76 190.346 200.564 190.424C200.446 190.464 200.329 190.542 200.211 190.621L180.75 167.04L187.656 154.171ZM201.82 163.156C202.016 163.156 202.212 163.117 202.408 163.038C202.447 163.038 202.447 162.999 202.487 162.999L207.901 173.082L201.702 190.346C201.584 190.307 201.466 190.307 201.349 190.267L201.82 163.156ZM208.019 173.318L212.138 180.969L202.369 190.738C202.212 190.621 202.055 190.503 201.898 190.424L208.019 173.318ZM208.097 173.082L213.708 157.427L219.907 173.161L212.217 180.812L208.097 173.082ZM220.025 173.357L223.007 180.89L214.61 185.128L212.374 181.008L220.025 173.357ZM220.182 173.2L239.446 153.936L241.761 171.395L223.164 180.772L220.182 173.2ZM220.103 173.004L213.826 157.153L221.28 136.397L234.816 118.938L239.407 153.7L220.103 173.004ZM234.973 118.467L233.247 105.441C233.365 105.401 233.483 105.401 233.6 105.323C233.914 105.205 234.15 104.97 234.306 104.734L241.918 109.482L234.973 118.467ZM234.777 118.663L221.477 135.848L232.423 105.362C232.619 105.401 232.815 105.441 233.051 105.441L234.777 118.663ZM221.123 136.319L210.844 149.58L203.428 130.865C205.351 130.041 206.253 127.805 205.468 125.882C205.351 125.647 205.233 125.411 205.076 125.176L231.638 104.852C231.795 105.048 232.031 105.205 232.266 105.323L221.123 136.319ZM202.84 123.646C202.094 123.489 201.27 123.528 200.525 123.842L197.033 115.995L206.057 111.208L202.84 123.646ZM196.954 115.799L188.911 97.6328L210.922 92.5715L206.135 110.973L196.954 115.799ZM196.758 115.917L157.68 136.594C157.523 136.319 157.288 136.123 157.013 136.005L171.412 103.91C172.04 104.146 172.746 104.185 173.413 103.91C174.63 103.4 175.257 102.106 174.943 100.85L188.676 97.6721L196.758 115.917ZM174.904 100.654V100.615L187.813 95.6711L188.597 97.4759L174.904 100.654ZM174.826 100.419C174.355 99.2807 173.178 98.6922 172.04 98.8491L170.628 91.2767L180.75 79.7415L187.734 95.5141L174.826 100.419ZM171.844 98.8884C171.687 98.9276 171.53 98.9668 171.412 99.0453C171.373 99.0453 171.373 99.0846 171.334 99.0846L168.587 93.6308L170.431 91.5121L171.844 98.8884ZM171.177 99.163C171.02 99.2415 170.863 99.3592 170.745 99.4769L167.018 95.4749L168.47 93.7878L171.177 99.163ZM170.588 99.5946C170.392 99.7908 170.235 100.026 170.117 100.262L164.703 98.1037L166.9 95.5926L170.588 99.5946ZM164.507 98.0252L153.717 93.7485L152.893 80.4478L166.743 95.4749L164.507 98.0252ZM153.521 93.67L142.613 89.3149L147.243 74.2486L152.736 80.1731L153.521 93.67ZM142.417 89.2757L98.6307 71.8552C98.7091 71.6198 98.7484 71.3452 98.7092 71.0705L136.767 62.9488L147.086 74.1309L142.417 89.2757ZM121.662 147.03L121.152 147.619L98.3953 105.441L97.1397 72.9538C97.2182 72.9538 97.3359 72.9146 97.4144 72.9146L121.662 147.03ZM95.4919 100.144L89.9989 89.9427L96.512 72.9146C96.6297 72.9538 96.7474 72.9538 96.8258 72.9931L95.4919 100.144ZM89.8812 89.7073L87.8017 85.8622L96.1981 72.7576C96.2373 72.7969 96.2766 72.7969 96.3158 72.8361L89.8812 89.7073ZM78.7384 100.065L83.7213 105.872L64.339 156.447L49.3903 150.483C49.5865 149.894 49.5865 149.227 49.3511 148.6C49.1549 148.129 48.841 147.736 48.4094 147.462L78.7384 100.065ZM49.3119 150.64L64.2605 156.604L61.0432 165L48.7625 151.464C48.998 151.228 49.1942 150.914 49.3119 150.64ZM64.4174 156.643L92.1568 167.707L91.7645 175.358L77.0512 182.577L61.1609 165.118L64.4174 156.643ZM76.8943 182.695L49.2726 196.231L61.0825 165.353L76.8943 182.695ZM77.012 182.852L89.5673 196.663C89.1357 197.094 88.9788 197.722 89.1357 198.311L42.4064 214.083L49.1549 196.467L77.012 182.852ZM90.1559 196.27C89.9989 196.349 89.8812 196.427 89.7635 196.506L77.2474 182.734L91.843 175.593L90.8229 196.153C90.5482 196.153 90.352 196.192 90.1559 196.27ZM92.0784 198.938L110.284 213.612L109.263 218.438L91.9607 199.056C92.0391 199.017 92.0784 198.978 92.0784 198.938ZM127.233 229.11L135.237 246.649C135.041 246.727 134.884 246.845 134.727 246.962L122.878 233.701L127.233 229.11ZM127.351 228.953L128.214 228.051L134.099 232.799L135.943 246.374C135.747 246.413 135.551 246.452 135.394 246.531L127.351 228.953ZM134.335 232.995L138.533 236.408L136.767 246.413C136.571 246.374 136.336 246.374 136.14 246.413L134.335 232.995ZM138.729 236.526L141.75 238.958L137.591 246.649C137.395 246.57 137.199 246.492 136.964 246.452L138.729 236.526ZM138.768 236.29L143.006 212.514L149.127 206.079L153.992 216.241L141.829 238.723L138.768 236.29ZM149.244 205.962L171.53 182.499C171.687 182.656 171.844 182.773 172.001 182.852L154.07 216.045L149.244 205.962ZM174.669 178.34L180.672 167.197L200.093 190.738C199.936 190.895 199.819 191.052 199.701 191.248L175.807 181.479C176.042 180.89 176.042 180.184 175.767 179.556C175.532 179.046 175.14 178.615 174.669 178.34ZM212.217 181.126L214.414 185.206L202.683 191.131C202.644 191.013 202.565 190.934 202.487 190.856L212.217 181.126ZM214.689 185.285L223.085 181.047L237.445 217.34L233.757 220.636L214.689 185.285ZM223.242 180.969L241.8 171.591L246.744 209.061L237.563 217.183L223.242 180.969ZM241.957 171.474L263.772 160.449L259.652 197.604L246.901 208.904L241.957 171.474ZM263.968 160.37L274.64 154.956L280.016 177.555C279.937 177.555 279.898 177.594 279.859 177.594C278.995 177.948 278.603 178.968 278.956 179.831C279.035 179.988 279.113 180.105 279.192 180.223L259.849 197.408L263.968 160.37ZM287.98 148.011L276.641 153.739L272.757 129.335L284.528 137.928L287.98 148.011ZM284.802 138.124L294.101 144.911L288.137 147.933L284.802 138.124ZM276.484 154.014L280.212 177.437L274.837 154.838L276.484 154.014ZM280.408 177.516L276.681 153.936L288.059 148.207L295.278 169.394L281.938 178.222C281.546 177.712 280.996 177.477 280.408 177.516ZM288.216 148.129L294.297 145.068L311.365 157.506L311.443 158.683L295.396 169.277L288.216 148.129ZM311.561 157.624L312.267 158.134L311.639 158.526L311.561 157.624ZM311.482 158.879L313.444 182.93L303.988 194.505L295.474 169.433L311.482 158.879ZM311.639 158.761L312.385 158.251L323.724 166.53C323.214 167.236 323.096 168.178 323.449 169.041C323.606 169.394 323.802 169.669 324.038 169.904L313.562 182.734L311.639 158.761ZM312.581 158.134L318.584 154.171L324.587 165.706C324.312 165.863 324.038 166.098 323.841 166.334L312.581 158.134ZM318.662 153.896L311.639 140.399C312.071 140.164 312.463 139.85 312.738 139.497L325.332 149.502L318.662 153.896ZM318.505 154.014L312.424 158.016L311.561 157.388L310.227 140.87C310.58 140.831 310.972 140.752 311.325 140.596C311.365 140.556 311.443 140.556 311.482 140.517L318.505 154.014ZM311.325 157.231L294.454 144.911L306.46 138.869C307.166 140.203 308.579 140.949 310.031 140.87L311.325 157.231ZM294.297 144.794L284.685 137.771L281.86 129.492L306.068 136.162C305.911 136.907 305.95 137.731 306.264 138.516C306.303 138.555 306.303 138.634 306.342 138.673L294.297 144.794ZM284.449 137.614L272.718 129.06L272.365 126.902L281.663 129.453L284.449 137.614ZM272.482 128.903L269.893 127.02C270.05 126.824 270.128 126.589 270.207 126.353L272.129 126.902L272.482 128.903ZM272.365 126.706L272.169 125.451L280.29 125.294L281.624 129.257L272.365 126.706ZM272.129 126.667L270.285 126.157C270.324 125.922 270.364 125.725 270.364 125.49L271.972 125.451L272.129 126.667ZM269.814 127.177L272.561 129.178L276.484 153.857L274.797 154.72L268.441 128.119C268.559 128.079 268.637 128.04 268.755 128.001C269.187 127.805 269.54 127.53 269.814 127.177ZM274.601 154.759L263.968 160.135L267.539 128.158C267.774 128.158 268.01 128.158 268.245 128.119L274.601 154.759ZM263.772 160.252L241.918 171.317L239.603 153.779L265.93 127.491C266.322 127.844 266.793 128.079 267.343 128.158L263.772 160.252ZM239.603 153.543L235.013 118.741L242.075 109.6L265.499 124.274C265.106 124.941 265.028 125.804 265.342 126.589C265.459 126.863 265.655 127.138 265.852 127.373L239.603 153.543ZM266.715 123.136C266.244 123.332 265.852 123.685 265.577 124.077L242.193 109.443L255.69 92.0222L266.793 123.136C266.754 123.136 266.715 123.136 266.715 123.136ZM241.997 109.325L234.385 104.538C234.62 104.107 234.66 103.557 234.463 103.087C234.424 102.969 234.385 102.89 234.306 102.812L254.238 88.0202L255.572 91.7868L241.997 109.325ZM234.228 102.655C233.953 102.341 233.561 102.106 233.169 102.066L233.6 96.6127L253.571 86.0192L254.199 87.7848L234.228 102.655ZM232.972 102.066C232.737 102.066 232.502 102.106 232.266 102.184C232.031 102.263 231.874 102.42 231.717 102.576L228.186 99.5161L233.404 96.7697L232.972 102.066ZM228.029 99.3592L218.298 90.8451L234.149 87.1962L233.404 96.495L228.029 99.3592ZM227.833 99.4377L206.332 110.816L211.079 92.493L218.024 90.8844L227.833 99.4377ZM211.158 92.2968L212.335 87.7455C212.649 87.824 213.002 87.7848 213.316 87.6278C213.512 87.5494 213.708 87.3924 213.865 87.2355L217.867 90.7274L211.158 92.2968ZM210.961 92.3361L188.833 97.4367L188.009 95.5926L211.158 86.7646C211.354 87.2355 211.746 87.5493 212.178 87.6671L210.961 92.3361ZM187.93 95.4356L180.907 79.5846L185.419 74.4055L211.118 85.5091C211.001 85.8622 210.961 86.2153 211.079 86.6077L187.93 95.4356ZM180.789 79.3884L176.984 70.7959L185.223 74.3663L180.789 79.3884ZM180.672 79.5453L170.588 91.0805L165.88 66.0092L176.709 70.6782L180.672 79.5453ZM168.391 93.5916L166.9 95.3179L152.893 80.1339L151.755 61.3402C151.912 61.3402 152.069 61.3009 152.226 61.2225L168.391 93.5916ZM152.697 79.9377L147.283 74.0916L151.167 61.3402C151.284 61.3794 151.402 61.3794 151.52 61.3794L152.697 79.9377ZM147.126 73.8955L136.964 62.8703L149.911 60.1239C149.911 60.2023 149.95 60.2808 149.99 60.32C150.186 60.7909 150.578 61.1047 151.01 61.2617L147.126 73.8955ZM136.807 62.7134L133.079 58.6722L149.833 59.6138C149.833 59.7315 149.833 59.81 149.872 59.9277L136.807 62.7134ZM132.883 58.476L126.919 52.0414L131.941 48.7849L149.99 58.9076C149.911 59.0645 149.872 59.2214 149.833 59.4176L132.883 58.476ZM126.802 52.1591L132.648 58.476L118.288 57.652L126.802 52.1591ZM132.805 58.6722L136.571 62.7526L98.6307 70.8351C98.6307 70.7567 98.5915 70.6782 98.5522 70.6389C98.513 70.5605 98.4737 70.5212 98.4345 70.4428L117.974 57.809L132.805 58.6722ZM98.3953 70.2858C98.2776 70.1289 98.1206 69.972 97.9245 69.8542L105.104 57.1028L117.699 57.809L98.3953 70.2858ZM97.7675 69.7758C97.3752 69.5796 96.9435 69.5403 96.4727 69.6973L96.2766 69.7758C96.0019 69.8935 95.7665 70.0896 95.6096 70.325L72.5392 55.9257C72.6569 55.7295 72.7353 55.4941 72.7353 55.2587L91.2152 56.3181H91.4114L104.83 57.0635L97.7675 69.7758ZM72.4999 56.0826L95.5311 70.482C95.4134 70.6782 95.3349 70.9136 95.3349 71.149L79.6408 70.7567L71.9899 56.5535C72.1861 56.4358 72.3822 56.2788 72.4999 56.0826ZM79.5623 70.9528L82.5049 76.3673L64.2997 82.9196L55.7857 72.9931C56.5312 72.326 56.9627 71.3844 57.002 70.3643L79.5623 70.9528ZM55.5895 73.1107L64.0643 82.9981L51.8622 87.3924L52.9215 74.0132C53.4708 74.0524 54.0593 73.9739 54.6086 73.7385C54.9617 73.5816 55.3148 73.3462 55.5895 73.1107ZM51.7052 87.4709L40.2877 91.5906L51.1952 73.5031C51.666 73.7778 52.2153 73.9739 52.7646 74.0524L51.7052 87.4709ZM39.9738 91.6691L19.9246 98.8884L14.9025 89.4326L49.7434 71.9337C50.0573 72.5222 50.4889 72.993 50.999 73.3462L39.9738 91.6691ZM-2.55722 98.2214L14.7455 89.5504L19.7676 98.9668L-5.93149 108.226L-2.55722 98.2214ZM-6.1669 108.266L-63.9605 129.06L-2.79266 98.3391L-6.1669 108.266ZM14.824 89.2757L6.85925 74.3271C7.36932 74.0132 7.6832 73.4639 7.6832 72.8753L49.3511 70.4428C49.3903 70.8744 49.4688 71.2667 49.6258 71.6591C49.6258 71.6983 49.665 71.6983 49.665 71.7375L14.824 89.2757ZM6.66309 74.4055L14.6278 89.3542L-2.47876 97.9467L5.48602 74.484C5.83914 74.6017 6.23145 74.5625 6.58456 74.4055C6.66306 74.4448 6.66309 74.4055 6.66309 74.4055ZM-64.7452 130.394C-64.706 130.12 -64.7452 129.845 -64.8629 129.61L-6.24536 108.54L-16.4858 138.673L-64.7452 130.394ZM-6.00995 108.423L19.8854 99.1238L27.2616 112.895L9.13486 143.028L-16.2504 138.673L-6.00995 108.423ZM-51.7191 242.764L-16.3681 138.83L8.97794 143.185L-51.0914 243.039C-51.2875 242.96 -51.4837 242.843 -51.7191 242.764ZM-50.9344 243.157L9.1741 143.224L44.2897 149.227C44.2112 149.659 44.2897 150.13 44.4859 150.601C44.6036 150.875 44.7606 151.111 44.9568 151.346L-50.2674 243.667C-50.4636 243.471 -50.699 243.274 -50.9344 243.157ZM-50.1497 243.784L45.0744 151.464C45.8199 152.17 46.9185 152.405 47.8994 151.974C48.1348 151.856 48.3702 151.738 48.5664 151.542L60.9255 165.157L48.998 196.31L-49.5612 244.608C-49.7181 244.334 -49.9143 244.059 -50.1497 243.784ZM-49.4434 244.922C-49.4434 244.883 -49.4827 244.844 -49.4827 244.805L48.9195 196.584L42.2103 214.122L-49.365 245.04C-49.365 245.001 -49.4042 244.961 -49.4434 244.922ZM-49.1296 246.021C-49.1688 245.785 -49.2081 245.511 -49.2866 245.275L42.1318 214.397L32.5976 239.272L-49.1296 246.021ZM42.3672 214.319L89.2534 198.507C89.2534 198.507 89.2534 198.507 89.2534 198.546C89.3712 198.86 89.6066 199.095 89.842 199.292L67.4386 236.447L32.833 239.312L42.3672 214.319ZM-22.8811 384.6L32.7153 239.429L67.2816 236.565L-22.2534 384.875C-22.4496 384.796 -22.6457 384.678 -22.8811 384.6ZM-22.0964 384.992L67.5171 236.565L86.1539 235.035C86.1931 235.467 86.2715 235.898 86.4285 236.33C86.7031 236.957 87.0955 237.468 87.6056 237.86L-21.9395 385.149C-21.9787 385.071 -22.018 385.032 -22.0964 384.992ZM-21.5864 385.385C-21.6648 385.306 -21.7041 385.267 -21.7825 385.228L87.7625 237.938C88.351 238.331 89.018 238.566 89.7243 238.645L88.6257 269.444L-21.5864 385.385ZM88.8218 269.209L89.9204 238.605C90.4305 238.605 90.9406 238.527 91.4506 238.291C93.3732 237.468 94.3148 235.231 93.4908 233.309C92.9023 231.896 91.5683 231.033 90.1559 230.994L90.8621 199.527C91.0583 199.527 91.2545 199.488 91.4506 199.409C91.6076 199.331 91.7253 199.252 91.843 199.174L109.224 218.674L101.416 255.947L88.8218 269.209ZM86.8994 323.668L88.8218 269.523L101.377 256.3L87.2917 323.707C87.174 323.707 87.0171 323.668 86.8994 323.668ZM88.508 324.099C88.1941 323.942 87.841 323.785 87.4879 323.707L101.652 255.987L122.76 233.779L134.609 247.041C133.864 247.786 133.589 248.924 134.021 249.944C134.217 250.415 134.57 250.808 134.963 251.082L88.508 324.099ZM138.808 249.984C139.082 249.356 139.082 248.61 138.808 247.943C138.572 247.394 138.18 246.962 137.709 246.688L141.868 238.998L177.062 267.365C176.984 267.483 176.905 267.6 176.827 267.718L138.808 249.984ZM177.219 267.286L141.986 238.88L154.07 216.477L178.004 266.619C177.69 266.776 177.415 267.012 177.219 267.286ZM178.2 266.541L154.188 216.28L172.197 182.93C172.589 183.127 173.021 183.205 173.452 183.205L178.945 266.345C178.671 266.384 178.435 266.462 178.2 266.541ZM179.102 266.345L173.609 183.205C173.845 183.166 174.119 183.127 174.355 183.009C174.669 182.852 174.983 182.656 175.218 182.42L197.7 203.921L179.809 266.384C179.573 266.384 179.338 266.345 179.102 266.345ZM181.182 267.247C180.868 266.894 180.476 266.619 180.005 266.462L197.857 204.078L224.066 229.189L181.182 267.247ZM224.223 229.032L197.935 203.882L200.878 193.602C201.231 193.681 201.584 193.642 201.898 193.524C202.016 193.485 202.133 193.406 202.212 193.328L228.029 225.658L224.223 229.032ZM251.335 255.006L224.341 229.189L228.146 225.815L251.413 254.927C251.374 254.927 251.374 254.966 251.335 255.006ZM251.57 254.77L228.303 225.658L233.679 220.91L251.845 254.613C251.727 254.692 251.648 254.731 251.57 254.77ZM251.962 254.535L233.796 220.793L237.484 217.536L252.08 254.496C252.041 254.496 252.002 254.535 251.962 254.535ZM252.276 254.417L237.641 217.379L246.744 209.297L252.708 254.299C252.551 254.339 252.394 254.378 252.276 254.417ZM252.865 254.26L246.901 209.1L259.613 197.879L253.336 254.26C253.179 254.26 253.022 254.26 252.865 254.26ZM254.709 254.77C254.356 254.535 253.963 254.339 253.532 254.299L259.809 197.683L279.309 180.38C279.78 180.851 280.526 181.008 281.153 180.733C281.232 180.694 281.31 180.655 281.389 180.616L296.573 203.529L254.709 254.77ZM296.73 203.372L281.585 180.498C282.174 180.027 282.409 179.242 282.095 178.536C282.056 178.458 282.017 178.418 281.977 178.34L295.278 169.551L303.831 194.662L296.73 203.372ZM317.132 233.819C317.054 233.858 317.015 233.897 316.936 233.936L296.848 203.568L303.949 194.897L317.132 233.819ZM317.328 233.74L304.067 194.701L313.483 183.205L317.564 233.701C317.485 233.701 317.407 233.74 317.328 233.74ZM317.721 233.701L313.601 183.009L324.195 170.022C324.548 170.336 324.979 170.532 325.45 170.571L317.878 233.662C317.838 233.701 317.799 233.701 317.721 233.701ZM318.349 233.779C318.27 233.74 318.192 233.74 318.074 233.701L325.646 170.611C326.078 170.65 326.509 170.571 326.902 170.414C327.451 170.179 327.922 169.747 328.197 169.277L342.164 176.81L318.349 233.779ZM395.446 205.373L342.439 176.77L346.284 167.55L347.971 167.511L395.485 205.255C395.485 205.295 395.446 205.334 395.446 205.373ZM396.152 204.706C395.917 204.824 395.76 204.941 395.603 205.138L348.285 167.511L381.282 166.765L396.152 204.706ZM366.961 124.705L476.231 164.019C476.192 164.176 476.153 164.294 476.153 164.451L381.4 166.569L365.549 126.157C366.216 125.882 366.726 125.333 366.961 124.705ZM365.392 126.235L381.204 166.569L348.05 167.315L346.794 166.334L363.587 126.196C364.136 126.392 364.764 126.432 365.392 126.235ZM363.43 126.118L346.637 166.177L335.377 157.231L362.881 125.765C363.038 125.922 363.234 126.039 363.43 126.118ZM362.724 125.647L335.22 157.114L325.646 149.502L362.41 125.294C362.488 125.411 362.606 125.529 362.724 125.647ZM361.978 124.431C362.017 124.548 362.057 124.666 362.096 124.784C362.135 124.901 362.214 125.019 362.292 125.137L325.489 149.423L312.856 139.379C313.523 138.516 313.758 137.378 313.523 136.28L361.978 124.431ZM361.9 123.921C361.9 124.038 361.9 124.156 361.939 124.234L313.483 136.044C313.444 135.887 313.405 135.73 313.326 135.573C312.502 133.651 310.266 132.709 308.344 133.533C308.03 133.651 307.794 133.808 307.52 134.004L300.379 124.98L361.9 123.921ZM300.183 124.98L307.402 134.122C306.813 134.632 306.382 135.299 306.186 136.005L281.86 129.296L280.486 125.294L300.183 124.98ZM265.812 81.3894L300.026 124.784L280.408 125.137L265.577 81.5464C265.655 81.5071 265.734 81.4679 265.812 81.3894ZM265.381 81.5856L280.173 125.098L272.09 125.254L265.185 81.6641C265.263 81.6641 265.342 81.6248 265.381 81.5856ZM264.988 81.6641L271.894 125.254L270.324 125.294C270.285 125.058 270.246 124.784 270.128 124.548C269.618 123.293 268.206 122.665 266.911 123.057L255.768 91.826L263.851 81.3894C264.204 81.6248 264.596 81.7033 264.988 81.6641ZM263.733 81.2717L255.729 91.6299L254.395 87.9025L263.537 81.0755C263.615 81.154 263.694 81.2325 263.733 81.2717ZM263.458 80.9578L254.356 87.7455L253.728 86.0192L263.419 80.8794C263.419 80.8794 263.419 80.9186 263.458 80.9578ZM263.262 80.487C263.262 80.5262 263.301 80.6047 263.301 80.644L253.649 85.7445L252.629 82.9196L263.262 80.487ZM252.433 82.9981L253.453 85.9015L233.561 96.4165L234.306 87.157L252.433 82.9981ZM238.308 43.3311L252.394 82.8019L234.346 86.9608L237.759 43.4096C237.955 43.4489 238.112 43.4096 238.308 43.3311ZM237.563 43.4096L234.11 87.0001L218.063 90.6882L213.943 87.1178C214.296 86.6469 214.414 86.0192 214.179 85.4306C214.022 85.1168 213.826 84.8421 213.512 84.6459L237.014 43.2134C237.21 43.3311 237.367 43.3704 237.563 43.4096ZM236.307 42.468C236.425 42.7426 236.621 42.978 236.857 43.135L213.394 84.5675C212.962 84.3713 212.452 84.3321 211.982 84.5282C211.864 84.5675 211.785 84.6067 211.707 84.6852L196.327 64.4005C196.837 63.9297 196.994 63.1842 196.719 62.5172C196.719 62.478 196.68 62.478 196.68 62.4388L236.307 42.468ZM195.856 64.7536C195.974 64.7144 196.091 64.6359 196.209 64.5575L211.589 84.8029C211.432 84.9598 211.275 85.1168 211.158 85.3522L185.537 74.2878L194.09 64.479C194.561 64.8713 195.228 64.989 195.856 64.7536ZM193.502 63.0665C193.502 63.3019 193.502 63.5766 193.619 63.8512C193.698 64.0474 193.816 64.2043 193.933 64.3613L185.341 74.2094L176.866 70.5605L172.864 61.4971L193.502 63.0665ZM176.591 70.4035L165.841 65.7737L164.899 60.8301L172.589 61.4186L176.591 70.4035ZM159.877 32.6199L172.55 61.2225L164.899 60.6339L159.681 32.6591C159.72 32.6591 159.799 32.6591 159.877 32.6199ZM159.485 32.6984L164.703 60.5947L153.246 59.6923C153.246 59.4569 153.207 59.2215 153.129 58.9861C152.775 58.1229 151.755 57.7305 150.892 58.0836C150.578 58.2406 150.304 58.4367 150.107 58.7506L132.138 48.6672L157.876 31.9922C158.268 32.5414 158.857 32.7769 159.485 32.6984ZM157.641 31.4428C157.68 31.5213 157.68 31.5998 157.719 31.7175C157.758 31.796 157.798 31.8352 157.798 31.9137L131.941 48.6279L117.424 40.467C117.66 39.9962 117.699 39.4468 117.621 38.8976L157.641 31.4428ZM116.051 41.7617C116.326 41.644 116.561 41.4871 116.797 41.2909L126.684 52.0022L117.974 57.6128L105.222 56.9066L113.776 41.644C114.443 42.0364 115.306 42.1148 116.051 41.7617ZM88.4688 48.9418L88.6649 48.8633L112.559 40.2316C112.559 40.2708 112.598 40.3492 112.598 40.3885C112.795 40.8986 113.148 41.2909 113.579 41.5656L104.948 56.9066L91.3329 56.1219H91.1367L72.7746 55.0625C72.7746 54.9056 72.7354 54.7486 72.6961 54.6309L88.4688 48.9418ZM71.7545 56.6711C71.7937 56.6711 71.7937 56.6319 71.8329 56.6319L79.4446 70.7567L56.9627 70.1681C56.9627 69.6973 56.8842 69.1872 56.6488 68.7164C56.4919 68.3633 56.2957 68.0494 56.0603 67.7355L69.8319 56.2003C70.3028 56.7496 71.0874 56.985 71.7545 56.6711ZM69.4396 55.1802C69.4396 55.3764 69.4788 55.5726 69.5573 55.7687C69.5965 55.8864 69.675 56.0042 69.7142 56.0826L55.9426 67.6178C55.0402 66.6369 53.7062 66.2054 52.3722 66.4408L52.1761 66.48C51.9799 66.5192 51.8229 66.5977 51.6267 66.6369C51.509 66.6762 51.3913 66.7546 51.3128 66.7939L51.1559 66.8723C49.9789 67.5786 49.2726 68.8734 49.3119 70.2073L7.64395 72.6399C7.64395 72.483 7.60471 72.326 7.52625 72.1691C7.36929 71.7768 7.09464 71.5021 6.74152 71.3452L6.58456 71.2667C6.27069 71.149 5.91757 71.1097 5.56445 71.1882L0.228485 53.5716L69.4396 55.1802ZM-8.01096 26.1853C-7.54013 25.9891 -7.22623 25.636 -7.06927 25.2044L39.8169 43.2134L69.518 54.5917C69.4788 54.7094 69.4396 54.8271 69.4396 54.984L0.18924 53.4146L-8.05017 26.1853H-8.01096ZM-10.3258 25.0082C-10.2866 25.0867 -10.2866 25.2044 -10.2474 25.2829C-9.9335 26.0676 -9.07034 26.46 -8.28561 26.2638L-0.0462036 53.4146L-111.514 50.9036L-112.416 50.7466C-112.416 50.7074 -112.416 50.6682 -112.416 50.5897L-10.3258 25.0082Z" fill="#2BC8EB"/>
</svg>
