<svg width="282" height="60" viewBox="0 0 282 60" fill="none" xmlns="http://www.w3.org/2000/svg">
<path d="M141.134 19.8604C139.107 19.8604 137.119 20.2588 135.172 21.0158C133.264 21.7728 131.554 22.8883 130.084 24.4023C128.613 25.8765 127.381 27.7491 126.466 30.02C125.592 32.2114 125.115 34.8409 125.115 37.7892C125.115 40.2594 125.473 42.5304 126.148 44.6819C126.864 46.7935 127.937 48.666 129.408 50.2199C130.879 51.7339 132.747 52.969 134.933 53.8455C137.199 54.722 139.822 55.2001 142.804 55.2001C143.996 55.2001 145.189 55.1204 146.381 55.0009C147.574 54.8814 148.687 54.7219 149.681 54.4829C150.754 54.3235 151.708 54.0846 152.543 53.8455C153.377 53.6063 154.053 53.3276 154.57 53.0885L153.298 45.3592C152.225 45.8373 150.873 46.2357 149.164 46.5544C147.494 46.8333 145.825 46.9927 144.076 46.9927C141.373 46.9927 139.186 46.4349 137.596 45.2795C135.967 44.1241 135.092 42.5702 134.854 40.618H156.319C156.359 40.1 156.398 39.5423 156.438 38.9048C156.478 38.2275 156.518 37.59 156.518 37.0721C156.518 31.4145 155.126 27.1514 152.384 24.243C149.641 21.3345 145.865 19.8604 141.134 19.8604ZM134.814 34.1238C134.933 33.3269 135.132 32.5301 135.37 31.7731C135.649 30.9763 136.086 30.2591 136.563 29.6615C137.08 29.0638 137.716 28.5857 138.471 28.267C139.226 27.8686 140.14 27.7092 141.214 27.7092C142.327 27.7092 143.241 27.9084 143.957 28.267C144.712 28.6654 145.348 29.1435 145.785 29.7412C146.302 30.3388 146.66 31.0161 146.858 31.7731C147.097 32.5301 147.256 33.3269 147.296 34.1238H134.814Z" fill="white"/>
<path d="M125.711 10.0986H89.2207V18.585H102.497V54.2833H112.435V18.585H125.711V10.0986Z" fill="white"/>
<path d="M184.303 46.7138C182.991 46.913 181.759 47.0325 180.606 47.0325C177.386 47.0325 175.121 46.1959 173.809 44.5623C172.537 42.889 171.901 40.5781 171.901 37.5502C171.901 34.7214 172.577 32.4106 173.928 30.6575C175.319 28.9045 177.426 28.028 180.209 28.028C181.521 28.028 182.713 28.1475 183.786 28.4264C184.86 28.6654 185.814 28.9842 186.728 29.3029L188.715 21.7329C187.324 21.1353 185.893 20.697 184.383 20.3783C182.912 20.0197 181.282 19.8604 179.493 19.8604C176.79 19.8604 174.365 20.3385 172.259 21.2548C170.152 22.1712 168.323 23.4461 166.853 25.0797C165.382 26.6335 164.229 28.5061 163.434 30.6974C162.679 32.809 162.281 35.08 162.281 37.5103C162.281 40.0204 162.599 42.371 163.235 44.5225C163.911 46.6341 164.945 48.5067 166.336 50.0605C167.767 51.6144 169.595 52.8892 171.821 53.8056C174.008 54.6821 176.671 55.1603 179.692 55.1603C181.68 55.1603 183.508 55.0009 185.178 54.6423C186.847 54.2837 188.199 53.8853 189.312 53.4471L187.96 45.6779C186.847 46.156 185.615 46.4748 184.303 46.7138Z" fill="white"/>
<path d="M221.509 24.2426C220.436 22.888 219.005 21.8521 217.177 21.135C215.388 20.378 213.162 19.9796 210.419 19.9796C209.505 19.9796 208.511 20.0991 207.478 20.2983C206.484 20.4577 205.689 20.6569 205.053 20.8561V4.7998L195.592 6.3138V54.2834H205.053V28.7846C205.649 28.6253 206.285 28.4659 207.04 28.3464C207.796 28.187 208.591 28.1073 209.465 28.1073C211.572 28.1073 213.043 28.7448 213.798 30.0197C214.593 31.2947 214.99 33.4461 214.99 36.514V54.2834H224.451V35.3585C224.451 33.0477 224.212 30.9759 223.735 29.1034C223.378 27.2308 222.622 25.6371 221.509 24.2426Z" fill="white"/>
<path d="M281.372 29.1033C280.895 27.2307 280.14 25.637 279.027 24.2426C277.914 22.8879 276.404 21.8521 274.496 21.1349C272.627 20.3779 270.282 19.9795 267.42 19.9795C264.637 19.9795 261.934 20.1787 259.39 20.617C256.846 21.0154 254.779 21.4138 253.15 21.8919V54.2834H262.61V28.3861C263.206 28.3064 263.882 28.2268 264.637 28.1869C265.393 28.1072 266.108 28.0674 266.784 28.0674C268.97 28.0674 270.481 28.7049 271.316 29.9798C272.111 31.2547 272.508 33.4062 272.508 36.474V54.2834H281.969V35.3585C282.088 33.0476 281.849 30.9759 281.372 29.1033Z" fill="#2BC8EB"/>
<path d="M243.65 10.0986H233.713V54.2833H243.65V10.0986Z" fill="#2BC8EB"/>
<mask id="mask0_1_2624" style="mask-type:luminance" maskUnits="userSpaceOnUse" x="0" y="0" width="82" height="60">
<path d="M81.2542 0H0V60H81.2542V0Z" fill="white"/>
</mask>
<g mask="url(#mask0_1_2624)">
<path d="M29.1952 37.4794C33.2579 37.4794 36.6036 34.1994 36.6833 30.1194C36.6833 29.9194 36.6833 29.6794 36.6833 29.4794C36.6036 28.0394 37.0816 26.5994 38.0774 25.5594L46.6807 16.5594C47.7562 15.4394 49.2697 14.8394 50.8231 14.9594C51.0223 14.9994 51.2613 14.9994 51.4604 14.9994C51.6596 14.9994 51.8985 14.9994 52.0977 14.9594C53.6511 14.8394 55.1646 15.4394 56.2401 16.5594L64.8435 25.5594C65.8392 26.5994 66.357 28.0394 66.2375 29.5194C66.2375 29.6794 66.2375 29.8394 66.2375 29.9994C66.2375 30.1194 66.2375 30.2394 66.2375 30.3594C66.3172 31.8394 65.7596 33.2394 64.724 34.2794L55.6426 43.4394C54.607 44.4794 53.213 45.0394 51.7791 44.9994C51.6197 44.9994 51.4604 44.9994 51.3011 44.9994C47.2384 45.0794 43.9324 48.4394 43.9324 52.5194C43.9324 56.6794 47.2782 59.9994 51.4206 59.9994C55.5231 59.9994 58.8689 56.6794 58.9087 52.5994C58.9087 52.4394 58.9087 52.2794 58.9087 52.1194C58.8291 50.6794 59.3867 49.2394 60.4223 48.1994L69.5036 39.0394C70.5392 37.9994 71.9333 37.4394 73.3672 37.5194C73.5265 37.5194 73.6858 37.5194 73.8452 37.5194C77.9477 37.4394 81.2536 34.0394 81.2138 29.9194C81.1341 25.8394 77.8282 22.5594 73.7257 22.5594C73.6858 22.5594 73.6062 22.5594 73.5663 22.5594C72.1324 22.5994 70.7384 22.0394 69.7426 20.9994L60.3824 11.1594C59.4663 10.1994 58.9884 8.95941 58.9884 7.63941C58.9884 7.59941 58.9884 7.59941 58.9884 7.55941C58.9884 3.43941 55.6426 0.0794119 51.5401 0.0394119C47.3977 -0.000588086 44.0121 3.39941 44.0121 7.55941C44.0121 7.55941 44.0121 7.55941 44.0121 7.59941C44.0121 8.95941 43.4943 10.2394 42.5782 11.2394L33.2579 20.8794C32.2621 21.9194 30.8282 22.5194 29.3943 22.4794C29.3146 22.4794 29.235 22.4794 29.1553 22.4794C25.0528 22.5594 21.707 25.9194 21.707 29.9994C21.707 34.1594 25.0926 37.4794 29.1952 37.4794Z" fill="#2BC8EB"/>
<path d="M52.0579 22.52C47.9952 22.52 44.6494 25.8 44.5698 29.88C44.5698 30.08 44.5698 30.32 44.5698 30.52C44.6494 31.96 44.1715 33.4 43.1757 34.44L34.5723 43.44C33.4969 44.56 31.9833 45.16 30.43 45.04C30.2308 45 29.9918 45 29.7927 45C29.5537 45 29.3545 45 29.1554 45.04C27.602 45.16 26.0884 44.56 25.013 43.44L16.4096 34.44C15.4139 33.4 14.8961 31.96 15.0155 30.48C15.0155 30.32 15.0155 30.16 15.0155 30C15.0155 29.88 15.0155 29.76 15.0155 29.64C14.9359 28.16 15.4935 26.76 16.5291 25.72L25.6105 16.56C26.6461 15.52 28.0401 14.96 29.474 15C29.6333 15 29.7927 15 29.952 15C34.0147 14.92 37.3206 11.56 37.3206 7.48C37.3206 3.36 33.9749 0 29.8325 0C25.6503 0 22.3045 3.32 22.2647 7.4C22.2647 7.56 22.2647 7.72 22.2647 7.88C22.3444 9.32 21.7867 10.76 20.7511 11.8L11.7096 20.96C10.674 22 9.27996 22.56 7.84607 22.52C7.68674 22.52 7.52742 22.52 7.3681 22.52C3.22573 22.56 -0.0802042 26 -0.000543165 30.12C0.0791178 34.2 3.38505 37.48 7.48759 37.48C7.52742 37.48 7.60708 37.48 7.64691 37.48C9.08081 37.44 10.4749 38 11.4706 39.04L20.8308 48.88C21.7469 49.84 22.2249 51.08 22.2249 52.4C22.2249 52.44 22.2249 52.44 22.2249 52.48C22.2249 56.6 25.5706 59.96 29.6732 60C33.8155 60.04 37.2011 56.64 37.2011 52.48C37.2011 52.48 37.2011 52.48 37.2011 52.44C37.2011 51.08 37.7189 49.8 38.635 48.8L47.9554 39.04C48.9511 38 50.385 37.4 51.8189 37.44C51.8986 37.44 51.9783 37.44 52.0579 37.44C56.1605 37.4 59.4664 34.04 59.4664 29.92C59.5461 25.84 56.1605 22.52 52.0579 22.52Z" fill="#2F2BEB"/>
</g>
</svg>
