<svg width="282" height="60" viewBox="0 0 282 60" fill="none" xmlns="http://www.w3.org/2000/svg">
<path d="M141.134 19.8599C139.107 19.8599 137.119 20.2583 135.172 21.0153C133.264 21.7723 131.554 22.8878 130.084 24.4018C128.613 25.876 127.381 27.7486 126.466 30.0195C125.592 32.2109 125.115 34.8404 125.115 37.7887C125.115 40.2589 125.473 42.5299 126.148 44.6814C126.864 46.793 127.937 48.6656 129.408 50.2194C130.879 51.7334 132.747 52.9685 134.933 53.845C137.199 54.7215 139.822 55.1996 142.804 55.1996C143.996 55.1996 145.189 55.1199 146.381 55.0004C147.574 54.8809 148.687 54.7215 149.681 54.4825C150.754 54.3231 151.708 54.0841 152.543 53.845C153.377 53.6059 154.053 53.3271 154.57 53.088L153.298 45.3587C152.225 45.8368 150.873 46.2352 149.164 46.5539C147.494 46.8328 145.825 46.9922 144.076 46.9922C141.373 46.9922 139.186 46.4344 137.596 45.279C135.967 44.1236 135.092 42.5697 134.854 40.6175H156.319C156.359 40.0995 156.398 39.5418 156.438 38.9043C156.478 38.227 156.518 37.5895 156.518 37.0716C156.518 31.414 155.126 27.1509 152.384 24.2425C149.641 21.334 145.865 19.8599 141.134 19.8599ZM134.814 34.1233C134.933 33.3264 135.132 32.5296 135.37 31.7726C135.649 30.9758 136.086 30.2586 136.563 29.661C137.08 29.0633 137.716 28.5852 138.471 28.2665C139.226 27.8681 140.14 27.7087 141.214 27.7087C142.327 27.7087 143.241 27.9079 143.957 28.2665C144.712 28.6649 145.348 29.143 145.785 29.7407C146.302 30.3383 146.66 31.0156 146.858 31.7726C147.097 32.5296 147.256 33.3264 147.296 34.1233H134.814Z" fill="#222627"/>
<path d="M125.711 10.0986H89.2207V18.585H102.497V54.2833H112.435V18.585H125.711V10.0986Z" fill="#222627"/>
<path d="M184.303 46.7133C182.991 46.9125 181.759 47.032 180.606 47.032C177.386 47.032 175.121 46.1954 173.809 44.5618C172.537 42.8885 171.901 40.5776 171.901 37.5497C171.901 34.7209 172.577 32.4101 173.928 30.657C175.319 28.904 177.426 28.0275 180.209 28.0275C181.521 28.0275 182.713 28.147 183.786 28.4259C184.86 28.6649 185.814 28.9837 186.728 29.3024L188.715 21.7324C187.324 21.1348 185.893 20.6965 184.383 20.3778C182.912 20.0192 181.282 19.8599 179.493 19.8599C176.79 19.8599 174.365 20.338 172.259 21.2543C170.152 22.1707 168.323 23.4456 166.853 25.0792C165.382 26.633 164.229 28.5056 163.434 30.6969C162.679 32.8085 162.281 35.0795 162.281 37.5098C162.281 40.0199 162.599 42.3705 163.235 44.522C163.911 46.6336 164.945 48.5062 166.336 50.06C167.767 51.6139 169.595 52.8888 171.821 53.8052C174.008 54.6817 176.671 55.1598 179.692 55.1598C181.68 55.1598 183.508 55.0004 185.178 54.6418C186.847 54.2833 188.199 53.8848 189.312 53.4466L187.96 45.6774C186.847 46.1555 185.615 46.4743 184.303 46.7133Z" fill="#222627"/>
<path d="M221.509 24.2426C220.436 22.888 219.005 21.8521 217.177 21.135C215.388 20.378 213.162 19.9796 210.419 19.9796C209.505 19.9796 208.511 20.0991 207.478 20.2983C206.484 20.4577 205.689 20.6569 205.053 20.8561V4.7998L195.592 6.3138V54.2834H205.053V28.7846C205.649 28.6253 206.285 28.4659 207.04 28.3464C207.796 28.187 208.591 28.1073 209.465 28.1073C211.572 28.1073 213.043 28.7448 213.798 30.0197C214.593 31.2947 214.99 33.4461 214.99 36.514V54.2834H224.451V35.3585C224.451 33.0477 224.212 30.9759 223.735 29.1034C223.378 27.2308 222.622 25.6371 221.509 24.2426Z" fill="#222627"/>
<path d="M281.374 29.1033C280.897 27.2307 280.142 25.637 279.029 24.2426C277.916 22.8879 276.406 21.8521 274.498 21.1349C272.629 20.3779 270.284 19.9795 267.422 19.9795C264.639 19.9795 261.936 20.1787 259.392 20.617C256.848 21.0154 254.781 21.4138 253.152 21.8919V54.2834H262.612V28.3861C263.208 28.3064 263.884 28.2268 264.639 28.1869C265.395 28.1072 266.11 28.0674 266.786 28.0674C268.972 28.0674 270.483 28.7049 271.318 29.9798C272.113 31.2547 272.51 33.4062 272.51 36.474V54.2834H281.971V35.3585C282.09 33.0476 281.851 30.9759 281.374 29.1033Z" fill="#2BC8EB"/>
<path d="M243.65 10.0986H233.713V54.2833H243.65V10.0986Z" fill="#2BC8EB"/>
<mask id="mask0_1_2136" style="mask-type:luminance" maskUnits="userSpaceOnUse" x="0" y="0" width="82" height="60">
<path d="M81.2542 0H0V60H81.2542V0Z" fill="white"/>
</mask>
<g mask="url(#mask0_1_2136)">
<path d="M29.1972 37.4799C33.2599 37.4799 36.6056 34.1999 36.6853 30.1199C36.6853 29.9199 36.6853 29.6799 36.6853 29.4799C36.6056 28.0399 37.0836 26.5999 38.0794 25.5599L46.6827 16.5599C47.7582 15.4399 49.2717 14.8399 50.8251 14.9599C51.0243 14.9999 51.2633 14.9999 51.4624 14.9999C51.6616 14.9999 51.9005 14.9999 52.0997 14.9599C53.6531 14.8399 55.1666 15.4399 56.2421 16.5599L64.8455 25.5599C65.8412 26.5999 66.359 28.0399 66.2395 29.5199C66.2395 29.6799 66.2395 29.8399 66.2395 29.9999C66.2395 30.1199 66.2395 30.2399 66.2395 30.3599C66.3192 31.8399 65.7616 33.2399 64.726 34.2799L55.6446 43.4399C54.609 44.4799 53.215 45.0399 51.7811 44.9999C51.6217 44.9999 51.4624 44.9999 51.3031 44.9999C47.2404 45.0799 43.9344 48.4399 43.9344 52.5199C43.9344 56.6799 47.2802 59.9999 51.4226 59.9999C55.5251 59.9999 58.8709 56.6799 58.9107 52.5999C58.9107 52.4399 58.9107 52.2799 58.9107 52.1199C58.8311 50.6799 59.3887 49.2399 60.4243 48.1999L69.5056 39.0399C70.5412 37.9999 71.9353 37.4399 73.3692 37.5199C73.5285 37.5199 73.6878 37.5199 73.8472 37.5199C77.9497 37.4399 81.2556 34.0399 81.2158 29.9199C81.1361 25.8399 77.8302 22.5599 73.7277 22.5599C73.6878 22.5599 73.6082 22.5599 73.5683 22.5599C72.1344 22.5999 70.7404 22.0399 69.7446 20.9999L60.3844 11.1599C59.4683 10.1999 58.9904 8.9599 58.9904 7.6399C58.9904 7.5999 58.9904 7.5999 58.9904 7.5599C58.9904 3.4399 55.6446 0.0799001 51.5421 0.0399001C47.3997 -9.98043e-05 44.0141 3.3999 44.0141 7.5599C44.0141 7.5599 44.0141 7.5599 44.0141 7.5999C44.0141 8.9599 43.4963 10.2399 42.5802 11.2399L33.2599 20.8799C32.2641 21.9199 30.8302 22.5199 29.3963 22.4799C29.3166 22.4799 29.237 22.4799 29.1573 22.4799C25.0548 22.5599 21.709 25.9199 21.709 29.9999C21.709 34.1599 25.0946 37.4799 29.1972 37.4799Z" fill="#2BC8EB"/>
<path d="M52.0599 22.52C47.9972 22.52 44.6514 25.8 44.5718 29.88C44.5718 30.08 44.5718 30.32 44.5718 30.52C44.6514 31.96 44.1735 33.4 43.1777 34.44L34.5743 43.44C33.4989 44.56 31.9853 45.16 30.432 45.04C30.2328 45 29.9938 45 29.7947 45C29.5557 45 29.3565 45 29.1574 45.04C27.604 45.16 26.0904 44.56 25.015 43.44L16.4116 34.44C15.4159 33.4 14.8981 31.96 15.0175 30.48C15.0175 30.32 15.0175 30.16 15.0175 30C15.0175 29.88 15.0175 29.76 15.0175 29.64C14.9379 28.16 15.4955 26.76 16.5311 25.72L25.6125 16.56C26.6481 15.52 28.0421 14.96 29.476 15C29.6353 15 29.7947 15 29.954 15C34.0167 14.92 37.3226 11.56 37.3226 7.48C37.3226 3.36 33.9769 0 29.8345 0C25.6523 0 22.3065 3.32 22.2667 7.4C22.2667 7.56 22.2667 7.72 22.2667 7.88C22.3464 9.32 21.7887 10.76 20.7531 11.8L11.7116 20.96C10.676 22 9.28191 22.56 7.84802 22.52C7.68869 22.52 7.52937 22.52 7.37005 22.52C3.22768 22.56 -0.0782511 26 0.00140996 30.12C0.0810709 34.2 3.387 37.48 7.48954 37.48C7.52938 37.48 7.60903 37.48 7.64886 37.48C9.08276 37.44 10.4769 38 11.4726 39.04L20.8328 48.88C21.7489 49.84 22.2269 51.08 22.2269 52.4C22.2269 52.44 22.2269 52.44 22.2269 52.48C22.2269 56.6 25.5726 59.96 29.6752 60C33.8175 60.04 37.2031 56.64 37.2031 52.48C37.2031 52.48 37.2031 52.48 37.2031 52.44C37.2031 51.08 37.7209 49.8 38.637 48.8L47.9574 39.04C48.9531 38 50.387 37.4 51.8209 37.44C51.9006 37.44 51.9803 37.44 52.0599 37.44C56.1625 37.4 59.4684 34.04 59.4684 29.92C59.5481 25.84 56.1625 22.52 52.0599 22.52Z" fill="#2F2BEB"/>
</g>
</svg>
