<svg width="70" height="70" viewBox="0 0 70 70" fill="none" xmlns="http://www.w3.org/2000/svg">
<rect width="70" height="70" rx="35" fill="#2F2BEB"/>
<path d="M34.8894 41.3001C34.9612 41.3239 35.0388 41.3239 35.1106 41.3001C38.6166 40.1389 40.718 38.2422 41.7245 35.3313C42.6363 32.6935 42.6168 29.3201 42.6013 26.6095C42.6008 26.5252 42.5701 26.4439 42.5147 26.3804C42.4594 26.3169 42.383 26.2754 42.2996 26.2634C39.7147 25.892 37.2724 24.8489 35.2168 23.2382C35.1549 23.1897 35.0786 23.1634 35 23.1634C34.9214 23.1634 34.8451 23.1897 34.7832 23.2382C32.7276 24.849 30.2854 25.8922 27.7004 26.2637C27.617 26.2756 27.5406 26.3171 27.4853 26.3807C27.4299 26.4442 27.3992 26.5255 27.3987 26.6097C27.3832 29.3203 27.3635 32.694 28.2755 35.3315C29.2818 38.2422 31.3834 40.1387 34.8894 41.3001ZM28.1002 26.9135C30.606 26.5035 32.9742 25.4892 35 23.9585C37.0258 25.4892 39.394 26.5034 41.8998 26.9135C41.9136 29.5162 41.8998 32.6715 41.0599 35.1016C40.1416 37.7581 38.2145 39.5062 35 40.5957C31.7855 39.5062 29.8584 37.7581 28.9401 35.1017C28.1001 32.6717 28.0864 29.5163 28.1002 26.9135ZM49.6484 44.1949H49.1067V28.3848C49.1064 28.0582 48.9765 27.745 48.7455 27.5141C48.5145 27.2832 48.2014 27.1533 47.8748 27.1529H43.9145C43.9145 26.8744 43.9141 26.5947 43.9133 26.3136C43.9126 26.0185 43.9122 25.722 43.9121 25.4243C43.912 25.3348 43.8779 25.2486 43.8166 25.1834C43.7552 25.1182 43.6713 25.0789 43.582 25.0734C40.4779 24.8794 37.5335 23.6299 35.2374 21.5321C35.1726 21.4728 35.088 21.4399 35.0001 21.4399C34.9123 21.4399 34.8276 21.4728 34.7628 21.5321C32.4666 23.6298 29.5221 24.8793 26.418 25.0732C26.3287 25.0787 26.2448 25.1181 26.1834 25.1832C26.1221 25.2484 26.088 25.3346 26.0879 25.4241C26.0879 25.7218 26.0875 26.0182 26.0867 26.3135C26.0861 26.5947 26.0858 26.8745 26.0856 27.1527H22.1252C21.7986 27.1531 21.4854 27.283 21.2544 27.514C21.0235 27.745 20.8936 28.0581 20.8933 28.3848V44.1951H20.3516C20.2583 44.1951 20.1689 44.2322 20.103 44.2981C20.037 44.364 20 44.4534 20 44.5467V46.3777C20.0007 46.9564 20.2308 47.5112 20.64 47.9204C21.0492 48.3295 21.604 48.5597 22.1826 48.5604H47.8174C48.3961 48.5597 48.9509 48.3295 49.3601 47.9203C49.7693 47.5111 49.9994 46.9563 50 46.3776V44.5465C50 44.4533 49.963 44.3638 49.897 44.2979C49.8311 44.232 49.7417 44.1949 49.6484 44.1949ZM48.4036 28.3848V44.1951H47.5481V29.063C47.5481 28.9698 47.5111 28.8803 47.4452 28.8144C47.3792 28.7485 47.2898 28.7114 47.1966 28.7114H43.9054C43.9093 28.428 43.9118 28.1428 43.913 27.856H47.8748C48.015 27.8561 48.1494 27.9119 48.2486 28.011C48.3477 28.1101 48.4035 28.2446 48.4036 28.3848ZM23.1551 44.1949V29.4146H26.1082C26.1704 31.8362 26.3935 34.1113 27.1638 36.1238C27.7556 37.6703 28.619 38.9339 29.8024 39.9866C31.1084 41.1483 32.7747 42.0304 34.8963 42.6833C34.9637 42.7041 35.0357 42.7041 35.1031 42.6833C37.2247 42.0304 38.8909 41.1482 40.197 39.9866C41.3806 38.9339 42.2436 37.6703 42.8355 36.1238C43.6059 34.1113 43.829 31.8362 43.8912 29.4148H46.8446V44.1949H23.1551ZM39.9746 44.8981L39.5783 46.1175H30.4217L30.0254 44.8981H39.9746ZM26.7898 26.3149C26.7903 26.1274 26.7906 25.9394 26.7908 25.7509C29.8283 25.4903 32.7038 24.2687 35 22.2632C37.2961 24.2686 40.1715 25.4903 43.209 25.7509C43.209 25.9394 43.2093 26.1274 43.21 26.3149C43.2246 33.3307 43.2372 39.3937 34.9998 41.9792C26.7626 39.3938 26.7752 33.3307 26.7898 26.3149ZM21.5964 28.3848C21.5965 28.2446 21.6523 28.1102 21.7514 28.011C21.8506 27.9119 21.985 27.8562 22.1252 27.856H26.087C26.0882 28.1429 26.0908 28.4281 26.0946 28.7115H22.8035C22.7103 28.7115 22.6209 28.7485 22.5549 28.8145C22.489 28.8804 22.452 28.9698 22.452 29.0631V44.1949H21.5965L21.5964 28.3848ZM49.2969 46.3776C49.2964 46.7698 49.1404 47.1459 48.8631 47.4232C48.5857 47.7006 48.2096 47.8566 47.8174 47.8571H22.1826C21.7904 47.8566 21.4143 47.7006 21.1369 47.4232C20.8596 47.1459 20.7036 46.7698 20.7031 46.3776V44.8981H29.2862L29.8319 46.5777C29.8549 46.6483 29.8996 46.7098 29.9596 46.7535C30.0197 46.7971 30.092 46.8206 30.1663 46.8206H39.834C39.9082 46.8206 39.9806 46.7971 40.0406 46.7534C40.1007 46.7098 40.1454 46.6483 40.1683 46.5777L40.714 44.8981H49.2969V46.3776ZM23.0384 46.3776C23.0385 46.4237 23.0296 46.4693 23.0121 46.512C22.9946 46.5546 22.9688 46.5933 22.9363 46.626C22.9038 46.6587 22.8651 46.6846 22.8226 46.7023C22.78 46.72 22.7344 46.7291 22.6883 46.7291H22.6854C22.6159 46.7288 22.5481 46.708 22.4904 46.6692C22.4328 46.6304 22.388 46.5754 22.3616 46.5111C22.3352 46.4468 22.3285 46.3762 22.3422 46.3081C22.3559 46.24 22.3895 46.1775 22.4387 46.1285C22.488 46.0794 22.5506 46.0461 22.6188 46.0327C22.6869 46.0192 22.7575 46.0263 22.8217 46.0529C22.8858 46.0796 22.9407 46.1246 22.9792 46.1824C23.0178 46.2402 23.0384 46.3081 23.0384 46.3776ZM24.0829 46.3776C24.083 46.4236 24.0741 46.4693 24.0566 46.5119C24.0391 46.5546 24.0133 46.5933 23.9808 46.626C23.9483 46.6586 23.9096 46.6846 23.8671 46.7023C23.8245 46.72 23.7789 46.7291 23.7328 46.7291H23.7298C23.6604 46.7288 23.5925 46.708 23.5349 46.6692C23.4773 46.6304 23.4325 46.5754 23.4061 46.5111C23.3797 46.4468 23.373 46.3762 23.3867 46.3081C23.4004 46.24 23.434 46.1775 23.4832 46.1285C23.5325 46.0794 23.5951 46.0461 23.6633 46.0327C23.7314 46.0192 23.802 46.0263 23.8662 46.0529C23.9303 46.0796 23.9852 46.1246 24.0237 46.1824C24.0623 46.2402 24.0829 46.3081 24.0829 46.3776ZM25.1274 46.3776C25.1275 46.4236 25.1186 46.4693 25.1011 46.5119C25.0836 46.5546 25.0578 46.5933 25.0253 46.626C24.9928 46.6586 24.9541 46.6846 24.9116 46.7023C24.869 46.72 24.8234 46.7291 24.7773 46.7291H24.7743C24.7049 46.7288 24.637 46.708 24.5794 46.6692C24.5218 46.6304 24.477 46.5754 24.4506 46.5111C24.4242 46.4468 24.4174 46.3762 24.4312 46.3081C24.4449 46.24 24.4785 46.1775 24.5277 46.1285C24.577 46.0794 24.6396 46.0461 24.7078 46.0327C24.7759 46.0192 24.8465 46.0263 24.9107 46.0529C24.9748 46.0796 25.0296 46.1246 25.0682 46.1824C25.1068 46.2402 25.1274 46.3081 25.1274 46.3776ZM27.2209 46.3776C27.221 46.4472 27.2005 46.5153 27.162 46.5733C27.1235 46.6313 27.0686 46.6765 27.0044 46.7034C26.9402 46.7302 26.8694 46.7375 26.8011 46.7241C26.7328 46.7108 26.6699 46.6775 26.6205 46.6285C26.571 46.5795 26.5372 46.5169 26.5233 46.4487C26.5094 46.3805 26.516 46.3097 26.5423 46.2452C26.5686 46.1807 26.6134 46.1255 26.6711 46.0865C26.7288 46.0475 26.7967 46.0264 26.8663 46.026H26.8693C26.9625 46.026 27.052 46.063 27.1179 46.129C27.1838 46.1949 27.2209 46.2843 27.2209 46.3776ZM26.1764 46.3776C26.1765 46.4472 26.156 46.5153 26.1175 46.5733C26.079 46.6313 26.0241 46.6765 25.9599 46.7034C25.8957 46.7302 25.8249 46.7375 25.7566 46.7241C25.6883 46.7108 25.6254 46.6775 25.576 46.6285C25.5265 46.5795 25.4927 46.5169 25.4788 46.4487C25.4649 46.3805 25.4715 46.3097 25.4978 46.2452C25.5241 46.1807 25.5689 46.1255 25.6266 46.0865C25.6843 46.0475 25.7522 46.0264 25.8218 46.026H25.8248C25.918 46.026 26.0075 46.063 26.0734 46.129C26.1393 46.1949 26.1764 46.2843 26.1764 46.3776ZM42.7791 46.3776C42.779 46.3079 42.7995 46.2398 42.838 46.1818C42.8765 46.1239 42.9314 46.0786 42.9956 46.0517C43.0599 46.0249 43.1306 46.0177 43.1989 46.031C43.2673 46.0443 43.3301 46.0776 43.3796 46.1266C43.429 46.1757 43.4628 46.2382 43.4767 46.3065C43.4906 46.3747 43.484 46.4455 43.4577 46.51C43.4313 46.5744 43.3865 46.6296 43.3289 46.6686C43.2712 46.7077 43.2033 46.7287 43.1336 46.7291H43.1307C43.0375 46.7291 42.948 46.6921 42.8821 46.6262C42.8162 46.5602 42.7791 46.4708 42.7791 46.3776ZM43.8236 46.3776C43.8235 46.3079 43.844 46.2398 43.8825 46.1819C43.921 46.1239 43.9759 46.0786 44.0401 46.0517C44.1043 46.0249 44.1751 46.0177 44.2434 46.031C44.3117 46.0443 44.3746 46.0776 44.424 46.1266C44.4735 46.1756 44.5073 46.2382 44.5212 46.3064C44.5351 46.3746 44.5285 46.4455 44.5022 46.5099C44.4759 46.5744 44.4311 46.6296 44.3734 46.6686C44.3157 46.7076 44.2478 46.7287 44.1782 46.7291H44.1752C44.082 46.7291 43.9925 46.6921 43.9266 46.6262C43.8607 46.5602 43.8236 46.4708 43.8236 46.3776ZM44.8681 46.3776C44.868 46.3079 44.8885 46.2398 44.927 46.1819C44.9655 46.1239 45.0203 46.0786 45.0846 46.0517C45.1488 46.0249 45.2196 46.0177 45.2879 46.031C45.3562 46.0443 45.4191 46.0776 45.4685 46.1266C45.518 46.1756 45.5518 46.2382 45.5657 46.3064C45.5796 46.3746 45.573 46.4455 45.5467 46.5099C45.5204 46.5744 45.4755 46.6296 45.4179 46.6686C45.3602 46.7076 45.2923 46.7287 45.2227 46.7291H45.2197C45.1264 46.7291 45.037 46.6921 44.9711 46.6262C44.9052 46.5602 44.8681 46.4708 44.8681 46.3776ZM46.9616 46.3776C46.9615 46.3315 46.9704 46.2858 46.9879 46.2432C47.0054 46.2005 47.0312 46.1618 47.0637 46.1291C47.0962 46.0965 47.1348 46.0706 47.1774 46.0529C47.2199 46.0352 47.2656 46.026 47.3117 46.026H47.3146C47.3841 46.0263 47.4519 46.0472 47.5096 46.086C47.5672 46.1248 47.612 46.1798 47.6384 46.244C47.6648 46.3083 47.6715 46.3789 47.6578 46.447C47.6441 46.5151 47.6105 46.5776 47.5613 46.6267C47.512 46.6757 47.4494 46.709 47.3812 46.7225C47.3131 46.7359 47.2425 46.7289 47.1783 46.7022C47.1142 46.6756 47.0593 46.6305 47.0208 46.5727C46.9822 46.5149 46.9616 46.447 46.9616 46.3776ZM45.9171 46.3776C45.9169 46.3315 45.9258 46.2858 45.9433 46.2432C45.9609 46.2005 45.9866 46.1618 46.0191 46.1291C46.0517 46.0965 46.0903 46.0705 46.1329 46.0528C46.1754 46.0351 46.2211 46.026 46.2672 46.026H46.2702C46.3396 46.0263 46.4074 46.0472 46.4651 46.086C46.5227 46.1248 46.5675 46.1798 46.5939 46.2441C46.6202 46.3083 46.627 46.379 46.6133 46.4471C46.5995 46.5152 46.5659 46.5777 46.5167 46.6267C46.4675 46.6757 46.4048 46.709 46.3367 46.7225C46.2685 46.7359 46.1979 46.7289 46.1337 46.7022C46.0696 46.6756 46.0148 46.6305 45.9762 46.5727C45.9377 46.5149 45.9171 46.447 45.9171 46.3776ZM33.7683 35.9663C33.8151 35.9663 33.8613 35.9569 33.9044 35.9388C33.9475 35.9207 33.9866 35.8942 34.0193 35.8608L40.0024 29.7596C40.0348 29.7266 40.0603 29.6876 40.0776 29.6447C40.0948 29.6019 40.1035 29.5561 40.103 29.5099C40.1026 29.4638 40.093 29.4181 40.0749 29.3756C40.0568 29.3332 40.0306 29.2947 39.9976 29.2623L38.9887 28.273C38.9557 28.2406 38.9167 28.2151 38.8739 28.1979C38.8311 28.1806 38.7853 28.172 38.7391 28.1724C38.693 28.1729 38.6473 28.1824 38.6048 28.2005C38.5624 28.2186 38.5239 28.2449 38.4915 28.2778L33.7683 33.0942L31.5084 30.7898C31.4431 30.7232 31.3541 30.6853 31.2609 30.6844C31.1676 30.6835 31.0779 30.7196 31.0113 30.7849L30.0024 31.7744C29.9694 31.8067 29.9432 31.8453 29.9251 31.8877C29.907 31.9302 29.8974 31.9759 29.897 32.022C29.8965 32.0682 29.9052 32.114 29.9224 32.1568C29.9397 32.1997 29.9652 32.2387 29.9976 32.2716L33.5173 35.8609C33.55 35.8942 33.5891 35.9208 33.6322 35.9389C33.6753 35.957 33.7216 35.9663 33.7683 35.9663ZM31.2525 31.5333L33.5176 33.8428C33.5503 33.8762 33.5894 33.9027 33.6325 33.9208C33.6756 33.9389 33.7218 33.9482 33.7686 33.9482C33.8153 33.9482 33.8616 33.9389 33.9047 33.9208C33.9478 33.9027 33.9869 33.8762 34.0196 33.8428L38.7477 29.0212L39.2546 29.5182L33.7686 35.1126L30.746 32.0303L31.2525 31.5333Z" fill="white"/>
</svg>
