<svg width="60" height="60" viewBox="0 0 60 60" fill="none" xmlns="http://www.w3.org/2000/svg">
<rect width="60" height="60" rx="10" fill="white"/>
<path d="M30 20.25C24.6094 20.25 20.25 24.6562 20.25 30V31.875C20.25 32.5312 19.7344 33 19.125 33C18.4688 33 18 32.5312 18 31.875V30C18 23.3906 23.3438 18 30 18C36.6094 18 42 23.3906 42 30V36.7969C42 39.0469 40.125 40.9219 37.8281 40.9219L32.6719 40.875C32.2969 41.5781 31.5469 42 30.75 42H29.25C27.9844 42 27 41.0156 27 39.75C27 38.5312 27.9844 37.5 29.25 37.5H30.75C31.5469 37.5 32.2969 37.9688 32.6719 38.625L37.875 38.6719C38.9062 38.6719 39.75 37.8281 39.75 36.7969V30C39.75 24.6562 35.3438 20.25 30 20.25ZM24.75 27.75H25.5C26.2969 27.75 27 28.4531 27 29.25V34.5C27 35.3438 26.2969 36 25.5 36H24.75C23.0625 36 21.75 34.6875 21.75 33V30.75C21.75 29.1094 23.0625 27.75 24.75 27.75ZM35.25 27.75C36.8906 27.75 38.25 29.1094 38.25 30.75V33C38.25 34.6875 36.8906 36 35.25 36H34.5C33.6562 36 33 35.3438 33 34.5V29.25C33 28.4531 33.6562 27.75 34.5 27.75H35.25Z" fill="#2F2BEB"/>
</svg>
