<svg width="70" height="70" viewBox="0 0 70 70" fill="none" xmlns="http://www.w3.org/2000/svg">
<rect width="70" height="70" rx="35" fill="#2F2BEB"/>
<g clip-path="url(#clip0_1_11442)">
<path d="M47.0094 33.7838C47.0095 33.7693 47.0097 33.7548 47.0097 33.7403C47.0097 29.8823 43.8724 26.7434 40.0161 26.7434C37.6547 26.7434 35.4516 27.9471 34.163 29.9125C33.6748 29.703 33.1569 29.5678 32.63 29.5018C32.8755 28.8464 33.0067 28.1441 33.0067 27.4201C33.0067 25.7958 32.3617 24.2809 31.1906 23.1542C30.0192 22.0272 28.481 21.4446 26.8471 21.5041C23.7502 21.624 21.2541 24.1454 21.1643 27.2446C21.11 29.125 21.9205 30.8744 23.3882 32.0444C23.8088 32.3797 24.0837 32.8452 24.1805 33.3589C21.7675 33.9252 20 36.1148 20 38.6338C20 41.6221 22.4326 44.0531 25.4226 44.0531H32.6631C32.9097 46.9533 35.3449 49.239 38.3077 49.239C41.2707 49.239 43.7059 46.9533 43.9525 44.0531H44.5774C47.5674 44.0531 50 41.6221 50 38.6338C50 36.5689 48.8369 34.7008 47.0094 33.7838ZM22.1317 27.2726C22.2055 24.7237 24.3375 22.5697 26.8846 22.4713C28.2501 22.4172 29.5396 22.9087 30.5198 23.8517C31.4995 24.7941 32.039 26.0614 32.039 27.4201C32.039 28.9533 31.3455 30.3748 30.1362 31.3202C29.4142 31.8845 28.9833 32.7986 28.9833 33.7649V33.9709H27.5677V31.0532C28.5826 30.831 29.3451 29.9263 29.3451 28.8457C29.3451 27.5992 28.3309 26.585 27.0842 26.585C25.8376 26.585 24.8234 27.5992 24.8234 28.8457C24.8234 29.9261 25.5855 30.8306 26.6 31.053V33.9709H25.1893V33.7665C25.1893 32.7981 24.7527 31.8946 23.9915 31.2877C22.764 30.3093 22.0861 28.8459 22.1317 27.2726ZM30.1096 37.5782V37.6913C30.1096 37.9778 29.8767 38.2109 29.5902 38.2109H29.258H24.9105H24.5783C24.2918 38.2109 24.0589 37.9778 24.0589 37.6913V37.5782C24.0589 37.2917 24.2918 37.0586 24.5783 37.0586H29.5902C29.8767 37.0586 30.1096 37.2917 30.1096 37.5782ZM28.6895 39.1787C28.5142 39.7109 28.0913 40.2219 27.6611 40.2219H26.5074C26.0772 40.2219 25.6543 39.7109 25.479 39.1787H28.6895ZM30.1096 35.5714C30.1096 35.8579 29.8767 36.0908 29.5902 36.0908H24.5783C24.2918 36.0908 24.0589 35.8579 24.0589 35.5714V35.4583C24.0589 35.1718 24.2918 34.9387 24.5783 34.9387H24.7055H27.0682C27.0735 34.9388 27.0785 34.9402 27.0839 34.9402C27.0892 34.9402 27.0942 34.9388 27.0995 34.9387H29.4671H29.5902C29.8767 34.9387 30.1096 35.1718 30.1096 35.4583V35.5714ZM27.0842 30.1389C26.3713 30.1389 25.7912 29.5587 25.7912 28.8457C25.7912 28.1328 26.3713 27.5527 27.0842 27.5527C27.7972 27.5527 28.3773 28.1328 28.3773 28.8457C28.3773 29.5587 27.7972 30.1389 27.0842 30.1389ZM38.3077 48.2713C35.7156 48.2713 33.6068 46.1626 33.6064 43.5704C33.6064 43.5701 33.6065 43.5697 33.6065 43.5693C33.6065 43.5689 33.6064 43.5687 33.6064 43.5684C33.6072 40.9765 35.7159 38.8682 38.3077 38.8682C40.9002 38.8682 43.0092 40.9773 43.0092 43.5697C43.0092 46.1622 40.9002 48.2713 38.3077 48.2713ZM44.5774 43.0854H43.9524C43.7054 40.1856 41.2703 37.9005 38.3077 37.9005C35.3452 37.9005 32.9102 40.1856 32.6631 43.0854H25.4226C22.9662 43.0854 20.9677 41.0885 20.9677 38.6338C20.9677 36.9751 21.9008 35.4906 23.2913 34.7269C23.1675 34.9438 23.0911 35.1911 23.0911 35.4583V35.5714C23.0911 35.9592 23.2438 36.3097 23.4878 36.5747C23.2438 36.8398 23.0911 37.1903 23.0911 37.5782V37.6913C23.0911 38.4764 23.7045 39.1146 24.476 39.1684C24.678 40.186 25.4937 41.1896 26.5074 41.1896H27.6611C28.6748 41.1896 29.4905 40.186 29.6925 39.1684C30.464 39.1146 31.0774 38.4764 31.0774 37.6913V37.5782C31.0774 37.1903 30.9247 36.8398 30.6807 36.5747C30.9247 36.3097 31.0774 35.9592 31.0774 35.5714V35.4583C31.0774 34.7633 30.5963 34.1827 29.951 34.0203V33.7649C29.951 33.0939 30.243 32.465 30.7323 32.0825C31.3243 31.6197 31.8109 31.0602 32.1815 30.4363C32.857 30.4728 33.5236 30.648 34.122 30.9647C34.3529 31.0866 34.6401 31.0034 34.7692 30.7757C35.8411 28.8854 37.8516 27.7111 40.0161 27.7111C43.3387 27.7111 46.0419 30.4158 46.0419 33.7403C46.0419 33.8166 46.0369 33.8914 46.0322 33.9668L46.0266 34.0585C46.0153 34.262 46.1327 34.4507 46.3201 34.5305C47.9676 35.2324 49.0323 36.8431 49.0323 38.6338C49.0323 41.0885 47.0338 43.0854 44.5774 43.0854Z" fill="white"/>
<path d="M40.675 41.4945L37.5505 44.6191L35.9407 43.0093C35.7517 42.8203 35.4455 42.8203 35.2565 43.0093C35.0675 43.1982 35.0675 43.5047 35.2565 43.6935L37.2084 45.6454C37.3029 45.7399 37.4267 45.7872 37.5505 45.7872C37.6743 45.7872 37.7981 45.7399 37.8926 45.6454L41.3592 42.1788C41.5482 41.9899 41.5482 41.6834 41.3592 41.4945C41.1702 41.3055 40.864 41.3055 40.675 41.4945Z" fill="white"/>
</g>
<defs>
<clipPath id="clip0_1_11442">
<rect width="30" height="30" fill="white" transform="translate(20 20)"/>
</clipPath>
</defs>
</svg>
