<svg width="70" height="70" viewBox="0 0 70 70" fill="none" xmlns="http://www.w3.org/2000/svg">
<rect width="70" height="70" rx="35" fill="#2F2BEB"/>
<g clip-path="url(#clip0_1_11466)">
<path d="M46.9958 23.7354H45.5524C45.4533 23.4793 45.205 23.2968 44.9143 23.2968C44.6363 23.2968 44.5267 23.0843 44.4997 23.0191C44.4727 22.954 44.3999 22.7261 44.5965 22.5297C44.7257 22.4004 44.797 22.2284 44.797 22.0455C44.797 21.8626 44.7258 21.6907 44.5965 21.5613L44.0376 21.0024C43.7707 20.7355 43.3363 20.7355 43.0693 21.0024C42.8728 21.199 42.645 21.1263 42.5798 21.0992C42.5147 21.0723 42.3021 20.9626 42.3021 20.6847C42.3021 20.3072 41.995 20 41.6175 20H40.8272C40.4497 20 40.1426 20.3072 40.1426 20.6847C40.1426 20.9626 39.9301 21.0723 39.8649 21.0992C39.7998 21.1262 39.5719 21.199 39.3753 21.0023C39.1083 20.7355 38.674 20.7355 38.4071 21.0024L37.8482 21.5613C37.719 21.6906 37.6478 21.8625 37.6478 22.0454C37.6478 22.2283 37.719 22.4002 37.8483 22.5295C38.0448 22.726 37.9721 22.9539 37.9451 23.0191C37.9181 23.0842 37.8084 23.2968 37.5305 23.2968C37.2398 23.2968 36.9915 23.4791 36.8924 23.7353H24.2872C23.026 23.7353 22 24.7614 22 26.0225V40.912C22 42.1732 23.0261 43.1992 24.2872 43.1992H31.6079C31.5863 44.6103 31.2471 46.0304 30.8664 46.8827H29.3315C28.4721 46.8827 27.7729 47.5819 27.7729 48.4413C27.7729 49.3008 28.4721 50 29.3315 50H41.4573C42.3167 50 43.0159 49.3008 43.0159 48.4414C43.0159 47.582 42.3167 46.8828 41.4573 46.8828H39.918C39.5194 46.0157 39.1582 44.5907 39.1238 43.1993H46.5016C47.7628 43.1993 48.7889 42.1732 48.7889 40.9121V25.5286C48.7888 24.5398 47.9844 23.7354 46.9958 23.7354ZM37.696 24.1371C38.1592 24.0805 38.547 23.7877 38.7306 23.3445C38.9141 22.9014 38.847 22.4201 38.5595 22.0526L38.8983 21.7137C39.2658 22.0013 39.7471 22.0684 40.1903 21.8848C40.6334 21.7013 40.9264 21.3135 40.9829 20.8503H41.462C41.5185 21.3134 41.8114 21.7013 42.2546 21.8848C42.6977 22.0684 43.179 22.0013 43.5465 21.7137L43.8854 22.0526C43.5978 22.4201 43.5307 22.9014 43.7143 23.3445C43.8978 23.7876 44.2856 24.0805 44.7488 24.1371V24.6162C44.2856 24.6728 43.8979 24.9656 43.7143 25.4088C43.5307 25.8519 43.5978 26.3333 43.8854 26.7007L43.5465 27.0396C43.179 26.7521 42.6978 26.685 42.2546 26.8685C41.8114 27.0521 41.5185 27.4398 41.462 27.903H40.9829C40.9264 27.4393 40.6337 27.0514 40.1906 26.8679C39.7475 26.6843 39.266 26.7516 38.8983 27.0396L38.5595 26.7007C38.847 26.3332 38.9141 25.8519 38.7306 25.4088C38.547 24.9657 38.1592 24.6728 37.696 24.6162V24.1371ZM24.2872 24.5856H36.8458V24.7718C36.8458 25.1492 37.153 25.4564 37.5305 25.4564C37.8084 25.4564 37.9181 25.669 37.9451 25.7341C37.9721 25.7993 38.0449 26.0271 37.8483 26.2237C37.5813 26.4906 37.5813 26.9249 37.8483 27.1919L38.4071 27.7507C38.6741 28.0177 39.1083 28.0177 39.3754 27.7507C39.5724 27.5537 39.8001 27.6264 39.8651 27.6533C39.9302 27.6803 40.1426 27.7899 40.1426 28.0685C40.1426 28.446 40.4497 28.7532 40.8272 28.7532H41.6175C41.995 28.7532 42.3021 28.446 42.3021 28.0685C42.3021 27.7906 42.5147 27.681 42.5798 27.6539C42.645 27.627 42.8729 27.5542 43.0694 27.7508C43.3365 28.0178 43.7708 28.0177 44.0377 27.7507L44.5965 27.1919C44.8635 26.9249 44.8635 26.4906 44.5965 26.2237C44.4 26.0271 44.4727 25.7993 44.4997 25.7341C44.5267 25.669 44.6363 25.4564 44.9143 25.4564C45.2918 25.4564 45.599 25.1492 45.599 24.7718V24.5856H46.9958C47.5156 24.5856 47.9385 25.0086 47.9385 25.5286V38.6451H22.8501V26.0226C22.8501 25.2302 23.4948 24.5856 24.2872 24.5856ZM42.1657 48.4414C42.1657 48.832 41.8479 49.1498 41.4573 49.1498H29.3315C28.9409 49.1498 28.6231 48.832 28.6231 48.4414C28.6231 48.0508 28.9409 47.733 29.3315 47.733H41.4573C41.8479 47.733 42.1657 48.0508 42.1657 48.4414ZM38.993 46.8828H31.7868C32.1842 45.8425 32.4389 44.4591 32.458 43.1993H38.2735C38.3031 44.4443 38.5761 45.8285 38.993 46.8828ZM46.5015 42.3491H24.2872C23.4948 42.3491 22.8502 41.7045 22.8502 40.9121V39.4953H47.9386V40.9121C47.9386 41.7045 47.2939 42.3491 46.5015 42.3491ZM36.8432 40.9222C36.8432 41.157 36.6529 41.3473 36.4181 41.3473H34.3706C34.1358 41.3473 33.9455 41.157 33.9455 40.9222C33.9455 40.6874 34.1358 40.4971 34.3706 40.4971H36.4181C36.6529 40.4971 36.8432 40.6874 36.8432 40.9222ZM41.2224 26.7003C42.5037 26.7003 43.5462 25.6579 43.5462 24.3767C43.5462 23.0953 42.5037 22.0529 41.2224 22.0529C39.9411 22.0529 38.8988 23.0953 38.8988 24.3767C38.8988 25.6579 39.9411 26.7003 41.2224 26.7003ZM41.2224 22.9031C42.0349 22.9031 42.6959 23.5642 42.6959 24.3767C42.6959 25.1891 42.0349 25.8501 41.2224 25.8501C40.4099 25.8501 39.749 25.1891 39.749 24.3767C39.749 23.5642 40.4099 22.9031 41.2224 22.9031ZM25.7054 32.9148C26.0156 32.9148 26.2718 33.0864 26.3909 33.3737C26.5099 33.6611 26.45 33.9636 26.2307 34.183C26.085 34.3287 26.0046 34.5225 26.0046 34.7288C26.0046 34.9349 26.0849 35.1287 26.2307 35.2745L26.977 36.0208C27.2779 36.3217 27.7676 36.3217 28.0685 36.0208C28.2883 35.801 28.591 35.7409 28.8781 35.8598C29.1652 35.9787 29.3367 36.2353 29.3367 36.5461C29.3367 36.9716 29.6829 37.3179 30.1084 37.3179H31.1638C31.5894 37.3179 31.9356 36.9716 31.9356 36.5461C31.9356 36.2359 32.1071 35.9796 32.3945 35.8606C32.6819 35.7416 32.9844 35.8015 33.2037 36.0208C33.3495 36.1665 33.5432 36.2469 33.7495 36.2469C33.9556 36.2469 34.1494 36.1666 34.2952 36.0208L35.0415 35.2745C35.1872 35.1287 35.2676 34.9349 35.2676 34.7288C35.2676 34.5225 35.1873 34.3287 35.0415 34.183C34.8222 33.9637 34.7623 33.6611 34.8813 33.3738C35.0004 33.0864 35.2566 32.9149 35.5668 32.9149C35.9924 32.9149 36.3386 32.5686 36.3386 32.1431V31.0877C36.3386 30.6622 35.9924 30.316 35.5668 30.316C35.2566 30.316 35.0004 30.1444 34.8813 29.857C34.7623 29.5697 34.8222 29.2671 35.0415 29.0478C35.3424 28.7469 35.3424 28.2573 35.0415 27.9563L34.2952 27.2099C33.9943 26.9091 33.5046 26.9091 33.2038 27.2099C32.9844 27.4292 32.682 27.4892 32.3945 27.3701C32.1072 27.2511 31.9356 26.9948 31.9356 26.6847C31.9356 26.2592 31.5894 25.913 31.1638 25.913H30.1084C29.6829 25.913 29.3367 26.2592 29.3367 26.6847C29.3367 26.9948 29.1651 27.2511 28.8778 27.3701C28.5904 27.4892 28.2878 27.4294 28.0684 27.2099C27.7675 26.9092 27.2779 26.9091 26.977 27.2099L26.2307 27.9563C25.9297 28.2573 25.9298 28.7469 26.2307 29.0478C26.45 29.2671 26.5099 29.5696 26.3909 29.857C26.2718 30.1444 26.0156 30.316 25.7054 30.316C25.2798 30.316 24.9336 30.6622 24.9336 31.0877V32.1431C24.9336 32.5686 25.2798 32.9148 25.7054 32.9148ZM25.7838 31.1642C26.406 31.1354 26.9351 30.7647 27.1763 30.1822C27.4176 29.5997 27.3056 28.9635 26.886 28.5032L27.524 27.8652C27.9843 28.2848 28.6206 28.3968 29.2031 28.1556C29.7855 27.9143 30.1562 27.3852 30.185 26.763H31.0872C31.116 27.3853 31.4867 27.9143 32.0691 28.1556C32.6516 28.3968 33.2878 28.2848 33.7482 27.8652L34.3861 28.5032C33.9665 28.9635 33.8546 29.5997 34.0959 30.1822C34.3371 30.7648 34.8661 31.1354 35.4884 31.1642V32.0664C34.8661 32.0951 34.3371 32.4658 34.0959 33.0483C33.8546 33.6308 33.9665 34.267 34.3861 34.7274L33.7482 35.3654C33.2879 34.9457 32.6516 34.8338 32.0692 35.0751C31.4867 35.3164 31.116 35.8454 31.0872 36.4676H30.1851C30.1563 35.8448 29.7857 35.3155 29.2034 35.0742C28.6211 34.833 27.9847 34.9453 27.524 35.3654L26.886 34.7274C27.3057 34.267 27.4176 33.6308 27.1763 33.0483C26.9351 32.4658 26.406 32.0951 25.7838 32.0664V31.1642ZM30.6362 34.5761C32.2687 34.5761 33.5969 33.2479 33.5969 31.6153C33.5969 29.9828 32.2687 28.6546 30.6362 28.6546C29.0036 28.6546 27.6754 29.9828 27.6754 31.6153C27.6754 33.2479 29.0036 34.5761 30.6362 34.5761ZM30.6362 29.5048C31.8 29.5048 32.7467 30.4515 32.7467 31.6153C32.7467 32.7791 31.8 33.7259 30.6362 33.7259C29.4724 33.7259 28.5256 32.7791 28.5256 31.6153C28.5256 30.4515 29.4724 29.5048 30.6362 29.5048ZM37.7009 36.8927C37.7009 36.6579 37.8912 36.4676 38.126 36.4676H42.1386C42.3734 36.4676 42.5637 36.6579 42.5637 36.8927C42.5637 37.1275 42.3734 37.3178 42.1386 37.3178H38.126C37.8912 37.3178 37.7009 37.1275 37.7009 36.8927ZM37.7009 31.6153C37.7009 31.3805 37.8912 31.1902 38.126 31.1902H46.1512C46.386 31.1902 46.5763 31.3805 46.5763 31.6153C46.5763 31.8501 46.386 32.0404 46.1512 32.0404H38.126C37.8912 32.0404 37.7009 31.8501 37.7009 31.6153ZM37.7009 34.254C37.7009 34.0192 37.8912 33.8289 38.126 33.8289H46.1512C46.386 33.8289 46.5763 34.0192 46.5763 34.254C46.5763 34.4888 46.386 34.6791 46.1512 34.6791H38.126C37.8912 34.6791 37.7009 34.4888 37.7009 34.254Z" fill="white"/>
</g>
<defs>
<clipPath id="clip0_1_11466">
<rect width="30" height="30" fill="white" transform="translate(20 20)"/>
</clipPath>
</defs>
</svg>
