<svg width="25" height="20" viewBox="0 0 25 20" fill="none" xmlns="http://www.w3.org/2000/svg">
<g clip-path="url(#clip0_1_12763)">
<path d="M24.0234 8.88892H0.976562C0.437207 8.88892 0 9.38636 0 10C0 10.6137 0.437207 11.1111 0.976562 11.1111H24.0234C24.5628 11.1111 25 10.6137 25 10C25 9.38636 24.5628 8.88892 24.0234 8.88892Z" fill="white"/>
<path d="M24.0234 0H0.976562C0.437207 0 0 0.497444 0 1.11111C0 1.72478 0.437207 2.22222 0.976562 2.22222H24.0234C24.5628 2.22222 25 1.72478 25 1.11111C25 0.497444 24.5628 0 24.0234 0Z" fill="white"/>
<path d="M24.0234 17.7778H0.976562C0.437207 17.7778 0 18.2753 0 18.8889C0 19.5026 0.437207 20.0001 0.976562 20.0001H24.0234C24.5628 20.0001 25 19.5026 25 18.8889C25 18.2753 24.5628 17.7778 24.0234 17.7778Z" fill="white"/>
</g>
<defs>
<clipPath id="clip0_1_12763">
<rect width="25" height="20" fill="white"/>
</clipPath>
</defs>
</svg>
