<svg width="60" height="60" viewBox="0 0 60 60" fill="none" xmlns="http://www.w3.org/2000/svg">
<circle cx="30" cy="30" r="30" fill="#2BC8EB"/>
<path d="M38.6904 26.0605L35.4832 37.0055C35.2882 37.6052 34.6792 37.9568 34.0795 37.7618C33.4798 37.5668 33.1282 36.9578 33.3232 36.3581L35.7458 28.0854L21.9435 36.0541C21.3752 36.3822 20.7349 36.2107 20.4067 35.6423C20.1021 35.1146 20.2502 34.4337 20.8185 34.1056L34.6208 26.1368L26.2685 24.139C25.6517 24.0081 25.2767 23.3585 25.4311 22.7822C25.5621 22.1654 26.2116 21.7904 26.7879 21.9448L37.8701 24.6397C38.1902 24.7255 38.4526 24.8988 38.5933 25.1423C38.7573 25.4265 38.7762 25.7404 38.6904 26.0605Z" fill="#222627"/>
</svg>
