<svg width="100" height="100" viewBox="0 0 100 100" fill="none" xmlns="http://www.w3.org/2000/svg">
<path d="M90.29 62.5623L98.6087 65.6691L96.5098 70.8756L95.2466 70.4039L96.7608 66.6475L94.5024 65.8041L93.0969 69.2907L91.8337 68.8189L93.2392 65.3323L90.9686 64.4843L89.4417 68.2719L88.1785 67.8001L90.29 62.5623Z" fill="white"/>
<path d="M93.4381 76.2645L89.6298 76.0976L89.5913 76.1535L91.2195 79.4771L90.1995 80.9541L88.0065 76.3727L82.7461 76.2329L83.783 74.7314L87.5852 74.8692L87.6238 74.8134L86.0209 71.4909L87.053 69.9964L89.2074 74.6337L94.463 74.7805L93.4381 76.2645Z" fill="white"/>
<path d="M81.1036 77.91L87.2959 84.0925L84.8883 86.3287C84.3951 86.7868 83.8926 87.0826 83.3809 87.2161C82.867 87.3516 82.3692 87.3439 81.8874 87.1931C81.4055 87.0463 80.9681 86.7767 80.575 86.3843C80.1779 85.9878 79.9119 85.5551 79.7769 85.086C79.642 84.617 79.6551 84.1367 79.8163 83.6451C79.9795 83.1555 80.3088 82.6807 80.8041 82.2207L82.3997 80.7386L83.3219 81.6593L81.883 82.9958C81.5946 83.2637 81.4068 83.5313 81.3196 83.7988C81.2325 84.0662 81.2297 84.3252 81.3112 84.5758C81.3907 84.8283 81.5403 85.0643 81.76 85.2836C81.9797 85.503 82.2181 85.6545 82.4753 85.738C82.7304 85.8235 82.9973 85.8262 83.276 85.746C83.5546 85.6698 83.8392 85.4967 84.1297 85.2269L85.1955 84.2369L79.9406 78.9902L81.1036 77.91Z" fill="white"/>
<path d="M73.3923 84.2942L78.0581 91.6133L76.681 92.4278L72.7237 86.2202L69.3755 88.2005L68.667 87.089L73.3923 84.2942Z" fill="white"/>
<path d="M60.6075 94.5677C60.2927 93.6935 60.1932 92.8879 60.3089 92.1509C60.4229 91.4174 60.7127 90.7879 61.1782 90.2624C61.641 89.7378 62.2414 89.3521 62.9795 89.1053C63.7176 88.8585 64.4383 88.8024 65.1416 88.9371C65.8431 89.0754 66.4757 89.398 67.0395 89.9048C67.6014 90.4152 68.0394 91.1062 68.3532 91.9777C68.6681 92.8519 68.7685 93.6557 68.6545 94.3892C68.5388 95.1262 68.2495 95.757 67.7867 96.2816C67.3212 96.8072 66.7194 97.1933 65.9813 97.4401C65.2432 97.6869 64.5239 97.7425 63.8233 97.6069C63.12 97.4722 62.4874 97.1496 61.9254 96.6392C61.3617 96.1323 60.9224 95.4418 60.6075 94.5677ZM62.1427 94.0544C62.3643 94.6697 62.6514 95.1552 63.0038 95.5107C63.3545 95.8699 63.7445 96.099 64.1737 96.1981C64.6038 96.2999 65.048 96.2742 65.5062 96.121C65.9644 95.9678 66.3297 95.7228 66.6019 95.3862C66.8751 95.0522 67.0353 94.6391 67.0825 94.147C67.1278 93.6584 67.0397 93.1064 66.8181 92.491C66.5965 91.8757 66.3103 91.3885 65.9596 91.0293C65.6072 90.6737 65.2158 90.4451 64.7857 90.3433C64.3565 90.2442 63.9128 90.2712 63.4546 90.4244C62.9964 90.5776 62.6307 90.8212 62.3574 91.1552C62.0852 91.4919 61.9264 91.9045 61.881 92.3931C61.8338 92.8853 61.9211 93.439 62.1427 94.0544Z" fill="white"/>
<path d="M57.1028 90.7867L58.1449 99.3143L54.8218 99.6923C54.141 99.7698 53.5559 99.7209 53.0666 99.5458C52.5743 99.371 52.1848 99.0916 51.8981 98.7077C51.6088 98.3269 51.4309 97.8644 51.3644 97.3203C51.2976 96.7735 51.3607 96.285 51.5539 95.8549C51.7444 95.428 52.06 95.0783 52.5005 94.8058C52.9414 94.5361 53.5022 94.3626 54.1829 94.2851L56.5498 94.0159L56.7065 95.2984L54.556 95.543C54.1579 95.5883 53.8384 95.6781 53.5975 95.8125C53.3568 95.9496 53.1885 96.1278 53.0924 96.347C52.9939 96.5693 52.963 96.8317 53 97.1343C53.037 97.4369 53.1306 97.688 53.2807 97.8876C53.4312 98.09 53.6402 98.2323 53.9076 98.3145C54.1753 98.3994 54.5097 98.4191 54.9107 98.3735L56.3818 98.2061L55.4975 90.9693L57.1028 90.7867ZM52.9971 95.1715L50.3311 91.557L52.1225 91.3532L54.7495 94.9722L52.9971 95.1715Z" fill="white"/>
<path d="M47.6367 91.456L46.7508 100L40.9757 99.4472L41.1102 98.1497L45.2768 98.5486L45.5173 96.229L41.6499 95.8588L41.7844 94.5613L45.6518 94.9316L45.8936 92.5995L41.6924 92.1973L41.8269 90.8999L47.6367 91.456Z" fill="white"/>
<path d="M26.4705 95.1036L24.7666 94.1367L25.7669 87.4811L25.6768 87.43L20.1129 91.4957L18.409 90.5288L22.9385 83.1308L24.2746 83.889L21.1628 88.9715L21.2341 89.012L26.4568 85.1566L27.4551 85.7232L26.4741 92.0003L26.5455 92.0408L29.6639 86.9474L30.9999 87.7056L26.4705 95.1036Z" fill="white"/>
<path d="M13.6594 80.5469C14.314 79.8692 15.0065 79.407 15.7369 79.16C16.4631 78.9132 17.1763 78.8646 17.8763 79.0144C18.5743 79.1623 19.2092 79.4923 19.7811 80.0047C20.353 80.517 20.7417 81.1039 20.9474 81.7655C21.1489 82.4272 21.1491 83.1166 20.948 83.8339C20.7428 84.5513 20.3138 85.2477 19.6612 85.9233C19.0066 86.6009 18.3162 87.0631 17.5899 87.31C16.8596 87.557 16.1454 87.6065 15.4475 87.4586C14.7474 87.3089 14.1115 86.9778 13.5396 86.4655C12.9677 85.9532 12.58 85.3672 12.3765 84.7076C12.1708 84.046 12.1706 83.3565 12.3758 82.6391C12.577 81.9219 13.0048 81.2245 13.6594 80.5469ZM14.8489 81.6124C14.3882 82.0894 14.0771 82.5612 13.9159 83.0278C13.7506 83.4945 13.7229 83.9337 13.8329 84.3453C13.9408 84.759 14.1724 85.1249 14.5274 85.443C14.8825 85.761 15.2781 85.957 15.7144 86.0308C16.1487 86.1068 16.6026 86.0494 17.0762 85.8589C17.5457 85.6684 18.0109 85.3347 18.4717 84.8577C18.9325 84.3807 19.2456 83.9089 19.4109 83.4422C19.5721 82.9756 19.5987 82.5355 19.4907 82.1218C19.3808 81.7101 19.1483 81.3453 18.7932 81.0272C18.4382 80.7092 18.0435 80.5122 17.6092 80.4363C17.1729 80.3624 16.72 80.4207 16.2505 80.6111C15.7769 80.8017 15.3097 81.1354 14.8489 81.6124Z" fill="white"/>
<path d="M15.5101 75.8054L8.17213 80.6911L6.27056 78.0416C5.881 77.4988 5.6521 76.9782 5.58386 76.4799C5.51398 75.9792 5.58811 75.5168 5.80628 75.0929C6.02041 74.6682 6.36156 74.3 6.82974 73.9883C7.3003 73.675 7.77809 73.4996 8.2631 73.4622C8.74407 73.4241 9.21262 73.5285 9.66873 73.7754C10.1225 74.0239 10.5441 74.4196 10.9337 74.9624L12.288 76.8494L11.1845 77.5842L9.95389 75.8696C9.7261 75.5522 9.49419 75.3226 9.25816 75.1806C9.01975 75.0402 8.77749 74.9806 8.5314 75.0017C8.28128 75.0221 8.02603 75.119 7.76567 75.2923C7.5053 75.4657 7.31865 75.663 7.2057 75.8844C7.09036 76.1073 7.05755 76.3518 7.10726 76.6178C7.15459 76.8854 7.29297 77.179 7.52241 77.4987L8.36425 78.6717L14.5915 74.5255L15.5101 75.8054ZM9.56546 74.3693L11.6351 70.4064L12.6602 71.8347L10.5682 75.7665L9.56546 74.3693Z" fill="white"/>
<path d="M10.4523 68.0517L2.1944 71.3051L0 66.1352L1.25401 65.6411L2.83721 69.3711L5.0791 68.4878L3.60958 65.0257L4.86359 64.5316L6.33311 67.9938L8.58711 67.1057L6.99073 63.3447L8.24474 62.8507L10.4523 68.0517Z" fill="white"/>
<path d="M2.04426 46.0109L3.34136 46.0671L3.15933 49.9287L1.86224 49.8725L2.04426 46.0109Z" fill="white"/>
<path d="M9.86595 33.227L1.94548 29.2723L4.61658 24.3144L5.81935 24.915L3.89223 28.4919L6.04251 29.5656L7.83126 26.2454L9.03403 26.846L7.24528 30.1661L9.40716 31.2456L11.3503 27.6388L12.5531 28.2394L9.86595 33.227Z" fill="white"/>
<path d="M8.27805 19.2803L12.045 19.8425L12.0896 19.791L10.8444 16.3172L12.0243 14.9548L13.6896 19.7379L18.9031 20.4243L17.7037 21.8092L13.9395 21.2765L13.8949 21.328L15.115 24.798L13.9211 26.1765L12.3005 21.3419L7.09253 20.6491L8.27805 19.2803Z" fill="white"/>
<path d="M20.6991 18.9282L15.2381 12.1375L17.8828 10.1648C18.4246 9.76063 18.9573 9.51882 19.4811 9.43935C20.0071 9.35817 20.5011 9.41757 20.9632 9.61757C21.4257 9.81364 21.8303 10.1272 22.1769 10.5582C22.5271 10.9937 22.7429 11.4516 22.8244 11.932C22.9058 12.4123 22.8388 12.8884 22.6233 13.3604C22.4061 13.8301 22.0254 14.2679 21.4813 14.6738L19.7286 15.9812L18.9153 14.9699L20.4959 13.7909C20.8127 13.5546 21.0294 13.308 21.1461 13.0512C21.2628 12.7944 21.2947 12.5372 21.2418 12.2796C21.1912 12.0203 21.069 11.7702 20.8752 11.5292C20.6815 11.2883 20.4615 11.1129 20.2152 11.003C19.9712 10.8915 19.7062 10.8611 19.4201 10.9118C19.1346 10.9586 18.8322 11.101 18.5131 11.3391L17.3423 12.2124L21.9767 17.9752L20.6991 18.9282Z" fill="white"/>
<path d="M29.0997 13.3908L25.2835 5.62926L26.7441 4.96281L29.9808 11.5457L33.5318 9.92541L34.1113 11.104L29.0997 13.3908Z" fill="white"/>
<path d="M42.9726 4.50391C43.1874 5.40569 43.1959 6.2169 42.998 6.93754C42.8023 7.65483 42.4436 8.25047 41.9217 8.72446C41.4027 9.19783 40.7625 9.51877 40.001 9.68729C39.2395 9.85582 38.5167 9.83653 37.8326 9.62942C37.1507 9.41896 36.558 9.03245 36.0545 8.4699C35.5531 7.904 35.1954 7.17152 34.9812 6.27247C34.7664 5.37069 34.7569 4.56116 34.9525 3.84387C35.1504 3.12323 35.5088 2.52622 36.0279 2.05286C36.5497 1.57887 37.1914 1.25761 37.9529 1.08909C38.7143 0.920562 39.4357 0.940168 40.117 1.1479C40.801 1.35501 41.3938 1.74152 41.8951 2.30742C42.3986 2.86997 42.7578 3.60213 42.9726 4.50391ZM41.3888 4.85443C41.2376 4.21964 41.0067 3.70716 40.6962 3.31699C40.3879 2.92347 40.026 2.6551 39.6104 2.51189C39.1942 2.36596 38.7498 2.3453 38.277 2.44992C37.8043 2.55455 37.4137 2.76002 37.1052 3.06633C36.796 3.36992 36.5904 3.7639 36.4882 4.24826C36.3882 4.72927 36.4139 5.28717 36.5651 5.92195C36.7163 6.55674 36.946 7.07089 37.2543 7.46441C37.5648 7.85459 37.9282 8.12264 38.3444 8.26857C38.7599 8.41179 39.2041 8.43108 39.6768 8.32646C40.1496 8.22183 40.5405 8.01773 40.8496 7.71414C41.1581 7.40782 41.3623 7.01416 41.4623 6.53315C41.5645 6.04879 41.54 5.48921 41.3888 4.85443Z" fill="white"/>
<path d="M46.0137 8.61612L45.9352 0.0300545L49.2813 0.000242052C49.9668 -0.00586537 50.543 0.103603 51.0098 0.328648C51.4795 0.553667 51.8354 0.871941 52.0773 1.28347C52.3222 1.69218 52.4471 2.17044 52.4521 2.71825C52.4571 3.26885 52.3395 3.74787 52.0992 4.15531C51.8618 4.55993 51.5089 4.87474 51.0403 5.09973C50.5718 5.32193 49.9948 5.43608 49.3093 5.44219L46.9261 5.46342L46.9143 4.17216L49.0796 4.15287C49.4805 4.1493 49.8082 4.09327 50.0628 3.98478C50.3175 3.8735 50.5048 3.71391 50.6249 3.50599C50.7479 3.29526 50.808 3.03757 50.8052 2.73292C50.8024 2.42827 50.7376 2.1689 50.6107 1.9548C50.4838 1.73791 50.2921 1.5747 50.0355 1.46518C49.7788 1.35287 49.4486 1.29851 49.0449 1.3021L47.5635 1.3153L47.6301 8.60172L46.0137 8.61612ZM50.5878 4.68449L52.8323 8.55537L51.0285 8.57144L48.8232 4.70021L50.5878 4.68449Z" fill="white"/>
<path d="M55.4985 8.94772L57.3385 0.545832L63.0175 1.69679L62.7381 2.97266L58.6408 2.14228L58.1413 4.42326L61.9444 5.19402L61.665 6.46989L57.8619 5.69913L57.3597 7.99242L61.4911 8.82971L61.2117 10.1056L55.4985 8.94772Z" fill="white"/>
<path d="M76.9529 7.52048L78.538 8.65913L76.7961 15.1721L76.8799 15.2323L82.8675 11.7691L84.4526 12.9078L79.119 19.7915L77.8761 18.8987L81.5403 14.1694L81.474 14.1218L75.8492 17.4113L74.9204 16.7442L76.6007 10.6055L76.5343 10.5578L72.8623 15.2971L71.6193 14.4043L76.9529 7.52048Z" fill="white"/>
<path d="M88.0457 23.3256C87.3188 23.9312 86.5785 24.3188 85.8247 24.4883C85.075 24.6582 84.3606 24.6322 83.6815 24.4105C83.0043 24.1909 82.4102 23.7967 81.8993 23.2278C81.3883 22.659 81.0678 22.035 80.9377 21.3559C80.8117 20.6771 80.889 19.9916 81.1695 19.2995C81.4542 18.6076 81.9588 17.9598 82.6835 17.3561C83.4104 16.7505 84.1487 16.3628 84.8984 16.193C85.6521 16.0234 86.3676 16.0484 87.0448 16.268C87.7239 16.4898 88.3189 16.885 88.8299 17.4539C89.3408 18.0227 89.6604 18.6456 89.7886 19.3226C89.9187 20.0017 89.8414 20.6872 89.5568 21.3791C89.2763 22.0712 88.7726 22.7201 88.0457 23.3256ZM86.9829 22.1425C87.4946 21.7162 87.8568 21.2795 88.0695 20.8325C88.2863 20.3857 88.3632 19.9519 88.3001 19.5312C88.2392 19.1087 88.0502 18.7209 87.733 18.3677C87.4158 18.0146 87.0445 17.7786 86.6191 17.6598C86.1959 17.5391 85.7382 17.5489 85.2459 17.6891C84.7578 17.8295 84.2579 18.1129 83.7462 18.5392C83.2346 18.9655 82.8703 19.402 82.6535 19.8488C82.4408 20.2959 82.3649 20.7307 82.4258 21.1532C82.4889 21.5739 82.679 21.9608 82.9962 22.314C83.3134 22.6671 83.6836 22.904 84.1068 23.0247C84.5322 23.1435 84.989 23.1327 85.4771 22.9922C85.9693 22.852 86.4713 22.5688 86.9829 22.1425Z" fill="white"/>
<path d="M85.6855 27.8528L93.5294 23.7591L95.1221 26.5909C95.4483 27.171 95.6174 27.7124 95.6292 28.2149C95.6425 28.72 95.5168 29.1719 95.2523 29.5707C94.9917 29.9706 94.6112 30.3011 94.1107 30.5623C93.6077 30.8248 93.113 30.9494 92.6267 30.9362C92.1442 30.924 91.6902 30.7715 91.2645 30.4786C90.8413 30.1843 90.4666 29.7471 90.1403 29.167L89.0059 27.1501L90.1856 26.5344L91.2163 28.367C91.4071 28.7062 91.6118 28.9586 91.8305 29.1243C92.0518 29.2887 92.2859 29.3731 92.5329 29.3778C92.7839 29.3835 93.0485 29.3138 93.3268 29.1685C93.6051 29.0233 93.8129 28.8465 93.95 28.6382C94.0897 28.4286 94.1498 28.1889 94.1303 27.9193C94.1133 27.6484 94.0087 27.342 93.8166 27.0004L93.1114 25.7467L86.4549 29.2207L85.6855 27.8528ZM91.4339 29.8989L88.931 33.6232L88.0725 32.0967L90.594 28.4056L91.4339 29.8989Z" fill="white"/>
<path d="M89.824 36.0828L98.3992 33.7078L100 39.0757L98.6978 39.4363L97.5429 35.5636L95.2148 36.2084L96.2869 39.803L94.9847 40.1637L93.9127 36.569L91.5721 37.2172L92.7366 41.1222L91.4345 41.4829L89.824 36.0828Z" fill="white"/>
<path d="M97.4447 53.7913L96.1466 53.7643L96.235 49.8997L97.5331 49.9266L97.4447 53.7913Z" fill="white"/>
</svg>
