<svg width="26" height="20" viewBox="0 0 26 20" fill="none" xmlns="http://www.w3.org/2000/svg">
<path d="M9.76556 12.4884C11.0335 12.4884 12.0776 11.3944 12.1025 10.0335C12.1025 9.96676 12.1025 9.88671 12.1025 9.82C12.0776 9.33968 12.2268 8.85937 12.5376 8.51247L15.2226 5.51049C15.5582 5.13691 16.0306 4.93677 16.5154 4.9768C16.5775 4.99014 16.6521 4.99014 16.7142 4.99014C16.7764 4.99014 16.851 4.99014 16.9131 4.9768C17.3979 4.93677 17.8703 5.13691 18.2059 5.51049L20.8909 8.51247C21.2017 8.85937 21.3633 9.33968 21.326 9.83334C21.326 9.88671 21.326 9.94008 21.326 9.99345C21.326 10.0335 21.326 10.0735 21.326 10.1135C21.3509 10.6072 21.1768 11.0742 20.8536 11.4211L18.0195 14.4764C17.6963 14.8233 17.2612 15.0101 16.8137 14.9968C16.764 14.9968 16.7142 14.9968 16.6645 14.9968C15.3966 15.0234 14.3649 16.1442 14.3649 17.5051C14.3649 18.8927 15.409 20.0001 16.7018 20.0001C17.9822 20.0001 19.0263 18.8927 19.0388 17.5318C19.0388 17.4784 19.0388 17.425 19.0388 17.3717C19.0139 16.8913 19.1879 16.411 19.5111 16.0641L22.3453 13.0088C22.6685 12.6619 23.1036 12.4751 23.5511 12.5018C23.6008 12.5018 23.6505 12.5018 23.7003 12.5018C24.9806 12.4751 26.0123 11.341 25.9999 9.96676C25.975 8.60586 24.9433 7.51181 23.663 7.51181C23.6505 7.51181 23.6257 7.51181 23.6132 7.51181C23.1657 7.52515 22.7307 7.33836 22.4199 6.99146L19.4987 3.7093C19.2128 3.38908 19.0636 2.97548 19.0636 2.53519C19.0636 2.52184 19.0636 2.52184 19.0636 2.5085C19.0636 1.13426 18.0195 0.0135197 16.7391 0.000177567C15.4463 -0.0131646 14.3897 1.12092 14.3897 2.5085C14.3897 2.5085 14.3897 2.5085 14.3897 2.52184C14.3897 2.97548 14.2281 3.40243 13.9422 3.73598L11.0335 6.95144C10.7227 7.29833 10.2752 7.49847 9.8277 7.48512C9.80282 7.48512 9.77798 7.48512 9.75311 7.48512C8.47277 7.51181 7.42859 8.63255 7.42859 9.99345C7.42859 11.381 8.48519 12.4884 9.76556 12.4884Z" fill="#2BC8EB"/>
<path d="M16.2574 7.50668C14.9887 7.50668 13.9439 8.60001 13.919 9.96C13.919 10.0267 13.919 10.1067 13.919 10.1733C13.9439 10.6533 13.7947 11.1333 13.4837 11.48L10.797 14.48C10.4611 14.8533 9.98848 15.0533 9.50341 15.0133C9.4412 15 9.36656 15 9.30439 15C9.22975 15 9.16754 15 9.10537 15.0133C8.62027 15.0533 8.14759 14.8533 7.81177 14.48L5.12506 11.48C4.81412 11.1333 4.65242 10.6533 4.68971 10.16C4.68971 10.1067 4.68971 10.0533 4.68971 10C4.68971 9.96 4.68971 9.92 4.68971 9.88C4.66485 9.38667 4.83898 8.92001 5.16238 8.57334L7.99835 5.52003C8.32176 5.17336 8.75708 4.9867 9.20486 5.00003C9.25461 5.00003 9.30439 5.00003 9.35413 5.00003C10.6228 4.97337 11.6552 3.85337 11.6552 2.49338C11.6552 1.12005 10.6104 6.10352e-05 9.31682 6.10352e-05C8.01078 6.10352e-05 6.96594 1.10672 6.95352 2.46671C6.95352 2.52005 6.95352 2.57338 6.95352 2.62671C6.9784 3.10671 6.80424 3.58671 6.48084 3.93337L3.65733 6.98669C3.33393 7.33335 2.89859 7.52002 2.45081 7.50668C2.40105 7.50668 2.3513 7.50668 2.30155 7.50668C1.00795 7.52002 -0.0244365 8.66668 0.000440307 10.04C0.0253171 11.4 1.05771 12.4933 2.33886 12.4933C2.3513 12.4933 2.37618 12.4933 2.38862 12.4933C2.8364 12.48 3.27175 12.6667 3.58269 13.0133L6.50573 16.2933C6.79182 16.6133 6.94109 17.0266 6.94109 17.4666C6.94109 17.48 6.94109 17.48 6.94109 17.4933C6.94109 18.8666 7.98589 19.9866 9.26707 19.9999C10.5606 20.0133 11.6179 18.8799 11.6179 17.4933C11.6179 17.4933 11.6179 17.4933 11.6179 17.48C11.6179 17.0266 11.7796 16.6 12.0657 16.2666L14.9763 13.0133C15.2872 12.6667 15.735 12.4667 16.1828 12.48C16.2077 12.48 16.2326 12.48 16.2574 12.48C17.5386 12.4667 18.571 11.3467 18.571 9.97334C18.5959 8.61334 17.5386 7.50668 16.2574 7.50668Z" fill="#2BC8EB"/>
</svg>
