<svg width="26" height="20" viewBox="0 0 26 20" fill="none" xmlns="http://www.w3.org/2000/svg">
<path d="M9.76568 12.4884C11.0336 12.4884 12.0778 11.3943 12.1026 10.0334C12.1026 9.9667 12.1026 9.88665 12.1026 9.81994C12.0778 9.33962 12.2269 8.8593 12.5377 8.51241L15.2227 5.51042C15.5583 5.13684 16.0307 4.93671 16.5155 4.97674C16.5776 4.99008 16.6522 4.99008 16.7144 4.99008C16.7765 4.99008 16.8511 4.99008 16.9133 4.97674C17.3981 4.93671 17.8704 5.13684 18.2061 5.51042L20.8911 8.51241C21.2018 8.8593 21.3634 9.33962 21.3261 9.83328C21.3261 9.88665 21.3261 9.94002 21.3261 9.99339C21.3261 10.0334 21.3261 10.0734 21.3261 10.1135C21.351 10.6071 21.177 11.0741 20.8538 11.421L18.0196 14.4763C17.6964 14.8232 17.2613 15.01 16.8138 14.9967C16.7641 14.9967 16.7144 14.9967 16.6647 14.9967C15.3967 15.0234 14.365 16.1441 14.365 17.505C14.365 18.8926 15.4092 20 16.7019 20C17.9823 20 19.0265 18.8926 19.0389 17.5317C19.0389 17.4783 19.0389 17.425 19.0389 17.3716C19.014 16.8913 19.1881 16.411 19.5113 16.0641L22.3454 13.0087C22.6686 12.6618 23.1037 12.475 23.5512 12.5017C23.6009 12.5017 23.6506 12.5017 23.7004 12.5017C24.9807 12.475 26.0124 11.3409 26 9.9667C25.9752 8.6058 24.9434 7.51175 23.6631 7.51175C23.6506 7.51175 23.6258 7.51175 23.6133 7.51175C23.1658 7.52509 22.7308 7.3383 22.42 6.9914L19.4988 3.70923C19.2129 3.38902 19.0638 2.97542 19.0638 2.53513C19.0638 2.52178 19.0638 2.52178 19.0638 2.50844C19.0638 1.1342 18.0196 0.0134587 16.7392 0.000116532C15.4465 -0.0132256 14.3898 1.12086 14.3898 2.50844C14.3898 2.50844 14.3898 2.50844 14.3898 2.52178C14.3898 2.97542 14.2283 3.40236 13.9423 3.73592L11.0336 6.95138C10.7228 7.29827 10.2753 7.4984 9.82782 7.48506C9.80295 7.48506 9.7781 7.48506 9.75323 7.48506C8.47289 7.51175 7.42871 8.63249 7.42871 9.99339C7.42871 11.381 8.48531 12.4884 9.76568 12.4884Z" fill="#2F2BEB"/>
<path d="M16.2574 7.50662C14.9887 7.50662 13.9439 8.59995 13.919 9.95994C13.919 10.0266 13.919 10.1066 13.919 10.1733C13.9439 10.6533 13.7947 11.1333 13.4837 11.4799L10.797 14.4799C10.4611 14.8532 9.98848 15.0532 9.50341 15.0132C9.4412 14.9999 9.36656 14.9999 9.30439 14.9999C9.22975 14.9999 9.16754 14.9999 9.10537 15.0132C8.62027 15.0532 8.14759 14.8532 7.81177 14.4799L5.12506 11.4799C4.81412 11.1333 4.65242 10.6533 4.68971 10.1599C4.68971 10.1066 4.68971 10.0533 4.68971 9.99994C4.68971 9.95994 4.68971 9.91994 4.68971 9.87994C4.66485 9.38661 4.83898 8.91995 5.16238 8.57328L7.99835 5.51997C8.32176 5.1733 8.75708 4.98664 9.20486 4.99997C9.25461 4.99997 9.30439 4.99997 9.35413 4.99997C10.6228 4.9733 11.6552 3.85331 11.6552 2.49332C11.6552 1.11999 10.6104 0 9.31682 0C8.01078 0 6.96594 1.10666 6.95352 2.46665C6.95352 2.51999 6.95352 2.57332 6.95352 2.62665C6.9784 3.10665 6.80424 3.58665 6.48084 3.93331L3.65733 6.98663C3.33393 7.33329 2.89859 7.51996 2.45081 7.50662C2.40105 7.50662 2.3513 7.50662 2.30155 7.50662C1.00795 7.51996 -0.0244365 8.66662 0.000440307 10.0399C0.0253171 11.3999 1.05771 12.4933 2.33886 12.4933C2.3513 12.4933 2.37618 12.4933 2.38862 12.4933C2.8364 12.4799 3.27175 12.6666 3.58269 13.0133L6.50573 16.2932C6.79182 16.6132 6.94109 17.0266 6.94109 17.4666C6.94109 17.4799 6.94109 17.4799 6.94109 17.4932C6.94109 18.8666 7.98589 19.9865 9.26707 19.9999C10.5606 20.0132 11.6179 18.8799 11.6179 17.4932C11.6179 17.4932 11.6179 17.4932 11.6179 17.4799C11.6179 17.0266 11.7796 16.5999 12.0657 16.2666L14.9763 13.0133C15.2872 12.6666 15.735 12.4666 16.1828 12.4799C16.2077 12.4799 16.2326 12.4799 16.2574 12.4799C17.5386 12.4666 18.571 11.3466 18.571 9.97328C18.5959 8.61328 17.5386 7.50662 16.2574 7.50662Z" fill="#2F2BEB"/>
</svg>
