<svg width="21" height="18" viewBox="0 0 21 18" fill="none" xmlns="http://www.w3.org/2000/svg">
<path d="M0 1.5C0 0.703125 0.65625 0 1.5 0H19.5C20.2969 0 21 0.703125 21 1.5C21 2.34375 20.2969 3 19.5 3H1.5C0.65625 3 0 2.34375 0 1.5ZM0 9C0 8.20312 0.65625 7.5 1.5 7.5H19.5C20.2969 7.5 21 8.20312 21 9C21 9.84375 20.2969 10.5 19.5 10.5H1.5C0.65625 10.5 0 9.84375 0 9ZM21 16.5C21 17.3438 20.2969 18 19.5 18H1.5C0.65625 18 0 17.3438 0 16.5C0 15.7031 0.65625 15 1.5 15H19.5C20.2969 15 21 15.7031 21 16.5Z" fill="#2F2BEB"/>
</svg>
