<svg width="95" height="70" viewBox="0 0 95 70" fill="none" xmlns="http://www.w3.org/2000/svg">
<g opacity="0.2">
<path d="M35.625 0H8.90625C3.99505 0 0 3.92496 0 8.75V35C0 39.825 3.99505 43.75 8.90625 43.75H20.89L16.3832 66.5265C16.2136 67.3824 16.4426 68.2668 17.0065 68.939C17.5704 69.6112 18.4097 70 19.2969 70H28.9149C31.4966 70 33.7913 68.3409 34.5726 65.9383L43.215 45.7979C43.2643 45.6826 43.3063 45.5644 43.3397 45.4448C44.1312 42.6506 44.5312 39.7609 44.5312 36.8571V8.75C44.5312 3.92496 40.5362 0 35.625 0Z" fill="#2BC8EB"/>
<path d="M86.0938 0H59.375C54.4638 0 50.4688 3.92496 50.4688 8.75V35C50.4688 39.825 54.4638 43.75 59.375 43.75H71.3602L66.852 66.5265C66.6809 67.3824 66.91 68.2668 67.4753 68.939C68.0377 69.6112 68.8785 70 69.7656 70H79.3851C81.9682 70 84.2615 68.3409 85.0413 65.9369L93.6837 45.7979C93.733 45.6826 93.7736 45.5643 93.8084 45.4447C94.5999 42.6477 95 39.7581 95 36.8571V8.75C95 3.92496 91.005 0 86.0938 0Z" fill="#2BC8EB"/>
</g>
</svg>
