<svg width="120" height="120" viewBox="0 0 120 120" fill="none" xmlns="http://www.w3.org/2000/svg">
<path d="M60 120C93.1371 120 120 93.1371 120 60C120 26.8629 93.1371 0 60 0C26.8629 0 0 26.8629 0 60C0 93.1371 26.8629 120 60 120Z" fill="#2BC8EB"/>
<path d="M46.5547 35.0703L80.3047 55.6953C81.9453 56.75 83 58.625 83 60.5C83 62.4922 81.9453 64.3672 80.3047 65.3047L46.5547 85.9297C44.7969 86.9844 42.5703 87.1016 40.8125 86.0469C39.0547 85.1094 38 83.2344 38 81.125V39.875C38 37.8828 39.0547 36.0078 40.8125 35.0703C42.5703 34.0156 44.7969 34.0156 46.5547 35.0703Z" fill="white"/>
</svg>
