<?xml version="1.0" encoding="UTF-8"?><svg xmlns="http://www.w3.org/2000/svg" xmlns:xlink="http://www.w3.org/1999/xlink" id="Layer_2" data-name="Layer 2" viewBox="0 0 2113.7 827.46"><defs><style> .cls-1 { fill: url(#linear-gradient); fill-rule: evenodd; } </style><linearGradient id="linear-gradient" x1="-337.7" y1="687.4" x2="3171.25" y2="-104.42" gradientUnits="userSpaceOnUse"><stop offset="0" stop-color="#fbab27"/><stop offset=".25" stop-color="#d0202f"/><stop offset=".72" stop-color="#f04c25"/><stop offset=".89" stop-color="#d0202f"/></linearGradient></defs><g id="Layer_1-2" data-name="Layer 1"><g><g><path d="M708.32,815.13v-91.04h-27.28c-6.08,0-10.6-4-10.6-10.08s4.52-9.9,10.6-9.9h77.14c6.08,0,10.6,3.99,10.6,10.08s-4.52,9.9-10.6,9.9h-27.28v91.04c0,6.08-4.86,10.6-11.47,10.6s-11.12-4.52-11.12-10.6Z"/><path d="M780.09,780.56c0-31.1,21.72-49.52,44.65-49.52s43.95,21.03,43.95,46.04c-.35,5.56-5.04,9.38-10.6,9.38h-57.33c2.95,14.25,14.42,21.89,26.41,21.89,12.68,0,16.85-4,20.68-6.08,2.09-1.04,4-1.56,5.91-1.56,5.04,0,8.86,4.17,8.86,8.69,0,2.95-1.56,5.91-4.86,8.51-6.08,5.04-18.07,9.56-29.54,9.56-29.71,0-48.13-20.15-48.13-46.91ZM800.94,769.09h45.52v-1.22c-.87-9.9-10.94-17.72-21.72-17.72-11.64,0-21.02,4.52-23.8,18.94Z"/><path d="M959.41,747.89c0,4.69-2.95,9.56-8.17,9.56-5.73,0-7.3-2.78-11.12-5.04-2.43-1.39-8.34-2.26-10.6-2.26-17.72,0-27.8,12.34-27.8,29.19s10.94,29.02,26.58,29.02c5.73,0,9.9-.7,12.68-2.09,3.3-1.74,4.86-4.52,10.08-4.52,6.08,0,9.38,4.34,9.38,9.9,0,8.69-16.5,15.81-34.75,15.81-27.45,0-44.82-20.85-44.82-48.13s18.94-48.3,45.69-48.3c19.63,0,32.83,6.6,32.83,16.85Z"/><path d="M1054.8,770.66v44.48c0,6.08-4.34,10.6-10.42,10.6s-10.42-4.52-10.42-10.6v-44.48c0-11.3-3.48-20.5-16.85-20.5s-20.67,9.21-20.67,20.5v44.48c0,6.08-4.34,10.6-10.42,10.6s-10.43-4.52-10.43-10.6v-107.37c0-6.08,4.34-10.6,10.43-10.6s10.42,4.52,10.42,10.6v38.4c5.38-7.3,15.12-15.12,27.97-15.12,24.85,0,30.4,17.89,30.4,39.61Z"/><path d="M1149.52,815.13c0,6.08-5.21,10.6-10.95,10.6-6.43,0-10.77-4.52-10.77-10.6v-100.42c0-6.08,4.52-10.6,11.12-10.6,5.56,0,10.6,4.52,10.6,10.6v100.42Z"/><path d="M1254.81,770.66v44.48c0,6.08-4.34,10.6-10.42,10.6s-10.42-4.52-10.42-10.6v-44.48c0-11.3-3.65-20.5-17.72-20.5s-21.54,9.21-21.54,20.5v44.48c0,6.08-4.34,10.6-10.42,10.6s-10.42-4.52-10.42-10.6v-71.75c0-6.08,4.34-10.6,10.42-10.6s10.42,4.52,10.42,10.6v2.95c5.39-7.3,15.64-15.29,28.84-15.29,25.54,0,31.27,17.89,31.27,39.61Z"/><path d="M1358.37,770.66v44.48c0,6.08-4.34,10.6-10.42,10.6s-10.42-4.52-10.42-10.6v-44.48c0-11.3-3.65-20.5-17.72-20.5s-21.54,9.21-21.54,20.5v44.48c0,6.08-4.34,10.6-10.42,10.6s-10.42-4.52-10.42-10.6v-71.75c0-6.08,4.34-10.6,10.42-10.6s10.42,4.52,10.42,10.6v2.95c5.39-7.3,15.64-15.29,28.84-15.29,25.54,0,31.27,17.89,31.27,39.61Z"/><path d="M1423.02,827.46c-26.41,0-47.26-19.63-47.26-48.13s20.85-48.3,47.26-48.3,47.26,19.81,47.26,48.3-21.03,48.13-47.26,48.13ZM1423.02,750.15c-14.6,0-26.41,11.64-26.41,29.19s11.81,29.02,26.41,29.02,26.41-11.64,26.41-29.02-11.81-29.19-26.41-29.19Z"/><path d="M1502.09,739.38l23.97,54.9,23.8-54.73c1.91-4.34,5.21-6.78,9.21-6.6,5.73,0,9.73,4.17,9.73,9.38,0,1.57-.7,3.65-1.39,5.22l-32.49,71.58c-1.74,3.99-5.04,6.43-8.86,6.6-4.52.7-8.86-1.74-10.95-6.6l-32.31-71.58c-.52-1.22-1.22-2.95-1.22-5.56,0-4.17,3.99-9.21,10.25-9.21,4.34,0,8.34,2.26,10.25,6.6Z"/><path d="M1670.98,741.64v73.49c0,6.08-4.34,10.6-10.42,10.6s-10.42-4.52-10.42-10.42c-5.21,5.91-15.46,12.16-27.28,12.16-24.15,0-42.74-19.8-42.74-48.13s18.59-48.3,42.05-48.3c11.99,0,21.89,5.21,27.97,10.77v-.17c0-6.08,4.34-10.6,10.42-10.6s10.42,4.34,10.42,10.6ZM1651,779.34c0-16.5-10.25-29.19-25.54-29.19s-25.36,12.68-25.36,29.19,10.25,29.02,25.36,29.02,25.54-12.51,25.54-29.02Z"/><path d="M1702.62,734.52v-11.12c0-6.08,4.52-10.6,10.6-10.6s10.25,4.52,10.25,10.6v11.12h12.33c5.56,0,9.73,4.17,9.73,9.73s-4.17,9.38-9.73,9.38h-12.33v47.08c0,5.04,3.13,6.95,7.12,6.95,2.78,0,4.87-1.56,7.82-1.56,3.13,0,6.42,3.13,6.42,8.51,0,6.43-8.51,11.12-16.68,11.12-9.73,0-25.54-1.39-25.54-24.15v-47.95h-7.99c-5.56,0-9.73-4.17-9.73-9.73s4.17-9.38,9.73-9.38h7.99Z"/><path d="M1762.92,712.8v-3.3c0-6.6,3.48-8.69,10.95-8.69,7.99,0,10.94,2.26,10.94,8.69v3.3c0,6.78-3.3,8.68-11.12,8.68s-10.77-2.26-10.77-8.68ZM1784.29,815.13c0,6.08-4.34,10.6-10.42,10.6s-10.42-4.52-10.42-10.6v-71.75c0-6.08,4.34-10.6,10.42-10.6s10.42,4.52,10.42,10.6v71.75Z"/><path d="M1847.71,827.46c-26.41,0-47.26-19.63-47.26-48.13s20.85-48.3,47.26-48.3,47.26,19.81,47.26,48.3-21.03,48.13-47.26,48.13ZM1847.71,750.15c-14.6,0-26.41,11.64-26.41,29.19s11.81,29.02,26.41,29.02,26.41-11.64,26.41-29.02-11.81-29.19-26.41-29.19Z"/><path d="M1993.32,770.66v44.48c0,6.08-4.34,10.6-10.42,10.6s-10.42-4.52-10.42-10.6v-44.48c0-11.3-3.65-20.5-17.72-20.5s-21.54,9.21-21.54,20.5v44.48c0,6.08-4.34,10.6-10.42,10.6s-10.42-4.52-10.42-10.6v-71.75c0-6.08,4.34-10.6,10.42-10.6s10.42,4.52,10.42,10.6v2.95c5.39-7.3,15.64-15.29,28.84-15.29,25.54,0,31.27,17.89,31.27,39.61Z"/><path d="M2013.49,798.45c3.65-2.26,7.99-2.26,11.99,1.74,6.6,6.78,13.38,10.6,24.5,10.6,5.04-.17,13.55-1.22,13.55-10.25,0-7.47-8.68-10.08-18.93-12.85-14.42-4-31.97-8.69-31.97-29.19,0-17.2,16.68-27.45,33.7-27.45,10.6,0,24.32,3.82,31.62,13.03,2.6,3.48,3.82,8.86-1.04,12.85-3.48,2.78-8.86,2.26-11.81-.52-4-5.03-10.77-8.34-19.28-8.34-5.21,0-13.2.87-13.2,9.56,0,7.99,8.86,10.25,19.11,13.03,14.07,3.82,30.58,8.68,30.58,29.01,0,17.89-18.07,27.8-34.23,27.8-13.73,0-28.5-3.99-37.53-16.15-2.26-3.3-2.95-9.04,2.95-12.86Z"/></g><path class="cls-1" d="M2098.2,335.42c-10.35-26.71-25.04-49.68-44.08-68.92-19.09-19.24-41.86-34.13-68.32-44.69-26.51-10.55-55.69-15.85-87.55-15.85h-183.19v434.64h183.19c32.26,0,61.55-5.25,87.86-15.8,26.31-10.55,48.93-25.45,68.01-44.74,19.04-19.24,33.73-42.11,44.08-68.62,10.35-26.46,15.5-55.84,15.5-88.16s-5.15-61.15-15.5-87.86ZM1998.53,473.87c-5.2,15.15-12.62,28.17-22.37,39.13-9.69,10.96-21.41,19.34-35.09,25.14-13.63,5.81-28.93,8.68-45.95,8.68h-73.87v-247.11h73.87c17.02,0,32.31,2.88,45.95,8.68,13.68,5.81,25.4,14.19,35.09,25.14,9.74,10.96,17.17,24.03,22.37,39.13,5.15,15.1,7.78,31.96,7.78,50.59s-2.63,35.5-7.78,50.59ZM997.67,350.31v276.55h113.15v-276.55h-113.15ZM1142.18,260.29l-2.93-1.97-61.35,48.98,17.57,12.62c3.38,2.52,8.23,1.87,10.86-1.41l37.57-46.55c2.98-3.64,2.12-8.99-1.72-11.66ZM1129.76,232.42l-153.75-111.03c-2.83-2.07-6.11-3.03-9.34-3.03-4.7,0-9.34,2.02-12.52,5.96l-50.49,62.91c-5.76,7.17-4.29,17.72,3.13,23.02l136.08,97.15c2.88,2.07,6.82,1.97,9.59-.25l77.66-62c4.09-3.28,3.94-9.64-.35-12.72ZM1065.18,267.66c-12.02,0-21.76-9.74-21.76-21.81s9.74-21.76,21.76-21.76,21.76,9.74,21.76,21.76-9.74,21.81-21.76,21.81ZM564.05,106.69v520.12h113.15V106.69h-113.15ZM936.02,250.74l-6.21,8.84c-2.58,3.69-1.67,8.68,1.97,11.21l5.5,3.79c-8.99,8.68-21,13.58-33.58,13.58h-12.88V106.69h-113.15v520.17h113.15v-290.73h8.68c28.73,0,56.8-12.07,76.7-34.49l8.03,5.6c3.64,2.52,8.68,1.57,11.16-2.07l5.45-8.08-64.83-46.35ZM1300.93,364.1l-.4-63.37v-91.44L1861.19,47.46l-13.68-47.46-547.89,158.14c-.5-2.07-1.36-4.14-2.68-6.87-.5-.96-1.06-2.02-1.67-3.23-.66-1.21-6.51-9.54-6.61-9.64-5.55-5.81-.56-7.78-12.37-7.78h-89.02v404.69h.56l.15,100.38,112.75-.45,1.06-157.94,230.24.05-.3-113.41-230.8.15ZM1844.83,4.75l11.56,40.14c-22.32,6.41-17.27,5.6-33.02-7.67l-19.49-20.65,40.95-11.82ZM1774.49,68.52l-55.79,16.11c-20.55-20.95-10.86-6.82-33.93-33.68,27.22-7.88,61.1-29.49,89.72,17.57ZM1655.38,102.9l-55.79,16.11-24.94-22.01c-6.16-6.16-5.86-7.98-8.99-11.71,27.22-7.83,61.1-29.44,89.72,17.62ZM1536.27,137.24l-55.79,16.16c-20.55-20.95-10.91-6.82-33.93-33.73,27.22-7.83,61.1-29.44,89.72,17.57ZM1417.16,171.62l-55.84,16.16c-6.82-7.02-9.19-9.09-16.46-15l-17.42-18.73c27.22-7.83,61.1-29.44,89.72,17.57ZM1260.08,205.81l-56.65.15v-26.76h56.65v26.61ZM1345.31,219.09l-.76,112.6,270.38.76.05-113.05-269.68-.3ZM1614.74,522.29l-270.18.81,1.06,112.34,269.38-.56-.25-112.6ZM317.8,99.67h-109.16L0,626.86h126.53l37.77-100.93h193.28l37.82,100.93h129.51L317.8,99.67ZM200.91,428.02l25.04-67c4.49-12.57,8.89-24.74,13.18-36.56,4.24-11.76,8.38-23.68,12.42-35.75,3.53-10.75,6.97-21.51,10.1-32.21,2.98,10.15,6.16,20.6,9.49,31.46,3.99,13.08,8.13,25.6,12.42,37.67,4.24,12.02,8.13,23.33,11.66,33.88l25.65,68.52h-119.97Z"/></g></g></svg>