<?xml version="1.0" encoding="UTF-8"?><svg xmlns="http://www.w3.org/2000/svg" xmlns:xlink="http://www.w3.org/1999/xlink" id="Layer_2" data-name="Layer 2" viewBox="0 0 673.92 635.69"><defs><style> .cls-1 { fill: url(#linear-gradient); fill-rule: evenodd; } </style><linearGradient id="linear-gradient" x1="-194.5" y1="486.92" x2="1150.61" y2="143.81" gradientUnits="userSpaceOnUse"><stop offset="0" stop-color="#fbab27"/><stop offset=".25" stop-color="#d0202f"/><stop offset=".72" stop-color="#f04c25"/><stop offset=".89" stop-color="#d0202f"/></linearGradient></defs><g id="Layer_1-2" data-name="Layer 1"><path class="cls-1" d="M427.72,634.88l-269.37.56-1.06-112.34,270.18-.81.25,112.59ZM158.04,219.08l-.75,112.6,270.38.76.05-113.05-269.68-.31ZM344.46,363.94l.3,113.41-230.24-.05-1.06,157.94-112.75.45-.15-100.38h-.56V130.62h89.02c11.82,0,6.82,1.97,12.37,7.78.1.1,5.96,8.43,6.62,9.64.6,1.21,1.16,2.27,1.66,3.23,1.31,2.73,2.17,4.8,2.68,6.87L660.24,0l13.68,47.46L113.26,209.29v91.44l.4,63.37,230.8-.16ZM616.61,16.56l19.49,20.65c15.76,13.28,10.71,14.09,33.02,7.68l-11.56-40.15-40.95,11.82ZM497.5,50.94c23.08,26.87,13.38,12.73,33.93,33.68l55.8-16.1c-28.63-47.06-62.51-25.45-89.73-17.58ZM378.39,85.28c3.13,3.74,2.83,5.55,8.99,11.71l24.94,22.02,55.8-16.11c-28.63-47.06-62.51-25.45-89.73-17.62ZM259.28,119.66c23.02,26.92,13.38,12.78,33.93,33.73l55.79-16.15c-28.62-47.01-62.5-25.4-89.72-17.58ZM140.17,154.05l17.42,18.73c7.27,5.91,9.64,7.98,16.46,15l55.84-16.16c-28.63-47.01-62.51-25.4-89.72-17.57ZM72.81,179.19H16.16v26.77l56.65-.16v-26.61Z"/></g></svg>