<svg width="70" height="70" viewBox="0 0 70 70" fill="none" xmlns="http://www.w3.org/2000/svg">
<rect width="70" height="70" rx="35" fill="#2F2BEB"/>
<path d="M42.9373 28.6618C41.5415 19.4575 28.4593 19.4554 27.0628 28.6619C26.159 28.6243 25.2567 28.7679 24.4092 29.0844C23.5617 29.4008 22.7861 29.8836 22.1281 30.5043C21.47 31.1251 20.9428 31.8712 20.5775 32.6988C20.2122 33.5264 20.0162 34.4187 20.001 35.3233C19.9858 36.2278 20.1517 37.1262 20.489 37.9656C20.8263 38.805 21.3281 39.5684 21.965 40.2109C22.6018 40.8534 23.3608 41.362 24.1971 41.7067C25.0335 42.0515 25.9304 42.2253 26.835 42.2182H28.5001C28.7629 42.2145 29.0137 42.1076 29.1983 41.9204C29.3829 41.7333 29.4864 41.481 29.4864 41.2181C29.4864 40.9553 29.3829 40.703 29.1983 40.5159C29.0137 40.3287 28.7629 40.2218 28.5 40.2182H26.835C26.1609 40.2248 25.493 40.0891 24.875 39.8198C24.257 39.5505 23.7028 39.1537 23.2488 38.6554C22.7948 38.1571 22.4511 37.5685 22.2402 36.9282C22.0294 36.2879 21.9562 35.6103 22.0254 34.9397C22.0946 34.2691 22.3046 33.6207 22.6417 33.0369C22.9788 32.4531 23.4354 31.9471 23.9816 31.552C24.5279 31.1569 25.1514 30.8816 25.8113 30.7441C26.4713 30.6067 27.1529 30.6101 27.8114 30.7543C27.9657 30.783 28.1246 30.7754 28.2755 30.7319C28.4263 30.6884 28.565 30.6104 28.6804 30.504C28.7958 30.3975 28.8847 30.2657 28.9402 30.1188C28.9957 29.972 29.0162 29.8142 29.0001 29.6581C29.3306 21.781 40.6636 21.7784 40.9999 29.6489C40.9825 29.8057 41.0021 29.9644 41.0571 30.1123C41.112 30.2602 41.2008 30.3931 41.3164 30.5006C41.4319 30.608 41.571 30.6869 41.7225 30.7309C41.874 30.775 42.0337 30.783 42.1888 30.7543C42.8474 30.6101 43.5289 30.6067 44.1889 30.7441C44.8489 30.8816 45.4724 31.1569 46.0186 31.552C46.5648 31.9471 47.0214 32.4531 47.3585 33.0369C47.6956 33.6207 47.9056 34.2691 47.9748 34.9397C48.044 35.6103 47.9707 36.2879 47.7599 36.9282C47.5491 37.5685 47.2054 38.1571 46.7513 38.6554C46.2973 39.1537 45.7431 39.5505 45.1251 39.8198C44.5071 40.0891 43.8392 40.2248 43.1651 40.2182H41.5001C41.2374 40.222 40.9867 40.329 40.8023 40.5161C40.6179 40.7033 40.5145 40.9554 40.5145 41.2182C40.5145 41.4809 40.6179 41.7331 40.8023 41.9202C40.9868 42.1073 41.2374 42.2144 41.5001 42.2182H43.1651C44.0697 42.2253 44.9666 42.0514 45.803 41.7067C46.6393 41.3619 47.3983 40.8533 48.0351 40.2108C48.6719 39.5683 49.1737 38.8049 49.511 37.9655C49.8483 37.1261 50.0142 36.2277 49.999 35.3232C49.9838 34.4187 49.7878 33.5264 49.4225 32.6988C49.0572 31.8712 48.53 31.1251 47.872 30.5043C47.2139 29.8836 46.4384 29.4008 45.5909 29.0843C44.7434 28.7679 43.8412 28.6242 42.9373 28.6618Z" fill="white"/>
<path d="M32.2082 34.0118C32.0193 33.8264 31.7652 33.7225 31.5006 33.7225C31.2359 33.7225 30.9818 33.8264 30.7929 34.0118L28.2935 36.5112C28.1568 36.6522 28.0644 36.8301 28.0276 37.0231C27.9908 37.216 28.0112 37.4155 28.0864 37.5969C28.1615 37.7784 28.2881 37.9339 28.4506 38.0443C28.613 38.1546 28.8042 38.2151 29.0006 38.2182C29.5543 38.2819 30.1367 37.4503 30.5006 37.1323V47.2182C30.5006 47.4834 30.6059 47.7378 30.7934 47.9253C30.981 48.1128 31.2353 48.2182 31.5006 48.2182C31.7658 48.2182 32.0201 48.1128 32.2077 47.9253C32.3952 47.7378 32.5006 47.4834 32.5006 47.2182V37.1323C32.8694 37.4539 33.4413 38.2786 34.0006 38.2182C34.1969 38.2151 34.3881 38.1547 34.5506 38.0443C34.713 37.9339 34.8396 37.7784 34.9148 37.5969C34.9899 37.4154 35.0103 37.216 34.9735 37.023C34.9367 36.8301 34.8442 36.6522 34.7075 36.5112L32.2082 34.0118Z" fill="white"/>
<path d="M37.5003 44.8041L36.7073 44.0111C36.5189 43.8281 36.266 43.7267 36.0034 43.7286C35.7407 43.7305 35.4893 43.8357 35.3036 44.0215C35.1179 44.2072 35.0127 44.4586 35.0108 44.7212C35.0088 44.9839 35.1103 45.2368 35.2933 45.4252L37.7926 47.9245C37.9815 48.11 38.2356 48.2139 38.5003 48.2139C38.765 48.2139 39.0191 48.11 39.208 47.9245L41.7073 45.4252C41.8903 45.2367 41.9917 44.9838 41.9898 44.7212C41.9878 44.4586 41.8826 44.2072 41.6969 44.0215C41.5112 43.8358 41.2598 43.7306 40.9972 43.7287C40.7346 43.7267 40.4817 43.8282 40.2932 44.0111L39.5003 44.8041V34.7181C39.5003 34.4529 39.395 34.1986 39.2074 34.011C39.0199 33.8235 38.7655 33.7181 38.5003 33.7181C38.2351 33.7181 37.9807 33.8235 37.7932 34.011C37.6057 34.1986 37.5003 34.4529 37.5003 34.7181V44.8041Z" fill="white"/>
<path d="M38.4999 32.2181C38.7626 32.2142 39.0132 32.1072 39.1975 31.92C39.3819 31.7329 39.4852 31.4808 39.4852 31.2181C39.4852 30.9554 39.3818 30.7033 39.1975 30.5162C39.0131 30.3291 38.7626 30.222 38.4999 30.2181C38.2373 30.222 37.9867 30.3291 37.8023 30.5162C37.618 30.7034 37.5146 30.9555 37.5146 31.2182C37.5147 31.4808 37.618 31.733 37.8024 31.9201C37.9867 32.1072 38.2373 32.2142 38.4999 32.2181Z" fill="white"/>
</svg>
