<svg width="70" height="70" viewBox="0 0 70 70" fill="none" xmlns="http://www.w3.org/2000/svg">
<rect width="70" height="70" rx="35" fill="#2F2BEB"/>
<g clip-path="url(#clip0_1_6878)">
<path d="M49.9999 25.8751C49.9999 23.1854 47.8107 20.9961 45.1209 20.9961H24.879C22.1893 20.9961 20 23.1854 20 25.8751V39.0897C20 41.7561 22.1658 43.9687 24.879 43.9687H31.7629L30.7269 48.2799H27.5571C27.3552 48.2799 27.1913 48.4438 27.1913 48.6458C27.1913 48.8477 27.3552 49.0116 27.5571 49.0116H42.4429C42.6448 49.0116 42.8087 48.8477 42.8087 48.6458C42.8087 48.4438 42.6448 48.2799 42.4429 48.2799H39.2731L38.2371 43.9687H45.121C47.8195 43.9687 49.9824 41.7765 50 39.1219C50 39.1219 49.9971 39.1219 49.9971 39.119C49.9971 39.1102 50 39.1014 50 39.0897V25.8751H49.9999ZM38.5209 48.28H31.479L32.5151 43.9688H37.4849L38.5209 48.28ZM49.2683 38.7532H20.7317V25.8751C20.7317 23.5892 22.5931 21.7278 24.879 21.7278H45.1209C47.4068 21.7278 49.2682 23.5893 49.2682 25.8751V38.7532H49.2683Z" fill="white"/>
<path d="M36.2059 25.6098C36.0207 25.529 35.8049 25.6132 35.724 25.798L31.9274 34.4593C31.8462 34.6443 31.9305 34.8602 32.1155 34.9413C32.1632 34.9622 32.2132 34.9722 32.2621 34.9722C32.403 34.9722 32.5374 34.8903 32.5974 34.7531L36.394 26.0918C36.4751 25.9067 36.3908 25.6909 36.2059 25.6098Z" fill="white"/>
<path d="M37.7443 25.262C37.5869 25.135 37.3568 25.1605 37.2302 25.3181C37.1036 25.4756 37.1287 25.706 37.2862 25.8325L42.8177 30.2748L37.2842 34.7188C37.1267 34.8453 37.1015 35.0756 37.2281 35.2332C37.3004 35.3232 37.4065 35.3699 37.5137 35.3699C37.594 35.3699 37.6749 35.3436 37.7426 35.2893L43.6312 30.5601C43.7175 30.4906 43.7678 30.3857 43.7678 30.2748C43.7678 30.1639 43.7175 30.059 43.6309 29.9895L37.7443 25.262Z" fill="white"/>
<path d="M25.5048 30.2747L31.0363 25.8324C31.1938 25.7059 31.2189 25.4755 31.0923 25.318C30.966 25.1604 30.7356 25.1349 30.5782 25.2618L24.6916 29.9893C24.605 30.0588 24.5547 30.1637 24.5547 30.2746C24.5547 30.3855 24.605 30.4904 24.6913 30.5599L30.5799 35.2891C30.6476 35.3434 30.7285 35.3697 30.8088 35.3697C30.916 35.3697 31.0221 35.323 31.0943 35.233C31.2209 35.0755 31.1958 34.8451 31.0383 34.7186L25.5048 30.2747Z" fill="white"/>
</g>
<defs>
<clipPath id="clip0_1_6878">
<rect width="30" height="30" fill="white" transform="translate(20 20)"/>
</clipPath>
</defs>
</svg>
