<svg width="70" height="70" viewBox="0 0 70 70" fill="none" xmlns="http://www.w3.org/2000/svg">
<rect width="70" height="70" rx="35" fill="#2F2BEB"/>
<g clip-path="url(#clip0_1_6931)">
<path d="M49.375 31.875C49.0294 31.875 48.75 32.1544 48.75 32.5V43.125C48.75 43.47 48.47 43.75 48.125 43.75H21.875C21.53 43.75 21.25 43.47 21.25 43.125V25.625C21.25 25.28 21.53 25 21.875 25H31.25C31.5956 25 31.875 24.7206 31.875 24.375C31.875 24.0294 31.5956 23.75 31.25 23.75H21.875C20.8412 23.75 20 24.5912 20 25.625V43.125C20 44.1588 20.8412 45 21.875 45H48.125C49.1588 45 50 44.1588 50 43.125V32.5C50 32.1544 49.7206 31.875 49.375 31.875Z" fill="white"/>
<path d="M40 48.75H38.75V46.875C38.75 46.5294 38.4706 46.25 38.125 46.25C37.7794 46.25 37.5 46.5294 37.5 46.875V48.75H32.5V46.875C32.5 46.5294 32.2206 46.25 31.875 46.25C31.5294 46.25 31.25 46.5294 31.25 46.875V48.75H30C29.6544 48.75 29.375 49.0294 29.375 49.375C29.375 49.7206 29.6544 50 30 50H40C40.3456 50 40.625 49.7206 40.625 49.375C40.625 49.0294 40.3456 48.75 40 48.75Z" fill="white"/>
<path d="M29.375 39.375C29.0294 39.375 28.75 39.6544 28.75 40C28.75 40.3456 29.0294 40.625 29.375 40.625H45.625C45.9706 40.625 46.25 40.3456 46.25 40C46.25 39.6544 45.9706 39.375 45.625 39.375H29.375Z" fill="white"/>
<path d="M24.375 39.375C24.0294 39.375 23.75 39.6544 23.75 40C23.75 40.3456 24.0294 40.625 24.375 40.625H26.25C26.5956 40.625 26.875 40.3456 26.875 40C26.875 39.6544 26.5956 39.375 26.25 39.375H24.375Z" fill="white"/>
<path d="M33.5269 30.1462L34.5244 30.3456C34.5894 30.5237 34.6612 30.6981 34.7406 30.8681L34.1769 31.7137C33.84 32.2187 33.9069 32.8969 34.3362 33.3256L35.425 34.4137C35.8531 34.8425 36.53 34.9112 37.0362 34.5737L37.8862 34.0075C38.0575 34.0881 38.2306 34.1606 38.4037 34.225L38.6031 35.2237C38.7219 35.8187 39.2488 36.25 39.8556 36.25H41.395C42.0019 36.25 42.5281 35.8187 42.6475 35.2231L42.8469 34.225C43.025 34.16 43.1994 34.0881 43.3694 34.0094L44.2156 34.5737C44.72 34.9087 45.3981 34.8419 45.8262 34.4131L46.915 33.325C47.3444 32.8956 47.4112 32.2181 47.0744 31.7131L46.5081 30.8637C46.5894 30.6925 46.6619 30.5187 46.7262 30.3462L47.7244 30.1462C48.3187 30.0275 48.75 29.5012 48.75 28.8944V27.3544C48.75 26.7481 48.3187 26.2219 47.7231 26.1025L46.7256 25.9031C46.6606 25.7244 46.5887 25.5506 46.51 25.3806L47.0731 24.535C47.41 24.03 47.3431 23.3519 46.9137 22.9231L45.825 21.835C45.3969 21.4069 44.72 21.3375 44.2137 21.675L43.3637 22.2412C43.1925 22.1606 43.0194 22.0881 42.8462 22.0237L42.6469 21.025C42.5281 20.4313 42.0012 20 41.3944 20H39.855C39.2481 20 38.7219 20.4312 38.6025 21.0262L38.4031 22.0244C38.2287 22.0887 38.0544 22.1612 37.8837 22.2419L37.035 21.675C36.53 21.3394 35.8519 21.4069 35.4244 21.8356L34.3356 22.9237C33.9062 23.3531 33.8394 24.0306 34.1762 24.5356L34.7431 25.385C34.6631 25.5556 34.5906 25.7287 34.5269 25.9025L33.5263 26.1025C32.9313 26.2219 32.5 26.7487 32.5 27.355V28.895C32.5 29.5006 32.9312 30.0275 33.5269 30.1462ZM33.7719 27.3287L35.1275 27.0575C35.3537 27.0125 35.5375 26.845 35.6037 26.6237C35.7031 26.2906 35.8419 25.9594 36.0144 25.6381C36.1244 25.435 36.1125 25.1869 35.9844 24.995L35.2188 23.8081L36.3419 22.7162L37.4931 23.4844C37.6856 23.6131 37.9337 23.6256 38.1375 23.5137C38.4575 23.3406 38.7894 23.2019 39.1231 23.1025C39.345 23.0369 39.5125 22.8537 39.5575 22.6262L39.8556 21.25L41.4219 21.2712L41.6919 22.625C41.7369 22.8519 41.9044 23.035 42.1256 23.1012C42.4525 23.1987 42.785 23.3381 43.1112 23.5137C43.3144 23.6237 43.5631 23.6119 43.7544 23.4837L44.9412 22.7187L46.0331 23.8419L45.2681 24.9894C45.1394 25.1825 45.1281 25.43 45.2387 25.6337C45.405 25.9406 45.5425 26.2737 45.6469 26.6237C45.7131 26.845 45.8962 27.0119 46.1231 27.0569L47.4769 27.3281L47.5 27.355L47.4781 28.9212L46.125 29.1919C45.8981 29.2369 45.715 29.4044 45.6487 29.6256C45.5512 29.9519 45.4125 30.2837 45.2356 30.6106C45.1256 30.8144 45.1375 31.0625 45.2656 31.2544L46.0312 32.4412L44.9081 33.5331L43.7606 32.7675C43.5687 32.6394 43.3206 32.6281 43.1169 32.7375C42.8087 32.9044 42.4756 33.0419 42.1262 33.1462C41.905 33.2125 41.7381 33.3956 41.6931 33.6225L41.3944 35L39.8281 34.9781L39.5575 33.6244C39.5125 33.3975 39.345 33.2144 39.1237 33.1481C38.7969 33.0506 38.4644 32.9112 38.1381 32.7356C38.0456 32.6856 37.9431 32.6606 37.8412 32.6606C37.72 32.6606 37.5987 32.6962 37.4944 32.7656L36.3075 33.5306L35.2156 32.4075L35.9812 31.26C36.11 31.0669 36.1212 30.8194 36.0106 30.6156C35.8431 30.3069 35.7062 29.9744 35.6019 29.6256C35.5356 29.4044 35.3525 29.2375 35.1256 29.1925L33.75 28.8944L33.7719 27.3287Z" fill="white"/>
<path d="M40.625 31.875C42.6931 31.875 44.375 30.1931 44.375 28.125C44.375 27.8725 44.35 27.62 44.3006 27.3756C44.2325 27.0375 43.9031 26.8188 43.5637 26.8869C43.2256 26.9556 43.0062 27.2856 43.075 27.6237C43.1087 27.7869 43.125 27.9556 43.125 28.125C43.125 29.5037 42.0037 30.625 40.625 30.625C39.2462 30.625 38.125 29.5037 38.125 28.125C38.125 26.7462 39.2462 25.625 40.625 25.625C40.7944 25.625 40.9625 25.6412 41.1262 25.675C41.4631 25.7437 41.7937 25.5244 41.8631 25.1863C41.9312 24.8481 41.7125 24.5188 41.3744 24.4494C41.1294 24.4 40.8769 24.375 40.625 24.375C38.5569 24.375 36.875 26.0569 36.875 28.125C36.875 30.1931 38.5569 31.875 40.625 31.875Z" fill="white"/>
</g>
<defs>
<clipPath id="clip0_1_6931">
<rect width="30" height="30" fill="white" transform="translate(20 20)"/>
</clipPath>
</defs>
</svg>
