<svg width="60" height="60" viewBox="0 0 60 60" fill="none" xmlns="http://www.w3.org/2000/svg">
<g clip-path="url(#clip0_1_13992)">
<path d="M51.5238 56.4708L27.925 43.9758C27.31 43.6495 26.56 43.6945 25.9788 44.0883L7.93378 56.5833C7.25878 57.052 6.96628 57.9033 7.21378 58.687C7.45378 59.4633 8.18128 59.9995 8.99878 59.9995H50.6425C51.5013 59.9995 52.255 59.4145 52.4613 58.5745C52.6713 57.7383 52.2813 56.872 51.5238 56.4708Z" fill="#2F2BEB"/>
<path d="M59.4212 52.9085L53.8712 27.9223C53.7362 27.311 53.3049 26.8123 52.7237 26.5835C52.1387 26.3548 51.4824 26.4335 50.9724 26.786L32.9237 39.281C32.3837 39.656 32.0799 40.2823 32.1212 40.931C32.1587 41.5873 32.5374 42.1723 33.1149 42.476L56.7099 54.971C56.9874 55.1173 57.2874 55.1923 57.5874 55.1923C57.9887 55.1923 58.3899 55.0648 58.7237 54.806C59.3049 54.3635 59.5787 53.6248 59.4212 52.9085Z" fill="#2F2BEB"/>
<path d="M46.3637 23.8162C46.1162 23.0325 45.3925 22.5 44.5712 22.5H27.4562C24.3437 28.1363 19.7387 33.525 17.845 35.6325C16.78 36.8175 15.2537 37.5 13.66 37.5C12.0662 37.5 10.54 36.8175 9.47498 35.6325C8.74373 34.8187 7.61123 33.5175 6.31373 31.905L1.77623 52.3275C1.61123 53.0813 1.92248 53.8575 2.55998 54.2888C2.87498 54.5025 3.24248 54.6075 3.60623 54.6075C3.98123 54.6075 4.35248 54.4987 4.67498 54.2737L45.6362 25.9125C46.315 25.4512 46.6037 24.6 46.3637 23.8162Z" fill="#2F2BEB"/>
<path d="M13.6599 0C6.42241 0 0.534912 5.8875 0.534912 13.125C0.534912 19.86 11.0649 31.7887 12.2649 33.1275C12.6212 33.5212 13.1274 33.75 13.6599 33.75C14.1924 33.75 14.6987 33.5212 15.0549 33.1275C16.2549 31.7887 26.7849 19.86 26.7849 13.125C26.7849 5.8875 20.8974 0 13.6599 0ZM13.6599 18.75C10.5549 18.75 8.03491 16.23 8.03491 13.125C8.03491 10.02 10.5549 7.5 13.6599 7.5C16.7649 7.5 19.2849 10.02 19.2849 13.125C19.2849 16.23 16.7649 18.75 13.6599 18.75Z" fill="#2F2BEB"/>
</g>
<defs>
<clipPath id="clip0_1_13992">
<rect width="60" height="60" fill="white"/>
</clipPath>
</defs>
</svg>
