<svg width="60" height="60" viewBox="0 0 60 60" fill="none" xmlns="http://www.w3.org/2000/svg">
<g clip-path="url(#clip0_1_14010)">
<path d="M0.117188 26.2891V57.3821L20.1055 41.8356L0.117188 26.2891Z" fill="#2F2BEB"/>
<path d="M52.2656 18.2002V27.7599L58.1687 23.1686L52.2656 18.2002Z" fill="#2F2BEB"/>
<path d="M31.132 0.412822C30.4779 -0.137607 29.5223 -0.137607 28.8682 0.412822L24.207 4.33591H35.793L31.132 0.412822Z" fill="#2F2BEB"/>
<path d="M7.73439 18.2002L1.8313 23.1686L7.73439 27.7599V18.2002Z" fill="#2F2BEB"/>
<path d="M23.5718 43.5938L2.47803 60H57.5219L36.4282 43.5938H23.5718Z" fill="#2F2BEB"/>
<path d="M39.8943 41.8357L59.8827 57.3823V26.2891L39.8943 41.8357Z" fill="#2F2BEB"/>
<path d="M29.5569 21.0195C28.1311 21.0195 26.6562 22.4059 26.6562 24.7257C26.6562 27.0842 28.0948 28.6686 29.4385 28.6686C30.8534 28.6686 32.0137 27.0131 32.0971 24.9316L32.0994 24.4897C32.0362 22.4361 31.0086 21.0195 29.5569 21.0195Z" fill="#2F2BEB"/>
<path d="M36.4282 40.0781L48.75 30.4944V9.60938C48.75 8.63859 47.963 7.85156 46.9922 7.85156H13.0078C12.037 7.85156 11.25 8.63859 11.25 9.60938V30.4945L23.5718 40.0781H36.4282ZM17.6084 28.1142C16.7689 24.9226 17.1911 21.5579 18.7971 18.6401C20.4025 15.7233 23.0186 13.5656 26.1635 12.5645C29.4814 11.508 33.0045 11.8193 36.0831 13.4408C39.1622 15.0625 41.4117 17.7901 42.4171 21.1214C42.4226 21.1395 42.4277 21.1577 42.4325 21.176C43.1007 23.6791 42.9029 26.0421 41.7911 28.8376C41.0395 30.7271 39.197 32.7463 36.2796 32.7463C35.2212 32.7463 34.2062 32.3122 33.4218 31.5239C33.2361 31.3373 33.0689 31.1341 32.9191 30.9189C31.9339 31.7202 30.7392 32.1838 29.4387 32.1838C27.7397 32.1838 26.0878 31.359 24.9067 29.9209C23.7679 28.5343 23.1408 26.6892 23.1408 24.7253C23.1408 22.7525 23.808 20.9271 25.0198 19.5854C26.2146 18.2624 27.8685 17.5035 29.557 17.5035C30.4857 17.5035 31.3683 17.7248 32.1613 18.1419C32.315 17.3271 33.0293 16.7115 33.887 16.7115H33.8959C34.8667 16.7163 35.6498 17.5072 35.645 18.478L35.5966 28.2438C35.5951 28.5437 35.7137 28.8428 35.9139 29.0439C35.9831 29.1136 36.1228 29.2304 36.2796 29.2304C37.698 29.2304 38.322 28.047 38.5242 27.5382C39.3454 25.4737 39.501 23.8482 39.043 22.1096C38.3079 19.6996 36.6758 17.7263 34.4449 16.5513C32.2062 15.3722 29.6435 15.1461 27.2299 15.9143C22.4722 17.4288 19.7394 22.3948 21.0084 27.2198C22.0622 31.2267 25.6841 34.105 29.8162 34.2193C30.7866 34.2462 31.5517 35.0546 31.5247 36.0251C31.4984 36.979 30.7167 37.7343 29.7686 37.7343C29.752 37.7343 29.7356 37.734 29.719 37.7336C26.995 37.6582 24.306 36.6906 22.1473 35.0087C19.9045 33.2617 18.3352 30.8776 17.6084 28.1142Z" fill="#2F2BEB"/>
</g>
<defs>
<clipPath id="clip0_1_14010">
<rect width="60" height="60" fill="white"/>
</clipPath>
</defs>
</svg>
