<svg width="60" height="60" viewBox="0 0 60 60" fill="none" xmlns="http://www.w3.org/2000/svg">
<g clip-path="url(#clip0_1_14025)">
<path d="M60 25V35C60 37.7578 57.7578 40 55 40H53.6387C51.7266 51.332 41.8691 60 30 60C28.8945 60 28 59.1055 28 58C28 56.8945 28.8945 56 30 56C41.0273 56 50 47.0273 50 36V24C50 12.9727 41.0273 4 30 4C18.9727 4 10 12.9727 10 24V38C10 39.1055 9.10547 40 8 40H5C2.24219 40 0 37.7578 0 35V25C0 22.2422 2.24219 20 5 20H6.36133C8.27344 8.66797 18.1309 0 30 0C41.8691 0 51.7266 8.66797 53.6387 20H55C57.7578 20 60 22.2422 60 25ZM30 8C21.1777 8 14 15.1777 14 24V34C14 42.8223 21.1777 50 30 50C38.8223 50 46 42.8223 46 34V24C46 15.1777 38.8223 8 30 8Z" fill="#2F2BEB"/>
</g>
<defs>
<clipPath id="clip0_1_14025">
<rect width="60" height="60" fill="white"/>
</clipPath>
</defs>
</svg>
