<svg width="60" height="60" viewBox="0 0 60 60" fill="none" xmlns="http://www.w3.org/2000/svg">
<g clip-path="url(#clip0_1_2575)">
<path d="M51.524 56.4708L27.9253 43.9758C27.3103 43.6495 26.5603 43.6945 25.979 44.0883L7.93403 56.5833C7.25903 57.052 6.96653 57.9033 7.21403 58.687C7.45403 59.4633 8.18153 59.9995 8.99903 59.9995H50.6428C51.5015 59.9995 52.2553 59.4145 52.4615 58.5745C52.6715 57.7383 52.2815 56.872 51.524 56.4708Z" fill="white"/>
<path d="M59.4209 52.9088L53.8709 27.9225C53.7359 27.3113 53.3047 26.8125 52.7234 26.5838C52.1384 26.355 51.4822 26.4338 50.9722 26.7863L32.9234 39.2813C32.3834 39.6563 32.0797 40.2825 32.1209 40.9313C32.1584 41.5875 32.5372 42.1725 33.1147 42.4763L56.7097 54.9713C56.9872 55.1175 57.2872 55.1925 57.5872 55.1925C57.9884 55.1925 58.3897 55.065 58.7234 54.8063C59.3047 54.3638 59.5784 53.625 59.4209 52.9088Z" fill="white"/>
<path d="M46.3636 23.8162C46.1161 23.0325 45.3924 22.5 44.5711 22.5H27.4561C24.3436 28.1363 19.7386 33.525 17.8449 35.6325C16.7799 36.8175 15.2536 37.5 13.6599 37.5C12.0661 37.5 10.5399 36.8175 9.47486 35.6325C8.74361 34.8187 7.61111 33.5175 6.31361 31.905L1.77611 52.3275C1.61111 53.0813 1.92236 53.8575 2.55986 54.2888C2.87486 54.5025 3.24236 54.6075 3.60611 54.6075C3.98111 54.6075 4.35236 54.4987 4.67486 54.2737L45.6361 25.9125C46.3149 25.4512 46.6036 24.6 46.3636 23.8162Z" fill="white"/>
<path d="M13.6602 0C6.42266 0 0.535156 5.8875 0.535156 13.125C0.535156 19.86 11.0652 31.7887 12.2652 33.1275C12.6214 33.5212 13.1277 33.75 13.6602 33.75C14.1927 33.75 14.6989 33.5212 15.0552 33.1275C16.2552 31.7887 26.7852 19.86 26.7852 13.125C26.7852 5.8875 20.8977 0 13.6602 0ZM13.6602 18.75C10.5552 18.75 8.03516 16.23 8.03516 13.125C8.03516 10.02 10.5552 7.5 13.6602 7.5C16.7652 7.5 19.2852 10.02 19.2852 13.125C19.2852 16.23 16.7652 18.75 13.6602 18.75Z" fill="white"/>
</g>
<defs>
<clipPath id="clip0_1_2575">
<rect width="60" height="60" fill="white"/>
</clipPath>
</defs>
</svg>
