<svg width="80" height="80" viewBox="0 0 80 80" fill="none" xmlns="http://www.w3.org/2000/svg">
<rect width="80" height="80" rx="10" fill="#2F2BEB"/>
<g clip-path="url(#clip0_1_13805)">
<path d="M20.0781 37.5264V58.255L33.4037 47.8907L20.0781 37.5264Z" fill="white"/>
<path d="M54.8438 32.1338V38.5069L58.7791 35.4461L54.8438 32.1338Z" fill="white"/>
<path d="M40.7546 20.2752C40.3185 19.9083 39.6815 19.9083 39.2454 20.2752L36.1379 22.8906H43.8619L40.7546 20.2752Z" fill="white"/>
<path d="M25.1563 32.1338L21.2209 35.4461L25.1563 38.5069V32.1338Z" fill="white"/>
<path d="M35.7146 49.0625L21.6521 60H58.348L44.2855 49.0625H35.7146Z" fill="white"/>
<path d="M46.5962 47.8908L59.9218 58.2552V37.5264L46.5962 47.8908Z" fill="white"/>
<path d="M39.7047 34.0127C38.7542 34.0127 37.771 34.9369 37.771 36.4835C37.771 38.0558 38.7301 39.1121 39.6258 39.1121C40.5691 39.1121 41.3426 38.0084 41.3983 36.6207L41.3997 36.3261C41.3576 34.9571 40.6726 34.0127 39.7047 34.0127Z" fill="white"/>
<path d="M44.2855 46.7188L52.5 40.3296V26.4062C52.5 25.7591 51.9753 25.2344 51.3281 25.2344H28.6719C28.0247 25.2344 27.5 25.7591 27.5 26.4062V40.3297L35.7145 46.7188H44.2855ZM31.7389 38.7428C31.1793 36.6151 31.4607 34.372 32.5314 32.4267C33.6016 30.4822 35.3457 29.0438 37.4423 28.3763C39.6543 27.672 42.003 27.8795 44.0554 28.9605C46.1081 30.0416 47.6078 31.8601 48.278 34.0809C48.2817 34.093 48.2852 34.1052 48.2884 34.1173C48.7338 35.7861 48.602 37.3614 47.8607 39.2251C47.3597 40.4848 46.1313 41.8309 44.1864 41.8309C43.4808 41.8309 42.8041 41.5415 42.2812 41.0159C42.1574 40.8916 42.0459 40.7561 41.9461 40.6126C41.2893 41.1468 40.4928 41.4559 39.6258 41.4559C38.4931 41.4559 37.3919 40.906 36.6045 39.9473C35.8452 39.0229 35.4272 37.7928 35.4272 36.4835C35.4272 35.1684 35.872 33.9514 36.6798 33.057C37.4764 32.1749 38.579 31.669 39.7047 31.669C40.3238 31.669 40.9122 31.8166 41.4409 32.0946C41.5434 31.5514 42.0195 31.141 42.5913 31.141H42.5973C43.2445 31.1442 43.7666 31.6715 43.7634 32.3187L43.7311 38.8292C43.7301 39.0291 43.8091 39.2285 43.9426 39.3626C43.9888 39.4091 44.0819 39.487 44.1864 39.487C45.132 39.487 45.548 38.698 45.6828 38.3588C46.2302 36.9825 46.334 35.8988 46.0287 34.7398C45.5386 33.133 44.4505 31.8175 42.9633 31.0342C41.4708 30.2481 39.7623 30.0974 38.1533 30.6095C34.9815 31.6192 33.1596 34.9298 34.0056 38.1466C34.7081 40.8178 37.1227 42.7366 39.8775 42.8129C40.5244 42.8308 41.0345 43.3698 41.0165 44.0167C40.9989 44.6527 40.4778 45.1562 39.8457 45.1562C39.8347 45.1562 39.8238 45.156 39.8127 45.1557C37.9966 45.1055 36.204 44.4604 34.7648 43.3391C33.2697 42.1745 32.2234 40.5851 31.7389 38.7428Z" fill="white"/>
</g>
<defs>
<clipPath id="clip0_1_13805">
<rect width="40" height="40" fill="white" transform="translate(20 20)"/>
</clipPath>
</defs>
</svg>
