<svg width="80" height="80" viewBox="0 0 80 80" fill="none" xmlns="http://www.w3.org/2000/svg">
<rect width="80" height="80" rx="10" fill="#2F2BEB"/>
<g clip-path="url(#clip0_1_13786)">
<path d="M54.349 57.6475L38.6165 49.3175C38.2065 49.1 37.7065 49.13 37.319 49.3925L25.289 57.7225C24.839 58.035 24.644 58.6025 24.809 59.125C24.969 59.6425 25.454 60 25.999 60H53.7615C54.334 60 54.8365 59.61 54.974 59.05C55.114 58.4925 54.854 57.915 54.349 57.6475Z" fill="white"/>
<path d="M59.6141 55.272L55.9141 38.6145C55.8241 38.207 55.5366 37.8745 55.1491 37.722C54.7591 37.5695 54.3216 37.622 53.9816 37.857L41.9491 46.187C41.5891 46.437 41.3866 46.8545 41.4141 47.287C41.4391 47.7245 41.6916 48.1145 42.0766 48.317L57.8066 56.647C57.9916 56.7445 58.1916 56.7945 58.3916 56.7945C58.6591 56.7945 58.9266 56.7095 59.1491 56.537C59.5366 56.242 59.7191 55.7495 59.6141 55.272Z" fill="white"/>
<path d="M50.9092 35.8775C50.7442 35.355 50.2617 35 49.7142 35H38.3042C36.2292 38.7575 33.1592 42.35 31.8967 43.755C31.1867 44.545 30.1692 45 29.1067 45C28.0442 45 27.0267 44.545 26.3167 43.755C25.8292 43.2125 25.0742 42.345 24.2092 41.27L21.1842 54.885C21.0742 55.3875 21.2817 55.905 21.7067 56.1925C21.9167 56.335 22.1617 56.405 22.4042 56.405C22.6542 56.405 22.9017 56.3325 23.1167 56.1825L50.4242 37.275C50.8767 36.9675 51.0692 36.4 50.9092 35.8775Z" fill="white"/>
<path d="M29.1067 20C24.2817 20 20.3567 23.925 20.3567 28.75C20.3567 33.24 27.3767 41.1925 28.1767 42.085C28.4142 42.3475 28.7517 42.5 29.1067 42.5C29.4617 42.5 29.7992 42.3475 30.0367 42.085C30.8367 41.1925 37.8567 33.24 37.8567 28.75C37.8567 23.925 33.9317 20 29.1067 20ZM29.1067 32.5C27.0367 32.5 25.3567 30.82 25.3567 28.75C25.3567 26.68 27.0367 25 29.1067 25C31.1767 25 32.8567 26.68 32.8567 28.75C32.8567 30.82 31.1767 32.5 29.1067 32.5Z" fill="white"/>
</g>
<defs>
<clipPath id="clip0_1_13786">
<rect width="40" height="40" fill="white" transform="translate(20 20)"/>
</clipPath>
</defs>
</svg>
