<svg width="54" height="40" viewBox="0 0 54 40" fill="none" xmlns="http://www.w3.org/2000/svg">
<path d="M20.25 0H5.0625C2.27087 0 0 2.24283 0 5V20C0 22.7572 2.27087 25 5.0625 25H11.8743L9.31255 38.0151C9.21615 38.5042 9.34634 39.0096 9.66686 39.3937C9.98738 39.7778 10.4645 40 10.9688 40H16.4358C17.9033 40 19.2077 39.0519 19.6518 37.679L24.5643 26.1702C24.5923 26.1043 24.6162 26.0368 24.6352 25.9684C25.0851 24.3717 25.3125 22.7205 25.3125 21.0612V5C25.3125 2.24283 23.0416 0 20.25 0Z" fill="#2BC8EB"/>
<path d="M48.9377 0H33.7502C30.9586 0 28.6877 2.24283 28.6877 5V20C28.6877 22.7572 30.9586 25 33.7502 25H40.5629L38.0003 38.0151C37.9031 38.5042 38.0333 39.0096 38.3546 39.3937C38.6743 39.7778 39.1522 40 39.6565 40H45.1244C46.5927 40 47.8962 39.0519 48.3395 37.6782L53.2521 26.1702C53.2801 26.1043 53.3031 26.0368 53.3229 25.9684C53.7728 24.3701 54.0002 22.7189 54.0002 21.0612V5C54.0002 2.24283 51.7294 0 48.9377 0Z" fill="#2BC8EB"/>
</svg>
