<svg width="13" height="15" viewBox="0 0 13 15" fill="none" xmlns="http://www.w3.org/2000/svg">
<path d="M6.5 7.75C5.24219 7.75 4.09375 7.09375 3.46484 6C2.83594 4.93359 2.83594 3.59375 3.46484 2.5C4.09375 1.43359 5.24219 0.75 6.5 0.75C7.73047 0.75 8.87891 1.43359 9.50781 2.5C10.1367 3.59375 10.1367 4.93359 9.50781 6C8.87891 7.09375 7.73047 7.75 6.5 7.75ZM5.24219 9.0625H7.73047C10.4375 9.0625 12.625 11.25 12.625 13.957C12.625 14.3945 12.2422 14.75 11.8047 14.75H1.16797C0.730469 14.75 0.375 14.3945 0.375 13.957C0.375 11.25 2.53516 9.0625 5.24219 9.0625Z" fill="#616669"/>
</svg>
