<svg width="14" height="11" viewBox="0 0 14 11" fill="none" xmlns="http://www.w3.org/2000/svg">
<path d="M1.3125 0.5H12.6875C13.3984 0.5 14 1.10156 14 1.8125C14 2.25 13.7812 2.63281 13.4531 2.87891L7.51953 7.33594C7.19141 7.58203 6.78125 7.58203 6.45312 7.33594L0.519531 2.87891C0.191406 2.63281 0 2.25 0 1.8125C0 1.10156 0.574219 0.5 1.3125 0.5ZM0 3.5625L5.93359 8.04688C6.5625 8.51172 7.41016 8.51172 8.03906 8.04688L14 3.5625V9.25C14 10.2344 13.207 11 12.25 11H1.75C0.765625 11 0 10.2344 0 9.25V3.5625Z" fill="#616669"/>
</svg>
