<svg width="300" height="168" viewBox="0 0 300 168" fill="none" xmlns="http://www.w3.org/2000/svg">
<g clip-path="url(#clip0_1_12836)">
<path fill-rule="evenodd" clip-rule="evenodd" d="M9.56938 149.263C14.673 149.263 18.8198 153.391 18.8198 158.473C18.8198 163.871 14.673 168 9.56938 168C4.14673 168 0 163.871 0 158.473C0 153.391 4.14673 149.263 9.56938 149.263ZM290.59 37.3157C295.694 37.3157 299.841 41.4442 299.841 46.5255C299.841 51.6068 295.694 55.7353 290.59 55.7353C285.486 55.7353 281.34 51.6068 281.34 46.5255C281.34 41.4442 285.486 37.3157 290.59 37.3157ZM290.59 0C295.694 0 299.841 4.12854 299.841 9.20983C299.841 14.2911 295.694 18.4197 290.59 18.4197C285.486 18.4197 281.34 14.2911 281.34 9.20983C281.34 4.12854 285.486 0 290.59 0ZM234.29 37.3157C239.713 37.3157 243.86 41.4442 243.86 46.5255C243.86 51.6068 239.713 55.7353 234.29 55.7353C229.187 55.7353 225.04 51.6068 225.04 46.5255C225.04 41.4442 229.187 37.3157 234.29 37.3157ZM234.29 0C239.713 0 243.86 4.12854 243.86 9.20983C243.86 14.2911 239.713 18.4197 234.29 18.4197C229.187 18.4197 225.04 14.2911 225.04 9.20983C225.04 4.12854 229.187 0 234.29 0ZM178.309 37.3157C183.413 37.3157 187.56 41.4442 187.56 46.5255C187.56 51.6068 183.413 55.7353 178.309 55.7353C173.206 55.7353 168.74 51.6068 168.74 46.5255C168.74 41.4442 173.206 37.3157 178.309 37.3157ZM178.309 0C183.413 0 187.56 4.12854 187.56 9.20983C187.56 14.2911 183.413 18.4197 178.309 18.4197C173.206 18.4197 168.74 14.2911 168.74 9.20983C168.74 4.12854 173.206 0 178.309 0ZM122.01 37.3157C127.113 37.3157 131.26 41.4442 131.26 46.5255C131.26 51.6068 127.113 55.7353 122.01 55.7353C116.906 55.7353 112.759 51.6068 112.759 46.5255C112.6 41.4442 116.746 37.3157 122.01 37.3157ZM122.01 0C127.113 0 131.26 4.12854 131.26 9.20983C131.26 14.2911 127.113 18.4197 122.01 18.4197C116.906 18.4197 112.759 14.2911 112.759 9.20983C112.759 4.12854 116.746 0 122.01 0ZM65.5502 37.3157C70.6539 37.3157 75.1196 41.4442 75.1196 46.5255C75.1196 51.6068 70.6539 55.7353 65.5502 55.7353C60.4466 55.7353 56.2998 51.6068 56.2998 46.5255C56.2998 41.4442 60.4466 37.3157 65.5502 37.3157ZM65.5502 0C70.6539 0 75.1196 4.12854 75.1196 9.20983C75.1196 14.2911 70.6539 18.4197 65.5502 18.4197C60.4466 18.4197 56.2998 14.2911 56.2998 9.20983C56.2998 4.12854 60.4466 0 65.5502 0ZM9.56938 37.3157C14.673 37.3157 18.8198 41.4442 18.8198 46.5255C18.8198 51.6068 14.673 55.7353 9.56938 55.7353C4.14673 55.7353 0 51.6068 0 46.5255C0 41.4442 4.14673 37.3157 9.56938 37.3157ZM9.56938 0C14.673 0 18.8198 4.12854 18.8198 9.20983C18.8198 14.2911 14.673 18.5784 9.56938 18.5784C4.14673 18.5784 0 14.4499 0 9.36862C0 4.28733 4.14673 0 9.56938 0ZM290.59 111.947C295.694 111.947 299.841 116.076 299.841 121.157C299.841 126.238 295.694 130.684 290.59 130.684C285.486 130.684 281.34 126.238 281.34 121.157C281.34 116.076 285.486 111.947 290.59 111.947ZM290.59 74.6314C295.694 74.6314 299.841 78.7599 299.841 83.8412C299.841 88.9225 295.694 93.051 290.59 93.051C285.486 93.051 281.34 88.9225 281.34 83.8412C281.34 78.7599 285.486 74.6314 290.59 74.6314ZM234.29 111.947C239.713 111.947 243.86 116.076 243.86 121.157C243.86 126.238 239.713 130.684 234.29 130.684C229.187 130.684 225.04 126.238 225.04 121.157C225.04 116.076 229.187 111.947 234.29 111.947ZM234.29 74.6314C239.713 74.6314 243.86 78.7599 243.86 83.8412C243.86 88.9225 239.713 93.051 234.29 93.051C229.187 93.051 225.04 88.9225 225.04 83.8412C225.04 78.7599 229.187 74.6314 234.29 74.6314ZM178.309 111.947C183.413 111.947 187.56 116.076 187.56 121.157C187.56 126.238 183.413 130.684 178.309 130.684C173.206 130.684 168.74 126.238 168.74 121.157C168.74 116.076 173.206 111.947 178.309 111.947ZM178.309 74.6314C183.413 74.6314 187.56 78.7599 187.56 83.8412C187.56 88.9225 183.413 93.051 178.309 93.051C173.206 93.051 168.74 88.9225 168.74 83.8412C168.74 78.7599 173.206 74.6314 178.309 74.6314ZM122.01 111.947C127.113 111.947 131.26 116.076 131.26 121.157C131.26 126.238 127.113 130.684 122.01 130.684C116.906 130.684 112.759 126.238 112.759 121.157C112.6 116.076 116.746 111.947 122.01 111.947ZM122.01 74.6314C127.113 74.6314 131.26 78.7599 131.26 83.8412C131.26 88.9225 127.113 93.051 122.01 93.051C116.906 93.051 112.759 88.9225 112.759 83.8412C112.759 78.7599 116.746 74.6314 122.01 74.6314ZM65.5502 111.947C70.6539 111.947 75.1196 116.076 75.1196 121.157C75.1196 126.238 70.6539 130.684 65.5502 130.684C60.4466 130.684 56.2998 126.238 56.2998 121.157C56.2998 116.076 60.4466 111.947 65.5502 111.947ZM65.5502 74.6314C70.6539 74.6314 75.1196 78.7599 75.1196 83.8412C75.1196 88.9225 70.6539 93.051 65.5502 93.051C60.4466 93.051 56.2998 88.9225 56.2998 83.8412C56.2998 78.7599 60.4466 74.6314 65.5502 74.6314ZM9.56938 111.947C14.673 111.947 18.8198 116.076 18.8198 121.157C18.8198 126.238 14.673 130.684 9.56938 130.684C4.14673 130.684 0 126.238 0 121.157C0 116.076 4.14673 111.947 9.56938 111.947ZM9.56938 74.6314C14.673 74.6314 18.8198 78.7599 18.8198 83.8412C18.8198 88.9225 14.673 93.2098 9.56938 93.2098C4.14673 93.2098 0 89.0813 0 84C0 78.9187 4.14673 74.6314 9.56938 74.6314ZM290.59 149.263C295.694 149.263 299.841 153.391 299.841 158.473C299.841 163.871 295.694 168 290.59 168C285.486 168 281.34 163.871 281.34 158.473C281.34 153.391 285.486 149.263 290.59 149.263ZM234.29 149.263C239.713 149.263 243.86 153.391 243.86 158.473C243.86 163.871 239.713 168 234.29 168C229.187 168 225.04 163.871 225.04 158.473C225.04 153.391 229.187 149.263 234.29 149.263ZM178.309 149.263C183.413 149.263 187.56 153.391 187.56 158.473C187.56 163.871 183.413 168 178.309 168C173.206 168 168.74 163.871 168.74 158.473C168.74 153.391 173.206 149.263 178.309 149.263ZM122.01 149.263C127.113 149.263 131.26 153.391 131.26 158.473C131.26 163.871 127.113 168 122.01 168C116.906 168 112.759 163.871 112.759 158.473C112.6 153.391 116.746 149.263 122.01 149.263ZM65.5502 149.263C70.6539 149.263 75.1196 153.391 75.1196 158.473C75.1196 163.871 70.6539 168 65.5502 168C60.4466 168 56.2998 163.871 56.2998 158.473C56.2998 153.391 60.4466 149.263 65.5502 149.263Z" fill="#2BC8EB"/>
</g>
<defs>
<clipPath id="clip0_1_12836">
<rect width="300" height="168" fill="white"/>
</clipPath>
</defs>
</svg>
