<svg width="80" height="80" viewBox="0 0 80 80" fill="none" xmlns="http://www.w3.org/2000/svg">
<circle cx="40" cy="40" r="40" fill="#2BC8EB"/>
<g clip-path="url(#clip0_1_12806)">
<path d="M33.0404 25.3297C33.1592 25.5355 33.3756 25.6524 33.5995 25.6524C33.6928 25.6524 33.7875 25.6321 33.8769 25.5894C35.3779 24.8731 36.9904 24.4452 38.6695 24.3176C39.0058 24.292 39.2658 24.0116 39.2658 23.6743V20.6456C39.2658 20.4674 39.192 20.2971 39.0621 20.1751C38.9321 20.0532 38.7577 19.9903 38.5796 20.0018C36.2078 20.1533 33.9282 20.7638 31.8042 21.8163C31.6445 21.8954 31.5247 22.0371 31.473 22.2077C31.4214 22.3783 31.4428 22.5626 31.5318 22.717L33.0404 25.3297ZM37.9755 21.3474V23.0881C36.5504 23.2532 35.1725 23.6187 33.8656 24.1785L33.0001 22.6794C34.5817 21.9753 36.2498 21.5287 37.9755 21.3474ZM23.6873 45.7909C23.7662 45.9508 23.9079 46.0709 24.0786 46.1227C24.1398 46.1412 24.2029 46.1504 24.2656 46.1504C24.3778 46.1504 24.4892 46.1212 24.5882 46.064L27.2133 44.5484C27.5049 44.3801 27.618 44.0159 27.4731 43.712C26.755 42.206 26.325 40.595 26.1948 38.9238C26.1686 38.5879 25.8884 38.3287 25.5516 38.3287H22.522C22.3438 38.3287 22.1734 38.4025 22.0515 38.5325C21.9295 38.6625 21.8668 38.8372 21.8782 39.0151C22.0305 41.3891 22.6392 43.6688 23.6873 45.7909ZM24.9666 39.6189C25.1338 41.0382 25.5011 42.4141 26.0621 43.7231L24.5516 44.5952C23.8506 43.0147 23.4054 41.3461 23.224 39.6189H24.9666ZM22.5221 37.3919H25.5635C25.8982 37.3919 26.1774 37.136 26.2063 36.8025C26.3515 35.1272 26.7849 33.5177 27.4944 32.0188C27.6381 31.7151 27.5247 31.352 27.2338 31.184L24.593 29.6594C24.4386 29.5703 24.2542 29.5489 24.0836 29.6006C23.913 29.6522 23.7713 29.772 23.6922 29.9318C22.6408 32.0551 22.0306 34.3341 21.8782 36.7054C21.8668 36.8833 21.9295 37.0581 22.0515 37.1881C22.1735 37.3181 22.3438 37.3919 22.5221 37.3919ZM24.5557 31.1277L26.0839 32.0101C25.5292 33.3117 25.1602 34.6833 24.9831 36.1016H23.224C23.4059 34.3765 23.8523 32.7088 24.5557 31.1277ZM59.129 39.5438C58.9615 39.1988 58.6191 38.9846 58.2352 38.9845H57.5997C57.6229 38.6102 57.6346 38.2342 57.6346 37.8603C57.6346 33.2806 55.9059 28.9236 52.767 25.5918C49.6419 22.2747 45.4234 20.2893 40.8885 20.0013C40.7109 19.9901 40.536 20.0527 40.4061 20.1747C40.2762 20.2966 40.2025 20.4669 40.2025 20.645V23.6745C40.2025 24.0116 40.462 24.2919 40.7981 24.3177C47.8204 24.8595 53.3213 30.8081 53.3213 37.8602C53.3213 38.2344 53.3059 38.6106 53.2752 38.9843H52.8626C52.4788 38.9843 52.1363 39.1986 51.9689 39.5436C51.8015 39.8885 51.8449 40.2901 52.0824 40.5916L54.7689 44.0038C54.9585 44.2445 55.2428 44.3825 55.5492 44.3824C55.8555 44.3824 56.1397 44.2443 56.3292 44.0037L59.0155 40.5916C59.2528 40.2903 59.2964 39.8887 59.129 39.5438ZM55.5488 42.9091L53.4749 40.2749H53.857C54.1826 40.2749 54.4571 40.0324 54.4972 39.7093C54.5731 39.0992 54.6115 38.4771 54.6115 37.8604C54.6115 34.0897 53.1982 30.4933 50.6317 27.7337C48.2155 25.1357 44.9891 23.5007 41.4927 23.0895V21.3468C49.8747 22.228 56.3444 29.3523 56.3444 37.8604C56.3444 38.4285 56.3154 39.0018 56.258 39.5642C56.2396 39.7458 56.2988 39.9267 56.4211 40.0621C56.5434 40.1975 56.7174 40.2749 56.8999 40.2749H57.6229L55.5488 42.9091ZM25.0626 28.849L27.6944 30.3684C27.7958 30.4269 27.9067 30.4549 28.0165 30.4549C28.2236 30.4549 28.4261 30.3552 28.5503 30.1726C29.4944 28.7849 30.6681 27.6012 32.0387 26.6541C32.3151 26.463 32.3987 26.0917 32.2306 25.8007L30.7215 23.1869C30.6323 23.0324 30.483 22.9217 30.3092 22.8811C30.1352 22.8407 29.9525 22.874 29.8042 22.9732C27.8337 24.2908 26.1665 25.9591 24.8486 27.9318C24.7495 28.0802 24.7163 28.2629 24.7568 28.4367C24.7975 28.6106 24.9081 28.7598 25.0626 28.849ZM29.9558 24.441L30.8218 25.9411C29.6846 26.7963 28.6819 27.8076 27.831 28.9574L26.3164 28.0829C27.3368 26.6825 28.5569 25.4615 29.9558 24.441ZM48.7269 46.2996L42.5068 49.9225C42.2702 50.0602 42.0304 50.1665 41.7834 50.2419C41.8591 50.0895 41.9212 49.9247 41.9685 49.7481C42.2993 48.5134 41.567 47.2248 40.3014 46.8146C40.2737 46.8057 40.2455 46.7986 40.217 46.7934C38.437 46.4724 36.6767 45.8359 35.2622 45.3246C34.769 45.1462 34.3031 44.9778 33.9061 44.8491C32.2788 44.3211 30.8164 44.9696 29.6004 45.6737L25.0543 48.3059L24.6643 47.6169C24.4595 47.2549 24.125 46.9941 23.7225 46.8825C23.3201 46.7711 22.899 46.8224 22.537 47.0272L20.7918 48.0149C20.0428 48.4389 19.7783 49.3931 20.2021 50.1422L25.333 59.208C25.5378 59.57 25.8723 59.8308 26.2748 59.9423C26.414 59.9809 26.5554 60 26.6958 60C26.9613 60 27.2235 59.9316 27.4603 59.7977L29.2055 58.8099C29.5674 58.605 29.8282 58.2706 29.9398 57.8681C30.0514 57.4656 30 57.0446 29.7952 56.6825L29.3117 55.8283L30.2531 55.2847L38.1823 57.4094C38.63 57.5294 39.0756 57.5891 39.5137 57.5891C40.4002 57.5891 41.2565 57.345 42.0394 56.863L53.3273 49.9124C54.3974 49.2536 54.7386 47.5962 54.0432 46.4353C53.7067 45.8732 52.3283 44.2023 48.7269 46.2996ZM28.6965 57.5235C28.6852 57.5642 28.6537 57.6396 28.57 57.687L26.8248 58.6748C26.7412 58.7223 26.6602 58.7103 26.6195 58.699C26.5788 58.6877 26.5033 58.6562 26.4559 58.5725L21.3252 49.5068C21.2529 49.3791 21.2997 49.2101 21.4274 49.1379L23.1727 48.1502C23.2193 48.1239 23.2648 48.1158 23.3032 48.1158C23.3339 48.1158 23.3599 48.1209 23.3781 48.126C23.4188 48.1373 23.4942 48.1687 23.5415 48.2523L28.6724 57.3181C28.7196 57.4019 28.7078 57.4827 28.6965 57.5235ZM52.6509 48.8138L41.3631 55.7643C40.4906 56.3013 39.5329 56.4357 38.5163 56.1631L30.3289 53.9693C30.1635 53.9251 29.9875 53.9482 29.8394 54.0337L28.6761 54.7052L25.6898 49.4287L30.2468 46.7902C31.2655 46.2004 32.3655 45.7056 33.5079 46.0762C33.8845 46.1984 34.3196 46.3557 34.8234 46.5378C36.2713 47.0613 38.0702 47.7117 39.9405 48.0544C40.5396 48.2673 40.8746 48.8451 40.7222 49.414C40.5213 50.1634 39.8912 50.2566 39.3882 50.1993C38.4775 50.0118 37.6104 49.7643 36.693 49.5024C36.2557 49.3776 35.8036 49.2484 35.3386 49.1238C34.9944 49.0318 34.6407 49.2359 34.5484 49.58C34.4562 49.9242 34.6605 50.2779 35.0046 50.3701C35.4594 50.492 35.9064 50.6196 36.3386 50.7431C37.2897 51.0147 39.1787 51.4734 39.1829 51.4741L39.9566 51.6C41.1356 51.7884 42.1822 51.6045 43.1561 51.0374L49.3762 47.4145C51.1168 46.4007 52.4477 46.2824 52.9363 47.0982C53.2702 47.6555 53.1261 48.5212 52.6509 48.8138ZM23.6331 49.8199C23.6828 50.1604 23.4472 50.4768 23.1067 50.5266C22.7662 50.5763 22.4498 50.3407 22.4 50.0001C22.3503 49.6597 22.5859 49.3432 22.9264 49.2934C23.2669 49.2438 23.5832 49.4794 23.6331 49.8199ZM45.2204 31.8149C45.2204 29.2414 43.1267 27.1476 40.5532 27.1476C37.9796 27.1476 35.8859 29.2414 35.8859 31.8149C35.8859 33.3846 36.6656 34.7746 37.8571 35.6211C34.7245 36.649 32.3708 39.425 32.0024 42.8674C31.9829 43.0494 32.0417 43.2311 32.164 43.3672C32.2863 43.5034 32.4608 43.5812 32.6438 43.5812H48.4622C48.6453 43.5812 48.8197 43.5034 48.9421 43.3672C49.0644 43.2311 49.1232 43.0494 49.1037 42.8673C48.7352 39.425 46.3815 36.6491 43.249 35.6211C44.4407 34.7747 45.2204 33.3846 45.2204 31.8149ZM47.709 42.2909H33.3971C34.0924 38.9336 37.0505 36.4829 40.5515 36.4821C40.552 36.4821 40.5526 36.4822 40.5532 36.4822H40.5548C44.0556 36.483 47.0137 38.9336 47.709 42.2909ZM40.5531 35.1918C40.5524 35.1918 40.5517 35.1918 40.551 35.1918C38.69 35.1906 37.1762 33.6762 37.1762 31.8149C37.1762 29.9528 38.6911 28.4379 40.5532 28.4379C42.4152 28.4379 43.9301 29.9528 43.9301 31.8149C43.9301 33.6762 42.4164 35.1907 40.5553 35.1918C40.5545 35.1919 40.5538 35.1918 40.5531 35.1918Z" fill="#222627"/>
</g>
<defs>
<clipPath id="clip0_1_12806">
<rect width="40" height="40" fill="white" transform="translate(20 20)"/>
</clipPath>
</defs>
</svg>
