<svg width="40" height="40" viewBox="0 0 40 40" fill="none" xmlns="http://www.w3.org/2000/svg">
<path d="M36.6667 0.703125H34.6667C34.4899 0.703127 34.3203 0.773233 34.1953 0.898021C34.0702 1.02281 34 1.19206 34 1.36853V4.03017H6V1.36853C6 1.19206 5.92976 1.02281 5.80474 0.898021C5.67971 0.773233 5.51014 0.703127 5.33333 0.703125H3.33333C2.44959 0.704127 1.60232 1.05498 0.97742 1.6787C0.352516 2.30243 0.00100399 3.14809 0 4.03017V26.6541C0.00100399 27.5362 0.352516 28.3818 0.97742 29.0056C1.60232 29.6293 2.44959 29.9801 3.33333 29.9811H4.66667V28.6503H3.33333C2.8029 28.6503 2.29419 28.44 1.91912 28.0656C1.54405 27.6913 1.33333 27.1835 1.33333 26.6541C1.33333 26.1247 1.54405 25.6169 1.91912 25.2425C2.29419 24.8682 2.8029 24.6579 3.33333 24.6579H5.33333C5.51014 24.6579 5.67971 24.5878 5.80474 24.463C5.92976 24.3382 6 24.1689 6 23.9925V5.36099H34V23.9925C34 24.1689 34.0702 24.3382 34.1953 24.463C34.3203 24.5878 34.4899 24.6579 34.6667 24.6579H36.6667C37.1971 24.6579 37.7058 24.8682 38.0809 25.2425C38.4559 25.6169 38.6667 26.1247 38.6667 26.6541C38.6667 27.1835 38.4559 27.6913 38.0809 28.0656C37.7058 28.44 37.1971 28.6503 36.6667 28.6503H34V29.9811H36.6667C37.5504 29.9801 38.3977 29.6293 39.0226 29.0056C39.6475 28.3818 39.999 27.5362 40 26.6541V4.03017C39.999 3.14809 39.6475 2.30243 39.0226 1.6787C38.3977 1.05498 37.5504 0.704127 36.6667 0.703125ZM4.66667 23.327H3.33333C2.61172 23.3263 1.90954 23.5604 1.33333 23.994V4.03017C1.33393 3.50092 1.54484 2.99352 1.91978 2.61929C2.29472 2.24505 2.80308 2.03454 3.33333 2.03394H4.66667V23.327ZM36.6667 23.327H35.3333V2.03394H36.6667C37.1969 2.03454 37.7053 2.24505 38.0802 2.61929C38.4552 2.99352 38.6661 3.50092 38.6667 4.03017V23.994C38.0905 23.5604 37.3883 23.3263 36.6667 23.327Z" fill="white"/>
<path d="M13.3333 18.6692C13.3319 20.1024 13.757 21.5038 14.5546 22.6955L15.9999 24.8594V29.9812C16 30.0845 16.0243 30.1863 16.0708 30.2785L16.0703 30.2788L17.4036 32.9404C17.459 33.0509 17.5441 33.1439 17.6494 33.2089C17.7547 33.2738 17.8761 33.3083 17.9999 33.3082H21.9999C22.1237 33.3083 22.2451 33.2738 22.3504 33.2089C22.4557 33.1439 22.5408 33.0509 22.5962 32.9404L23.9295 30.2788L23.929 30.2785C23.9756 30.1863 23.9999 30.0845 23.9999 29.9812V24.8594L25.4452 22.6955C26.2429 21.5038 26.668 20.1024 26.6666 18.6692C26.6666 16.9045 25.9642 15.212 24.714 13.9641C23.4637 12.7162 21.768 12.0151 19.9999 12.0151C18.2318 12.0151 16.5361 12.7162 15.2859 13.9641C14.0356 15.212 13.3333 16.9045 13.3333 18.6692ZM18.3292 19.5811L19.5999 20.5324C19.7153 20.6188 19.8557 20.6655 19.9999 20.6655C20.1442 20.6655 20.2845 20.6188 20.3999 20.5324L21.6706 19.5811L20.7867 23.9925H19.2131L18.3292 19.5811ZM22.6666 25.3233V29.3158H17.3333V25.3233H22.6666ZM21.5879 31.9774H18.4119L17.7453 30.6466H22.2546L21.5879 31.9774ZM19.9999 13.346C21.4139 13.3475 22.7695 13.9089 23.7694 14.9069C24.7692 15.9048 25.3317 17.2579 25.3333 18.6692C25.3344 19.8397 24.9872 20.9841 24.3359 21.9573L22.9765 23.9925H22.1465L23.3203 18.1343C23.3468 18.0022 23.3325 17.8651 23.2792 17.7413C23.2259 17.6175 23.1363 17.5127 23.022 17.4409C22.9078 17.369 22.7745 17.3335 22.6396 17.339C22.5047 17.3444 22.3746 17.3906 22.2666 17.4715L19.9999 19.1683L17.7332 17.4715C17.6252 17.3906 17.4952 17.3444 17.3603 17.339C17.2254 17.3335 17.092 17.369 16.9778 17.4409C16.8636 17.5127 16.7739 17.6175 16.7206 17.7413C16.6674 17.8651 16.653 18.0022 16.6795 18.1343L17.8534 23.9925H17.0234L15.664 21.9573C15.0126 20.9841 14.6655 19.8397 14.6666 18.6692C14.6682 17.2579 15.2306 15.9048 16.2304 14.9069C17.2303 13.9089 18.5859 13.3475 19.9999 13.346Z" fill="white"/>
<path d="M7.59457e-06 37.2199C0.000633987 37.7705 0.220071 38.2984 0.610178 38.6878C1.00029 39.0772 1.5292 39.2962 2.0809 39.2968H12C12.707 39.296 13.3848 39.0154 13.8847 38.5164C14.3847 38.0174 14.6659 37.3409 14.6667 36.6352V27.8707C14.6667 27.3669 14.517 26.8743 14.2365 26.4554C13.9561 26.0365 13.5575 25.71 13.0911 25.5172C12.6247 25.3243 12.1116 25.2739 11.6165 25.3722C11.1214 25.4705 10.6666 25.7131 10.3097 26.0694L0.609464 35.7513C0.415641 35.9437 0.261976 36.1725 0.157363 36.4246C0.0527503 36.6767 -0.000733359 36.947 7.59457e-06 37.2199ZM11.2525 27.0104C11.423 26.8403 11.6402 26.7244 11.8766 26.6774C12.1131 26.6305 12.3582 26.6546 12.5809 26.7467C12.8036 26.8388 12.994 26.9947 13.1279 27.1948C13.2619 27.3949 13.3333 27.6301 13.3333 27.8707V28.6503H12V29.9811H13.3333V31.3119H12V32.6427H13.3333V33.9736H12V35.3044H13.3333V36.6352C13.3329 36.988 13.1923 37.3263 12.9424 37.5758C12.6924 37.8253 12.3535 37.9656 12 37.966H10.6667V36.6352H9.33334V37.966H8.00001V36.6352H6.66667V37.966H5.33334V36.6352H4.00001V37.966H2.0809C1.93304 37.966 1.78851 37.9223 1.66557 37.8403C1.54263 37.7583 1.44681 37.6418 1.39023 37.5054C1.33365 37.3691 1.31886 37.219 1.34771 37.0743C1.37656 36.9296 1.44777 36.7966 1.55233 36.6923L11.2525 27.0104Z" fill="white"/>
<path d="M6.66664 35.3044H9.99998C10.1768 35.3044 10.3464 35.2343 10.4714 35.1095C10.5964 34.9847 10.6666 34.8154 10.6666 34.639V31.3119C10.6666 31.1803 10.6275 31.0516 10.5543 30.9422C10.481 30.8328 10.3769 30.7475 10.2551 30.6971C10.1333 30.6468 9.99921 30.6336 9.86989 30.6593C9.74056 30.685 9.62178 30.7483 9.52854 30.8414L6.19521 34.1684C6.10199 34.2615 6.03851 34.3801 6.0128 34.5092C5.98709 34.6382 6.0003 34.772 6.05076 34.8936C6.10122 35.0152 6.18666 35.1191 6.29628 35.1922C6.40591 35.2653 6.5348 35.3043 6.66664 35.3044ZM9.33331 32.9183V33.9735H8.2761L9.33331 32.9183Z" fill="white"/>
<path d="M27.3333 20.6654V35.3044C27.3333 35.425 27.3661 35.5433 27.4282 35.6467L29.4282 38.9738C29.4875 39.0723 29.5712 39.1539 29.6714 39.2105C29.7716 39.2671 29.8848 39.2969 29.9999 39.2969C30.115 39.2969 30.2282 39.2671 30.3284 39.2105C30.4286 39.1539 30.5124 39.0723 30.5716 38.9738L32.5716 35.6467C32.6337 35.5433 32.6666 35.425 32.6666 35.3044V20.6654C32.6666 20.4889 32.5963 20.3197 32.4713 20.1949C32.3463 20.0701 32.1767 20 31.9999 20H27.9999C27.8231 20 27.6535 20.0701 27.5285 20.1949C27.4035 20.3197 27.3333 20.4889 27.3333 20.6654ZM30.6666 34.639V25.9887H31.3333V34.639H30.6666ZM28.6666 34.639V25.9887H29.3333V34.639H28.6666ZM28.6666 24.6579V23.9925H31.3333V24.6579H28.6666ZM29.9999 37.3381L29.1774 35.9698H30.8225L29.9999 37.3381ZM31.3333 21.3308V22.6616H28.6666V21.3308H31.3333Z" fill="white"/>
<path d="M13.4003 10.4755L12.4575 11.4165L13.8717 12.8281L14.8146 11.887L13.4003 10.4755Z" fill="white"/>
<path d="M20.6666 8.02246H19.3333V10.0187H20.6666V8.02246Z" fill="white"/>
<path d="M26.5997 10.4756L25.1855 11.8872L26.1284 12.8282L27.5426 11.4166L26.5997 10.4756Z" fill="white"/>
<path d="M30 17.3384H28V18.6692H30V17.3384Z" fill="white"/>
<path d="M12 17.3384H10V18.6692H12V17.3384Z" fill="white"/>
</svg>
