<svg width="60" height="60" viewBox="0 0 60 60" fill="none" xmlns="http://www.w3.org/2000/svg">
<rect width="60" height="60" rx="6" fill="#2F2BEB"/>
<path d="M26.9531 28.5L27 33.75C27 34.5938 26.2969 35.25 25.5 35.25H24.75C23.0625 35.25 21.75 33.9375 21.75 32.25V30.0469C21.75 28.3594 23.0625 27 24.75 27H25.4531C26.25 27 26.9531 27.7031 26.9531 28.5ZM30 18C36.7031 18 41.7656 23.625 42 30V36.75C42 39.0469 40.125 40.875 37.875 40.875H32.6719C32.2969 41.5781 31.5469 42 30.75 42H29.2031C27.8438 42 26.7656 40.7812 27 39.3281C27.2344 38.25 28.2188 37.5 29.2969 37.5H30.75C31.5469 37.5 32.2969 37.9688 32.6719 38.625H37.875C38.9062 38.625 39.75 37.8281 39.75 36.75V30C39.75 24.6562 35.3438 20.2969 30 20.2969C24.6094 20.2969 20.25 24.6562 20.25 30V31.875C20.25 32.5312 19.6406 33 19.0781 33C18.4688 33 18 32.5312 18 31.875V30C18.1875 23.625 23.25 18 30 18ZM35.25 35.25H34.5C33.6562 35.25 33 34.5938 33 33.75V28.5469C33 27.7031 33.6562 27 34.5 27H35.25C36.8906 27 38.25 28.3594 38.25 30.0469V32.25C38.25 33.9375 36.8906 35.25 35.25 35.25Z" fill="white"/>
</svg>
