<svg width="116" height="19" viewBox="0 0 116 19" fill="none" xmlns="http://www.w3.org/2000/svg">
<path d="M11.2844 0.882812L13.5695 5.55859L18.5969 6.29688C19.0187 6.36719 19.3703 6.64844 19.5109 7.07031C19.6516 7.45703 19.5461 7.91406 19.2297 8.19531L15.5734 11.8164L16.4523 16.9492C16.5227 17.3711 16.3469 17.793 15.9953 18.0391C15.6437 18.3203 15.1867 18.3203 14.8 18.1445L10.3 15.7188L5.76484 18.1445C5.41328 18.3203 4.95625 18.3203 4.60469 18.0391C4.25312 17.793 4.07734 17.3711 4.14766 16.9492L4.99141 11.8164L1.33516 8.19531C1.05391 7.91406 0.948437 7.45703 1.05391 7.07031C1.19453 6.64844 1.54609 6.36719 1.96797 6.29688L7.03047 5.55859L9.28047 0.882812C9.45625 0.496094 9.84297 0.25 10.3 0.25C10.7219 0.25 11.1086 0.496094 11.2844 0.882812ZM35.1344 0.882812L37.4195 5.55859L42.4469 6.29688C42.8687 6.36719 43.2203 6.64844 43.3609 7.07031C43.5016 7.45703 43.3961 7.91406 43.0797 8.19531L39.4234 11.8164L40.3023 16.9492C40.3727 17.3711 40.1969 17.793 39.8453 18.0391C39.4937 18.3203 39.0367 18.3203 38.65 18.1445L34.15 15.7188L29.6148 18.1445C29.2633 18.3203 28.8062 18.3203 28.4547 18.0391C28.1031 17.793 27.9273 17.3711 27.9977 16.9492L28.8414 11.8164L25.1852 8.19531C24.9039 7.91406 24.7984 7.45703 24.9039 7.07031C25.0445 6.64844 25.3961 6.36719 25.818 6.29688L30.8805 5.55859L33.1305 0.882812C33.3062 0.496094 33.693 0.25 34.15 0.25C34.5719 0.25 34.9586 0.496094 35.1344 0.882812ZM58.9844 0.882812L61.2695 5.55859L66.2969 6.29688C66.7188 6.36719 67.0703 6.64844 67.2109 7.07031C67.3516 7.45703 67.2461 7.91406 66.9297 8.19531L63.2734 11.8164L64.1523 16.9492C64.2227 17.3711 64.0469 17.793 63.6953 18.0391C63.3438 18.3203 62.8867 18.3203 62.5 18.1445L58 15.7188L53.4648 18.1445C53.1133 18.3203 52.6562 18.3203 52.3047 18.0391C51.9531 17.793 51.7773 17.3711 51.8477 16.9492L52.6914 11.8164L49.0352 8.19531C48.7539 7.91406 48.6484 7.45703 48.7539 7.07031C48.8945 6.64844 49.2461 6.36719 49.668 6.29688L54.7305 5.55859L56.9805 0.882812C57.1562 0.496094 57.543 0.25 58 0.25C58.4219 0.25 58.8086 0.496094 58.9844 0.882812ZM82.8344 0.882812L85.1195 5.55859L90.1469 6.29688C90.5688 6.36719 90.9203 6.64844 91.0609 7.07031C91.2016 7.45703 91.0961 7.91406 90.7797 8.19531L87.1234 11.8164L88.0023 16.9492C88.0727 17.3711 87.8969 17.793 87.5453 18.0391C87.1938 18.3203 86.7367 18.3203 86.35 18.1445L81.85 15.7188L77.3148 18.1445C76.9633 18.3203 76.5063 18.3203 76.1547 18.0391C75.8031 17.793 75.6273 17.3711 75.6977 16.9492L76.5414 11.8164L72.8852 8.19531C72.6039 7.91406 72.4984 7.45703 72.6039 7.07031C72.7445 6.64844 73.0961 6.36719 73.518 6.29688L78.5805 5.55859L80.8305 0.882812C81.0063 0.496094 81.393 0.25 81.85 0.25C82.2719 0.25 82.6586 0.496094 82.8344 0.882812ZM106.684 0.882812L108.97 5.55859L113.997 6.29688C114.419 6.36719 114.77 6.64844 114.911 7.07031C115.052 7.45703 114.946 7.91406 114.63 8.19531L110.973 11.8164L111.852 16.9492C111.923 17.3711 111.747 17.793 111.395 18.0391C111.044 18.3203 110.587 18.3203 110.2 18.1445L105.7 15.7188L101.165 18.1445C100.813 18.3203 100.356 18.3203 100.005 18.0391C99.6531 17.793 99.4773 17.3711 99.5477 16.9492L100.391 11.8164L96.7352 8.19531C96.4539 7.91406 96.3484 7.45703 96.4539 7.07031C96.5945 6.64844 96.9461 6.36719 97.368 6.29688L102.43 5.55859L104.68 0.882812C104.856 0.496094 105.243 0.25 105.7 0.25C106.122 0.25 106.509 0.496094 106.684 0.882812Z" fill="#2BC8EB"/>
</svg>
