<svg width="21" height="16" viewBox="0 0 21 16" fill="none" xmlns="http://www.w3.org/2000/svg">
<path d="M7.88755 9.99069C8.91164 9.99069 9.75499 9.11545 9.77508 8.02673C9.77508 7.97336 9.77508 7.90932 9.77508 7.85595C9.75499 7.4717 9.87548 7.08744 10.1265 6.80993L12.2951 4.40834C12.5662 4.10948 12.9477 3.94937 13.3393 3.98139C13.3895 3.99206 13.4498 3.99206 13.5 3.99206C13.5502 3.99206 13.6104 3.99206 13.6606 3.98139C14.0522 3.94937 14.4337 4.10948 14.7048 4.40834L16.8734 6.80993C17.1244 7.08744 17.2549 7.4717 17.2248 7.86662C17.2248 7.90932 17.2248 7.95201 17.2248 7.99471C17.2248 8.02673 17.2248 8.05875 17.2248 8.09077C17.2449 8.4857 17.1044 8.85928 16.8433 9.1368L14.5542 11.5811C14.2931 11.8586 13.9417 12.008 13.5803 11.9974C13.5401 11.9974 13.5 11.9974 13.4598 11.9974C12.4357 12.0187 11.6024 12.9153 11.6024 14.004C11.6024 15.1141 12.4457 16 13.4899 16C14.524 16 15.3674 15.1141 15.3775 14.0254C15.3775 13.9827 15.3775 13.94 15.3775 13.8973C15.3574 13.513 15.4979 13.1288 15.759 12.8513L18.0481 10.407C18.3092 10.1295 18.6606 9.98002 19.022 10.0014C19.0622 10.0014 19.1023 10.0014 19.1425 10.0014C20.1766 9.98002 21.0099 9.07275 20.9999 7.97336C20.9798 6.88464 20.1465 6.0094 19.1124 6.0094C19.1023 6.0094 19.0823 6.0094 19.0722 6.0094C18.7108 6.02007 18.3594 5.87064 18.1084 5.59312L15.7489 2.96739C15.518 2.71122 15.3975 2.38033 15.3975 2.0281C15.3975 2.01743 15.3975 2.01743 15.3975 2.00675C15.3975 0.907359 14.5542 0.0107669 13.52 9.32256e-05C12.4759 -0.0105805 11.6225 0.896686 11.6225 2.00675C11.6225 2.00675 11.6225 2.00675 11.6225 2.01743C11.6225 2.38033 11.4919 2.72189 11.261 2.98873L8.91164 5.5611C8.66063 5.83862 8.29919 5.99872 7.93774 5.98805C7.91765 5.98805 7.89759 5.98805 7.8775 5.98805C6.84338 6.0094 6 6.90599 6 7.99471C6 9.10478 6.85341 9.99069 7.88755 9.99069Z" fill="#2BC8EB"/>
<path d="M13.131 6.0053C12.1063 6.0053 11.2624 6.87996 11.2423 7.96795C11.2423 8.02129 11.2423 8.08529 11.2423 8.13862C11.2624 8.52262 11.1418 8.90661 10.8907 9.18395L8.72064 11.5839C8.44939 11.8826 8.06761 12.0426 7.67583 12.0106C7.62558 11.9999 7.5653 11.9999 7.51508 11.9999C7.4548 11.9999 7.40455 11.9999 7.35434 12.0106C6.96252 12.0426 6.58075 11.8826 6.3095 11.5839L4.13947 9.18395C3.88833 8.90661 3.75773 8.52262 3.78784 8.12795C3.78784 8.08529 3.78784 8.04262 3.78784 7.99995C3.78784 7.96795 3.78784 7.93595 3.78784 7.90395C3.76776 7.50929 3.90841 7.13596 4.16962 6.85863L6.46021 4.41597C6.72142 4.13864 7.07302 3.98931 7.4347 3.99998C7.47488 3.99998 7.51508 3.99998 7.55526 3.99998C8.57999 3.97864 9.41384 3.08265 9.41384 1.99466C9.41384 0.895995 8.56995 0 7.52512 0C6.47025 0 5.62634 0.885328 5.6163 1.97332C5.6163 2.01599 5.6163 2.05865 5.6163 2.10132C5.6364 2.48532 5.49574 2.86932 5.23453 3.14665L2.954 5.5893C2.69279 5.86663 2.34117 6.01596 1.9795 6.0053C1.93931 6.0053 1.89913 6.0053 1.85894 6.0053C0.814116 6.01596 -0.0197372 6.93329 0.000355633 8.03195C0.0204484 9.11995 0.854301 9.99461 1.88908 9.99461C1.89913 9.99461 1.91922 9.99461 1.92927 9.99461C2.29094 9.98394 2.64257 10.1333 2.89371 10.4106L5.25463 13.0346C5.4857 13.2906 5.60626 13.6213 5.60626 13.9733C5.60626 13.9839 5.60626 13.9839 5.60626 13.9946C5.60626 15.0932 6.45014 15.9892 7.48494 15.9999C8.52975 16.0106 9.3837 15.1039 9.3837 13.9946C9.3837 13.9946 9.3837 13.9946 9.3837 13.9839C9.3837 13.6213 9.5143 13.2799 9.74537 13.0133L12.0962 10.4106C12.3474 10.1333 12.7091 9.97327 13.0707 9.98394C13.0908 9.98394 13.1109 9.98394 13.131 9.98394C14.1658 9.97327 14.9997 9.07728 14.9997 7.97862C15.0198 6.89063 14.1658 6.0053 13.131 6.0053Z" fill="#2F2BEB"/>
</svg>
