<svg width="40" height="40" viewBox="0 0 40 40" fill="none" xmlns="http://www.w3.org/2000/svg">
<circle cx="20" cy="20" r="20" fill="#2F2BEB"/>
<path d="M24 19C23.1875 19 22.4375 18.6875 21.9062 18.1875L18.9688 19.6562C18.9688 19.75 19 19.875 19 20C19 20.1562 18.9688 20.25 18.9688 20.375L21.9062 21.8438C22.4375 21.3438 23.1875 21 24 21C25.6562 21 27 22.3438 27 24C27 25.6562 25.6562 27 24 27C22.3438 27 21 25.6562 21 24C21 23.875 21 23.75 21 23.6562L18.0625 22.1875C17.5312 22.6875 16.7812 23 16 23C14.3438 23 13 21.6562 13 20C13 18.3438 14.3438 17 16 17C16.7812 17 17.5312 17.3438 18.0625 17.8438L21 16.375C21 16.25 21 16.125 21 16C21 14.3438 22.3438 13 24 13C25.6562 13 27 14.3438 27 16C27 17.6562 25.6562 19 24 19Z" fill="white"/>
</svg>
