<svg width="100" height="248" viewBox="0 0 100 248" fill="none" xmlns="http://www.w3.org/2000/svg">
<path d="M1.5 10C1.5 5.30558 5.30558 1.5 10 1.5H90C94.6944 1.5 98.5 5.30558 98.5 10V198C98.5 224.786 76.7858 246.5 50 246.5C23.2142 246.5 1.5 224.786 1.5 198V10Z" fill="#2F2BEB" stroke="white" stroke-width="3"/>
<rect x="10" y="158" width="80" height="80" rx="40" fill="white"/>
<path d="M36.12 213.6C35.4 213.6 34.64 213.547 33.84 213.44C33.04 213.36 32.2667 213.24 31.52 213.08C30.7733 212.92 30.0933 212.747 29.48 212.56C28.8667 212.373 28.3867 212.2 28.04 212.04L29.2 207.08C29.8933 207.373 30.7733 207.693 31.84 208.04C32.9333 208.36 34.28 208.52 35.88 208.52C37.72 208.52 39.0667 208.173 39.92 207.48C40.7733 206.787 41.2 205.853 41.2 204.68C41.2 203.96 41.04 203.36 40.72 202.88C40.4267 202.373 40.0133 201.973 39.48 201.68C38.9467 201.36 38.3067 201.147 37.56 201.04C36.84 200.907 36.0667 200.84 35.24 200.84H32.92V196.04H35.56C36.1467 196.04 36.7067 195.987 37.24 195.88C37.8 195.773 38.2933 195.6 38.72 195.36C39.1467 195.093 39.48 194.747 39.72 194.32C39.9867 193.867 40.12 193.307 40.12 192.64C40.12 192.133 40.0133 191.693 39.8 191.32C39.5867 190.947 39.3067 190.64 38.96 190.4C38.64 190.16 38.2533 189.987 37.8 189.88C37.3733 189.747 36.9333 189.68 36.48 189.68C35.3333 189.68 34.2667 189.853 33.28 190.2C32.32 190.547 31.44 190.973 30.64 191.48L28.52 187.12C28.9467 186.853 29.44 186.573 30 186.28C30.5867 185.987 31.2267 185.72 31.92 185.48C32.6133 185.24 33.3467 185.04 34.12 184.88C34.92 184.72 35.76 184.64 36.64 184.64C38.2667 184.64 39.6667 184.84 40.84 185.24C42.04 185.613 43.0267 186.16 43.8 186.88C44.5733 187.573 45.1467 188.4 45.52 189.36C45.8933 190.293 46.08 191.32 46.08 192.44C46.08 193.533 45.7733 194.6 45.16 195.64C44.5467 196.653 43.72 197.427 42.68 197.96C44.12 198.547 45.2267 199.427 46 200.6C46.8 201.747 47.2 203.133 47.2 204.76C47.2 206.04 46.9867 207.227 46.56 208.32C46.1333 209.387 45.4667 210.32 44.56 211.12C43.6533 211.893 42.4933 212.507 41.08 212.96C39.6933 213.387 38.04 213.6 36.12 213.6ZM71.0944 199.08C71.0944 203.747 70.201 207.333 68.4144 209.84C66.6544 212.32 64.2144 213.56 61.0944 213.56C57.9744 213.56 55.521 212.32 53.7344 209.84C51.9744 207.333 51.0944 203.747 51.0944 199.08C51.0944 196.76 51.321 194.707 51.7744 192.92C52.2544 191.133 52.9344 189.627 53.8144 188.4C54.6944 187.173 55.7477 186.24 56.9744 185.6C58.201 184.96 59.5744 184.64 61.0944 184.64C64.2144 184.64 66.6544 185.893 68.4144 188.4C70.201 190.88 71.0944 194.44 71.0944 199.08ZM65.0144 199.08C65.0144 197.693 64.9477 196.44 64.8144 195.32C64.681 194.173 64.4677 193.187 64.1744 192.36C63.881 191.533 63.481 190.893 62.9744 190.44C62.4677 189.987 61.841 189.76 61.0944 189.76C60.3477 189.76 59.721 189.987 59.2144 190.44C58.7344 190.893 58.3344 191.533 58.0144 192.36C57.721 193.187 57.5077 194.173 57.3744 195.32C57.241 196.44 57.1744 197.693 57.1744 199.08C57.1744 200.467 57.241 201.733 57.3744 202.88C57.5077 204.027 57.721 205.013 58.0144 205.84C58.3344 206.667 58.7344 207.307 59.2144 207.76C59.721 208.213 60.3477 208.44 61.0944 208.44C61.841 208.44 62.4677 208.213 62.9744 207.76C63.481 207.307 63.881 206.667 64.1744 205.84C64.4677 205.013 64.681 204.027 64.8144 202.88C64.9477 201.733 65.0144 200.467 65.0144 199.08Z" fill="#2F2BEB"/>
<path d="M32.208 139.984C31.072 139.312 29.936 138.672 28.8 138.064C27.664 137.456 26.52 136.896 25.368 136.384L25.368 132.256C27.16 133.168 28.896 134.112 30.576 135.088C32.256 136.064 33.944 137.096 35.64 138.184L42 138.184L42 141.928L35.688 141.928C33.992 143.016 32.296 144.056 30.6 145.048C28.904 146.024 27.16 146.968 25.368 147.88L25.368 143.536C26.52 143.024 27.664 142.472 28.8 141.88C29.936 141.288 31.072 140.656 32.208 139.984ZM35.784 133.162C34.664 133.162 33.688 132.994 32.856 132.658C32.008 132.306 31.304 131.85 30.744 131.29C30.184 130.73 29.76 130.09 29.472 129.37C29.184 128.634 29.04 127.882 29.04 127.114C29.04 125.322 29.592 123.906 30.696 122.866C31.784 121.826 33.392 121.306 35.52 121.306C35.728 121.306 35.96 121.314 36.216 121.33C36.456 121.346 36.672 121.362 36.864 121.378L36.864 129.49C37.6 129.41 38.184 129.066 38.616 128.458C39.048 127.85 39.264 127.034 39.264 126.01C39.264 125.354 39.208 124.714 39.096 124.09C38.968 123.45 38.816 122.93 38.64 122.53L41.544 122.05C41.64 122.242 41.736 122.498 41.832 122.818C41.928 123.138 42.008 123.498 42.072 123.898C42.152 124.282 42.216 124.698 42.264 125.146C42.312 125.594 42.336 126.042 42.336 126.49C42.336 127.626 42.168 128.618 41.832 129.466C41.496 130.298 41.04 130.994 40.464 131.554C39.872 132.098 39.176 132.506 38.376 132.778C37.576 133.034 36.712 133.162 35.784 133.162ZM34.416 124.762C34.112 124.778 33.816 124.834 33.528 124.93C33.24 125.01 32.984 125.146 32.76 125.338C32.536 125.514 32.352 125.746 32.208 126.034C32.064 126.306 31.992 126.65 31.992 127.066C31.992 127.466 32.064 127.81 32.208 128.098C32.336 128.386 32.512 128.626 32.736 128.818C32.96 129.01 33.224 129.162 33.528 129.274C33.816 129.37 34.112 129.442 34.416 129.49L34.416 124.762ZM39.504 113.723C39.504 113.371 39.496 113.035 39.48 112.715C39.464 112.395 39.44 112.139 39.408 111.947L36.696 111.947C36.664 112.091 36.632 112.307 36.6 112.595C36.568 112.883 36.552 113.147 36.552 113.387C36.552 113.723 36.576 114.043 36.624 114.347C36.656 114.635 36.728 114.891 36.84 115.115C36.952 115.339 37.104 115.515 37.296 115.643C37.488 115.771 37.728 115.835 38.016 115.835C38.576 115.835 38.968 115.651 39.192 115.283C39.4 114.899 39.504 114.379 39.504 113.723ZM29.04 114.011C29.04 112.955 29.16 112.075 29.4 111.371C29.64 110.667 29.984 110.107 30.432 109.691C30.88 109.259 31.424 108.955 32.064 108.779C32.704 108.603 33.416 108.515 34.2 108.515L41.64 108.515C41.752 109.027 41.88 109.739 42.024 110.651C42.184 111.563 42.264 112.667 42.264 113.963C42.264 114.779 42.192 115.523 42.048 116.195C41.904 116.851 41.672 117.419 41.352 117.899C41.016 118.379 40.584 118.747 40.056 119.003C39.528 119.259 38.88 119.387 38.112 119.387C37.376 119.387 36.752 119.243 36.24 118.955C35.728 118.651 35.32 118.251 35.016 117.755C34.712 117.259 34.496 116.691 34.368 116.051C34.224 115.411 34.152 114.747 34.152 114.059C34.152 113.595 34.176 113.187 34.224 112.835C34.256 112.467 34.304 112.171 34.368 111.947L34.032 111.947C33.424 111.947 32.936 112.131 32.568 112.499C32.2 112.867 32.016 113.507 32.016 114.419C32.016 115.027 32.064 115.627 32.16 116.219C32.24 116.811 32.36 117.323 32.52 117.755L29.64 118.211C29.576 118.003 29.512 117.747 29.448 117.443C29.368 117.123 29.304 116.779 29.256 116.411C29.192 116.043 29.144 115.659 29.112 115.259C29.064 114.843 29.04 114.427 29.04 114.011ZM32.544 97.6729C32.464 97.9929 32.384 98.3689 32.304 98.8009C32.208 99.2329 32.16 99.6969 32.16 100.193C32.16 100.417 32.184 100.689 32.232 101.009C32.264 101.313 32.304 101.545 32.352 101.705L42 101.705L42 105.281L30.048 105.281C29.824 104.641 29.616 103.889 29.424 103.025C29.216 102.145 29.112 101.169 29.112 100.097C29.112 99.9049 29.128 99.6729 29.16 99.4009C29.176 99.1289 29.208 98.8569 29.256 98.5849C29.288 98.3129 29.336 98.0409 29.4 97.7689C29.448 97.4969 29.512 97.2649 29.592 97.0729L32.544 97.6729ZM39.432 91.5319C39.432 90.8759 39.368 90.4119 39.24 90.1399C39.112 89.8679 38.864 89.7319 38.496 89.7319C38.208 89.7319 37.96 89.9079 37.752 90.2599C37.528 90.6119 37.28 91.1479 37.008 91.8679C36.8 92.4279 36.584 92.9399 36.36 93.4039C36.136 93.8519 35.872 94.2359 35.568 94.5559C35.248 94.8759 34.872 95.1239 34.44 95.2999C34.008 95.4759 33.488 95.5639 32.88 95.5639C31.696 95.5639 30.76 95.1239 30.072 94.2439C29.384 93.3639 29.04 92.1559 29.04 90.6199C29.04 89.8519 29.112 89.1159 29.256 88.4119C29.384 87.7079 29.528 87.1479 29.688 86.7319L32.472 87.3559C32.328 87.7719 32.2 88.2279 32.088 88.7239C31.976 89.2039 31.92 89.7479 31.92 90.3559C31.92 91.4759 32.232 92.0359 32.856 92.0359C33 92.0359 33.128 92.0119 33.24 91.9639C33.352 91.9159 33.464 91.8199 33.576 91.6759C33.672 91.5319 33.784 91.3399 33.912 91.0999C34.024 90.8439 34.152 90.5239 34.296 90.1399C34.584 89.3559 34.872 88.7079 35.16 88.1959C35.432 87.6839 35.736 87.2839 36.072 86.9959C36.392 86.6919 36.752 86.4839 37.152 86.3719C37.552 86.2439 38.016 86.1799 38.544 86.1799C39.792 86.1799 40.736 86.6519 41.376 87.5959C42.016 88.5239 42.336 89.8439 42.336 91.5559C42.336 92.6759 42.24 93.6119 42.048 94.3639C41.856 95.0999 41.696 95.6119 41.568 95.8999L38.664 95.2999C38.904 94.6919 39.096 94.0679 39.24 93.4279C39.368 92.7879 39.432 92.1559 39.432 91.5319ZM35.664 65.9339C36.656 65.9339 37.568 66.0779 38.4 66.3659C39.216 66.6539 39.92 67.0699 40.512 67.6139C41.088 68.1579 41.536 68.8139 41.856 69.5819C42.176 70.3339 42.336 71.1819 42.336 72.1259C42.336 73.0539 42.176 73.9019 41.856 74.6699C41.536 75.4219 41.088 76.0699 40.512 76.6139C39.92 77.1579 39.216 77.5819 38.4 77.8859C37.568 78.1899 36.656 78.3419 35.664 78.3419C34.672 78.3419 33.768 78.1899 32.952 77.8859C32.136 77.5659 31.44 77.1339 30.864 76.5899C30.288 76.0299 29.84 75.3739 29.52 74.6219C29.2 73.8539 29.04 73.0219 29.04 72.1259C29.04 71.2139 29.2 70.3819 29.52 69.6299C29.84 68.8619 30.288 68.2059 30.864 67.6619C31.44 67.1179 32.136 66.6939 32.952 66.3899C33.768 66.0859 34.672 65.9339 35.664 65.9339ZM35.664 69.5819C34.56 69.5819 33.696 69.8059 33.072 70.2539C32.432 70.6859 32.112 71.3099 32.112 72.1259C32.112 72.9419 32.432 73.5739 33.072 74.0219C33.696 74.4699 34.56 74.6939 35.664 74.6939C36.768 74.6939 37.648 74.4699 38.304 74.0219C38.944 73.5739 39.264 72.9419 39.264 72.1259C39.264 71.3099 38.944 70.6859 38.304 70.2539C37.648 69.8059 36.768 69.5819 35.664 69.5819ZM23.376 57.6917C23.376 57.0197 23.448 56.4037 23.592 55.8437C23.72 55.2837 23.848 54.8517 23.976 54.5477L26.832 55.2437C26.688 55.5637 26.584 55.9157 26.52 56.2997C26.44 56.6677 26.4 57.0117 26.4 57.3317C26.4 57.7637 26.464 58.1317 26.592 58.4357C26.704 58.7237 26.864 58.9557 27.072 59.1317C27.28 59.2917 27.528 59.4117 27.816 59.4917C28.104 59.5557 28.416 59.5877 28.752 59.5877L29.376 59.5877L29.376 55.1717L32.352 55.1717L32.352 59.5877L42 59.5877L42 63.1637L28.704 63.1637C27.072 63.1637 25.776 62.7077 24.816 61.7957C23.856 60.8677 23.376 59.4997 23.376 57.6917ZM76 146.08L59.368 146.08L59.368 134.848L62.512 134.848L62.512 142.336L65.776 142.336L65.776 135.688L68.848 135.688L68.848 142.336L72.856 142.336L72.856 134.296L76 134.296L76 146.08ZM67.216 126.234L63.376 123.738L63.376 120.042L69.448 124.362C70.648 123.402 71.816 122.53 72.952 121.746C74.088 120.962 75.104 120.338 76 119.874L76 123.714C75.76 123.842 75.464 124.002 75.112 124.194C74.744 124.386 74.368 124.602 73.984 124.842C73.584 125.082 73.192 125.338 72.808 125.61C72.408 125.866 72.048 126.122 71.728 126.378C72.032 126.618 72.368 126.866 72.736 127.122C73.104 127.362 73.48 127.594 73.864 127.818C74.232 128.042 74.6 128.266 74.968 128.49C75.336 128.698 75.68 128.882 76 129.042L76 132.69C75.6 132.498 75.128 132.234 74.584 131.898C74.04 131.562 73.48 131.202 72.904 130.818C72.312 130.418 71.728 130.002 71.152 129.57C70.56 129.138 70.008 128.714 69.496 128.298C68.488 129.018 67.472 129.738 66.448 130.458C65.408 131.178 64.384 131.89 63.376 132.594L63.376 128.73L67.216 126.234ZM69.784 109.873C68.68 109.873 67.8 110.121 67.144 110.617C66.472 111.113 66.136 111.849 66.136 112.825C66.136 113.145 66.152 113.441 66.184 113.713C66.2 113.985 66.224 114.209 66.256 114.385L72.712 114.385C72.856 114.161 72.976 113.873 73.072 113.521C73.168 113.153 73.216 112.785 73.216 112.417C73.216 110.721 72.072 109.873 69.784 109.873ZM69.688 106.225C70.664 106.225 71.552 106.345 72.352 106.585C73.152 106.825 73.84 107.177 74.416 107.641C74.992 108.105 75.44 108.681 75.76 109.369C76.08 110.057 76.24 110.849 76.24 111.745C76.24 112.241 76.192 112.705 76.096 113.137C76 113.569 75.864 113.985 75.688 114.385L80.44 114.385L80.44 117.961L63.808 117.961C63.712 117.641 63.624 117.273 63.544 116.857C63.448 116.441 63.368 116.009 63.304 115.561C63.24 115.097 63.192 114.633 63.16 114.169C63.112 113.689 63.088 113.233 63.088 112.801C63.088 111.761 63.248 110.833 63.568 110.017C63.872 109.201 64.312 108.513 64.888 107.953C65.448 107.393 66.136 106.969 66.952 106.681C67.768 106.377 68.68 106.225 69.688 106.225ZM69.784 104.076C68.664 104.076 67.688 103.908 66.856 103.572C66.008 103.22 65.304 102.764 64.744 102.204C64.184 101.644 63.76 101.004 63.472 100.284C63.184 99.5482 63.04 98.7962 63.04 98.0282C63.04 96.2362 63.592 94.8202 64.696 93.7802C65.784 92.7402 67.392 92.2202 69.52 92.2202C69.728 92.2202 69.96 92.2282 70.216 92.2442C70.456 92.2602 70.672 92.2762 70.864 92.2922L70.864 100.404C71.6 100.324 72.184 99.9802 72.616 99.3722C73.048 98.7642 73.264 97.9482 73.264 96.9242C73.264 96.2682 73.208 95.6282 73.096 95.0042C72.968 94.3642 72.816 93.8442 72.64 93.4442L75.544 92.9642C75.64 93.1562 75.736 93.4122 75.832 93.7322C75.928 94.0522 76.008 94.4122 76.072 94.8122C76.152 95.1962 76.216 95.6122 76.264 96.0602C76.312 96.5082 76.336 96.9562 76.336 97.4042C76.336 98.5402 76.168 99.5322 75.832 100.38C75.496 101.212 75.04 101.908 74.464 102.468C73.872 103.012 73.176 103.42 72.376 103.692C71.576 103.948 70.712 104.076 69.784 104.076ZM68.416 95.6762C68.112 95.6922 67.816 95.7482 67.528 95.8442C67.24 95.9242 66.984 96.0602 66.76 96.2522C66.536 96.4282 66.352 96.6602 66.208 96.9482C66.064 97.2202 65.992 97.5642 65.992 97.9802C65.992 98.3802 66.064 98.7242 66.208 99.0122C66.336 99.3002 66.512 99.5402 66.736 99.7322C66.96 99.9242 67.224 100.076 67.528 100.188C67.816 100.284 68.112 100.356 68.416 100.404L68.416 95.6762ZM66.544 81.8526C66.464 82.1726 66.384 82.5486 66.304 82.9806C66.208 83.4126 66.16 83.8766 66.16 84.3726C66.16 84.5966 66.184 84.8686 66.232 85.1886C66.264 85.4926 66.304 85.7246 66.352 85.8846L76 85.8846L76 89.4606L64.048 89.4606C63.824 88.8206 63.616 88.0686 63.424 87.2046C63.216 86.3246 63.112 85.3486 63.112 84.2766C63.112 84.0846 63.128 83.8526 63.16 83.5806C63.176 83.3086 63.208 83.0366 63.256 82.7646C63.288 82.4926 63.336 82.2206 63.4 81.9486C63.448 81.6766 63.512 81.4446 63.592 81.2526L66.544 81.8526ZM76 75.7596L76 79.3356L63.376 79.3356L63.376 75.7596L76 75.7596ZM59.728 75.4236C60.384 75.4236 60.904 75.6396 61.288 76.0716C61.656 76.4876 61.84 76.9836 61.84 77.5596C61.84 78.1356 61.656 78.6396 61.288 79.0716C60.904 79.4876 60.384 79.6956 59.728 79.6956C59.072 79.6956 58.56 79.4876 58.192 79.0716C57.808 78.6396 57.616 78.1356 57.616 77.5596C57.616 76.9836 57.808 76.4876 58.192 76.0716C58.56 75.6396 59.072 75.4236 59.728 75.4236ZM69.784 72.9981C68.664 72.9981 67.688 72.8301 66.856 72.4941C66.008 72.1421 65.304 71.6861 64.744 71.1261C64.184 70.5661 63.76 69.9261 63.472 69.2061C63.184 68.4701 63.04 67.7181 63.04 66.9501C63.04 65.1581 63.592 63.7421 64.696 62.7021C65.784 61.6621 67.392 61.1421 69.52 61.1421C69.728 61.1421 69.96 61.1501 70.216 61.1661C70.456 61.1821 70.672 61.1981 70.864 61.2141L70.864 69.3261C71.6 69.2461 72.184 68.9021 72.616 68.2941C73.048 67.6861 73.264 66.8701 73.264 65.8461C73.264 65.1901 73.208 64.5501 73.096 63.9261C72.968 63.2861 72.816 62.7661 72.64 62.3661L75.544 61.8861C75.64 62.0781 75.736 62.3341 75.832 62.6541C75.928 62.9741 76.008 63.3341 76.072 63.7341C76.152 64.1181 76.216 64.5341 76.264 64.9821C76.312 65.4301 76.336 65.8781 76.336 66.3261C76.336 67.4621 76.168 68.4541 75.832 69.3021C75.496 70.1341 75.04 70.8301 74.464 71.3901C73.872 71.9341 73.176 72.3421 72.376 72.6141C71.576 72.8701 70.712 72.9981 69.784 72.9981ZM68.416 64.5981C68.112 64.6141 67.816 64.6701 67.528 64.7661C67.24 64.8461 66.984 64.9821 66.76 65.1741C66.536 65.3501 66.352 65.5821 66.208 65.8701C66.064 66.1421 65.992 66.4861 65.992 66.9021C65.992 67.3021 66.064 67.6461 66.208 67.9341C66.336 68.2221 66.512 68.4621 66.736 68.6541C66.96 68.8461 67.224 68.9981 67.528 69.1101C67.816 69.2061 68.112 69.2781 68.416 69.3261L68.416 64.5981ZM63.808 58.3825C63.632 57.7745 63.472 56.9905 63.328 56.0305C63.168 55.0705 63.088 54.0625 63.088 53.0065C63.088 51.9345 63.232 51.0465 63.52 50.3425C63.792 49.6225 64.184 49.0545 64.696 48.6385C65.208 48.2225 65.816 47.9265 66.52 47.7505C67.224 47.5745 68.008 47.4865 68.872 47.4865L76 47.4865L76 51.0625L69.304 51.0625C68.152 51.0625 67.336 51.2145 66.856 51.5185C66.376 51.8225 66.136 52.3905 66.136 53.2225C66.136 53.4785 66.152 53.7505 66.184 54.0385C66.2 54.3265 66.224 54.5825 66.256 54.8065L76 54.8065L76 58.3825L63.808 58.3825ZM69.688 44.8497C68.776 44.8497 67.92 44.7057 67.12 44.4177C66.304 44.1137 65.6 43.6817 65.008 43.1217C64.4 42.5617 63.92 41.8817 63.568 41.0817C63.216 40.2817 63.04 39.3697 63.04 38.3457C63.04 37.6737 63.104 37.0577 63.232 36.4977C63.344 35.9377 63.512 35.3937 63.736 34.8657L66.592 35.6097C66.464 35.9457 66.352 36.3137 66.256 36.7137C66.16 37.1137 66.112 37.5617 66.112 38.0577C66.112 39.1137 66.44 39.9057 67.096 40.4337C67.752 40.9457 68.616 41.2017 69.688 41.2017C70.824 41.2017 71.704 40.9617 72.328 40.4817C72.952 39.9857 73.264 39.1297 73.264 37.9137C73.264 37.4817 73.224 37.0177 73.144 36.5217C73.064 36.0257 72.936 35.5697 72.76 35.1537L75.688 34.6497C75.864 35.0657 76.016 35.5857 76.144 36.2097C76.272 36.8337 76.336 37.5217 76.336 38.2737C76.336 39.4257 76.168 40.4177 75.832 41.2497C75.48 42.0817 75.008 42.7697 74.416 43.3137C73.824 43.8417 73.128 44.2337 72.328 44.4897C71.512 44.7297 70.632 44.8497 69.688 44.8497ZM69.784 33.4591C68.664 33.4591 67.688 33.2911 66.856 32.9551C66.008 32.6031 65.304 32.1471 64.744 31.5871C64.184 31.0271 63.76 30.3871 63.472 29.6671C63.184 28.9311 63.04 28.1791 63.04 27.4111C63.04 25.6191 63.592 24.2031 64.696 23.1631C65.784 22.1231 67.392 21.6031 69.52 21.6031C69.728 21.6031 69.96 21.6111 70.216 21.6271C70.456 21.6431 70.672 21.6591 70.864 21.6751L70.864 29.7871C71.6 29.7071 72.184 29.3631 72.616 28.7551C73.048 28.1471 73.264 27.3311 73.264 26.3071C73.264 25.6511 73.208 25.0111 73.096 24.3871C72.968 23.7471 72.816 23.2271 72.64 22.8271L75.544 22.3471C75.64 22.5391 75.736 22.7951 75.832 23.1151C75.928 23.4351 76.008 23.7951 76.072 24.1951C76.152 24.5791 76.216 24.9951 76.264 25.4431C76.312 25.8911 76.336 26.3391 76.336 26.7871C76.336 27.9231 76.168 28.9151 75.832 29.7631C75.496 30.5951 75.04 31.2911 74.464 31.8511C73.872 32.3951 73.176 32.8031 72.376 33.0751C71.576 33.3311 70.712 33.4591 69.784 33.4591ZM68.416 25.0591C68.112 25.0751 67.816 25.1311 67.528 25.2271C67.24 25.3071 66.984 25.4431 66.76 25.6351C66.536 25.8111 66.352 26.0431 66.208 26.3311C66.064 26.6031 65.992 26.9471 65.992 27.3631C65.992 27.7631 66.064 28.1071 66.208 28.3951C66.336 28.6831 66.512 28.9231 66.736 29.1151C66.96 29.3071 67.224 29.4591 67.528 29.5711C67.816 29.6671 68.112 29.7391 68.416 29.7871L68.416 25.0591Z" fill="white"/>
</svg>
