<svg width="40" height="40" viewBox="0 0 40 40" fill="none" xmlns="http://www.w3.org/2000/svg">
<circle cx="20" cy="20" r="20" fill="#2BC8EB"/>
<path d="M19.9503 20.432C19.9503 22.2987 19.5929 23.7333 18.8783 24.736C18.1743 25.728 17.1983 26.224 15.9503 26.224C14.7023 26.224 13.7209 25.728 13.0063 24.736C12.3023 23.7333 11.9503 22.2987 11.9503 20.432C11.9503 19.504 12.0409 18.6827 12.2223 17.968C12.4143 17.2533 12.6863 16.6507 13.0383 16.16C13.3903 15.6693 13.8116 15.296 14.3023 15.04C14.7929 14.784 15.3423 14.656 15.9503 14.656C17.1983 14.656 18.1743 15.1573 18.8783 16.16C19.5929 17.152 19.9503 18.576 19.9503 20.432ZM17.5183 20.432C17.5183 19.8773 17.4916 19.376 17.4383 18.928C17.3849 18.4693 17.2996 18.0747 17.1823 17.744C17.0649 17.4133 16.9049 17.1573 16.7023 16.976C16.4996 16.7947 16.2489 16.704 15.9503 16.704C15.6516 16.704 15.4009 16.7947 15.1983 16.976C15.0063 17.1573 14.8463 17.4133 14.7183 17.744C14.6009 18.0747 14.5156 18.4693 14.4623 18.928C14.4089 19.376 14.3823 19.8773 14.3823 20.432C14.3823 20.9867 14.4089 21.4933 14.4623 21.952C14.5156 22.4107 14.6009 22.8053 14.7183 23.136C14.8463 23.4667 15.0063 23.7227 15.1983 23.904C15.4009 24.0853 15.6516 24.176 15.9503 24.176C16.2489 24.176 16.4996 24.0853 16.7023 23.904C16.9049 23.7227 17.0649 23.4667 17.1823 23.136C17.2996 22.8053 17.3849 22.4107 17.4383 21.952C17.4916 21.4933 17.5183 20.9867 17.5183 20.432ZM21.62 17.216C21.9293 17.088 22.2493 16.944 22.58 16.784C22.9213 16.6133 23.252 16.432 23.572 16.24C23.892 16.0373 24.196 15.8293 24.484 15.616C24.7827 15.392 25.0493 15.1573 25.284 14.912H26.948V26H24.564V18.016C24.244 18.2293 23.8867 18.4267 23.492 18.608C23.0973 18.7787 22.7133 18.928 22.34 19.056L21.62 17.216Z" fill="#222627"/>
</svg>
