<svg width="40" height="40" viewBox="0 0 40 40" fill="none" xmlns="http://www.w3.org/2000/svg">
<circle cx="20" cy="20" r="20" fill="#2BC8EB"/>
<path d="M19.9503 20.432C19.9503 22.2987 19.5929 23.7333 18.8783 24.736C18.1743 25.728 17.1983 26.224 15.9503 26.224C14.7023 26.224 13.7209 25.728 13.0063 24.736C12.3023 23.7333 11.9503 22.2987 11.9503 20.432C11.9503 19.504 12.0409 18.6827 12.2223 17.968C12.4143 17.2533 12.6863 16.6507 13.0383 16.16C13.3903 15.6693 13.8116 15.296 14.3023 15.04C14.7929 14.784 15.3423 14.656 15.9503 14.656C17.1983 14.656 18.1743 15.1573 18.8783 16.16C19.5929 17.152 19.9503 18.576 19.9503 20.432ZM17.5183 20.432C17.5183 19.8773 17.4916 19.376 17.4383 18.928C17.3849 18.4693 17.2996 18.0747 17.1823 17.744C17.0649 17.4133 16.9049 17.1573 16.7023 16.976C16.4996 16.7947 16.2489 16.704 15.9503 16.704C15.6516 16.704 15.4009 16.7947 15.1983 16.976C15.0063 17.1573 14.8463 17.4133 14.7183 17.744C14.6009 18.0747 14.5156 18.4693 14.4623 18.928C14.4089 19.376 14.3823 19.8773 14.3823 20.432C14.3823 20.9867 14.4089 21.4933 14.4623 21.952C14.5156 22.4107 14.6009 22.8053 14.7183 23.136C14.8463 23.4667 15.0063 23.7227 15.1983 23.904C15.4009 24.0853 15.6516 24.176 15.9503 24.176C16.2489 24.176 16.4996 24.0853 16.7023 23.904C16.9049 23.7227 17.0649 23.4667 17.1823 23.136C17.2996 22.8053 17.3849 22.4107 17.4383 21.952C17.4916 21.4933 17.5183 20.9867 17.5183 20.432ZM28.436 17.824C28.436 18.2293 28.356 18.6187 28.196 18.992C28.036 19.3653 27.828 19.728 27.572 20.08C27.316 20.4213 27.028 20.752 26.708 21.072C26.388 21.392 26.0733 21.696 25.764 21.984C25.604 22.1333 25.428 22.304 25.236 22.496C25.0547 22.6773 24.8787 22.864 24.708 23.056C24.5373 23.248 24.3827 23.4293 24.244 23.6C24.116 23.76 24.036 23.8933 24.004 24H28.772V26H21.38C21.3587 25.8827 21.348 25.7333 21.348 25.552C21.348 25.3707 21.348 25.2427 21.348 25.168C21.348 24.656 21.428 24.1867 21.588 23.76C21.7587 23.3333 21.9773 22.9387 22.244 22.576C22.5107 22.2027 22.8093 21.856 23.14 21.536C23.4813 21.216 23.8173 20.896 24.148 20.576C24.404 20.3307 24.644 20.1013 24.868 19.888C25.092 19.664 25.2893 19.4507 25.46 19.248C25.6307 19.0347 25.764 18.8267 25.86 18.624C25.956 18.4107 26.004 18.1973 26.004 17.984C26.004 17.5147 25.8707 17.184 25.604 16.992C25.3373 16.8 25.0067 16.704 24.612 16.704C24.324 16.704 24.052 16.752 23.796 16.848C23.5507 16.9333 23.3213 17.04 23.108 17.168C22.9053 17.2853 22.7293 17.408 22.58 17.536C22.4307 17.6533 22.3187 17.7493 22.244 17.824L21.06 16.16C21.5293 15.7227 22.0733 15.3653 22.692 15.088C23.3213 14.8 23.9933 14.656 24.708 14.656C25.3587 14.656 25.9187 14.7307 26.388 14.88C26.8573 15.0293 27.2413 15.2427 27.54 15.52C27.8493 15.7867 28.0733 16.1173 28.212 16.512C28.3613 16.896 28.436 17.3333 28.436 17.824Z" fill="#222627"/>
</svg>
