<svg width="40" height="40" viewBox="0 0 40 40" fill="none" xmlns="http://www.w3.org/2000/svg">
<circle cx="20" cy="20" r="20" fill="#2BC8EB"/>
<path d="M19.9503 20.432C19.9503 22.2987 19.5929 23.7333 18.8783 24.736C18.1743 25.728 17.1983 26.224 15.9503 26.224C14.7023 26.224 13.7209 25.728 13.0063 24.736C12.3023 23.7333 11.9503 22.2987 11.9503 20.432C11.9503 19.504 12.0409 18.6827 12.2223 17.968C12.4143 17.2533 12.6863 16.6507 13.0383 16.16C13.3903 15.6693 13.8116 15.296 14.3023 15.04C14.7929 14.784 15.3423 14.656 15.9503 14.656C17.1983 14.656 18.1743 15.1573 18.8783 16.16C19.5929 17.152 19.9503 18.576 19.9503 20.432ZM17.5183 20.432C17.5183 19.8773 17.4916 19.376 17.4383 18.928C17.3849 18.4693 17.2996 18.0747 17.1823 17.744C17.0649 17.4133 16.9049 17.1573 16.7023 16.976C16.4996 16.7947 16.2489 16.704 15.9503 16.704C15.6516 16.704 15.4009 16.7947 15.1983 16.976C15.0063 17.1573 14.8463 17.4133 14.7183 17.744C14.6009 18.0747 14.5156 18.4693 14.4623 18.928C14.4089 19.376 14.3823 19.8773 14.3823 20.432C14.3823 20.9867 14.4089 21.4933 14.4623 21.952C14.5156 22.4107 14.6009 22.8053 14.7183 23.136C14.8463 23.4667 15.0063 23.7227 15.1983 23.904C15.4009 24.0853 15.6516 24.176 15.9503 24.176C16.2489 24.176 16.4996 24.0853 16.7023 23.904C16.9049 23.7227 17.0649 23.4667 17.1823 23.136C17.2996 22.8053 17.3849 22.4107 17.4383 21.952C17.4916 21.4933 17.5183 20.9867 17.5183 20.432ZM24.148 26.24C23.86 26.24 23.556 26.2187 23.236 26.176C22.916 26.144 22.6067 26.096 22.308 26.032C22.0093 25.968 21.7373 25.8987 21.492 25.824C21.2467 25.7493 21.0547 25.68 20.916 25.616L21.38 23.632C21.6573 23.7493 22.0093 23.8773 22.436 24.016C22.8733 24.144 23.412 24.208 24.052 24.208C24.788 24.208 25.3267 24.0693 25.668 23.792C26.0093 23.5147 26.18 23.1413 26.18 22.672C26.18 22.384 26.116 22.144 25.988 21.952C25.8707 21.7493 25.7053 21.5893 25.492 21.472C25.2787 21.344 25.0227 21.2587 24.724 21.216C24.436 21.1627 24.1267 21.136 23.796 21.136H22.868V19.216H23.924C24.1587 19.216 24.3827 19.1947 24.596 19.152C24.82 19.1093 25.0173 19.04 25.188 18.944C25.3587 18.8373 25.492 18.6987 25.588 18.528C25.6947 18.3467 25.748 18.1227 25.748 17.856C25.748 17.6533 25.7053 17.4773 25.62 17.328C25.5347 17.1787 25.4227 17.056 25.284 16.96C25.156 16.864 25.0013 16.7947 24.82 16.752C24.6493 16.6987 24.4733 16.672 24.292 16.672C23.8333 16.672 23.4067 16.7413 23.012 16.88C22.628 17.0187 22.276 17.1893 21.956 17.392L21.108 15.648C21.2787 15.5413 21.476 15.4293 21.7 15.312C21.9347 15.1947 22.1907 15.088 22.468 14.992C22.7453 14.896 23.0387 14.816 23.348 14.752C23.668 14.688 24.004 14.656 24.356 14.656C25.0067 14.656 25.5667 14.736 26.036 14.896C26.516 15.0453 26.9107 15.264 27.22 15.552C27.5293 15.8293 27.7587 16.16 27.908 16.544C28.0573 16.9173 28.132 17.328 28.132 17.776C28.132 18.2133 28.0093 18.64 27.764 19.056C27.5187 19.4613 27.188 19.7707 26.772 19.984C27.348 20.2187 27.7907 20.5707 28.1 21.04C28.42 21.4987 28.58 22.0533 28.58 22.704C28.58 23.216 28.4947 23.6907 28.324 24.128C28.1533 24.5547 27.8867 24.928 27.524 25.248C27.1613 25.5573 26.6973 25.8027 26.132 25.984C25.5773 26.1547 24.916 26.24 24.148 26.24Z" fill="#222627"/>
</svg>
