<svg width="18" height="19" viewBox="0 0 18 19" fill="none" xmlns="http://www.w3.org/2000/svg">
<path d="M9.85938 17.8984C9.39062 18.4062 8.57031 18.4062 8.10156 17.8984L0.601562 10.3984C0.09375 9.92969 0.09375 9.10938 0.601562 8.64062C1.07031 8.13281 1.89062 8.13281 2.35938 8.64062L9 15.2422L15.6016 8.64062C16.0703 8.13281 16.8906 8.13281 17.3594 8.64062C17.8672 9.10938 17.8672 9.92969 17.3594 10.3984L9.85938 17.8984ZM17.3594 2.89844L9.85938 10.3984C9.39062 10.9062 8.57031 10.9062 8.10156 10.3984L0.601562 2.89844C0.09375 2.42969 0.09375 1.60938 0.601562 1.14062C1.07031 0.632812 1.89062 0.632812 2.35938 1.14062L9 7.74219L15.6016 1.14062C16.0703 0.632812 16.8906 0.632812 17.3594 1.14062C17.8672 1.60938 17.8672 2.42969 17.3594 2.89844Z" fill="#222627"/>
</svg>
